<svg width="48" height="48" viewBox="0 0 48 48" fill="none" xmlns="http://www.w3.org/2000/svg">
<circle cx="24" cy="24" r="23" fill="white" stroke="#D2D4D4" stroke-width="2"/>
<path d="M27.7105 24.7099C28.6909 23.9385 29.4065 22.8808 29.7577 21.6838C30.109 20.4868 30.0784 19.2101 29.6703 18.0313C29.2621 16.8526 28.4967 15.8303 27.4806 15.1067C26.4644 14.3832 25.2479 13.9944 24.0005 13.9944C22.753 13.9944 21.5366 14.3832 20.5204 15.1067C19.5042 15.8303 18.7388 16.8526 18.3307 18.0313C17.9226 19.2101 17.892 20.4868 18.2432 21.6838C18.5945 22.8808 19.3101 23.9385 20.2905 24.7099C18.6106 25.3829 17.1448 26.4992 16.0494 27.9398C14.954 29.3804 14.27 31.0912 14.0705 32.8899C14.056 33.0212 14.0676 33.1541 14.1045 33.2809C14.1414 33.4078 14.203 33.5261 14.2856 33.6292C14.4525 33.8374 14.6953 33.9707 14.9605 33.9999C15.2257 34.0291 15.4916 33.9517 15.6998 33.7848C15.908 33.6179 16.0413 33.3751 16.0705 33.1099C16.2901 31.1551 17.2222 29.3497 18.6887 28.0387C20.1552 26.7277 22.0534 26.0029 24.0205 26.0029C25.9876 26.0029 27.8857 26.7277 29.3523 28.0387C30.8188 29.3497 31.7509 31.1551 31.9705 33.1099C31.9977 33.3556 32.1149 33.5825 32.2996 33.7469C32.4843 33.9113 32.7233 34.0014 32.9705 33.9999H33.0805C33.3426 33.9697 33.5822 33.8372 33.747 33.6311C33.9119 33.4251 33.9886 33.1622 33.9605 32.8999C33.76 31.0961 33.0724 29.3809 31.9713 27.9381C30.8703 26.4953 29.3974 25.3794 27.7105 24.7099V24.7099ZM24.0005 23.9999C23.2094 23.9999 22.436 23.7653 21.7782 23.3258C21.1204 22.8862 20.6077 22.2615 20.305 21.5306C20.0022 20.7997 19.923 19.9954 20.0773 19.2195C20.2317 18.4436 20.6126 17.7309 21.1721 17.1715C21.7315 16.612 22.4442 16.2311 23.2201 16.0767C23.996 15.9224 24.8003 16.0016 25.5312 16.3044C26.2621 16.6071 26.8868 17.1198 27.3264 17.7776C27.7659 18.4354 28.0005 19.2088 28.0005 19.9999C28.0005 21.0607 27.5791 22.0782 26.8289 22.8283C26.0788 23.5785 25.0614 23.9999 24.0005 23.9999Z" fill="#D2D4D4"/>
</svg>
