<svg width="118" height="117" viewBox="0 0 118 117" fill="none" xmlns="http://www.w3.org/2000/svg">
<path d="M75.3918 60.1332C79.0841 56.1679 81.1642 50.9677 81.2251 45.5498C81.2251 39.7018 78.902 34.0933 74.7668 29.9581C70.6316 25.823 65.0231 23.4998 59.1751 23.4998C53.3271 23.4998 47.7186 25.823 43.5834 29.9581C39.4482 34.0933 37.1251 39.7018 37.1251 45.5498C37.186 50.9677 39.266 56.1679 42.9584 60.1332C37.8172 62.6933 33.393 66.4911 30.0838 71.1852C26.7745 75.8793 24.6839 81.3224 24.0001 87.0248C23.8299 88.5719 24.2813 90.1233 25.2549 91.3376C26.2285 92.5519 27.6447 93.3297 29.1917 93.4998C30.7388 93.67 32.2902 93.2187 33.5045 92.245C34.7188 91.2714 35.4966 89.8553 35.6668 88.3082C36.3629 82.6565 39.1017 77.4544 43.3673 73.682C47.6328 69.9096 53.1307 67.8272 58.8251 67.8272C64.5195 67.8272 70.0173 69.9096 74.2829 73.682C78.5485 77.4544 81.2873 82.6565 81.9834 88.3082C82.1457 89.8039 82.8795 91.1792 84.0318 92.1466C85.184 93.1141 86.6655 93.5989 88.1668 93.4998H88.8084C90.3376 93.3239 91.7352 92.5507 92.6967 91.3488C93.6582 90.1469 94.1058 88.6136 93.9418 87.0832C93.3086 81.4107 91.284 75.9825 88.0478 71.2809C84.8117 66.5794 80.4642 62.75 75.3918 60.1332ZM59.0001 55.9332C56.9465 55.9332 54.9389 55.3242 53.2314 54.1833C51.5239 53.0423 50.193 51.4207 49.4071 49.5234C48.6212 47.6261 48.4156 45.5383 48.8163 43.5242C49.2169 41.51 50.2058 39.6599 51.658 38.2077C53.1101 36.7556 54.9602 35.7667 56.9744 35.366C58.9886 34.9654 61.0763 35.171 62.9736 35.9569C64.8709 36.7428 66.4926 38.0736 67.6335 39.7812C68.7745 41.4887 69.3834 43.4962 69.3834 45.5498C69.3834 48.3037 68.2895 50.9447 66.3422 52.892C64.395 54.8392 61.7539 55.9332 59.0001 55.9332ZM99.8334 0.166504H18.1667C13.5255 0.166504 9.07427 2.01025 5.79238 5.29214C2.51049 8.57402 0.666748 13.0252 0.666748 17.6665V99.3332C0.666748 103.974 2.51049 108.426 5.79238 111.708C9.07427 114.989 13.5255 116.833 18.1667 116.833H99.8334C104.475 116.833 108.926 114.989 112.208 111.708C115.49 108.426 117.333 103.974 117.333 99.3332V17.6665C117.333 13.0252 115.49 8.57402 112.208 5.29214C108.926 2.01025 104.475 0.166504 99.8334 0.166504ZM105.667 99.3332C105.667 100.88 105.052 102.364 103.958 103.458C102.864 104.552 101.381 105.167 99.8334 105.167H18.1667C16.6197 105.167 15.1359 104.552 14.042 103.458C12.948 102.364 12.3334 100.88 12.3334 99.3332V17.6665C12.3334 16.1194 12.948 14.6357 14.042 13.5417C15.1359 12.4478 16.6197 11.8332 18.1667 11.8332H99.8334C101.381 11.8332 102.864 12.4478 103.958 13.5417C105.052 14.6357 105.667 16.1194 105.667 17.6665V99.3332Z" fill="#EFF1F1"/>
</svg>
