<svg width="151" height="151" viewBox="0 0 151 151" fill="none" xmlns="http://www.w3.org/2000/svg">
<path d="M143.833 109.667H7.16683C5.35452 109.667 3.61643 110.387 2.33493 111.668C1.05343 112.95 0.333496 114.688 0.333496 116.5C0.333496 118.312 1.05343 120.051 2.33493 121.332C3.61643 122.614 5.35452 123.333 7.16683 123.333H143.833C145.646 123.333 147.384 122.614 148.665 121.332C149.947 120.051 150.667 118.312 150.667 116.5C150.667 114.688 149.947 112.95 148.665 111.668C147.384 110.387 145.646 109.667 143.833 109.667ZM143.833 137H7.16683C5.35452 137 3.61643 137.72 2.33493 139.002C1.05343 140.283 0.333496 142.021 0.333496 143.833C0.333496 145.646 1.05343 147.384 2.33493 148.665C3.61643 149.947 5.35452 150.667 7.16683 150.667H143.833C145.646 150.667 147.384 149.947 148.665 148.665C149.947 147.384 150.667 145.646 150.667 143.833C150.667 142.021 149.947 140.283 148.665 139.002C147.384 137.72 145.646 137 143.833 137ZM34.5002 41.3335C33.1487 41.3335 31.8275 41.7343 30.7038 42.4851C29.58 43.236 28.7042 44.3032 28.187 45.5518C27.6698 46.8005 27.5345 48.1744 27.7981 49.4999C28.0618 50.8255 28.7126 52.0431 29.6683 52.9987C30.6239 53.9544 31.8415 54.6052 33.167 54.8689C34.4926 55.1325 35.8665 54.9972 37.1152 54.48C38.3638 53.9628 39.431 53.087 40.1819 51.9632C40.9327 50.8395 41.3335 49.5183 41.3335 48.1668C41.3335 46.3545 40.6136 44.6164 39.3321 43.3349C38.0506 42.0534 36.3125 41.3335 34.5002 41.3335ZM130.167 0.333496H20.8335C15.3966 0.333496 10.1823 2.49331 6.33781 6.33781C2.49331 10.1823 0.333496 15.3966 0.333496 20.8335V75.5002C0.333496 80.9371 2.49331 86.1514 6.33781 89.9958C10.1823 93.8403 15.3966 96.0002 20.8335 96.0002H130.167C135.604 96.0002 140.818 93.8403 144.663 89.9958C148.507 86.1514 150.667 80.9371 150.667 75.5002V20.8335C150.667 15.3966 148.507 10.1823 144.663 6.33781C140.818 2.49331 135.604 0.333496 130.167 0.333496ZM137 75.5002C137 77.3125 136.28 79.0506 134.999 80.3321C133.717 81.6136 131.979 82.3335 130.167 82.3335H20.8335C19.0212 82.3335 17.2831 81.6136 16.0016 80.3321C14.7201 79.0506 14.0002 77.3125 14.0002 75.5002V20.8335C14.0002 19.0212 14.7201 17.2831 16.0016 16.0016C17.2831 14.7201 19.0212 14.0002 20.8335 14.0002H130.167C131.979 14.0002 133.717 14.7201 134.999 16.0016C136.28 17.2831 137 19.0212 137 20.8335V75.5002ZM75.5002 27.6668C71.4456 27.6668 67.4822 28.8691 64.111 31.1217C60.7398 33.3743 58.1122 36.5759 56.5606 40.3218C55.009 44.0677 54.6031 48.1896 55.3941 52.1662C56.1851 56.1428 58.1375 59.7955 61.0045 62.6625C63.8714 65.5295 67.5242 67.4819 71.5008 68.2729C75.4774 69.0639 79.5993 68.658 83.3452 67.1064C87.0911 65.5548 90.2927 62.9272 92.5453 59.556C94.7979 56.1848 96.0002 52.2213 96.0002 48.1668C96.0002 42.7299 93.8403 37.5156 89.9958 33.6711C86.1514 29.8266 80.9371 27.6668 75.5002 27.6668ZM75.5002 55.0002C74.1487 55.0002 72.8275 54.5994 71.7038 53.8485C70.58 53.0977 69.7042 52.0305 69.187 50.7818C68.6698 49.5332 68.5345 48.1592 68.7981 46.8337C69.0618 45.5082 69.7126 44.2906 70.6683 43.3349C71.6239 42.3793 72.8415 41.7285 74.167 41.4648C75.4926 41.2011 76.8665 41.3365 78.1152 41.8536C79.3638 42.3708 80.431 43.2467 81.1819 44.3704C81.9327 45.4942 82.3335 46.8153 82.3335 48.1668C82.3335 49.9791 81.6136 51.7172 80.3321 52.9987C79.0506 54.2802 77.3125 55.0002 75.5002 55.0002ZM116.5 41.3335C115.149 41.3335 113.827 41.7343 112.704 42.4851C111.58 43.236 110.704 44.3032 110.187 45.5518C109.67 46.8005 109.534 48.1744 109.798 49.4999C110.062 50.8255 110.713 52.0431 111.668 52.9987C112.624 53.9544 113.841 54.6052 115.167 54.8689C116.493 55.1325 117.867 54.9972 119.115 54.48C120.364 53.9628 121.431 53.087 122.182 51.9632C122.933 50.8395 123.333 49.5183 123.333 48.1668C123.333 46.3545 122.614 44.6164 121.332 43.3349C120.051 42.0534 118.312 41.3335 116.5 41.3335Z" fill="#EFF1F1"/>
</svg>
