<svg width="16" height="16" viewBox="0 0 16 16" fill="none" xmlns="http://www.w3.org/2000/svg">
<path d="M7.33333 5.99996H9.99999C10.1768 5.99996 10.3464 5.92972 10.4714 5.8047C10.5964 5.67967 10.6667 5.5101 10.6667 5.33329C10.6667 5.15648 10.5964 4.98691 10.4714 4.86189C10.3464 4.73686 10.1768 4.66663 9.99999 4.66663H8.66666V3.99996C8.66666 3.82315 8.59642 3.65358 8.4714 3.52855C8.34637 3.40353 8.1768 3.33329 7.99999 3.33329C7.82318 3.33329 7.65361 3.40353 7.52859 3.52855C7.40356 3.65358 7.33333 3.82315 7.33333 3.99996V4.66663C6.80289 4.66663 6.29419 4.87734 5.91911 5.25241C5.54404 5.62748 5.33333 6.13619 5.33333 6.66663C5.33333 7.19706 5.54404 7.70577 5.91911 8.08084C6.29419 8.45591 6.80289 8.66663 7.33333 8.66663H8.66666C8.84347 8.66663 9.01304 8.73686 9.13806 8.86189C9.26309 8.98691 9.33333 9.15648 9.33333 9.33329C9.33333 9.5101 9.26309 9.67967 9.13806 9.8047C9.01304 9.92972 8.84347 9.99996 8.66666 9.99996H5.99999C5.82318 9.99996 5.65361 10.0702 5.52859 10.1952C5.40356 10.3202 5.33333 10.4898 5.33333 10.6666C5.33333 10.8434 5.40356 11.013 5.52859 11.138C5.65361 11.2631 5.82318 11.3333 5.99999 11.3333H7.33333V12C7.33333 12.1768 7.40356 12.3463 7.52859 12.4714C7.65361 12.5964 7.82318 12.6666 7.99999 12.6666C8.1768 12.6666 8.34637 12.5964 8.4714 12.4714C8.59642 12.3463 8.66666 12.1768 8.66666 12V11.3333C9.19709 11.3333 9.7058 11.1226 10.0809 10.7475C10.4559 10.3724 10.6667 9.86372 10.6667 9.33329C10.6667 8.80286 10.4559 8.29415 10.0809 7.91908C9.7058 7.54401 9.19709 7.33329 8.66666 7.33329H7.33333C7.15652 7.33329 6.98695 7.26305 6.86192 7.13803C6.7369 7.01301 6.66666 6.84344 6.66666 6.66663C6.66666 6.48981 6.7369 6.32025 6.86192 6.19522C6.98695 6.0702 7.15652 5.99996 7.33333 5.99996ZM7.99999 0.666626C6.5496 0.666626 5.13177 1.09672 3.92581 1.90252C2.71985 2.70831 1.77992 3.85362 1.22488 5.19361C0.669834 6.53361 0.524609 8.00809 0.807568 9.43062C1.09053 10.8531 1.78896 12.1598 2.81454 13.1854C3.84013 14.211 5.1468 14.9094 6.56933 15.1924C7.99186 15.4753 9.46635 15.3301 10.8063 14.7751C12.1463 14.22 13.2916 13.2801 14.0974 12.0741C14.9032 10.8682 15.3333 9.45036 15.3333 7.99996C15.3333 6.05504 14.5607 4.18978 13.1854 2.81451C11.8102 1.43924 9.94491 0.666626 7.99999 0.666626ZM7.99999 14C6.81331 14 5.65327 13.6481 4.66657 12.9888C3.67988 12.3295 2.91084 11.3924 2.45672 10.2961C2.00259 9.1997 1.88377 7.9933 2.11528 6.82942C2.34679 5.66553 2.91824 4.59643 3.75735 3.75732C4.59647 2.9182 5.66557 2.34676 6.82945 2.11525C7.99334 1.88374 9.19974 2.00256 10.2961 2.45668C11.3925 2.91081 12.3295 3.67984 12.9888 4.66654C13.6481 5.65323 14 6.81327 14 7.99996C14 9.59126 13.3679 11.1174 12.2426 12.2426C11.1174 13.3678 9.59129 14 7.99999 14Z" fill="#D2D4D4"/>
</svg>
