<svg width="14" height="14" viewBox="0 0 14 14" fill="none" xmlns="http://www.w3.org/2000/svg">
<path d="M13.0007 7.00012C12.8238 7.00012 12.6543 7.07036 12.5292 7.19538C12.4042 7.32041 12.334 7.48998 12.334 7.66679V11.6668C12.334 11.8436 12.2637 12.0132 12.1387 12.1382C12.0137 12.2632 11.8441 12.3335 11.6673 12.3335H2.33398C2.15717 12.3335 1.9876 12.2632 1.86258 12.1382C1.73756 12.0132 1.66732 11.8436 1.66732 11.6668V2.33346C1.66732 2.15664 1.73756 1.98708 1.86258 1.86205C1.9876 1.73703 2.15717 1.66679 2.33398 1.66679H6.33398C6.5108 1.66679 6.68036 1.59655 6.80539 1.47153C6.93041 1.3465 7.00065 1.17693 7.00065 1.00012C7.00065 0.823311 6.93041 0.653742 6.80539 0.528718C6.68036 0.403693 6.5108 0.333455 6.33398 0.333455H2.33398C1.80355 0.333455 1.29484 0.544169 0.919771 0.919242C0.544698 1.29431 0.333984 1.80302 0.333984 2.33346V11.6668C0.333984 12.1972 0.544698 12.7059 0.919771 13.081C1.29484 13.4561 1.80355 13.6668 2.33398 13.6668H11.6673C12.1978 13.6668 12.7065 13.4561 13.0815 13.081C13.4566 12.7059 13.6673 12.1972 13.6673 11.6668V7.66679C13.6673 7.48998 13.5971 7.32041 13.4721 7.19538C13.347 7.07036 13.1775 7.00012 13.0007 7.00012ZM3.00065 7.50679V10.3335C3.00065 10.5103 3.07089 10.6798 3.19591 10.8049C3.32094 10.9299 3.49051 11.0001 3.66732 11.0001H6.49398C6.58172 11.0006 6.6687 10.9838 6.74992 10.9506C6.83115 10.9175 6.90502 10.8686 6.96732 10.8068L11.5807 6.18679L13.474 4.33346C13.5365 4.27148 13.5861 4.19775 13.6199 4.11651C13.6538 4.03527 13.6712 3.94813 13.6712 3.86012C13.6712 3.77211 13.6538 3.68498 13.6199 3.60374C13.5861 3.5225 13.5365 3.44876 13.474 3.38679L10.6473 0.526789C10.5853 0.464303 10.5116 0.414707 10.4304 0.380861C10.3491 0.347015 10.262 0.32959 10.174 0.32959C10.086 0.32959 9.99884 0.347015 9.9176 0.380861C9.83636 0.414707 9.76263 0.464303 9.70065 0.526789L7.82065 2.41346L3.19398 7.03346C3.1322 7.09575 3.08331 7.16963 3.05014 7.25085C3.01696 7.33208 3.00014 7.41905 3.00065 7.50679ZM10.174 1.94012L12.0607 3.82679L11.114 4.77346L9.22732 2.88679L10.174 1.94012ZM4.33398 7.78012L8.28732 3.82679L10.174 5.71346L6.22065 9.66679H4.33398V7.78012Z" fill="#D2D4D4"/>
</svg>
