<svg width="14" height="14" viewBox="0 0 14 14" fill="none" xmlns="http://www.w3.org/2000/svg">
<path d="M11.6666 1.66671H10.3333V1.00004C10.3333 0.82323 10.263 0.65366 10.138 0.528636C10.013 0.403612 9.8434 0.333374 9.66659 0.333374C9.48977 0.333374 9.32021 0.403612 9.19518 0.528636C9.07016 0.65366 8.99992 0.82323 8.99992 1.00004V1.66671H4.99992V1.00004C4.99992 0.82323 4.92968 0.65366 4.80466 0.528636C4.67963 0.403612 4.51006 0.333374 4.33325 0.333374C4.15644 0.333374 3.98687 0.403612 3.86185 0.528636C3.73682 0.65366 3.66659 0.82323 3.66659 1.00004V1.66671H2.33325C1.80282 1.66671 1.29411 1.87742 0.919038 2.25249C0.543966 2.62757 0.333252 3.13627 0.333252 3.66671V11.6667C0.333252 12.1971 0.543966 12.7058 0.919038 13.0809C1.29411 13.456 1.80282 13.6667 2.33325 13.6667H11.6666C12.197 13.6667 12.7057 13.456 13.0808 13.0809C13.4559 12.7058 13.6666 12.1971 13.6666 11.6667V3.66671C13.6666 3.13627 13.4559 2.62757 13.0808 2.25249C12.7057 1.87742 12.197 1.66671 11.6666 1.66671ZM12.3333 11.6667C12.3333 11.8435 12.263 12.0131 12.138 12.1381C12.013 12.2631 11.8434 12.3334 11.6666 12.3334H2.33325C2.15644 12.3334 1.98687 12.2631 1.86185 12.1381C1.73682 12.0131 1.66659 11.8435 1.66659 11.6667V7.00004H12.3333V11.6667ZM12.3333 5.66671H1.66659V3.66671C1.66659 3.4899 1.73682 3.32033 1.86185 3.1953C1.98687 3.07028 2.15644 3.00004 2.33325 3.00004H3.66659V3.66671C3.66659 3.84352 3.73682 4.01309 3.86185 4.13811C3.98687 4.26314 4.15644 4.33337 4.33325 4.33337C4.51006 4.33337 4.67963 4.26314 4.80466 4.13811C4.92968 4.01309 4.99992 3.84352 4.99992 3.66671V3.00004H8.99992V3.66671C8.99992 3.84352 9.07016 4.01309 9.19518 4.13811C9.32021 4.26314 9.48977 4.33337 9.66659 4.33337C9.8434 4.33337 10.013 4.26314 10.138 4.13811C10.263 4.01309 10.3333 3.84352 10.3333 3.66671V3.00004H11.6666C11.8434 3.00004 12.013 3.07028 12.138 3.1953C12.263 3.32033 12.3333 3.4899 12.3333 3.66671V5.66671Z" fill="#D2D4D4"/>
</svg>
