<svg width="20" height="20" viewBox="0 0 20 20" fill="none" xmlns="http://www.w3.org/2000/svg">
<path d="M4.58331 6.66665H4.99998V7.08331C4.99998 7.30433 5.08778 7.51629 5.24406 7.67257C5.40034 7.82885 5.6123 7.91665 5.83331 7.91665C6.05433 7.91665 6.26629 7.82885 6.42257 7.67257C6.57885 7.51629 6.66665 7.30433 6.66665 7.08331V6.66665H7.08331C7.30433 6.66665 7.51629 6.57885 7.67257 6.42257C7.82885 6.26629 7.91665 6.05433 7.91665 5.83331C7.91665 5.6123 7.82885 5.40034 7.67257 5.24406C7.51629 5.08778 7.30433 4.99998 7.08331 4.99998H6.66665V4.58331C6.66665 4.3623 6.57885 4.15034 6.42257 3.99406C6.26629 3.83778 6.05433 3.74998 5.83331 3.74998C5.6123 3.74998 5.40034 3.83778 5.24406 3.99406C5.08778 4.15034 4.99998 4.3623 4.99998 4.58331V4.99998H4.58331C4.3623 4.99998 4.15034 5.08778 3.99406 5.24406C3.83778 5.40034 3.74998 5.6123 3.74998 5.83331C3.74998 6.05433 3.83778 6.26629 3.99406 6.42257C4.15034 6.57885 4.3623 6.66665 4.58331 6.66665ZM4.06665 15.9333C4.22278 16.0885 4.43399 16.1756 4.65415 16.1756C4.8743 16.1756 5.08551 16.0885 5.24165 15.9333L5.83331 15.3416L6.42498 15.9333C6.58111 16.0885 6.79232 16.1756 7.01248 16.1756C7.23263 16.1756 7.44384 16.0885 7.59998 15.9333C7.75519 15.7772 7.84231 15.566 7.84231 15.3458C7.84231 15.1257 7.75519 14.9144 7.59998 14.7583L7.00831 14.1666L7.59998 13.575C7.7365 13.4156 7.80784 13.2105 7.79974 13.0008C7.79164 12.791 7.70469 12.5921 7.55628 12.4437C7.40787 12.2953 7.20892 12.2083 6.99919 12.2002C6.78946 12.1921 6.5844 12.2635 6.42498 12.4L5.83331 12.9916L5.24165 12.4C5.08223 12.2635 4.87716 12.1921 4.66743 12.2002C4.45771 12.2083 4.25876 12.2953 4.11034 12.4437C3.96193 12.5921 3.87499 12.791 3.86689 13.0008C3.85879 13.2105 3.93012 13.4156 4.06665 13.575L4.65831 14.1666L4.06665 14.7583C3.91144 14.9144 3.82432 15.1257 3.82432 15.3458C3.82432 15.566 3.91144 15.7772 4.06665 15.9333ZM16.6666 0.833313H3.33331C2.67027 0.833313 2.03439 1.09671 1.56555 1.56555C1.09671 2.03439 0.833313 2.67027 0.833313 3.33331V16.6666C0.833313 17.3297 1.09671 17.9656 1.56555 18.4344C2.03439 18.9033 2.67027 19.1666 3.33331 19.1666H16.6666C17.3297 19.1666 17.9656 18.9033 18.4344 18.4344C18.9033 17.9656 19.1666 17.3297 19.1666 16.6666V3.33331C19.1666 2.67027 18.9033 2.03439 18.4344 1.56555C17.9656 1.09671 17.3297 0.833313 16.6666 0.833313ZM9.16665 17.5H3.33331C3.1123 17.5 2.90034 17.4122 2.74406 17.2559C2.58778 17.0996 2.49998 16.8877 2.49998 16.6666V10.8333H9.16665V17.5ZM9.16665 9.16665H2.49998V3.33331C2.49998 3.1123 2.58778 2.90034 2.74406 2.74406C2.90034 2.58778 3.1123 2.49998 3.33331 2.49998H9.16665V9.16665ZM17.5 16.6666C17.5 16.8877 17.4122 17.0996 17.2559 17.2559C17.0996 17.4122 16.8877 17.5 16.6666 17.5H10.8333V10.8333H17.5V16.6666ZM17.5 9.16665H10.8333V2.49998H16.6666C16.8877 2.49998 17.0996 2.58778 17.2559 2.74406C17.4122 2.90034 17.5 3.1123 17.5 3.33331V9.16665ZM12.9166 13.75H15.4166C15.6377 13.75 15.8496 13.6622 16.0059 13.5059C16.1622 13.3496 16.25 13.1377 16.25 12.9166C16.25 12.6956 16.1622 12.4837 16.0059 12.3274C15.8496 12.1711 15.6377 12.0833 15.4166 12.0833H12.9166C12.6956 12.0833 12.4837 12.1711 12.3274 12.3274C12.1711 12.4837 12.0833 12.6956 12.0833 12.9166C12.0833 13.1377 12.1711 13.3496 12.3274 13.5059C12.4837 13.6622 12.6956 13.75 12.9166 13.75ZM15.4166 4.99998H12.9166C12.6956 4.99998 12.4837 5.08778 12.3274 5.24406C12.1711 5.40034 12.0833 5.6123 12.0833 5.83331C12.0833 6.05433 12.1711 6.26629 12.3274 6.42257C12.4837 6.57885 12.6956 6.66665 12.9166 6.66665H15.4166C15.6377 6.66665 15.8496 6.57885 16.0059 6.42257C16.1622 6.26629 16.25 6.05433 16.25 5.83331C16.25 5.6123 16.1622 5.40034 16.0059 5.24406C15.8496 5.08778 15.6377 4.99998 15.4166 4.99998ZM12.9166 16.25H15.4166C15.6377 16.25 15.8496 16.1622 16.0059 16.0059C16.1622 15.8496 16.25 15.6377 16.25 15.4166C16.25 15.1956 16.1622 14.9837 16.0059 14.8274C15.8496 14.6711 15.6377 14.5833 15.4166 14.5833H12.9166C12.6956 14.5833 12.4837 14.6711 12.3274 14.8274C12.1711 14.9837 12.0833 15.1956 12.0833 15.4166C12.0833 15.6377 12.1711 15.8496 12.3274 16.0059C12.4837 16.1622 12.6956 16.25 12.9166 16.25Z" fill="#1FC780"/>
</svg>
