<svg width="12" height="12" viewBox="0 0 12 12" fill="none" xmlns="http://www.w3.org/2000/svg">
<path d="M6.9398 5.99988L11.1398 1.80655C11.2653 1.68101 11.3359 1.51075 11.3359 1.33321C11.3359 1.15568 11.2653 0.985415 11.1398 0.859879C11.0143 0.734344 10.844 0.663818 10.6665 0.663818C10.4889 0.663818 10.3187 0.734344 10.1931 0.859879L5.9998 5.05988L1.80646 0.859879C1.68093 0.734344 1.51066 0.663819 1.33313 0.663819C1.1556 0.663819 0.985332 0.734344 0.859797 0.859879C0.734261 0.985415 0.663736 1.15568 0.663736 1.33321C0.663736 1.51075 0.734261 1.68101 0.859797 1.80655L5.0598 5.99988L0.859797 10.1932C0.797311 10.2552 0.747715 10.3289 0.713869 10.4102C0.680023 10.4914 0.662598 10.5785 0.662598 10.6665C0.662598 10.7546 0.680023 10.8417 0.713869 10.9229C0.747715 11.0042 0.797311 11.0779 0.859797 11.1399C0.921772 11.2024 0.995506 11.252 1.07675 11.2858C1.15798 11.3197 1.24512 11.3371 1.33313 11.3371C1.42114 11.3371 1.50827 11.3197 1.58951 11.2858C1.67075 11.252 1.74449 11.2024 1.80646 11.1399L5.9998 6.93988L10.1931 11.1399C10.2551 11.2024 10.3288 11.252 10.4101 11.2858C10.4913 11.3197 10.5785 11.3371 10.6665 11.3371C10.7545 11.3371 10.8416 11.3197 10.9228 11.2858C11.0041 11.252 11.0778 11.2024 11.1398 11.1399C11.2023 11.0779 11.2519 11.0042 11.2857 10.9229C11.3196 10.8417 11.337 10.7546 11.337 10.6665C11.337 10.5785 11.3196 10.4914 11.2857 10.4102C11.2519 10.3289 11.2023 10.2552 11.1398 10.1932L6.9398 5.99988Z" fill="#B3B8C2"/>
</svg>
