<svg width="12" height="12" viewBox="0 0 12 12" fill="none" xmlns="http://www.w3.org/2000/svg">
<path d="M8.16415 3.83606C8.10992 3.78139 8.04541 3.73799 7.97432 3.70838C7.90324 3.67876 7.82699 3.66351 7.74998 3.66351C7.67298 3.66351 7.59673 3.67876 7.52565 3.70838C7.45456 3.73799 7.39005 3.78139 7.33582 3.83606L5.99998 5.17773L4.66415 3.83606C4.55431 3.72622 4.40533 3.66451 4.24998 3.66451C4.09464 3.66451 3.94566 3.72622 3.83582 3.83606C3.72597 3.94591 3.66426 4.09489 3.66426 4.25023C3.66426 4.40557 3.72597 4.55455 3.83582 4.6644L5.17749 6.00023L3.83582 7.33606C3.78114 7.39029 3.73775 7.45481 3.70813 7.52589C3.67852 7.59698 3.66327 7.67322 3.66327 7.75023C3.66327 7.82724 3.67852 7.90348 3.70813 7.97457C3.73775 8.04565 3.78114 8.11017 3.83582 8.1644C3.89005 8.21907 3.95456 8.26247 4.02565 8.29208C4.09673 8.3217 4.17298 8.33695 4.24998 8.33695C4.32699 8.33695 4.40324 8.3217 4.47432 8.29208C4.54541 8.26247 4.60992 8.21907 4.66415 8.1644L5.99998 6.82273L7.33582 8.1644C7.39005 8.21907 7.45456 8.26247 7.52565 8.29208C7.59673 8.3217 7.67298 8.33695 7.74998 8.33695C7.82699 8.33695 7.90324 8.3217 7.97432 8.29208C8.04541 8.26247 8.10992 8.21907 8.16415 8.1644C8.21883 8.11017 8.26222 8.04565 8.29184 7.97457C8.32145 7.90348 8.3367 7.82724 8.3367 7.75023C8.3367 7.67322 8.32145 7.59698 8.29184 7.52589C8.26222 7.45481 8.21883 7.39029 8.16415 7.33606L6.82248 6.00023L8.16415 4.6644C8.21883 4.61017 8.26222 4.54565 8.29184 4.47457C8.32145 4.40348 8.3367 4.32724 8.3367 4.25023C8.3367 4.17322 8.32145 4.09698 8.29184 4.02589C8.26222 3.95481 8.21883 3.89029 8.16415 3.83606V3.83606ZM10.1242 1.87606C9.58605 1.31892 8.94237 0.874524 8.23068 0.568805C7.51899 0.263085 6.75354 0.102166 5.97899 0.0954351C5.20445 0.0887045 4.43632 0.236298 3.71942 0.529603C3.00252 0.822908 2.35122 1.25605 1.80351 1.80376C1.25581 2.35147 0.822664 3.00277 0.529359 3.71966C0.236054 4.43656 0.0884604 5.20469 0.095191 5.97924C0.101922 6.75378 0.262841 7.51923 0.56856 8.23092C0.87428 8.94261 1.31868 9.58629 1.87582 10.1244C2.41392 10.6815 3.0576 11.1259 3.76929 11.4317C4.48098 11.7374 5.24643 11.8983 6.02098 11.905C6.79552 11.9118 7.56365 11.7642 8.28055 11.4709C8.99745 11.1776 9.64875 10.7444 10.1965 10.1967C10.7442 9.64899 11.1773 8.99769 11.4706 8.28079C11.7639 7.5639 11.9115 6.79577 11.9048 6.02122C11.898 5.24668 11.7371 4.48123 11.4314 3.76954C11.1257 3.05785 10.6813 2.41417 10.1242 1.87606V1.87606ZM9.30165 9.3019C8.53868 10.0657 7.53447 10.5414 6.46011 10.6478C5.38576 10.7543 4.30774 10.4849 3.40971 9.88568C2.51167 9.28643 1.84919 8.39435 1.53514 7.36143C1.22108 6.32851 1.27487 5.21865 1.68735 4.22094C2.09983 3.22323 2.84548 2.3994 3.79725 1.88981C4.74903 1.38022 5.84805 1.21639 6.90707 1.42624C7.96609 1.63609 8.9196 2.20663 9.60513 3.04067C10.2907 3.8747 10.6658 4.92062 10.6667 6.00023C10.6687 6.61348 10.5492 7.22106 10.3149 7.78779C10.0806 8.35452 9.73618 8.86915 9.30165 9.3019V9.3019Z" fill="#E05269"/>
</svg>
