<svg width="9" height="10" viewBox="0 0 9 10" fill="none" xmlns="http://www.w3.org/2000/svg">
<path d="M5.70399 5.00009L8.85399 1.85509C8.94814 1.76094 9.00104 1.63324 9.00104 1.50009C9.00104 1.36694 8.94814 1.23924 8.85399 1.14509C8.75984 1.05094 8.63214 0.998047 8.49899 0.998047C8.36584 0.998047 8.23815 1.05094 8.14399 1.14509L4.99899 4.29509L1.85399 1.14509C1.75984 1.05094 1.63214 0.998047 1.49899 0.998047C1.36584 0.998047 1.23814 1.05094 1.14399 1.14509C1.04984 1.23924 0.996947 1.36694 0.996947 1.50009C0.996947 1.63324 1.04984 1.76094 1.14399 1.85509L4.29399 5.00009L1.14399 8.14509C1.09713 8.19157 1.05993 8.24687 1.03455 8.3078C1.00916 8.36873 0.996094 8.43409 0.996094 8.50009C0.996094 8.5661 1.00916 8.63145 1.03455 8.69238C1.05993 8.75331 1.09713 8.80861 1.14399 8.85509C1.19047 8.90196 1.24577 8.93915 1.3067 8.96454C1.36763 8.98992 1.43299 9.00299 1.49899 9.00299C1.565 9.00299 1.63035 8.98992 1.69128 8.96454C1.75221 8.93915 1.80751 8.90196 1.85399 8.85509L4.99899 5.70509L8.14399 8.85509C8.19047 8.90196 8.24577 8.93915 8.3067 8.96454C8.36763 8.98992 8.43299 9.00299 8.49899 9.00299C8.565 9.00299 8.63035 8.98992 8.69128 8.96454C8.75221 8.93915 8.80751 8.90196 8.85399 8.85509C8.90086 8.80861 8.93805 8.75331 8.96344 8.69238C8.98882 8.63145 9.00189 8.5661 9.00189 8.50009C9.00189 8.43409 8.98882 8.36873 8.96344 8.3078C8.93805 8.24687 8.90086 8.19157 8.85399 8.14509L5.70399 5.00009Z" fill="white"/>
</svg>
