<svg width="14" height="14" viewBox="0 0 14 14" fill="none" xmlns="http://www.w3.org/2000/svg">
<path d="M11.6673 3.33341H9.66732V2.66675C9.66732 2.13631 9.4566 1.62761 9.08153 1.25253C8.70646 0.877462 8.19775 0.666748 7.66732 0.666748H6.33398C5.80355 0.666748 5.29484 0.877462 4.91977 1.25253C4.5447 1.62761 4.33398 2.13631 4.33398 2.66675V3.33341H2.33398C1.80355 3.33341 1.29484 3.54413 0.919771 3.9192C0.544698 4.29427 0.333984 4.80298 0.333984 5.33341V11.3334C0.333984 11.8638 0.544698 12.3726 0.919771 12.7476C1.29484 13.1227 1.80355 13.3334 2.33398 13.3334H11.6673C12.1978 13.3334 12.7065 13.1227 13.0815 12.7476C13.4566 12.3726 13.6673 11.8638 13.6673 11.3334V5.33341C13.6673 4.80298 13.4566 4.29427 13.0815 3.9192C12.7065 3.54413 12.1978 3.33341 11.6673 3.33341ZM5.66732 2.66675C5.66732 2.48994 5.73756 2.32037 5.86258 2.19534C5.9876 2.07032 6.15717 2.00008 6.33398 2.00008H7.66732C7.84413 2.00008 8.0137 2.07032 8.13872 2.19534C8.26375 2.32037 8.33398 2.48994 8.33398 2.66675V3.33341H5.66732V2.66675ZM12.334 11.3334C12.334 11.5102 12.2637 11.6798 12.1387 11.8048C12.0137 11.9298 11.8441 12.0001 11.6673 12.0001H2.33398C2.15717 12.0001 1.9876 11.9298 1.86258 11.8048C1.73756 11.6798 1.66732 11.5102 1.66732 11.3334V7.96675H3.66732V8.66675C3.66732 8.84356 3.73756 9.01313 3.86258 9.13815C3.9876 9.26318 4.15717 9.33341 4.33398 9.33341C4.5108 9.33341 4.68036 9.26318 4.80539 9.13815C4.93041 9.01313 5.00065 8.84356 5.00065 8.66675V7.96675H9.00065V8.66675C9.00065 8.84356 9.07089 9.01313 9.19591 9.13815C9.32094 9.26318 9.49051 9.33341 9.66732 9.33341C9.84413 9.33341 10.0137 9.26318 10.1387 9.13815C10.2637 9.01313 10.334 8.84356 10.334 8.66675V7.96675H12.334V11.3334ZM12.334 6.66675H1.66732V5.33341C1.66732 5.1566 1.73756 4.98703 1.86258 4.86201C1.9876 4.73699 2.15717 4.66675 2.33398 4.66675H11.6673C11.8441 4.66675 12.0137 4.73699 12.1387 4.86201C12.2637 4.98703 12.334 5.1566 12.334 5.33341V6.66675Z" fill="#D2D4D4"/>
</svg>
