<svg width="12" height="12" viewBox="0 0 12 12" fill="none" xmlns="http://www.w3.org/2000/svg">
<path d="M0.75 4.21502C0.756077 4.16143 0.767808 4.10864 0.785 4.05752V4.00502C0.813047 3.94504 0.85046 3.88991 0.895834 3.84169L4.39583 0.341687C4.44405 0.296313 4.49919 0.258901 4.55917 0.230854C4.57658 0.22838 4.59425 0.22838 4.61167 0.230854C4.67092 0.196869 4.73637 0.175054 4.80417 0.166687H7.16667C7.6308 0.166687 8.07591 0.351062 8.4041 0.67925C8.73229 1.00744 8.91667 1.45256 8.91667 1.91669V2.50002H9.5C9.96413 2.50002 10.4092 2.6844 10.7374 3.01258C11.0656 3.34077 11.25 3.78589 11.25 4.25002V10.0834C11.25 10.5475 11.0656 10.9926 10.7374 11.3208C10.4092 11.649 9.96413 11.8334 9.5 11.8334H4.83333C4.3692 11.8334 3.92409 11.649 3.5959 11.3208C3.26771 10.9926 3.08333 10.5475 3.08333 10.0834V9.50002H2.5C2.03587 9.50002 1.59075 9.31565 1.26256 8.98746C0.934375 8.65927 0.75 8.21415 0.75 7.75002V4.25002C0.75 4.25002 0.75 4.25002 0.75 4.21502ZM4.25 2.15585L2.73917 3.66669H3.66667C3.82138 3.66669 3.96975 3.60523 4.07915 3.49583C4.18854 3.38644 4.25 3.23806 4.25 3.08335V2.15585ZM4.25 10.0834C4.25 10.2381 4.31146 10.3864 4.42085 10.4958C4.53025 10.6052 4.67862 10.6667 4.83333 10.6667H9.5C9.65471 10.6667 9.80308 10.6052 9.91248 10.4958C10.0219 10.3864 10.0833 10.2381 10.0833 10.0834V4.25002C10.0833 4.09531 10.0219 3.94694 9.91248 3.83754C9.80308 3.72815 9.65471 3.66669 9.5 3.66669H8.91667V7.75002C8.91667 8.21415 8.73229 8.65927 8.4041 8.98746C8.07591 9.31565 7.6308 9.50002 7.16667 9.50002H4.25V10.0834ZM1.91667 7.75002C1.91667 7.90473 1.97812 8.0531 2.08752 8.1625C2.19692 8.2719 2.34529 8.33335 2.5 8.33335H7.16667C7.32138 8.33335 7.46975 8.2719 7.57915 8.1625C7.68854 8.0531 7.75 7.90473 7.75 7.75002V1.91669C7.75 1.76198 7.68854 1.6136 7.57915 1.50421C7.46975 1.39481 7.32138 1.33335 7.16667 1.33335H5.41667V3.08335C5.41667 3.54748 5.23229 3.9926 4.9041 4.32079C4.57592 4.64898 4.1308 4.83335 3.66667 4.83335H1.91667V7.75002Z" fill="#0A2828"/>
</svg>
