<svg width="18" height="10" viewBox="0 0 18 10" fill="none" xmlns="http://www.w3.org/2000/svg">
<path d="M17.0917 1.07499C17.0142 0.996883 16.9221 0.934888 16.8205 0.892581C16.719 0.850273 16.61 0.828491 16.5 0.828491C16.39 0.828491 16.2811 0.850273 16.1795 0.892581C16.078 0.934888 15.9858 0.996883 15.9084 1.07499L10.6667 6.32499L7.0917 2.74166C7.01423 2.66355 6.92206 2.60155 6.82051 2.55925C6.71896 2.51694 6.61004 2.49516 6.50003 2.49516C6.39002 2.49516 6.2811 2.51694 6.17955 2.55925C6.078 2.60155 5.98583 2.66355 5.90836 2.74166L0.908364 7.74166C0.830257 7.81913 0.768262 7.91129 0.725954 8.01284C0.683647 8.11439 0.661865 8.22331 0.661865 8.33332C0.661865 8.44333 0.683647 8.55225 0.725954 8.6538C0.768262 8.75535 0.830257 8.84752 0.908364 8.92499C0.985833 9.0031 1.078 9.06509 1.17955 9.1074C1.2811 9.14971 1.39002 9.17149 1.50003 9.17149C1.61004 9.17149 1.71896 9.14971 1.82051 9.1074C1.92206 9.06509 2.01423 9.0031 2.0917 8.92499L6.50003 4.50832L10.075 8.09166C10.1525 8.16976 10.2447 8.23176 10.3462 8.27407C10.4478 8.31637 10.5567 8.33816 10.6667 8.33816C10.7767 8.33816 10.8856 8.31637 10.9872 8.27407C11.0887 8.23176 11.1809 8.16976 11.2584 8.09166L17.0917 2.25832C17.1698 2.18085 17.2318 2.08869 17.2741 1.98714C17.3164 1.88559 17.3382 1.77667 17.3382 1.66666C17.3382 1.55665 17.3164 1.44773 17.2741 1.34618C17.2318 1.24463 17.1698 1.15246 17.0917 1.07499Z" fill="#D2D4D4"/>
</svg>
