<svg width="15" height="14" viewBox="0 0 15 14" fill="none" xmlns="http://www.w3.org/2000/svg">
<path d="M4.16634 8.33337H5.49967C5.67649 8.33337 5.84605 8.26314 5.97108 8.13811C6.0961 8.01309 6.16634 7.84352 6.16634 7.66671C6.16634 7.4899 6.0961 7.32033 5.97108 7.1953C5.84605 7.07028 5.67649 7.00004 5.49967 7.00004H4.16634C3.98953 7.00004 3.81996 7.07028 3.69494 7.1953C3.56991 7.32033 3.49967 7.4899 3.49967 7.66671C3.49967 7.84352 3.56991 8.01309 3.69494 8.13811C3.81996 8.26314 3.98953 8.33337 4.16634 8.33337ZM8.16634 9.66671H4.16634C3.98953 9.66671 3.81996 9.73695 3.69494 9.86197C3.56991 9.98699 3.49967 10.1566 3.49967 10.3334C3.49967 10.5102 3.56991 10.6798 3.69494 10.8048C3.81996 10.9298 3.98953 11 4.16634 11H8.16634C8.34315 11 8.51272 10.9298 8.63775 10.8048C8.76277 10.6798 8.83301 10.5102 8.83301 10.3334C8.83301 10.1566 8.76277 9.98699 8.63775 9.86197C8.51272 9.73695 8.34315 9.66671 8.16634 9.66671ZM12.1663 0.333374H2.83301C2.30257 0.333374 1.79387 0.544088 1.41879 0.919161C1.04372 1.29423 0.833008 1.80294 0.833008 2.33337V11.6667C0.833008 12.1971 1.04372 12.7058 1.41879 13.0809C1.79387 13.456 2.30257 13.6667 2.83301 13.6667H12.1663C12.6968 13.6667 13.2055 13.456 13.5806 13.0809C13.9556 12.7058 14.1663 12.1971 14.1663 11.6667V2.33337C14.1663 1.80294 13.9556 1.29423 13.5806 0.919161C13.2055 0.544088 12.6968 0.333374 12.1663 0.333374ZM8.83301 1.66671V3.86004L7.82634 3.30004C7.725 3.24153 7.61003 3.21072 7.49301 3.21072C7.37598 3.21072 7.26102 3.24153 7.15967 3.30004L6.16634 3.86004V1.66671H8.83301ZM12.833 11.6667C12.833 11.8435 12.7628 12.0131 12.6377 12.1381C12.5127 12.2631 12.3432 12.3334 12.1663 12.3334H2.83301C2.6562 12.3334 2.48663 12.2631 2.3616 12.1381C2.23658 12.0131 2.16634 11.8435 2.16634 11.6667V2.33337C2.16634 2.15656 2.23658 1.98699 2.3616 1.86197C2.48663 1.73695 2.6562 1.66671 2.83301 1.66671H4.83301V5.00004C4.83371 5.11638 4.86485 5.23052 4.92332 5.3311C4.9818 5.43168 5.06558 5.5152 5.16634 5.57337C5.26769 5.63189 5.38265 5.66269 5.49967 5.66269C5.6167 5.66269 5.73166 5.63189 5.83301 5.57337L7.49967 4.64671L9.17301 5.58004C9.27265 5.63651 9.38515 5.66636 9.49967 5.66671C9.67649 5.66671 9.84605 5.59647 9.97108 5.47145C10.0961 5.34642 10.1663 5.17685 10.1663 5.00004V1.66671H12.1663C12.3432 1.66671 12.5127 1.73695 12.6377 1.86197C12.7628 1.98699 12.833 2.15656 12.833 2.33337V11.6667Z" fill="#D2D4D4"/>
</svg>
