<svg width="15" height="14" viewBox="0 0 15 14" fill="none" xmlns="http://www.w3.org/2000/svg">
<path d="M13.4997 0.333374H1.49967C1.32286 0.333374 1.15329 0.403612 1.02827 0.528636C0.903246 0.65366 0.833008 0.82323 0.833008 1.00004V13C0.833008 13.1769 0.903246 13.3464 1.02827 13.4714C1.15329 13.5965 1.32286 13.6667 1.49967 13.6667H13.4997C13.6765 13.6667 13.8461 13.5965 13.9711 13.4714C14.0961 13.3464 14.1663 13.1769 14.1663 13V1.00004C14.1663 0.82323 14.0961 0.65366 13.9711 0.528636C13.8461 0.403612 13.6765 0.333374 13.4997 0.333374ZM6.83301 12.3334H2.16634V7.66671H6.83301V12.3334ZM6.83301 6.33337H2.16634V1.66671H6.83301V6.33337ZM12.833 12.3334H8.16634V7.66671H12.833V12.3334ZM12.833 6.33337H8.16634V1.66671H12.833V6.33337Z" fill="#D2D4D4"/>
</svg>
