<svg width="13" height="14" viewBox="0 0 13 14" fill="none" xmlns="http://www.w3.org/2000/svg">
<path d="M9.16667 12.3334H3.83333C3.3029 12.3334 2.79419 12.1227 2.41912 11.7476C2.04405 11.3725 1.83333 10.8638 1.83333 10.3334V3.66671C1.83333 3.4899 1.7631 3.32033 1.63807 3.1953C1.51305 3.07028 1.34348 3.00004 1.16667 3.00004C0.989856 3.00004 0.820286 3.07028 0.695262 3.1953C0.570238 3.32033 0.5 3.4899 0.5 3.66671V10.3334C0.5 11.2174 0.851189 12.0653 1.47631 12.6904C2.10143 13.3155 2.94928 13.6667 3.83333 13.6667H9.16667C9.34348 13.6667 9.51305 13.5965 9.63807 13.4714C9.7631 13.3464 9.83333 13.1769 9.83333 13C9.83333 12.8232 9.7631 12.6537 9.63807 12.5286C9.51305 12.4036 9.34348 12.3334 9.16667 12.3334ZM5.16667 7.66671C5.16667 7.84352 5.2369 8.01309 5.36193 8.13811C5.48695 8.26314 5.65652 8.33337 5.83333 8.33337H9.16667C9.34348 8.33337 9.51305 8.26314 9.63807 8.13811C9.7631 8.01309 9.83333 7.84352 9.83333 7.66671C9.83333 7.4899 9.7631 7.32033 9.63807 7.1953C9.51305 7.07028 9.34348 7.00004 9.16667 7.00004H5.83333C5.65652 7.00004 5.48695 7.07028 5.36193 7.1953C5.2369 7.32033 5.16667 7.4899 5.16667 7.66671ZM12.5 4.96004C12.4931 4.8988 12.4796 4.83846 12.46 4.78004V4.72004C12.4279 4.65149 12.3852 4.58848 12.3333 4.53337L8.33333 0.533374C8.27822 0.481518 8.21521 0.438761 8.14667 0.406707C8.12677 0.403881 8.10657 0.403881 8.08667 0.406707C8.01894 0.367868 7.94415 0.342937 7.86667 0.333374H5.16667C4.63623 0.333374 4.12753 0.544088 3.75245 0.919161C3.37738 1.29423 3.16667 1.80294 3.16667 2.33337V9.00004C3.16667 9.53047 3.37738 10.0392 3.75245 10.4143C4.12753 10.7893 4.63623 11 5.16667 11H10.5C11.0304 11 11.5391 10.7893 11.9142 10.4143C12.2893 10.0392 12.5 9.53047 12.5 9.00004V5.00004C12.5 5.00004 12.5 5.00004 12.5 4.96004ZM8.5 2.60671L10.2267 4.33337H9.16667C8.98986 4.33337 8.82029 4.26314 8.69526 4.13811C8.57024 4.01309 8.5 3.84352 8.5 3.66671V2.60671ZM11.1667 9.00004C11.1667 9.17685 11.0964 9.34642 10.9714 9.47145C10.8464 9.59647 10.6768 9.66671 10.5 9.66671H5.16667C4.98986 9.66671 4.82029 9.59647 4.69526 9.47145C4.57024 9.34642 4.5 9.17685 4.5 9.00004V2.33337C4.5 2.15656 4.57024 1.98699 4.69526 1.86197C4.82029 1.73695 4.98986 1.66671 5.16667 1.66671H7.16667V3.66671C7.16847 3.89414 7.20905 4.11959 7.28667 4.33337H5.83333C5.65652 4.33337 5.48695 4.40361 5.36193 4.52864C5.2369 4.65366 5.16667 4.82323 5.16667 5.00004C5.16667 5.17685 5.2369 5.34642 5.36193 5.47145C5.48695 5.59647 5.65652 5.66671 5.83333 5.66671H11.1667V9.00004Z" fill="#D2D4D4"/>
</svg>
