<svg width="20" height="15" viewBox="0 0 20 15" fill="none" xmlns="http://www.w3.org/2000/svg">
<path d="M9.3563 13.7814C9.33649 13.8611 9.30116 13.9361 9.25232 14.0021C9.20348 14.0681 9.14211 14.1238 9.0717 14.166C9.0013 14.2082 8.92325 14.2362 8.84203 14.2482C8.76081 14.2602 8.67802 14.2561 8.5984 14.2361L6.24374 13.6475C6.0527 13.5994 5.87562 13.5072 5.72677 13.3782L3.96499 11.8467C3.83988 11.738 3.76309 11.584 3.75152 11.4186C3.73994 11.2533 3.79453 11.0901 3.90327 10.965C4.01201 10.8399 4.166 10.7631 4.33135 10.7515C4.49671 10.7399 4.65989 10.7945 4.785 10.9033L6.54693 12.4348L8.90159 13.0235C8.98122 13.0434 9.05615 13.0788 9.12209 13.1276C9.18804 13.1765 9.24372 13.2379 9.28594 13.3082C9.32817 13.3786 9.35611 13.4566 9.36819 13.5378C9.38026 13.619 9.37622 13.7018 9.3563 13.7814ZM19.7158 6.34028C19.6652 6.49844 19.5833 6.64482 19.475 6.77076C19.3668 6.89669 19.2344 6.99961 19.0856 7.07343L17.2678 7.98234L16.1001 9.3484C16.096 9.35316 16.0915 9.35756 16.0873 9.3622C16.0835 9.36643 16.0797 9.37062 16.0757 9.37472C16.0728 9.37784 16.07 9.38116 16.067 9.38422L13.1922 12.2591C12.9565 12.4933 12.6377 12.6247 12.3054 12.6247C12.2042 12.6247 12.1033 12.6123 12.0051 12.5878L7.47718 11.4558C7.30724 11.4136 7.14815 11.3359 7.01034 11.2278L2.78938 7.92721L0.914375 6.98969C0.765914 6.91544 0.633727 6.81237 0.525526 6.68649C0.417326 6.56061 0.335279 6.41443 0.284173 6.2565C0.233067 6.09857 0.213926 5.93205 0.227866 5.76664C0.241806 5.60123 0.288548 5.44026 0.365364 5.29311L2.28667 1.61364C2.43955 1.3243 2.6993 1.10604 3.01065 1.0053C3.322 0.90455 3.66037 0.929273 3.95377 1.07421L5.70182 1.94822L9.50431 0.839683C9.79074 0.756284 10.0976 0.777971 10.3694 0.900832L12.9473 2.06729H14.2275L16.0463 1.15794C16.3397 1.0129 16.6781 0.988123 16.9894 1.08889C17.3008 1.18965 17.5605 1.40799 17.7133 1.69742L19.6346 5.37681C19.712 5.52379 19.759 5.68481 19.7729 5.85031C19.7869 6.01581 19.7675 6.18243 19.7158 6.34028ZM14.6659 9.01754L12.1932 7.21926L11.5625 7.69229C11.0205 8.09552 10.363 8.3133 9.68749 8.3133C9.01197 8.3133 8.35445 8.09552 7.81249 7.69229L7.38898 7.37467C7.24572 7.26722 7.12722 7.13023 7.0415 6.973C6.95578 6.81576 6.90485 6.64194 6.89216 6.4633C6.87946 6.28467 6.90529 6.10539 6.96791 5.93761C7.03053 5.76983 7.12846 5.61746 7.25509 5.49082L10.3125 2.43342C10.3572 2.38942 10.405 2.3488 10.4557 2.3119L9.85419 2.03971L6.04766 3.14942L3.91986 7.22437L7.78037 10.2432L12.3083 11.3751L14.6659 9.01754ZM16.1255 7.39491L13.9962 3.31729H12.8142L12.8121 3.31744L12.8092 3.31729H11.1964L8.13903 6.37469L8.56246 6.6923C8.88765 6.93423 9.28218 7.06489 9.68749 7.06489C10.0928 7.06489 10.4873 6.93423 10.8125 6.6923L11.8125 5.94229C11.9194 5.86208 12.0492 5.81827 12.1829 5.81729C12.3165 5.8163 12.447 5.85821 12.5551 5.93684L15.5253 8.09702L16.1255 7.39491Z" fill="#D2D4D4"/>
</svg>
