<svg width="14" height="14" viewBox="0 0 14 14" fill="none" xmlns="http://www.w3.org/2000/svg">
<path d="M10.3332 5.00004H3.66658C3.48977 5.00004 3.3202 5.07028 3.19517 5.1953C3.07015 5.32033 2.99991 5.4899 2.99991 5.66671C2.99991 5.84352 3.07015 6.01309 3.19517 6.13811C3.3202 6.26314 3.48977 6.33337 3.66658 6.33337H10.3332C10.5101 6.33337 10.6796 6.26314 10.8046 6.13811C10.9297 6.01309 10.9999 5.84352 10.9999 5.66671C10.9999 5.4899 10.9297 5.32033 10.8046 5.1953C10.6796 5.07028 10.5101 5.00004 10.3332 5.00004ZM7.66658 7.66671H3.66658C3.48977 7.66671 3.3202 7.73695 3.19517 7.86197C3.07015 7.98699 2.99991 8.15656 2.99991 8.33337C2.99991 8.51019 3.07015 8.67975 3.19517 8.80478C3.3202 8.9298 3.48977 9.00004 3.66658 9.00004H7.66658C7.84339 9.00004 8.01296 8.9298 8.13798 8.80478C8.26301 8.67975 8.33324 8.51019 8.33324 8.33337C8.33324 8.15656 8.26301 7.98699 8.13798 7.86197C8.01296 7.73695 7.84339 7.66671 7.66658 7.66671ZM6.99991 0.333374C6.12443 0.333374 5.25752 0.505812 4.44869 0.840844C3.63985 1.17588 2.90492 1.66694 2.28587 2.286C1.03562 3.53624 0.333244 5.23193 0.333244 7.00004C0.327416 8.53946 0.860439 10.0324 1.83991 11.22L0.506577 12.5534C0.414072 12.6471 0.351408 12.7662 0.326492 12.8955C0.301576 13.0248 0.315524 13.1586 0.366577 13.28C0.421949 13.4 0.511713 13.5008 0.624475 13.5696C0.737237 13.6385 0.867911 13.6723 0.999911 13.6667H6.99991C8.76802 13.6667 10.4637 12.9643 11.714 11.7141C12.9642 10.4638 13.6666 8.76815 13.6666 7.00004C13.6666 5.23193 12.9642 3.53624 11.714 2.286C10.4637 1.03575 8.76802 0.333374 6.99991 0.333374ZM6.99991 12.3334H2.60658L3.22658 11.7134C3.35074 11.5885 3.42044 11.4195 3.42044 11.2434C3.42044 11.0673 3.35074 10.8983 3.22658 10.7734C2.35363 9.9014 1.81003 8.75373 1.68837 7.5259C1.56672 6.29807 1.87454 5.06604 2.5594 4.03972C3.24425 3.0134 4.26377 2.25628 5.44425 1.89736C6.62474 1.53843 7.89315 1.59991 9.03339 2.07132C10.1736 2.54272 11.1151 3.39489 11.6975 4.48264C12.2799 5.57038 12.4672 6.8264 12.2273 8.03671C11.9875 9.24702 11.3354 10.3367 10.3823 11.1202C9.42909 11.9037 8.23375 12.3324 6.99991 12.3334Z" fill="#D2D4D4"/>
</svg>
