<svg width="12" height="14" viewBox="0 0 12 14" fill="none" xmlns="http://www.w3.org/2000/svg">
<path d="M11.3333 3.00016H8.66667V2.3335C8.66667 1.80306 8.45595 1.29436 8.08088 0.919283C7.70581 0.54421 7.1971 0.333496 6.66667 0.333496H5.33333C4.8029 0.333496 4.29419 0.54421 3.91912 0.919283C3.54405 1.29436 3.33333 1.80306 3.33333 2.3335V3.00016H0.666667C0.489856 3.00016 0.320286 3.0704 0.195262 3.19543C0.0702379 3.32045 0 3.49002 0 3.66683C0 3.84364 0.0702379 4.01321 0.195262 4.13823C0.320286 4.26326 0.489856 4.3335 0.666667 4.3335H1.33333V11.6668C1.33333 12.1973 1.54405 12.706 1.91912 13.081C2.29419 13.4561 2.8029 13.6668 3.33333 13.6668H8.66667C9.1971 13.6668 9.70581 13.4561 10.0809 13.081C10.456 12.706 10.6667 12.1973 10.6667 11.6668V4.3335H11.3333C11.5101 4.3335 11.6797 4.26326 11.8047 4.13823C11.9298 4.01321 12 3.84364 12 3.66683C12 3.49002 11.9298 3.32045 11.8047 3.19543C11.6797 3.0704 11.5101 3.00016 11.3333 3.00016ZM4.66667 2.3335C4.66667 2.15669 4.7369 1.98712 4.86193 1.86209C4.98695 1.73707 5.15652 1.66683 5.33333 1.66683H6.66667C6.84348 1.66683 7.01305 1.73707 7.13807 1.86209C7.2631 1.98712 7.33333 2.15669 7.33333 2.3335V3.00016H4.66667V2.3335ZM9.33333 11.6668C9.33333 11.8436 9.2631 12.0132 9.13807 12.1382C9.01305 12.2633 8.84348 12.3335 8.66667 12.3335H3.33333C3.15652 12.3335 2.98695 12.2633 2.86193 12.1382C2.7369 12.0132 2.66667 11.8436 2.66667 11.6668V4.3335H9.33333V11.6668Z" fill="#E05269"/>
</svg>
