<svg width="12" height="12" viewBox="0 0 12 12" fill="none" xmlns="http://www.w3.org/2000/svg">
<path d="M4.83333 9.49996C4.98804 9.49996 5.13642 9.4385 5.24581 9.32911C5.35521 9.21971 5.41667 9.07134 5.41667 8.91663V5.41663C5.41667 5.26192 5.35521 5.11354 5.24581 5.00415C5.13642 4.89475 4.98804 4.83329 4.83333 4.83329C4.67862 4.83329 4.53025 4.89475 4.42085 5.00415C4.31146 5.11354 4.25 5.26192 4.25 5.41663V8.91663C4.25 9.07134 4.31146 9.21971 4.42085 9.32911C4.53025 9.4385 4.67862 9.49996 4.83333 9.49996ZM10.6667 2.49996H8.33333V1.91663C8.33333 1.4525 8.14896 1.00738 7.82077 0.679189C7.49258 0.351001 7.04746 0.166626 6.58333 0.166626H5.41667C4.95254 0.166626 4.50742 0.351001 4.17923 0.679189C3.85104 1.00738 3.66667 1.4525 3.66667 1.91663V2.49996H1.33333C1.17862 2.49996 1.03025 2.56142 0.920854 2.67081C0.811458 2.78021 0.75 2.92858 0.75 3.08329C0.75 3.238 0.811458 3.38638 0.920854 3.49577C1.03025 3.60517 1.17862 3.66663 1.33333 3.66663H1.91667V10.0833C1.91667 10.5474 2.10104 10.9925 2.42923 11.3207C2.75742 11.6489 3.20254 11.8333 3.66667 11.8333H8.33333C8.79746 11.8333 9.24258 11.6489 9.57077 11.3207C9.89896 10.9925 10.0833 10.5474 10.0833 10.0833V3.66663H10.6667C10.8214 3.66663 10.9697 3.60517 11.0791 3.49577C11.1885 3.38638 11.25 3.238 11.25 3.08329C11.25 2.92858 11.1885 2.78021 11.0791 2.67081C10.9697 2.56142 10.8214 2.49996 10.6667 2.49996ZM4.83333 1.91663C4.83333 1.76192 4.89479 1.61354 5.00419 1.50415C5.11358 1.39475 5.26196 1.33329 5.41667 1.33329H6.58333C6.73804 1.33329 6.88642 1.39475 6.99581 1.50415C7.10521 1.61354 7.16667 1.76192 7.16667 1.91663V2.49996H4.83333V1.91663ZM8.91667 10.0833C8.91667 10.238 8.85521 10.3864 8.74581 10.4958C8.63642 10.6052 8.48804 10.6666 8.33333 10.6666H3.66667C3.51196 10.6666 3.36358 10.6052 3.25419 10.4958C3.14479 10.3864 3.08333 10.238 3.08333 10.0833V3.66663H8.91667V10.0833ZM7.16667 9.49996C7.32138 9.49996 7.46975 9.4385 7.57915 9.32911C7.68854 9.21971 7.75 9.07134 7.75 8.91663V5.41663C7.75 5.26192 7.68854 5.11354 7.57915 5.00415C7.46975 4.89475 7.32138 4.83329 7.16667 4.83329C7.01196 4.83329 6.86358 4.89475 6.75419 5.00415C6.64479 5.11354 6.58333 5.26192 6.58333 5.41663V8.91663C6.58333 9.07134 6.64479 9.21971 6.75419 9.32911C6.86358 9.4385 7.01196 9.49996 7.16667 9.49996Z" fill="#E05269"/>
</svg>
