<svg width="18" height="18" viewBox="0 0 18 18" fill="none" xmlns="http://www.w3.org/2000/svg">
<path d="M16.5 0.666687H1.50002C1.27901 0.666687 1.06704 0.754484 0.910765 0.910765C0.754484 1.06704 0.666687 1.27901 0.666687 1.50002V16.5C0.666687 16.721 0.754484 16.933 0.910765 17.0893C1.06704 17.2456 1.27901 17.3334 1.50002 17.3334H16.5C16.721 17.3334 16.933 17.2456 17.0893 17.0893C17.2456 16.933 17.3334 16.721 17.3334 16.5V1.50002C17.3334 1.27901 17.2456 1.06704 17.0893 0.910765C16.933 0.754484 16.721 0.666687 16.5 0.666687ZM8.16669 15.6667H2.33335V9.83335H8.16669V15.6667ZM8.16669 8.16669H2.33335V2.33335H8.16669V8.16669ZM15.6667 15.6667H9.83335V9.83335H15.6667V15.6667ZM15.6667 8.16669H9.83335V2.33335H15.6667V8.16669Z" fill="#D2D4D4"/>
</svg>
