<svg width="15" height="14" viewBox="0 0 15 14" fill="none" xmlns="http://www.w3.org/2000/svg">
<path d="M13.713 5.36671L12.453 4.94671L13.0463 3.76004C13.1065 3.63583 13.1266 3.49602 13.1039 3.35989C13.0812 3.22376 13.0169 3.09803 12.9197 3.00004L11.4997 1.58004C11.4012 1.48143 11.2742 1.41618 11.1367 1.39346C10.9992 1.37074 10.858 1.39169 10.733 1.45338L9.54634 2.04671L9.12634 0.78671C9.08199 0.655371 8.99779 0.541127 8.88547 0.459875C8.77315 0.378623 8.6383 0.334406 8.49968 0.333376H6.49968C6.35991 0.333015 6.22357 0.376589 6.10992 0.457938C5.99628 0.539286 5.91107 0.654296 5.86634 0.78671L5.44634 2.04671L4.25968 1.45338C4.13547 1.39323 3.99565 1.37311 3.85953 1.3958C3.7234 1.41849 3.59767 1.48286 3.49968 1.58004L2.07968 3.00004C1.98107 3.09855 1.91581 3.22549 1.89309 3.36301C1.87037 3.50053 1.89133 3.64172 1.95301 3.76671L2.54634 4.95338L1.28634 5.37338C1.155 5.41773 1.04076 5.50193 0.959509 5.61425C0.878257 5.72657 0.83404 5.86142 0.83301 6.00004V8.00004C0.832649 8.13981 0.876223 8.27615 0.957571 8.3898C1.03892 8.50344 1.15393 8.58865 1.28634 8.63338L2.54634 9.05338L1.95301 10.24C1.89286 10.3643 1.87275 10.5041 1.89543 10.6402C1.91812 10.7763 1.9825 10.9021 2.07968 11L3.49968 12.42C3.59819 12.5187 3.72513 12.5839 3.86265 12.6066C4.00017 12.6293 4.14135 12.6084 4.26634 12.5467L5.45301 11.9534L5.87301 13.2134C5.91773 13.3458 6.00294 13.4608 6.11659 13.5421C6.23024 13.6235 6.36658 13.6671 6.50634 13.6667H8.50634C8.64611 13.6671 8.78245 13.6235 8.8961 13.5421C9.00974 13.4608 9.09495 13.3458 9.13968 13.2134L9.55968 11.9534L10.7463 12.5467C10.8698 12.6053 11.0082 12.6246 11.143 12.602C11.2777 12.5793 11.4022 12.5158 11.4997 12.42L12.9197 11C13.0183 10.9015 13.0835 10.7746 13.1063 10.6371C13.129 10.4996 13.108 10.3584 13.0463 10.2334L12.453 9.04671L13.713 8.62671C13.8443 8.58235 13.9586 8.49816 14.0398 8.38584C14.1211 8.27352 14.1653 8.13867 14.1663 8.00004V6.00004C14.1667 5.86028 14.1231 5.72394 14.0418 5.61029C13.9604 5.49664 13.8454 5.41143 13.713 5.36671ZM12.833 7.52004L12.033 7.78671C11.849 7.84638 11.6803 7.94536 11.5384 8.07678C11.3965 8.20819 11.2849 8.36891 11.2113 8.54776C11.1377 8.72662 11.104 8.91934 11.1123 9.11256C11.1207 9.30578 11.1709 9.49487 11.2597 9.66671L11.6397 10.4267L10.9063 11.16L10.1663 10.76C9.99538 10.6749 9.80811 10.6274 9.61722 10.6209C9.42632 10.6144 9.23626 10.649 9.05989 10.7223C8.88352 10.7956 8.72496 10.906 8.59496 11.0459C8.46495 11.1859 8.36652 11.3521 8.30634 11.5334L8.03968 12.3334H6.97968L6.71301 11.5334C6.65334 11.3494 6.55436 11.1806 6.42294 11.0387C6.29153 10.8969 6.13081 10.7853 5.95196 10.7117C5.7731 10.6381 5.58038 10.6043 5.38716 10.6127C5.19394 10.621 5.00485 10.6713 4.83301 10.76L4.07301 11.14L3.33968 10.4067L3.73968 9.66671C3.82841 9.49487 3.87869 9.30578 3.88704 9.11256C3.89539 8.91934 3.86161 8.72662 3.78804 8.54776C3.71446 8.36891 3.60286 8.20819 3.46097 8.07678C3.31908 7.94536 3.15031 7.84638 2.96634 7.78671L2.16634 7.52004V6.48004L2.96634 6.21338C3.15031 6.1537 3.31908 6.05473 3.46097 5.92331C3.60286 5.79189 3.71446 5.63118 3.78804 5.45232C3.86161 5.27347 3.89539 5.08074 3.88704 4.88753C3.87869 4.69431 3.82841 4.50522 3.73968 4.33338L3.35968 3.59338L4.09301 2.86004L4.83301 3.24004C5.00485 3.32877 5.19394 3.37906 5.38716 3.38741C5.58038 3.39576 5.7731 3.36197 5.95196 3.2884C6.13081 3.21483 6.29153 3.10323 6.42294 2.96134C6.55436 2.81945 6.65334 2.65067 6.71301 2.46671L6.97968 1.66671H8.01968L8.28634 2.46671C8.34602 2.65067 8.44499 2.81945 8.57641 2.96134C8.70783 3.10323 8.86854 3.21483 9.0474 3.2884C9.22625 3.36197 9.41898 3.39576 9.61219 3.38741C9.80541 3.37906 9.9945 3.32877 10.1663 3.24004L10.9263 2.86004L11.6597 3.59338L11.2597 4.33338C11.1745 4.50434 11.1271 4.69161 11.1205 4.8825C11.114 5.0734 11.1486 5.26346 11.2219 5.43983C11.2953 5.6162 11.4056 5.77476 11.5456 5.90476C11.6855 6.03477 11.8517 6.1332 12.033 6.19338L12.833 6.46004V7.52004ZM7.49968 4.33338C6.97226 4.33338 6.45669 4.48977 6.01816 4.78279C5.57963 5.07581 5.23783 5.49228 5.036 5.97955C4.83416 6.46682 4.78136 7.003 4.88425 7.52028C4.98714 8.03757 5.24112 8.51272 5.61406 8.88566C5.987 9.2586 6.46215 9.51258 6.97944 9.61547C7.49672 9.71836 8.0329 9.66556 8.52017 9.46372C9.00744 9.26189 9.42391 8.92009 9.71693 8.48156C10.0099 8.04303 10.1663 7.52746 10.1663 7.00004C10.1663 6.2928 9.88539 5.61452 9.38529 5.11442C8.8852 4.61433 8.20692 4.33338 7.49968 4.33338ZM7.49968 8.33338C7.23597 8.33338 6.97818 8.25518 6.75892 8.10867C6.53965 7.96216 6.36875 7.75392 6.26784 7.51029C6.16692 7.26665 6.14052 6.99856 6.19196 6.73992C6.24341 6.48128 6.3704 6.2437 6.55687 6.05723C6.74334 5.87076 6.98092 5.74378 7.23956 5.69233C7.4982 5.64088 7.76629 5.66729 8.00992 5.7682C8.25356 5.86912 8.46179 6.04002 8.6083 6.25928C8.75481 6.47855 8.83301 6.73633 8.83301 7.00004C8.83301 7.35366 8.69253 7.6928 8.44249 7.94285C8.19244 8.1929 7.8533 8.33338 7.49968 8.33338Z" fill="#04D68F"/>
</svg>
