<svg width="20" height="20" viewBox="0 0 20 20" fill="none" xmlns="http://www.w3.org/2000/svg">
<path d="M9.16665 7.49998H12.5C12.721 7.49998 12.933 7.41218 13.0892 7.2559C13.2455 7.09962 13.3333 6.88766 13.3333 6.66665C13.3333 6.44563 13.2455 6.23367 13.0892 6.07739C12.933 5.92111 12.721 5.83331 12.5 5.83331H10.8333V4.99998C10.8333 4.77897 10.7455 4.567 10.5892 4.41072C10.433 4.25444 10.221 4.16665 9.99998 4.16665C9.77897 4.16665 9.56701 4.25444 9.41073 4.41072C9.25445 4.567 9.16665 4.77897 9.16665 4.99998V5.83331C8.50361 5.83331 7.86772 6.0967 7.39888 6.56555C6.93004 7.03439 6.66665 7.67027 6.66665 8.33331C6.66665 8.99635 6.93004 9.63224 7.39888 10.1011C7.86772 10.5699 8.50361 10.8333 9.16665 10.8333H10.8333C11.0543 10.8333 11.2663 10.9211 11.4226 11.0774C11.5789 11.2337 11.6666 11.4456 11.6666 11.6666C11.6666 11.8877 11.5789 12.0996 11.4226 12.2559C11.2663 12.4122 11.0543 12.5 10.8333 12.5H7.49998C7.27897 12.5 7.06701 12.5878 6.91073 12.7441C6.75445 12.9003 6.66665 13.1123 6.66665 13.3333C6.66665 13.5543 6.75445 13.7663 6.91073 13.9226C7.06701 14.0788 7.27897 14.1666 7.49998 14.1666H9.16665V15C9.16665 15.221 9.25445 15.433 9.41073 15.5892C9.56701 15.7455 9.77897 15.8333 9.99998 15.8333C10.221 15.8333 10.433 15.7455 10.5892 15.5892C10.7455 15.433 10.8333 15.221 10.8333 15V14.1666C11.4964 14.1666 12.1322 13.9033 12.6011 13.4344C13.0699 12.9656 13.3333 12.3297 13.3333 11.6666C13.3333 11.0036 13.0699 10.3677 12.6011 9.89888C12.1322 9.43004 11.4964 9.16665 10.8333 9.16665H9.16665C8.94564 9.16665 8.73367 9.07885 8.57739 8.92257C8.42111 8.76629 8.33332 8.55433 8.33332 8.33331C8.33332 8.1123 8.42111 7.90034 8.57739 7.74406C8.73367 7.58778 8.94564 7.49998 9.16665 7.49998ZM9.99998 0.833313C8.18699 0.833313 6.41471 1.37093 4.90726 2.37817C3.39981 3.38542 2.22489 4.81706 1.53109 6.49205C0.837285 8.16704 0.655754 10.0101 1.00945 11.7883C1.36315 13.5665 2.23619 15.1998 3.51817 16.4818C4.80015 17.7638 6.4335 18.6368 8.21166 18.9905C9.98981 19.3442 11.8329 19.1627 13.5079 18.4689C15.1829 17.7751 16.6145 16.6002 17.6218 15.0927C18.629 13.5853 19.1666 11.813 19.1666 9.99998C19.1666 7.56883 18.2009 5.23725 16.4818 3.51817C14.7627 1.79908 12.4311 0.833313 9.99998 0.833313ZM9.99998 17.5C8.51662 17.5 7.06658 17.0601 5.83321 16.236C4.59984 15.4119 3.63854 14.2406 3.07089 12.8701C2.50323 11.4997 2.3547 9.99166 2.64409 8.5368C2.93348 7.08194 3.64779 5.74557 4.69668 4.69668C5.74558 3.64778 7.08195 2.93348 8.53681 2.64409C9.99166 2.3547 11.4997 2.50323 12.8701 3.07088C14.2406 3.63854 15.4119 4.59983 16.236 5.8332C17.0601 7.06657 17.5 8.51662 17.5 9.99998C17.5 11.9891 16.7098 13.8968 15.3033 15.3033C13.8968 16.7098 11.9891 17.5 9.99998 17.5Z" fill="#1FC780"/>
</svg>
