<svg width="12" height="12" viewBox="0 0 12 12" fill="none" xmlns="http://www.w3.org/2000/svg">
<path d="M11.25 7.1665C11.0953 7.1665 10.9469 7.22796 10.8375 7.33736C10.7281 7.44675 10.6667 7.59513 10.6667 7.74984V10.0832C10.6667 10.2379 10.6052 10.3863 10.4958 10.4957C10.3864 10.605 10.2381 10.6665 10.0834 10.6665H1.91669C1.76198 10.6665 1.6136 10.605 1.50421 10.4957C1.39481 10.3863 1.33335 10.2379 1.33335 10.0832V7.74984C1.33335 7.59513 1.2719 7.44675 1.1625 7.33736C1.0531 7.22796 0.90473 7.1665 0.75002 7.1665C0.595311 7.1665 0.446938 7.22796 0.337541 7.33736C0.228145 7.44675 0.166687 7.59513 0.166687 7.74984V10.0832C0.166687 10.5473 0.351062 10.9924 0.67925 11.3206C1.00744 11.6488 1.45256 11.8332 1.91669 11.8332H10.0834C10.5475 11.8332 10.9926 11.6488 11.3208 11.3206C11.649 10.9924 11.8334 10.5473 11.8334 10.0832V7.74984C11.8334 7.59513 11.7719 7.44675 11.6625 7.33736C11.5531 7.22796 11.4047 7.1665 11.25 7.1665ZM5.58585 8.164C5.64133 8.21711 5.70675 8.25874 5.77835 8.2865C5.84818 8.31737 5.92368 8.33331 6.00002 8.33331C6.07636 8.33331 6.15186 8.31737 6.22169 8.2865C6.29329 8.25874 6.35871 8.21711 6.41419 8.164L8.74752 5.83067C8.85736 5.72083 8.91907 5.57185 8.91907 5.4165C8.91907 5.26116 8.85736 5.11218 8.74752 5.00234C8.63768 4.89249 8.4887 4.83078 8.33335 4.83078C8.17801 4.83078 8.02903 4.89249 7.91919 5.00234L6.58335 6.344V0.749837C6.58335 0.595128 6.5219 0.446754 6.4125 0.337358C6.3031 0.227962 6.15473 0.166504 6.00002 0.166504C5.84531 0.166504 5.69694 0.227962 5.58754 0.337358C5.47815 0.446754 5.41669 0.595128 5.41669 0.749837V6.344L4.08085 5.00234C4.02646 4.94795 3.9619 4.9048 3.89083 4.87537C3.81977 4.84593 3.74361 4.83078 3.66669 4.83078C3.58977 4.83078 3.5136 4.84593 3.44254 4.87537C3.37148 4.9048 3.30691 4.94795 3.25252 5.00234C3.19813 5.05673 3.15499 5.1213 3.12555 5.19236C3.09612 5.26342 3.08097 5.33959 3.08097 5.4165C3.08097 5.49342 3.09612 5.56959 3.12555 5.64065C3.15499 5.71171 3.19813 5.77628 3.25252 5.83067L5.58585 8.164Z" fill="#0A2828"/>
</svg>
