<svg width="12" height="14" viewBox="0 0 12 14" fill="none" xmlns="http://www.w3.org/2000/svg">
<path d="M3.52667 7.85998C3.46418 7.92196 3.41459 7.99569 3.38074 8.07693C3.34689 8.15817 3.32947 8.24531 3.32947 8.33331C3.32947 8.42132 3.34689 8.50846 3.38074 8.5897C3.41459 8.67094 3.46418 8.74467 3.52667 8.80665L5.52667 10.8066C5.58864 10.8691 5.66238 10.9187 5.74362 10.9526C5.82486 10.9864 5.91199 11.0038 6 11.0038C6.08801 11.0038 6.17515 10.9864 6.25638 10.9526C6.33762 10.9187 6.41136 10.8691 6.47333 10.8066L8.47333 8.80665C8.59887 8.68111 8.66939 8.51085 8.66939 8.33331C8.66939 8.15578 8.59887 7.98552 8.47333 7.85998C8.3478 7.73444 8.17754 7.66392 8 7.66392C7.82247 7.66392 7.6522 7.73444 7.52667 7.85998L6.66667 8.72665V0.99998C6.66667 0.823169 6.59643 0.653599 6.4714 0.528575C6.34638 0.403551 6.17681 0.333313 6 0.333313C5.82319 0.333313 5.65362 0.403551 5.5286 0.528575C5.40357 0.653599 5.33333 0.823169 5.33333 0.99998V8.72665L4.47333 7.85998C4.41136 7.79749 4.33762 7.7479 4.25638 7.71405C4.17515 7.68021 4.08801 7.66278 4 7.66278C3.91199 7.66278 3.82486 7.68021 3.74362 7.71405C3.66238 7.7479 3.58864 7.79749 3.52667 7.85998ZM10 4.99998H8.66667C8.48986 4.99998 8.32029 5.07022 8.19526 5.19524C8.07024 5.32027 8 5.48984 8 5.66665C8 5.84346 8.07024 6.01303 8.19526 6.13805C8.32029 6.26308 8.48986 6.33331 8.66667 6.33331H10C10.1768 6.33331 10.3464 6.40355 10.4714 6.52858C10.5964 6.6536 10.6667 6.82317 10.6667 6.99998V11.6666C10.6667 11.8435 10.5964 12.013 10.4714 12.1381C10.3464 12.2631 10.1768 12.3333 10 12.3333H2C1.82319 12.3333 1.65362 12.2631 1.5286 12.1381C1.40357 12.013 1.33333 11.8435 1.33333 11.6666V6.99998C1.33333 6.82317 1.40357 6.6536 1.5286 6.52858C1.65362 6.40355 1.82319 6.33331 2 6.33331H3.33333C3.51014 6.33331 3.67971 6.26308 3.80474 6.13805C3.92976 6.01303 4 5.84346 4 5.66665C4 5.48984 3.92976 5.32027 3.80474 5.19524C3.67971 5.07022 3.51014 4.99998 3.33333 4.99998H2C1.46957 4.99998 0.960859 5.21069 0.585787 5.58577C0.210714 5.96084 0 6.46955 0 6.99998V11.6666C0 12.1971 0.210714 12.7058 0.585787 13.0809C0.960859 13.4559 1.46957 13.6666 2 13.6666H10C10.5304 13.6666 11.0391 13.4559 11.4142 13.0809C11.7893 12.7058 12 12.1971 12 11.6666V6.99998C12 6.46955 11.7893 5.96084 11.4142 5.58577C11.0391 5.21069 10.5304 4.99998 10 4.99998Z" fill="#0A2828"/>
</svg>
