<svg width="14" height="14" viewBox="0 0 14 14" fill="none" xmlns="http://www.w3.org/2000/svg">
<path d="M13.0002 8.33331C12.8234 8.33331 12.6538 8.40355 12.5288 8.52858C12.4037 8.6536 12.3335 8.82317 12.3335 8.99998V11.6666C12.3335 11.8435 12.2633 12.013 12.1382 12.1381C12.0132 12.2631 11.8436 12.3333 11.6668 12.3333H2.3335C2.15669 12.3333 1.98712 12.2631 1.86209 12.1381C1.73707 12.013 1.66683 11.8435 1.66683 11.6666V8.99998C1.66683 8.82317 1.59659 8.6536 1.47157 8.52858C1.34654 8.40355 1.17697 8.33331 1.00016 8.33331C0.823352 8.33331 0.653782 8.40355 0.528758 8.52858C0.403734 8.6536 0.333496 8.82317 0.333496 8.99998V11.6666C0.333496 12.1971 0.54421 12.7058 0.919283 13.0809C1.29436 13.4559 1.80306 13.6666 2.3335 13.6666H11.6668C12.1973 13.6666 12.706 13.4559 13.081 13.0809C13.4561 12.7058 13.6668 12.1971 13.6668 11.6666V8.99998C13.6668 8.82317 13.5966 8.6536 13.4716 8.52858C13.3465 8.40355 13.177 8.33331 13.0002 8.33331ZM6.52683 9.47331C6.59023 9.53401 6.665 9.58158 6.74683 9.61331C6.82663 9.64858 6.91292 9.6668 7.00016 9.6668C7.08741 9.6668 7.1737 9.64858 7.2535 9.61331C7.33533 9.58158 7.41009 9.53401 7.4735 9.47331L10.1402 6.80665C10.2657 6.68111 10.3362 6.51085 10.3362 6.33331C10.3362 6.15578 10.2657 5.98552 10.1402 5.85998C10.0146 5.73444 9.84436 5.66392 9.66683 5.66392C9.4893 5.66392 9.31903 5.73444 9.1935 5.85998L7.66683 7.39331V0.99998C7.66683 0.823169 7.59659 0.653599 7.47157 0.528575C7.34654 0.403551 7.17697 0.333313 7.00016 0.333313C6.82335 0.333313 6.65378 0.403551 6.52876 0.528575C6.40373 0.653599 6.3335 0.823169 6.3335 0.99998V7.39331L4.80683 5.85998C4.74467 5.79782 4.67088 5.74851 4.58966 5.71487C4.50845 5.68123 4.4214 5.66392 4.3335 5.66392C4.24559 5.66392 4.15854 5.68123 4.07733 5.71487C3.99612 5.74851 3.92232 5.79782 3.86016 5.85998C3.798 5.92214 3.7487 5.99593 3.71506 6.07715C3.68142 6.15836 3.6641 6.24541 3.6641 6.33331C3.6641 6.42122 3.68142 6.50827 3.71506 6.58948C3.7487 6.67069 3.798 6.74449 3.86016 6.80665L6.52683 9.47331Z" fill="white"/>
</svg>
