<svg width="10" height="6" viewBox="0 0 10 6" fill="none" xmlns="http://www.w3.org/2000/svg">
<path d="M7.86002 0.526627L5.00002 3.39329L2.14002 0.526627C2.01448 0.401091 1.84422 0.330566 1.66669 0.330566C1.48915 0.330566 1.31889 0.401091 1.19335 0.526627C1.06782 0.652163 0.997292 0.822426 0.997292 0.999961C0.997292 1.1775 1.06782 1.34776 1.19335 1.47329L4.52669 4.80663C4.58866 4.86911 4.6624 4.91871 4.74363 4.95256C4.82487 4.9864 4.91201 5.00383 5.00002 5.00383C5.08803 5.00383 5.17516 4.9864 5.2564 4.95256C5.33764 4.91871 5.41138 4.86911 5.47335 4.80663L8.80669 1.47329C8.86884 1.41113 8.91815 1.33734 8.95179 1.25613C8.98543 1.17491 9.00275 1.08787 9.00275 0.999961C9.00275 0.912054 8.98543 0.825009 8.95179 0.743794C8.91815 0.662579 8.86884 0.588786 8.80669 0.526627C8.74453 0.464468 8.67073 0.415161 8.58952 0.381521C8.5083 0.34788 8.42126 0.330566 8.33335 0.330566C8.24545 0.330566 8.1584 0.34788 8.07719 0.381521C7.99597 0.415161 7.92218 0.464468 7.86002 0.526627Z" fill="#D2D4D4"/>
</svg>
