<svg width="8" height="6" viewBox="0 0 8 6" fill="none" xmlns="http://www.w3.org/2000/svg">
<path d="M7.80282 1.11183C7.67791 0.987663 7.50895 0.917969 7.33282 0.917969C7.1567 0.917969 6.98773 0.987663 6.86282 1.11183L4.46949 3.47183L2.10949 1.11183C1.98458 0.987663 1.81561 0.917969 1.63949 0.917969C1.46337 0.917969 1.2944 0.987663 1.16949 1.11183C1.107 1.17381 1.05741 1.24754 1.02356 1.32878C0.989715 1.41002 0.97229 1.49716 0.97229 1.58516C0.97229 1.67317 0.989715 1.76031 1.02356 1.84155C1.05741 1.92279 1.107 1.99652 1.16949 2.0585L3.99616 4.88516C4.05813 4.94765 4.13186 4.99725 4.2131 5.03109C4.29434 5.06494 4.38148 5.08236 4.46949 5.08236C4.5575 5.08236 4.64463 5.06494 4.72587 5.03109C4.80711 4.99725 4.88085 4.94765 4.94282 4.88516L7.80282 2.0585C7.86531 1.99652 7.9149 1.92279 7.94875 1.84155C7.9826 1.76031 8.00002 1.67317 8.00002 1.58516C8.00002 1.49716 7.9826 1.41002 7.94875 1.32878C7.9149 1.24754 7.86531 1.17381 7.80282 1.11183Z" fill="#778080"/>
</svg>
