<svg width="12" height="12" viewBox="0 0 12 12" fill="none" xmlns="http://www.w3.org/2000/svg">
<path d="M8.33333 10.667H3.66667C3.20254 10.667 2.75742 10.4826 2.42923 10.1544C2.10104 9.82624 1.91667 9.38112 1.91667 8.91699V3.08366C1.91667 2.92895 1.85521 2.78058 1.74581 2.67118C1.63642 2.56178 1.48804 2.50033 1.33333 2.50033C1.17862 2.50033 1.03025 2.56178 0.920854 2.67118C0.811458 2.78058 0.75 2.92895 0.75 3.08366V8.91699C0.75 9.69054 1.05729 10.4324 1.60427 10.9794C2.15125 11.5264 2.89312 11.8337 3.66667 11.8337H8.33333C8.48804 11.8337 8.63642 11.7722 8.74581 11.6628C8.85521 11.5534 8.91667 11.405 8.91667 11.2503C8.91667 11.0956 8.85521 10.9472 8.74581 10.8378C8.63642 10.7285 8.48804 10.667 8.33333 10.667ZM11.25 4.21533C11.2439 4.16174 11.2322 4.10894 11.215 4.05783V4.00533C11.187 3.94535 11.1495 3.89021 11.1042 3.84199L7.60417 0.341992C7.55595 0.296618 7.50081 0.259206 7.44083 0.231159H7.38833L7.20167 0.166992H4.83333C4.3692 0.166992 3.92409 0.351367 3.5959 0.679555C3.26771 1.00774 3.08333 1.45286 3.08333 1.91699V7.75033C3.08333 8.21445 3.26771 8.65957 3.5959 8.98776C3.92409 9.31595 4.3692 9.50033 4.83333 9.50033H9.5C9.96413 9.50033 10.4092 9.31595 10.7374 8.98776C11.0656 8.65957 11.25 8.21445 11.25 7.75033V4.25033C11.25 4.25033 11.25 4.25033 11.25 4.21533ZM7.75 2.15616L9.26083 3.66699H8.33333C8.17862 3.66699 8.03025 3.60553 7.92085 3.49614C7.81146 3.38674 7.75 3.23837 7.75 3.08366V2.15616ZM10.0833 7.75033C10.0833 7.90504 10.0219 8.05341 9.91248 8.16281C9.80308 8.2722 9.65471 8.33366 9.5 8.33366H4.83333C4.67862 8.33366 4.53025 8.2722 4.42085 8.16281C4.31146 8.05341 4.25 7.90504 4.25 7.75033V1.91699C4.25 1.76228 4.31146 1.61391 4.42085 1.50451C4.53025 1.39512 4.67862 1.33366 4.83333 1.33366H6.58333V3.08366C6.58333 3.54779 6.76771 3.99291 7.0959 4.3211C7.42408 4.64928 7.8692 4.83366 8.33333 4.83366H10.0833V7.75033Z" fill="#0A2828"/>
</svg>
