<svg width="12" height="12" viewBox="0 0 12 12" fill="none" xmlns="http://www.w3.org/2000/svg">
<path d="M11.8333 3.22318C11.8337 3.14641 11.819 3.07031 11.79 2.99923C11.761 2.92816 11.7182 2.86352 11.6641 2.80901L9.1908 0.33568C9.1363 0.281616 9.07165 0.238843 9.00058 0.209814C8.92951 0.180784 8.85341 0.16607 8.77664 0.166514C8.69987 0.16607 8.62376 0.180784 8.55269 0.209814C8.48162 0.238843 8.41698 0.281616 8.36247 0.33568L6.71164 1.98651L0.335802 8.36235C0.281738 8.41685 0.238965 8.4815 0.209936 8.55257C0.180906 8.62364 0.166192 8.69974 0.166636 8.77652V11.2498C0.166636 11.4046 0.228094 11.5529 0.33749 11.6623C0.446886 11.7717 0.595259 11.8332 0.749969 11.8332H3.2233C3.30493 11.8376 3.38657 11.8249 3.46295 11.7957C3.53932 11.7666 3.60872 11.7217 3.66664 11.664L10.0075 5.28818L11.6641 3.66651C11.7174 3.60998 11.7608 3.54491 11.7925 3.47401C11.7981 3.42752 11.7981 3.38051 11.7925 3.33401C11.7952 3.30686 11.7952 3.2795 11.7925 3.25235L11.8333 3.22318ZM2.98414 10.6665H1.3333V9.01568L7.1258 3.22318L8.77664 4.87401L2.98414 10.6665ZM9.59914 4.05151L7.9483 2.40068L8.77664 1.57818L10.4216 3.22318L9.59914 4.05151Z" fill="#0A2828"/>
</svg>
