<svg width="16" height="16" viewBox="0 0 16 16" fill="none" xmlns="http://www.w3.org/2000/svg">
<path d="M15.5 4.43001C15.5006 4.33131 15.4817 4.23346 15.4443 4.14208C15.407 4.0507 15.352 3.96759 15.2825 3.89751L12.1025 0.717513C12.0324 0.648001 11.9493 0.593008 11.8579 0.555684C11.7666 0.518361 11.6687 0.499442 11.57 0.500013C11.4713 0.499442 11.3735 0.518361 11.2821 0.555684C11.1907 0.593008 11.1076 0.648001 11.0375 0.717513L8.91501 2.84001L0.717513 11.0375C0.648001 11.1076 0.593008 11.1907 0.555684 11.2821C0.518361 11.3735 0.499442 11.4713 0.500013 11.57V14.75C0.500013 14.9489 0.57903 15.1397 0.719682 15.2803C0.860335 15.421 1.0511 15.5 1.25001 15.5H4.43001C4.53496 15.5057 4.63993 15.4893 4.73813 15.4518C4.83632 15.4144 4.92555 15.3567 5.00001 15.2825L13.1525 7.08501L15.2825 5.00001C15.351 4.92732 15.4067 4.84366 15.4475 4.75251C15.4547 4.69273 15.4547 4.63229 15.4475 4.57251C15.451 4.5376 15.451 4.50242 15.4475 4.46751L15.5 4.43001ZM4.12251 14H2.00001V11.8775L9.44751 4.43001L11.57 6.55251L4.12251 14ZM12.6275 5.49501L10.505 3.37251L11.57 2.31501L13.685 4.43001L12.6275 5.49501Z" fill="#7B61FF"/>
</svg>
