<svg width="14" height="14" viewBox="0 0 14 14" fill="none" xmlns="http://www.w3.org/2000/svg">
<path d="M13 7.00012C12.8232 7.00012 12.6536 7.07036 12.5286 7.19538C12.4036 7.32041 12.3333 7.48998 12.3333 7.66679V11.6668C12.3333 11.8436 12.2631 12.0132 12.1381 12.1382C12.013 12.2632 11.8435 12.3335 11.6667 12.3335H2.33333C2.15652 12.3335 1.98695 12.2632 1.86193 12.1382C1.73691 12.0132 1.66667 11.8436 1.66667 11.6668V2.33346C1.66667 2.15664 1.73691 1.98708 1.86193 1.86205C1.98695 1.73703 2.15652 1.66679 2.33333 1.66679H6.33333C6.51015 1.66679 6.67971 1.59655 6.80474 1.47153C6.92976 1.3465 7 1.17693 7 1.00012C7 0.823311 6.92976 0.653742 6.80474 0.528718C6.67971 0.403693 6.51015 0.333455 6.33333 0.333455H2.33333C1.8029 0.333455 1.29419 0.544169 0.91912 0.919242C0.544048 1.29431 0.333334 1.80302 0.333334 2.33346V11.6668C0.333334 12.1972 0.544048 12.7059 0.91912 13.081C1.29419 13.4561 1.8029 13.6668 2.33333 13.6668H11.6667C12.1971 13.6668 12.7058 13.4561 13.0809 13.081C13.456 12.7059 13.6667 12.1972 13.6667 11.6668V7.66679C13.6667 7.48998 13.5964 7.32041 13.4714 7.19538C13.3464 7.07036 13.1768 7.00012 13 7.00012ZM3 7.50679V10.3335C3 10.5103 3.07024 10.6798 3.19526 10.8049C3.32029 10.9299 3.48986 11.0001 3.66667 11.0001H6.49333C6.58107 11.0006 6.66805 10.9838 6.74927 10.9506C6.8305 10.9175 6.90437 10.8686 6.96667 10.8068L11.58 6.18679L13.4733 4.33346C13.5358 4.27148 13.5854 4.19775 13.6193 4.11651C13.6531 4.03527 13.6705 3.94813 13.6705 3.86012C13.6705 3.77211 13.6531 3.68498 13.6193 3.60374C13.5854 3.5225 13.5358 3.44876 13.4733 3.38679L10.6467 0.526789C10.5847 0.464303 10.511 0.414707 10.4297 0.380861C10.3485 0.347015 10.2613 0.32959 10.1733 0.32959C10.0853 0.32959 9.99819 0.347015 9.91695 0.380861C9.83571 0.414707 9.76198 0.464303 9.7 0.526789L7.82 2.41346L3.19333 7.03346C3.13155 7.09575 3.08266 7.16963 3.04949 7.25085C3.01631 7.33208 2.99949 7.41905 3 7.50679ZM10.1733 1.94012L12.06 3.82679L11.1133 4.77346L9.22667 2.88679L10.1733 1.94012ZM4.33333 7.78012L8.28667 3.82679L10.1733 5.71346L6.22 9.66679H4.33333V7.78012Z" fill="#04D68F"/>
</svg>
