<svg width="14" height="12" viewBox="0 0 14 12" fill="none" xmlns="http://www.w3.org/2000/svg">
<path d="M11.6666 0.666687H2.33325C1.80282 0.666687 1.29411 0.877401 0.919038 1.25247C0.543966 1.62755 0.333252 2.13625 0.333252 2.66669V9.33335C0.333252 9.86379 0.543966 10.3725 0.919038 10.7476C1.29411 11.1226 1.80282 11.3334 2.33325 11.3334H11.6666C12.197 11.3334 12.7057 11.1226 13.0808 10.7476C13.4559 10.3725 13.6666 9.86379 13.6666 9.33335V2.66669C13.6666 2.13625 13.4559 1.62755 13.0808 1.25247C12.7057 0.877401 12.197 0.666687 11.6666 0.666687ZM11.3933 2.00002L7.47325 5.92002C7.41128 5.98251 7.33754 6.0321 7.2563 6.06595C7.17506 6.09979 7.08793 6.11722 6.99992 6.11722C6.91191 6.11722 6.82477 6.09979 6.74353 6.06595C6.66229 6.0321 6.58856 5.98251 6.52659 5.92002L2.60659 2.00002H11.3933ZM12.3333 9.33335C12.3333 9.51016 12.263 9.67973 12.138 9.80476C12.013 9.92978 11.8434 10 11.6666 10H2.33325C2.15644 10 1.98687 9.92978 1.86185 9.80476C1.73682 9.67973 1.66659 9.51016 1.66659 9.33335V2.94002L5.58659 6.86002C5.96159 7.23455 6.46992 7.44493 6.99992 7.44493C7.52992 7.44493 8.03825 7.23455 8.41325 6.86002L12.3333 2.94002V9.33335Z" fill="#D2D4D4"/>
</svg>
