<svg width="14" height="12" viewBox="0 0 14 12" fill="none" xmlns="http://www.w3.org/2000/svg">
<path d="M11.6666 0.666687H2.33331C1.80288 0.666687 1.29417 0.877401 0.9191 1.25247C0.544027 1.62755 0.333313 2.13625 0.333313 2.66669V9.33335C0.333313 9.86379 0.544027 10.3725 0.9191 10.7476C1.29417 11.1226 1.80288 11.3334 2.33331 11.3334H11.6666C12.1971 11.3334 12.7058 11.1226 13.0809 10.7476C13.4559 10.3725 13.6666 9.86379 13.6666 9.33335V2.66669C13.6666 2.13625 13.4559 1.62755 13.0809 1.25247C12.7058 0.877401 12.1971 0.666687 11.6666 0.666687ZM11.3933 2.00002L7.47331 5.92002C7.41134 5.98251 7.3376 6.0321 7.25636 6.06595C7.17513 6.09979 7.08799 6.11722 6.99998 6.11722C6.91197 6.11722 6.82483 6.09979 6.7436 6.06595C6.66236 6.0321 6.58862 5.98251 6.52665 5.92002L2.60665 2.00002H11.3933ZM12.3333 9.33335C12.3333 9.51016 12.2631 9.67973 12.1381 9.80476C12.013 9.92978 11.8435 10 11.6666 10H2.33331C2.1565 10 1.98693 9.92978 1.86191 9.80476C1.73688 9.67973 1.66665 9.51016 1.66665 9.33335V2.94002L5.58665 6.86002C5.96165 7.23455 6.46998 7.44493 6.99998 7.44493C7.52998 7.44493 8.03831 7.23455 8.41331 6.86002L12.3333 2.94002V9.33335Z" fill="#8E9595"/>
</svg>
