<svg width="28" height="26" viewBox="0 0 28 26" fill="none" xmlns="http://www.w3.org/2000/svg">
<path d="M20.2801 18.7201L2.94681 1.38675C2.69573 1.13568 2.35521 0.994629 2.00014 0.994629C1.64507 0.994629 1.30454 1.13568 1.05347 1.38675C0.8024 1.63782 0.661349 1.97835 0.661349 2.33342C0.661349 2.68849 0.8024 3.02901 1.05347 3.28008L5.53347 7.74675C5.13958 8.59138 4.87442 9.49024 4.74681 10.4134C3.37932 10.6223 2.1465 11.3543 1.30856 12.455C0.470613 13.5557 0.0931189 14.9389 0.255754 16.3126C0.418389 17.6864 1.10843 18.9432 2.18022 19.8178C3.25201 20.6924 4.62169 21.1163 6.00014 21.0001H18.7868L22.3868 24.6134C22.5108 24.7384 22.6582 24.8376 22.8207 24.9053C22.9832 24.973 23.1575 25.0078 23.3335 25.0078C23.5095 25.0078 23.6838 24.973 23.8462 24.9053C24.0087 24.8376 24.1562 24.7384 24.2801 24.6134C24.4051 24.4895 24.5043 24.342 24.572 24.1795C24.6397 24.017 24.6745 23.8428 24.6745 23.6668C24.6745 23.4907 24.6397 23.3165 24.572 23.154C24.5043 22.9915 24.4051 22.844 24.2801 22.7201L20.2801 18.7201ZM6.00014 18.3334C5.29289 18.3334 4.61462 18.0525 4.11452 17.5524C3.61442 17.0523 3.33347 16.374 3.33347 15.6668C3.33347 14.9595 3.61442 14.2812 4.11452 13.7811C4.61462 13.281 5.29289 13.0001 6.00014 13.0001C6.35376 13.0001 6.6929 12.8596 6.94295 12.6096C7.193 12.3595 7.33347 12.0204 7.33347 11.6668C7.33473 11.0395 7.4245 10.4156 7.60014 9.81342L16.1201 18.3334H6.00014ZM22.5601 7.96008C21.8373 6.28974 20.6419 4.86718 19.121 3.86747C17.6002 2.86776 15.8202 2.33454 14.0001 2.33342C12.9457 2.32834 11.8986 2.50888 10.9068 2.86675C10.6028 3.00411 10.3613 3.25047 10.23 3.55719C10.0987 3.86391 10.0872 4.2087 10.1977 4.5235C10.3082 4.83829 10.5327 5.10022 10.8269 5.25757C11.1211 5.41492 11.4636 5.45625 11.7868 5.37342C12.4976 5.12248 13.2464 4.99618 14.0001 5.00008C15.3916 5.00111 16.7478 5.43749 17.8788 6.24806C19.0098 7.05863 19.8588 8.20275 20.3068 9.52008C20.383 9.7492 20.52 9.95333 20.7032 10.1107C20.8864 10.268 21.1088 10.3726 21.3468 10.4134C22.0248 10.5334 22.6604 10.8263 23.192 11.2639C23.7236 11.7014 24.1332 12.2688 24.3813 12.9111C24.6294 13.5534 24.7074 14.2488 24.608 14.9301C24.5085 15.6114 24.2348 16.2555 23.8135 16.8001C23.5955 17.0764 23.4955 17.4277 23.5355 17.7774C23.5755 18.1271 23.7521 18.4468 24.0268 18.6668C24.2614 18.855 24.5527 18.9583 24.8535 18.9601C25.0537 18.9592 25.2512 18.9131 25.4313 18.8254C25.6113 18.7377 25.7693 18.6106 25.8935 18.4534C26.562 17.5991 27.0119 16.5945 27.2042 15.5268C27.3965 14.4592 27.3253 13.3607 26.9969 12.3268C26.6684 11.2929 26.0926 10.3548 25.3195 9.59379C24.5463 8.83283 23.5991 8.27204 22.5601 7.96008Z" fill="white"/>
</svg>
