<svg width="14" height="14" viewBox="0 0 14 14" fill="none" xmlns="http://www.w3.org/2000/svg">
<path d="M7.00001 3.66671C6.8232 3.66671 6.65363 3.73695 6.52861 3.86197C6.40358 3.98699 6.33335 4.15656 6.33335 4.33337V7.00004C6.33335 7.17685 6.40358 7.34642 6.52861 7.47145C6.65363 7.59647 6.8232 7.66671 7.00001 7.66671C7.17682 7.66671 7.34639 7.59647 7.47142 7.47145C7.59644 7.34642 7.66668 7.17685 7.66668 7.00004V4.33337C7.66668 4.15656 7.59644 3.98699 7.47142 3.86197C7.34639 3.73695 7.17682 3.66671 7.00001 3.66671ZM7.61335 9.41337C7.59875 9.37089 7.57858 9.33054 7.55335 9.29337L7.47335 9.19337C7.3796 9.10087 7.26055 9.03821 7.13122 9.01329C7.0019 8.98837 6.86809 9.00232 6.74668 9.05337C6.66589 9.08714 6.59148 9.13449 6.52668 9.19337C6.46489 9.25567 6.41601 9.32955 6.38283 9.41077C6.34966 9.49199 6.33284 9.57897 6.33335 9.66671C6.3344 9.75383 6.35252 9.83989 6.38668 9.92004C6.41662 10.0028 6.46439 10.0779 6.5266 10.1401C6.58882 10.2023 6.66395 10.2501 6.74668 10.28C6.82648 10.3153 6.91277 10.3335 7.00001 10.3335C7.08726 10.3335 7.17355 10.3153 7.25335 10.28C7.33608 10.2501 7.41121 10.2023 7.47342 10.1401C7.53563 10.0779 7.58341 10.0028 7.61335 9.92004C7.64751 9.83989 7.66563 9.75383 7.66668 9.66671C7.66995 9.62232 7.66995 9.57776 7.66668 9.53337C7.6552 9.49086 7.63721 9.45038 7.61335 9.41337ZM7.00001 0.333374C5.68147 0.333374 4.39254 0.724367 3.29621 1.45691C2.19988 2.18945 1.3454 3.23064 0.840816 4.44882C0.336232 5.66699 0.20421 7.00744 0.461445 8.30064C0.718679 9.59385 1.35362 10.7817 2.28597 11.7141C3.21832 12.6464 4.4062 13.2814 5.69941 13.5386C6.99262 13.7958 8.33306 13.6638 9.55124 13.1592C10.7694 12.6547 11.8106 11.8002 12.5431 10.7038C13.2757 9.60751 13.6667 8.31858 13.6667 7.00004C13.6667 6.12456 13.4942 5.25766 13.1592 4.44882C12.8242 3.63998 12.3331 2.90505 11.7141 2.286C11.095 1.66694 10.3601 1.17588 9.55124 0.840844C8.7424 0.505812 7.87549 0.333374 7.00001 0.333374ZM7.00001 12.3334C5.94518 12.3334 4.91403 12.0206 4.03697 11.4345C3.15991 10.8485 2.47632 10.0156 2.07266 9.04102C1.66899 8.06648 1.56337 6.99412 1.76916 5.95956C1.97495 4.92499 2.4829 3.97468 3.22878 3.2288C3.97466 2.48292 4.92497 1.97497 5.95953 1.76919C6.9941 1.5634 8.06645 1.66902 9.04099 2.07268C10.0155 2.47635 10.8485 3.15994 11.4345 4.037C12.0206 4.91406 12.3333 5.94521 12.3333 7.00004C12.3333 8.41453 11.7714 9.77108 10.7712 10.7713C9.77106 11.7715 8.4145 12.3334 7.00001 12.3334Z" fill="#E05269"/>
</svg>
