<svg width="14" height="14" viewBox="0 0 14 14" fill="none" xmlns="http://www.w3.org/2000/svg">
<path d="M11.6663 0.333252H2.33301C1.80257 0.333252 1.29387 0.543966 0.918794 0.919038C0.543722 1.29411 0.333008 1.80282 0.333008 2.33325V3.11325C0.332912 3.38855 0.389652 3.6609 0.499675 3.91325V3.95325C0.593861 4.16723 0.727269 4.36169 0.893008 4.52659L4.99967 8.60659V12.9999C4.99945 13.1132 5.0281 13.2247 5.08292 13.3238C5.13775 13.423 5.21693 13.5065 5.31301 13.5666C5.4191 13.6323 5.54152 13.667 5.66634 13.6666C5.7707 13.666 5.87346 13.6408 5.96634 13.5933L8.63301 12.2599C8.74295 12.2045 8.83541 12.1198 8.90013 12.015C8.96485 11.9103 8.9993 11.7897 8.99967 11.6666V8.60659L13.0797 4.52659C13.2454 4.36169 13.3788 4.16723 13.473 3.95325V3.91325C13.5922 3.66287 13.6581 3.39044 13.6663 3.11325V2.33325C13.6663 1.80282 13.4556 1.29411 13.0806 0.919038C12.7055 0.543966 12.1968 0.333252 11.6663 0.333252ZM7.85967 7.85992C7.79789 7.92221 7.749 7.99609 7.71583 8.07731C7.68265 8.15854 7.66583 8.24551 7.66634 8.33325V11.2533L6.33301 11.9199V8.33325C6.33352 8.24551 6.3167 8.15854 6.28352 8.07731C6.25035 7.99609 6.20146 7.92221 6.13967 7.85992L2.60634 4.33325H11.393L7.85967 7.85992ZM12.333 2.99992H1.66634V2.33325C1.66634 2.15644 1.73658 1.98687 1.8616 1.86185C1.98663 1.73682 2.1562 1.66659 2.33301 1.66659H11.6663C11.8432 1.66659 12.0127 1.73682 12.1377 1.86185C12.2628 1.98687 12.333 2.15644 12.333 2.33325V2.99992Z" fill="#455252"/>
</svg>
