<svg width="14" height="14" viewBox="0 0 14 14" fill="none" xmlns="http://www.w3.org/2000/svg">
<path d="M11.6663 0.333344H2.33301C1.80257 0.333344 1.29387 0.544057 0.918794 0.91913C0.543722 1.2942 0.333008 1.80291 0.333008 2.33334V3.11334C0.332912 3.38864 0.389652 3.66099 0.499675 3.91334V3.95334C0.593861 4.16732 0.727269 4.36178 0.893008 4.52668L4.99967 8.60668V13C4.99945 13.1133 5.0281 13.2248 5.08292 13.3239C5.13775 13.4231 5.21693 13.5066 5.31301 13.5667C5.4191 13.6324 5.54152 13.6671 5.66634 13.6667C5.7707 13.6661 5.87346 13.6409 5.96634 13.5933L8.63301 12.26C8.74295 12.2046 8.83541 12.1198 8.90013 12.0151C8.96485 11.9104 8.9993 11.7898 8.99967 11.6667V8.60668L13.0797 4.52668C13.2454 4.36178 13.3788 4.16732 13.473 3.95334V3.91334C13.5922 3.66296 13.6581 3.39053 13.6663 3.11334V2.33334C13.6663 1.80291 13.4556 1.2942 13.0806 0.91913C12.7055 0.544057 12.1968 0.333344 11.6663 0.333344ZM7.85967 7.86001C7.79789 7.9223 7.749 7.99618 7.71583 8.07741C7.68265 8.15863 7.66583 8.24561 7.66634 8.33334V11.2533L6.33301 11.92V8.33334C6.33352 8.24561 6.3167 8.15863 6.28352 8.07741C6.25035 7.99618 6.20146 7.9223 6.13967 7.86001L2.60634 4.33334H11.393L7.85967 7.86001ZM12.333 3.00001H1.66634V2.33334C1.66634 2.15653 1.73658 1.98696 1.8616 1.86194C1.98663 1.73691 2.1562 1.66668 2.33301 1.66668H11.6663C11.8432 1.66668 12.0127 1.73691 12.1377 1.86194C12.2628 1.98696 12.333 2.15653 12.333 2.33334V3.00001Z" fill="white"/>
</svg>
