<svg width="19" height="20" viewBox="0 0 19 20" fill="none" xmlns="http://www.w3.org/2000/svg">
<path d="M18.3353 8.33659C18.3005 8.14441 18.1994 7.97052 18.0496 7.84528C17.8997 7.72004 17.7107 7.65141 17.5154 7.65136H9.66668C9.55724 7.65134 9.44887 7.67287 9.34775 7.71474C9.24663 7.75661 9.15475 7.81799 9.07737 7.89538C8.99998 7.97277 8.9386 8.06464 8.89673 8.16576C8.85486 8.26688 8.83332 8.37525 8.83335 8.4847V11.7082C8.83332 11.8176 8.85486 11.926 8.89673 12.0271C8.9386 12.1282 8.99998 12.2201 9.07737 12.2975C9.15475 12.3749 9.24663 12.4363 9.34775 12.4781C9.44887 12.52 9.55724 12.5415 9.66668 12.5415H12.9687C12.7334 12.9386 12.4109 13.277 12.0255 13.5311C11.3212 13.9776 10.5004 14.2053 9.66668 14.1854C8.80208 14.1755 7.96258 13.8933 7.2675 13.3791C6.57242 12.8648 6.05712 12.1445 5.79482 11.3205L5.79458 11.3192C5.50269 10.4637 5.50269 9.53551 5.79458 8.68L5.79478 8.67862C6.05726 7.85488 6.57264 7.13479 7.26771 6.62065C7.96278 6.10652 8.80219 5.82448 9.66668 5.81461C10.147 5.80359 10.6248 5.88756 11.0726 6.06171C11.5204 6.23586 11.9294 6.49676 12.2761 6.82942C12.4336 6.97989 12.6437 7.06277 12.8614 7.06034C13.0792 7.0579 13.2874 6.97035 13.4415 6.81641L15.8316 4.42626C15.9108 4.34718 15.9732 4.25295 16.0152 4.1492C16.0571 4.04544 16.0777 3.9343 16.0757 3.82241C16.0738 3.71051 16.0493 3.60016 16.0037 3.49795C15.9581 3.39575 15.8924 3.30378 15.8104 3.22754C14.1472 1.66812 11.9465 0.810506 9.66668 0.83333C7.96663 0.8283 6.29898 1.29834 4.85179 2.19045C3.4046 3.08255 2.23544 4.36124 1.47613 5.88231L1.47491 5.88379C0.831182 7.16025 0.497199 8.57041 0.500018 10C0.502045 11.429 0.835783 12.8381 1.47495 14.1162L1.47618 14.1177C2.23547 15.6388 3.40463 16.9174 4.85182 17.8095C6.299 18.7016 7.96664 19.1717 9.66668 19.1667C11.9045 19.2233 14.0793 18.4222 15.7456 16.9275L15.7462 16.9271L15.7469 16.9264L15.747 16.9263L15.7471 16.9262C16.6503 16.0573 17.3617 15.0091 17.8359 13.849C18.31 12.6889 18.5362 11.4424 18.5001 10.1896C18.5005 9.56827 18.4453 8.94812 18.3353 8.33659ZM9.66668 2.5C11.2259 2.48482 12.7483 2.97378 14.0071 3.89404L12.7957 5.105C11.8772 4.46921 10.7837 4.13475 9.66668 4.14795C8.64687 4.15319 7.64688 4.43011 6.76963 4.95018C5.89238 5.47026 5.16957 6.21472 4.67559 7.10693L3.78458 6.41631L3.29708 6.03826C3.96773 4.95313 4.90541 4.05808 6.02055 3.43863C7.13569 2.81918 8.39105 2.49601 9.66668 2.5ZM2.56622 12.4194C2.03345 10.8505 2.03345 9.14953 2.56622 7.58056L4.05141 8.7321C3.86152 9.56643 3.86152 10.4328 4.05141 11.2671L2.56622 12.4194ZM9.66668 17.5C8.39103 17.504 7.13566 17.1808 6.0205 16.5613C4.90535 15.9418 3.96766 15.0467 3.29702 13.9616L3.61236 13.717L4.67559 12.8922C5.16935 13.7847 5.89209 14.5294 6.76937 15.0496C7.64665 15.5699 8.64676 15.8469 9.66668 15.852C10.6214 15.8633 11.5653 15.6489 12.4215 15.2264L13.8312 16.3208C12.5913 17.1197 11.1413 17.5303 9.66668 17.5ZM15.1049 15.1994L14.9524 15.081L13.8046 14.19C14.4065 13.5398 14.811 12.7318 14.971 11.8604C14.9934 11.7401 14.989 11.6164 14.9581 11.498C14.9273 11.3796 14.8707 11.2694 14.7925 11.1753C14.7143 11.0813 14.6163 11.0056 14.5055 10.9536C14.3947 10.9017 14.2739 10.8748 14.1515 10.8749H10.5V9.31803H16.7907C16.8192 9.60611 16.8334 9.89746 16.8334 10.1896C16.8822 12.0136 16.268 13.7935 15.1049 15.1994H15.1049Z" fill="#EB4336"/>
</svg>
