<svg width="6" height="8" viewBox="0 0 6 8" fill="none" xmlns="http://www.w3.org/2000/svg">
<path d="M4.88669 3.52667L2.06002 0.700006C1.99805 0.637521 1.92431 0.587925 1.84307 0.554079C1.76183 0.520233 1.6747 0.502808 1.58669 0.502808C1.49868 0.502808 1.41154 0.520233 1.33031 0.554079C1.24907 0.587925 1.17533 0.637521 1.11336 0.700006C0.989189 0.824915 0.919495 0.993883 0.919495 1.17001C0.919495 1.34613 0.989189 1.5151 1.11336 1.64001L3.47336 4.00001L1.11336 6.36001C0.989189 6.48491 0.919495 6.65388 0.919495 6.83001C0.919495 7.00613 0.989189 7.1751 1.11336 7.30001C1.17565 7.36179 1.24953 7.41068 1.33075 7.44385C1.41198 7.47703 1.49895 7.49385 1.58669 7.49334C1.67443 7.49385 1.7614 7.47703 1.84263 7.44385C1.92385 7.41068 1.99773 7.36179 2.06002 7.30001L4.88669 4.47334C4.94918 4.41136 4.99877 4.33763 5.03262 4.25639C5.06646 4.17515 5.08389 4.08801 5.08389 4.00001C5.08389 3.912 5.06646 3.82486 5.03262 3.74362C4.99877 3.66238 4.94918 3.58865 4.88669 3.52667Z" fill="#D2D4D4"/>
</svg>
