<svg width="12" height="12" viewBox="0 0 12 12" fill="none" xmlns="http://www.w3.org/2000/svg">
<path d="M5.99984 0.166992C4.5044 0.171258 3.06771 0.749692 1.9865 1.78283V0.750326C1.9865 0.595616 1.92505 0.447243 1.81565 0.337847C1.70625 0.22845 1.55788 0.166992 1.40317 0.166992C1.24846 0.166992 1.10009 0.22845 0.990692 0.337847C0.881295 0.447243 0.819837 0.595616 0.819837 0.750326V3.37533C0.819837 3.53004 0.881295 3.67841 0.990692 3.7878C1.10009 3.8972 1.24846 3.95866 1.40317 3.95866H4.02817C4.18288 3.95866 4.33125 3.8972 4.44065 3.7878C4.55005 3.67841 4.6115 3.53004 4.6115 3.37533C4.6115 3.22062 4.55005 3.07224 4.44065 2.96285C4.33125 2.85345 4.18288 2.79199 4.02817 2.79199H2.62817C3.37821 2.0082 4.37788 1.51021 5.45532 1.38363C6.53275 1.25706 7.62062 1.50981 8.53189 2.09843C9.44315 2.68706 10.1209 3.57477 10.4485 4.60895C10.7762 5.64313 10.7333 6.75916 10.3272 7.76514C9.92119 8.77112 9.17735 9.60421 8.2236 10.1212C7.26985 10.6381 6.16579 10.8067 5.10124 10.5978C4.0367 10.3889 3.07819 9.81564 2.39052 8.97661C1.70284 8.13757 1.32896 7.08516 1.33317 6.00033C1.33317 5.84562 1.27171 5.69724 1.16232 5.58785C1.05292 5.47845 0.904547 5.41699 0.749837 5.41699C0.595128 5.41699 0.446754 5.47845 0.337358 5.58785C0.227962 5.69724 0.166504 5.84562 0.166504 6.00033C0.166504 7.15405 0.508623 8.28187 1.1496 9.24115C1.79057 10.2004 2.70161 10.9481 3.76752 11.3896C4.83342 11.8311 6.00631 11.9467 7.13786 11.7216C8.26942 11.4965 9.30882 10.9409 10.1246 10.1251C10.9404 9.30931 11.496 8.26991 11.7211 7.13835C11.9462 6.0068 11.8306 4.83391 11.3891 3.76801C10.9476 2.7021 10.2 1.79106 9.24066 1.15009C8.28138 0.509111 7.15356 0.166992 5.99984 0.166992ZM5.99984 3.66699C5.84513 3.66699 5.69675 3.72845 5.58736 3.83785C5.47796 3.94724 5.4165 4.09562 5.4165 4.25033V6.00033C5.4165 6.15504 5.47796 6.30341 5.58736 6.4128C5.69675 6.5222 5.84513 6.58366 5.99984 6.58366H7.1665C7.32121 6.58366 7.46959 6.5222 7.57898 6.4128C7.68838 6.30341 7.74984 6.15504 7.74984 6.00033C7.74984 5.84562 7.68838 5.69724 7.57898 5.58785C7.46959 5.47845 7.32121 5.41699 7.1665 5.41699H6.58317V4.25033C6.58317 4.09562 6.52171 3.94724 6.41232 3.83785C6.30292 3.72845 6.15455 3.66699 5.99984 3.66699Z" fill="black"/>
</svg>
