<svg width="12" height="14" viewBox="0 0 12 14" fill="none" xmlns="http://www.w3.org/2000/svg">
<path d="M11.3333 4.33334L7.33333 0.826671C6.96665 0.498701 6.49196 0.317383 6 0.317383C5.50805 0.317383 5.03335 0.498701 4.66667 0.826671L0.666669 4.33334C0.454914 4.52272 0.285935 4.75504 0.170983 5.01483C0.0560313 5.27463 -0.00225607 5.55592 2.16092e-06 5.84V11.6667C2.16092e-06 12.1971 0.210716 12.7058 0.585789 13.0809C0.960861 13.456 1.46957 13.6667 2 13.6667H10C10.5304 13.6667 11.0391 13.456 11.4142 13.0809C11.7893 12.7058 12 12.1971 12 11.6667V5.83334C12.0013 5.55038 11.9426 5.27036 11.8276 5.01179C11.7127 4.75322 11.5442 4.52197 11.3333 4.33334ZM7.33333 12.3333H4.66667V9C4.66667 8.82319 4.73691 8.65362 4.86193 8.5286C4.98696 8.40357 5.15652 8.33334 5.33333 8.33334H6.66667C6.84348 8.33334 7.01305 8.40357 7.13807 8.5286C7.2631 8.65362 7.33333 8.82319 7.33333 9V12.3333ZM10.6667 11.6667C10.6667 11.8435 10.5964 12.0131 10.4714 12.1381C10.3464 12.2631 10.1768 12.3333 10 12.3333H8.66667V9C8.66667 8.46957 8.45595 7.96086 8.08088 7.58579C7.70581 7.21072 7.1971 7 6.66667 7H5.33333C4.8029 7 4.29419 7.21072 3.91912 7.58579C3.54405 7.96086 3.33334 8.46957 3.33334 9V12.3333H2C1.82319 12.3333 1.65362 12.2631 1.5286 12.1381C1.40357 12.0131 1.33334 11.8435 1.33334 11.6667V5.83334C1.33346 5.73868 1.35373 5.64513 1.39281 5.55892C1.4319 5.47271 1.48889 5.39581 1.56 5.33334L5.56 1.83334C5.68166 1.72646 5.83806 1.66751 6 1.66751C6.16194 1.66751 6.31834 1.72646 6.44 1.83334L10.44 5.33334C10.5111 5.39581 10.5681 5.47271 10.6072 5.55892C10.6463 5.64513 10.6665 5.73868 10.6667 5.83334V11.6667Z" fill="#D2D4D4"/>
</svg>
