<svg width="120" height="120" viewBox="0 0 120 120" fill="none" xmlns="http://www.w3.org/2000/svg">
<rect width="120" height="120" rx="8" fill="#04D68F"/>
<path d="M81 36.6667H39C38.3811 36.6667 37.7876 36.9125 37.35 37.3501C36.9125 37.7877 36.6666 38.3812 36.6666 39V81C36.6666 81.6189 36.9125 82.2124 37.35 82.6499C37.7876 83.0875 38.3811 83.3334 39 83.3334H81C81.6188 83.3334 82.2123 83.0875 82.6499 82.6499C83.0875 82.2124 83.3333 81.6189 83.3333 81V39C83.3333 38.3812 83.0875 37.7877 82.6499 37.3501C82.2123 36.9125 81.6188 36.6667 81 36.6667ZM57.6666 78.6667H41.3333V62.3334H57.6666V78.6667ZM57.6666 57.6667H41.3333V41.3334H57.6666V57.6667ZM78.6666 78.6667H62.3333V62.3334H78.6666V78.6667ZM78.6666 57.6667H62.3333V41.3334H78.6666V57.6667Z" fill="white"/>
</svg>
