<svg width="120" height="120" viewBox="0 0 120 120" fill="none" xmlns="http://www.w3.org/2000/svg">
<rect width="120" height="120" rx="8" fill="#04D68F"/>
<path d="M60.2567 67.91L51.2034 76.9633C50.1073 78.0212 48.6434 78.6124 47.1201 78.6124C45.5967 78.6124 44.1328 78.0212 43.0367 76.9633C42.4991 76.4278 42.0726 75.7915 41.7815 75.0907C41.4905 74.39 41.3406 73.6387 41.3406 72.88C41.3406 72.1212 41.4905 71.3699 41.7815 70.6692C42.0726 69.9684 42.4991 69.3321 43.0367 68.7966L52.0901 59.7433C52.5294 59.3039 52.7763 58.708 52.7763 58.0866C52.7763 57.4653 52.5294 56.8693 52.0901 56.43C51.6507 55.9906 51.0548 55.7437 50.4334 55.7437C49.812 55.7437 49.2161 55.9906 48.7767 56.43L39.7234 65.5066C37.8996 67.4918 36.9132 70.1048 36.9702 72.8C37.0273 75.4952 38.1234 78.0642 40.0296 79.9704C41.9358 81.8766 44.5048 82.9727 47.2 83.0298C49.8952 83.0868 52.5082 82.1005 54.4934 80.2766L63.5701 71.2233C64.0094 70.7839 64.2563 70.188 64.2563 69.5666C64.2563 68.9453 64.0094 68.3493 63.5701 67.91C63.1307 67.4706 62.5348 67.2237 61.9134 67.2237C61.292 67.2237 60.6961 67.4706 60.2567 67.91ZM80.2767 39.7233C78.3139 37.7726 75.659 36.6778 72.8917 36.6778C70.1245 36.6778 67.4696 37.7726 65.5067 39.7233L56.4301 48.7766C56.2125 48.9942 56.0399 49.2525 55.9222 49.5367C55.8045 49.821 55.7439 50.1256 55.7439 50.4333C55.7439 50.741 55.8045 51.0456 55.9222 51.3299C56.0399 51.6141 56.2125 51.8724 56.4301 52.09C56.6476 52.3075 56.9059 52.4801 57.1902 52.5978C57.4744 52.7156 57.7791 52.7762 58.0867 52.7762C58.3944 52.7762 58.6991 52.7156 58.9833 52.5978C59.2676 52.4801 59.5258 52.3075 59.7434 52.09L68.7967 43.0366C69.8928 41.9788 71.3567 41.3876 72.8801 41.3876C74.4034 41.3876 75.8673 41.9788 76.9634 43.0366C77.501 43.5721 77.9275 44.2084 78.2186 44.9092C78.5097 45.6099 78.6595 46.3612 78.6595 47.12C78.6595 47.8787 78.5097 48.63 78.2186 49.3307C77.9275 50.0315 77.501 50.6678 76.9634 51.2033L67.9101 60.2566C67.6914 60.4735 67.5178 60.7316 67.3993 61.0159C67.2809 61.3003 67.2199 61.6053 67.2199 61.9133C67.2199 62.2213 67.2809 62.5263 67.3993 62.8106C67.5178 63.095 67.6914 63.353 67.9101 63.57C68.127 63.7887 68.385 63.9622 68.6694 64.0807C68.9537 64.1992 69.2587 64.2602 69.5667 64.2602C69.8748 64.2602 70.1797 64.1992 70.4641 64.0807C70.7484 63.9622 71.0065 63.7887 71.2234 63.57L80.2767 54.4933C82.2274 52.5304 83.3222 49.8756 83.3222 47.1083C83.3222 44.341 82.2274 41.6861 80.2767 39.7233ZM52.6034 67.3966C52.8214 67.6129 53.08 67.784 53.3643 67.9001C53.6486 68.0162 53.953 68.0751 54.2601 68.0733C54.5671 68.0751 54.8716 68.0162 55.1558 67.9001C55.4401 67.784 55.6987 67.6129 55.9167 67.3966L67.3967 55.9166C67.8361 55.4772 68.0829 54.8813 68.0829 54.26C68.0829 53.6386 67.8361 53.0427 67.3967 52.6033C66.9574 52.1639 66.3614 51.9171 65.7401 51.9171C65.1187 51.9171 64.5228 52.1639 64.0834 52.6033L52.6034 64.0833C52.3847 64.3002 52.2111 64.5583 52.0927 64.8426C51.9742 65.1269 51.9132 65.4319 51.9132 65.74C51.9132 66.048 51.9742 66.353 52.0927 66.6373C52.2111 66.9216 52.3847 67.1797 52.6034 67.3966Z" fill="white"/>
</svg>
