<svg width="120" height="120" viewBox="0 0 120 120" fill="none" xmlns="http://www.w3.org/2000/svg">
<rect width="120" height="120" fill="#E5E5E5"/>
<rect width="120" height="120" rx="8" fill="#04D68F"/>
<path d="M82.6567 49.01C82.4397 48.7913 82.1817 48.6177 81.8973 48.4993C81.613 48.3808 81.308 48.3198 81 48.3198C80.692 48.3198 80.387 48.3808 80.1027 48.4993C79.8183 48.6177 79.5602 48.7913 79.3433 49.01L64.6667 63.71L54.6567 53.6767C54.4398 53.458 54.1817 53.2844 53.8973 53.1659C53.613 53.0475 53.308 52.9865 53 52.9865C52.692 52.9865 52.387 53.0475 52.1027 53.1659C51.8183 53.2844 51.5602 53.458 51.3433 53.6767L37.3433 67.6767C37.1246 67.8936 36.951 68.1517 36.8326 68.436C36.7141 68.7203 36.6531 69.0253 36.6531 69.3333C36.6531 69.6414 36.7141 69.9463 36.8326 70.2307C36.951 70.515 37.1246 70.7731 37.3433 70.99C37.5602 71.2087 37.8183 71.3823 38.1027 71.5008C38.387 71.6192 38.692 71.6802 39 71.6802C39.308 71.6802 39.613 71.6192 39.8973 71.5008C40.1817 71.3823 40.4398 71.2087 40.6567 70.99L53 58.6233L63.01 68.6567C63.2269 68.8754 63.485 69.049 63.7693 69.1674C64.0537 69.2859 64.3586 69.3469 64.6667 69.3469C64.9747 69.3469 65.2797 69.2859 65.564 69.1674C65.8483 69.049 66.1064 68.8754 66.3233 68.6567L82.6567 52.3233C82.8754 52.1064 83.049 51.8484 83.1674 51.564C83.2859 51.2797 83.3469 50.9747 83.3469 50.6667C83.3469 50.3586 83.2859 50.0537 83.1674 49.7693C83.049 49.485 82.8754 49.2269 82.6567 49.01V49.01Z" fill="white"/>
</svg>
