<svg width="120" height="120" viewBox="0 0 120 120" fill="none" xmlns="http://www.w3.org/2000/svg">
<rect width="120" height="120" rx="8" fill="#04D68F"/>
<path d="M69.3334 55.3333H64.6667V50.6667C64.6667 50.0478 64.4209 49.4543 63.9833 49.0168C63.5457 48.5792 62.9522 48.3333 62.3334 48.3333H50.6667C50.0479 48.3333 49.4544 48.5792 49.0168 49.0168C48.5792 49.4543 48.3334 50.0478 48.3334 50.6667V62.3333C48.3334 62.9522 48.5792 63.5457 49.0168 63.9833C49.4544 64.4208 50.0479 64.6667 50.6667 64.6667H55.3334V69.3333C55.3334 69.9522 55.5792 70.5457 56.0168 70.9833C56.4544 71.4208 57.0479 71.6667 57.6667 71.6667H69.3334C69.9522 71.6667 70.5457 71.4208 70.9833 70.9833C71.4209 70.5457 71.6667 69.9522 71.6667 69.3333V57.6667C71.6667 57.0478 71.4209 56.4543 70.9833 56.0168C70.5457 55.5792 69.9522 55.3333 69.3334 55.3333ZM55.3334 57.6667V60H53V53H60V55.3333H57.6667C57.0479 55.3333 56.4544 55.5792 56.0168 56.0168C55.5792 56.4543 55.3334 57.0478 55.3334 57.6667ZM67 67H60V60H67V67ZM81 74.6533V45.3467C81.6311 44.9957 82.1721 44.503 82.5804 43.9074C82.9888 43.3119 83.2534 42.6297 83.3533 41.9145C83.4533 41.1994 83.386 40.4708 83.1566 39.7861C82.9272 39.1014 82.5421 38.4792 82.0314 37.9686C81.5208 37.458 80.8987 37.0729 80.214 36.8435C79.5293 36.6141 78.8007 36.5467 78.0855 36.6467C77.3704 36.7467 76.6882 37.0113 76.0926 37.4196C75.4971 37.828 75.0044 38.369 74.6534 39H45.3467C44.9957 38.369 44.503 37.828 43.9075 37.4196C43.3119 37.0113 42.6297 36.7467 41.9146 36.6467C41.1994 36.5467 40.4708 36.6141 39.7861 36.8435C39.1014 37.0729 38.4793 37.458 37.9686 37.9686C37.458 38.4792 37.0729 39.1014 36.8435 39.7861C36.6141 40.4708 36.5468 41.1994 36.6467 41.9145C36.7467 42.6297 37.0113 43.3119 37.4196 43.9074C37.828 44.503 38.369 44.9957 39 45.3467V74.6533C38.369 75.0044 37.828 75.497 37.4196 76.0926C37.0113 76.6881 36.7467 77.3703 36.6467 78.0855C36.5468 78.8007 36.6141 79.5293 36.8435 80.214C37.0729 80.8987 37.458 81.5208 37.9686 82.0314C38.4793 82.542 39.1014 82.9272 39.7861 83.1565C40.4708 83.3859 41.1994 83.4533 41.9146 83.3533C42.6297 83.2533 43.3119 82.9888 43.9075 82.5804C44.503 82.1721 44.9957 81.6311 45.3467 81H74.6534C75.0044 81.6311 75.4971 82.1721 76.0926 82.5804C76.6882 82.9888 77.3704 83.2533 78.0855 83.3533C78.8007 83.4533 79.5293 83.3859 80.214 83.1565C80.8987 82.9272 81.5208 82.542 82.0314 82.0314C82.5421 81.5208 82.9272 80.8987 83.1566 80.214C83.386 79.5293 83.4533 78.8007 83.3533 78.0855C83.2534 77.3703 82.9888 76.6881 82.5804 76.0926C82.1721 75.497 81.6311 75.0044 81 74.6533ZM76.3334 74.6533C75.6317 75.051 75.051 75.6316 74.6534 76.3333H45.3467C44.949 75.6316 44.3684 75.051 43.6667 74.6533V45.3467C44.3684 44.949 44.949 44.3684 45.3467 43.6667H74.6534C75.051 44.3684 75.6317 44.949 76.3334 45.3467V74.6533Z" fill="white"/>
</svg>
