<svg width="120" height="120" viewBox="0 0 120 120" fill="none" xmlns="http://www.w3.org/2000/svg">
<rect width="120" height="120" rx="8" fill="#04D68F"/>
<path d="M58.1977 78.9878C58.1423 79.2109 58.0433 79.4209 57.9066 79.6057C57.7698 79.7905 57.598 79.9465 57.4008 80.0648C57.2037 80.1831 56.9852 80.2613 56.7578 80.2949C56.5304 80.3286 56.2985 80.3171 56.0756 80.261L49.4825 78.6129C48.9476 78.4784 48.4518 78.2201 48.035 77.8588L43.1021 73.5708C42.7517 73.2663 42.5367 72.8352 42.5043 72.3722C42.4719 71.9092 42.6248 71.4522 42.9292 71.1019C43.2337 70.7516 43.6649 70.5366 44.1279 70.5042C44.5909 70.4718 45.0478 70.6246 45.3981 70.9291L50.3315 75.2174L56.9245 76.8657C57.1475 76.9214 57.3573 77.0205 57.5419 77.1573C57.7266 77.2941 57.8825 77.466 58.0007 77.663C58.1189 77.8601 58.1972 78.0785 58.231 78.3058C58.2648 78.5332 58.2535 78.7649 58.1977 78.9878ZM87.2043 58.1528C87.0625 58.5956 86.8333 59.0055 86.5302 59.3581C86.2271 59.7107 85.8563 59.9989 85.4398 60.2056L80.3499 62.7505L77.0803 66.5755C77.0689 66.5888 77.0564 66.6011 77.0446 66.6141C77.0338 66.626 77.0231 66.6377 77.0121 66.6492C77.0038 66.6579 76.9961 66.6672 76.9876 66.6758L68.9383 74.7254C68.2783 75.3812 67.3857 75.7493 66.4553 75.7491C66.1718 75.7491 65.8893 75.7144 65.6143 75.6457L52.9362 72.4762C52.4603 72.3579 52.0149 72.1404 51.629 71.8379L39.8103 62.5961L34.5603 59.9711C34.1446 59.7632 33.7745 59.4746 33.4715 59.1221C33.1686 58.7697 32.9389 58.3604 32.7958 57.9182C32.6527 57.476 32.5991 57.0097 32.6381 56.5466C32.6771 56.0834 32.808 55.6327 33.0231 55.2207L38.4028 44.9182C38.8308 44.108 39.5581 43.4969 40.4299 43.2148C41.3017 42.9327 42.2491 43.0019 43.0706 43.4077L47.9652 45.855L58.6121 42.7511C59.4142 42.5176 60.2732 42.5783 61.0344 42.9223L68.2525 46.1884H71.8371L76.9297 43.6422C77.7511 43.2361 78.6987 43.1667 79.5705 43.4488C80.4423 43.731 81.1696 44.3423 81.5973 45.1527L86.977 55.455C87.1936 55.8666 87.3253 56.3174 87.3643 56.7808C87.4034 57.2442 87.3489 57.7108 87.2043 58.1528ZM73.0645 65.6491L66.1411 60.6139L64.3751 61.9384C62.8576 63.0674 61.0165 63.6772 59.1251 63.6772C57.2336 63.6772 55.3925 63.0674 53.8751 61.9384L52.6892 61.0491C52.2881 60.7482 51.9563 60.3646 51.7163 59.9244C51.4763 59.4841 51.3337 58.9974 51.2981 58.4972C51.2626 57.997 51.3349 57.4951 51.5102 57.0253C51.6856 56.5555 51.9598 56.1289 52.3143 55.7743L60.8751 47.2135C61.0001 47.0903 61.1342 46.9766 61.2761 46.8733L59.5918 46.1111L48.9335 49.2183L42.9757 60.6282L53.7851 69.0809L66.4632 72.2504L73.0645 65.6491ZM77.1514 61.1057L71.1895 49.6884H67.88L67.874 49.6888L67.8659 49.6884H63.3499L54.7894 58.2491L55.975 59.1384C56.8855 59.8158 57.9902 60.1817 59.1251 60.1817C60.2599 60.1817 61.3646 59.8158 62.2751 59.1384L65.0751 57.0384C65.3745 56.8138 65.7379 56.6911 66.1122 56.6884C66.4864 56.6856 66.8517 56.8029 67.1543 57.0231L75.4709 63.0716L77.1514 61.1057Z" fill="white"/>
</svg>
