<svg width="120" height="120" viewBox="0 0 120 120" fill="none" xmlns="http://www.w3.org/2000/svg">
<rect width="120" height="120" rx="8" fill="#04D68F"/>
<path d="M69.3333 78.6667H50.6667C48.8102 78.6667 47.0297 77.9292 45.7169 76.6164C44.4042 75.3037 43.6667 73.5232 43.6667 71.6667V48.3334C43.6667 47.7145 43.4208 47.121 42.9832 46.6834C42.5457 46.2459 41.9522 46 41.3333 46C40.7145 46 40.121 46.2459 39.6834 46.6834C39.2458 47.121 39 47.7145 39 48.3334V71.6667C39 74.7609 40.2292 77.7283 42.4171 79.9163C44.605 82.1042 47.5725 83.3334 50.6667 83.3334H69.3333C69.9522 83.3334 70.5457 83.0875 70.9832 82.6499C71.4208 82.2124 71.6667 81.6189 71.6667 81C71.6667 80.3812 71.4208 79.7877 70.9832 79.3501C70.5457 78.9125 69.9522 78.6667 69.3333 78.6667ZM55.3333 62.3334C55.3333 62.9522 55.5792 63.5457 56.0168 63.9833C56.4543 64.4209 57.0478 64.6667 57.6667 64.6667H69.3333C69.9522 64.6667 70.5457 64.4209 70.9832 63.9833C71.4208 63.5457 71.6667 62.9522 71.6667 62.3334C71.6667 61.7145 71.4208 61.121 70.9832 60.6834C70.5457 60.2459 69.9522 60 69.3333 60H57.6667C57.0478 60 56.4543 60.2459 56.0168 60.6834C55.5792 61.121 55.3333 61.7145 55.3333 62.3334ZM81 52.86C80.9757 52.6457 80.9288 52.4345 80.86 52.23V52.02C80.7478 51.7801 80.5982 51.5596 80.4167 51.3667L66.4167 37.3667C66.2238 37.1852 66.0032 37.0355 65.7633 36.9234C65.6937 36.9135 65.623 36.9135 65.5533 36.9234C65.3163 36.7874 65.0545 36.7002 64.7833 36.6667H55.3333C53.4768 36.6667 51.6963 37.4042 50.3836 38.7169C49.0708 40.0297 48.3333 41.8102 48.3333 43.6667V67C48.3333 68.8565 49.0708 70.637 50.3836 71.9498C51.6963 73.2625 53.4768 74 55.3333 74H74C75.8565 74 77.637 73.2625 78.9497 71.9498C80.2625 70.637 81 68.8565 81 67V53C81 53 81 53 81 52.86ZM67 44.6234L73.0433 50.6667H69.3333C68.7145 50.6667 68.121 50.4209 67.6834 49.9833C67.2458 49.5457 67 48.9522 67 48.3334V44.6234ZM76.3333 67C76.3333 67.6189 76.0875 68.2124 75.6499 68.6499C75.2123 69.0875 74.6188 69.3334 74 69.3334H55.3333C54.7145 69.3334 54.121 69.0875 53.6834 68.6499C53.2458 68.2124 53 67.6189 53 67V43.6667C53 43.0478 53.2458 42.4544 53.6834 42.0168C54.121 41.5792 54.7145 41.3334 55.3333 41.3334H62.3333V48.3334C62.3396 49.1294 62.4817 49.9184 62.7533 50.6667H57.6667C57.0478 50.6667 56.4543 50.9125 56.0168 51.3501C55.5792 51.7877 55.3333 52.3812 55.3333 53C55.3333 53.6189 55.5792 54.2124 56.0168 54.6499C56.4543 55.0875 57.0478 55.3334 57.6667 55.3334H76.3333V67Z" fill="white"/>
</svg>
