<svg width="120" height="120" viewBox="0 0 120 120" fill="none" xmlns="http://www.w3.org/2000/svg">
<rect width="120" height="120" rx="8" fill="#04D68F"/>
<path d="M57.6667 53H67.0001C67.6189 53 68.2124 52.7541 68.65 52.3166C69.0876 51.879 69.3334 51.2855 69.3334 50.6666C69.3334 50.0478 69.0876 49.4543 68.65 49.0167C68.2124 48.5791 67.6189 48.3333 67.0001 48.3333H62.3334V46C62.3334 45.3811 62.0876 44.7876 61.65 44.3501C61.2124 43.9125 60.6189 43.6666 60.0001 43.6666C59.3812 43.6666 58.7877 43.9125 58.3501 44.3501C57.9126 44.7876 57.6667 45.3811 57.6667 46V48.3333C55.8102 48.3333 54.0297 49.0708 52.717 50.3836C51.4042 51.6963 50.6667 53.4768 50.6667 55.3333C50.6667 57.1898 51.4042 58.9703 52.717 60.2831C54.0297 61.5958 55.8102 62.3333 57.6667 62.3333H62.3334C62.9522 62.3333 63.5457 62.5791 63.9833 63.0167C64.4209 63.4543 64.6667 64.0478 64.6667 64.6666C64.6667 65.2855 64.4209 65.879 63.9833 66.3166C63.5457 66.7541 62.9522 67 62.3334 67H53.0001C52.3812 67 51.7877 67.2458 51.3501 67.6834C50.9126 68.121 50.6667 68.7145 50.6667 69.3333C50.6667 69.9522 50.9126 70.5456 51.3501 70.9832C51.7877 71.4208 52.3812 71.6666 53.0001 71.6666H57.6667V74C57.6667 74.6188 57.9126 75.2123 58.3501 75.6499C58.7877 76.0875 59.3812 76.3333 60.0001 76.3333C60.6189 76.3333 61.2124 76.0875 61.65 75.6499C62.0876 75.2123 62.3334 74.6188 62.3334 74V71.6666C64.1899 71.6666 65.9704 70.9292 67.2831 69.6164C68.5959 68.3036 69.3334 66.5232 69.3334 64.6666C69.3334 62.8101 68.5959 61.0297 67.2831 59.7169C65.9704 58.4041 64.1899 57.6666 62.3334 57.6666H57.6667C57.0479 57.6666 56.4544 57.4208 56.0168 56.9832C55.5792 56.5456 55.3334 55.9522 55.3334 55.3333C55.3334 54.7145 55.5792 54.121 56.0168 53.6834C56.4544 53.2458 57.0479 53 57.6667 53V53ZM60.0001 34.3333C54.9237 34.3333 49.9613 35.8386 45.7404 38.6589C41.5196 41.4792 38.2298 45.4878 36.2871 50.1778C34.3445 54.8677 33.8362 60.0285 34.8266 65.0073C35.8169 69.9861 38.2614 74.5595 41.851 78.1491C45.4405 81.7386 50.0139 84.1831 54.9927 85.1735C59.9716 86.1638 65.1323 85.6555 69.8223 83.7129C74.5122 81.7702 78.5208 78.4805 81.3411 74.2596C84.1614 70.0388 85.6667 65.0764 85.6667 60C85.6667 53.1928 82.9626 46.6643 78.1491 41.8509C73.3357 37.0375 66.8073 34.3333 60.0001 34.3333V34.3333ZM60.0001 81C55.8466 81 51.7865 79.7684 48.3331 77.4608C44.8796 75.1533 42.188 71.8736 40.5986 68.0363C39.0091 64.1991 38.5933 59.9767 39.4036 55.9031C40.2139 51.8295 42.2139 48.0876 45.1508 45.1507C48.0877 42.2138 51.8296 40.2138 55.9032 39.4035C59.9768 38.5932 64.1992 39.0091 68.0364 40.5985C71.8737 42.188 75.1534 44.8796 77.4609 48.333C79.7684 51.7864 81.0001 55.8466 81.0001 60C81.0001 65.5695 78.7876 70.911 74.8493 74.8492C70.911 78.7875 65.5696 81 60.0001 81V81Z" fill="white"/>
</svg>
