<svg width="120" height="120" viewBox="0 0 120 120" fill="none" xmlns="http://www.w3.org/2000/svg">
<rect width="120" height="120" rx="8" fill="#04D68F"/>
<path d="M74 62.7534V55.3334C73.9967 52.0273 72.8235 48.8291 70.6881 46.3052C68.5528 43.7812 65.5932 42.0944 62.3334 41.5434V39C62.3334 38.3812 62.0875 37.7877 61.65 37.3501C61.2124 36.9125 60.6189 36.6667 60 36.6667C59.3812 36.6667 58.7877 36.9125 58.3501 37.3501C57.9125 37.7877 57.6667 38.3812 57.6667 39V41.5434C54.4069 42.0944 51.4473 43.7812 49.3119 46.3052C47.1766 48.8291 46.0034 52.0273 46 55.3334V62.7534C44.6384 63.2348 43.459 64.1255 42.6236 65.3035C41.7881 66.4816 41.3374 67.8891 41.3334 69.3334V74C41.3334 74.6189 41.5792 75.2124 42.0168 75.6499C42.4544 76.0875 43.0479 76.3334 43.6667 76.3334H50.9934C51.5307 78.3105 52.7037 80.056 54.3314 81.3004C55.9592 82.5448 57.9511 83.219 60 83.219C62.0489 83.219 64.0409 82.5448 65.6686 81.3004C67.2964 80.056 68.4694 78.3105 69.0067 76.3334H76.3334C76.9522 76.3334 77.5457 76.0875 77.9833 75.6499C78.4209 75.2124 78.6667 74.6189 78.6667 74V69.3334C78.6626 67.8891 78.212 66.4816 77.3765 65.3035C76.541 64.1255 75.3617 63.2348 74 62.7534V62.7534ZM50.6667 55.3334C50.6667 52.858 51.65 50.484 53.4004 48.7337C55.1507 46.9834 57.5247 46 60 46C62.4754 46 64.8494 46.9834 66.5997 48.7337C68.35 50.484 69.3334 52.858 69.3334 55.3334V62.3334H50.6667V55.3334ZM60 78.6667C59.1856 78.6618 58.3867 78.4438 57.6826 78.0345C56.9786 77.6251 56.3939 77.0387 55.9867 76.3334H64.0134C63.6062 77.0387 63.0215 77.6251 62.3174 78.0345C61.6134 78.4438 60.8144 78.6618 60 78.6667ZM74 71.6667H46V69.3334C46 68.7145 46.2459 68.121 46.6835 67.6834C47.121 67.2459 47.7145 67 48.3334 67H71.6667C72.2855 67 72.879 67.2459 73.3166 67.6834C73.7542 68.121 74 68.7145 74 69.3334V71.6667Z" fill="white"/>
</svg>
