<svg width="120" height="120" viewBox="0 0 120 120" fill="none" xmlns="http://www.w3.org/2000/svg">
<rect width="120" height="120" rx="8" fill="#04D68F"/>
<path d="M56.4067 46L57.6667 44.6233V53C57.6667 53.6189 57.9125 54.2123 58.3501 54.6499C58.7877 55.0875 59.3812 55.3333 60 55.3333C60.6189 55.3333 61.2124 55.0875 61.65 54.6499C62.0875 54.2123 62.3334 53.6189 62.3334 53V44.6233L63.5934 45.9067C63.8052 46.1459 64.0639 46.3391 64.3534 46.4742C64.6429 46.6094 64.9571 46.6836 65.2765 46.6924C65.5958 46.7011 65.9136 46.6442 66.2101 46.5251C66.5066 46.406 66.7755 46.2273 67 46C67.2187 45.7831 67.3923 45.525 67.5108 45.2407C67.6292 44.9564 67.6902 44.6514 67.6902 44.3433C67.6902 44.0353 67.6292 43.7303 67.5108 43.446C67.3923 43.1617 67.2187 42.9036 67 42.6867L61.6567 37.3433C61.4348 37.1309 61.1731 36.9644 60.8867 36.8533C60.3186 36.62 59.6814 36.62 59.1134 36.8533C58.827 36.9644 58.5653 37.1309 58.3434 37.3433L53 42.5933C52.5483 43.0451 52.2945 43.6578 52.2945 44.2967C52.2945 44.9356 52.5483 45.5483 53 46C53.4518 46.4518 54.0645 46.7056 54.7034 46.7056C55.3422 46.7056 55.955 46.4518 56.4067 46ZM60 60C58.6156 60 57.2622 60.4106 56.111 61.1797C54.9599 61.9489 54.0627 63.0421 53.5329 64.3212C53.0031 65.6003 52.8644 67.0078 53.1345 68.3656C53.4046 69.7235 54.0713 70.9708 55.0503 71.9498C56.0293 72.9287 57.2765 73.5954 58.6344 73.8655C59.9923 74.1356 61.3997 73.997 62.6788 73.4672C63.9579 72.9374 65.0512 72.0401 65.8203 70.889C66.5895 69.7379 67 68.3845 67 67C67 65.1435 66.2625 63.363 64.9498 62.0503C63.637 60.7375 61.8566 60 60 60ZM60 69.3333C59.5385 69.3333 59.0874 69.1965 58.7037 68.9401C58.32 68.6837 58.0209 68.3193 57.8443 67.8929C57.6677 67.4666 57.6215 66.9974 57.7115 66.5448C57.8016 66.0922 58.0238 65.6764 58.3501 65.3501C58.6764 65.0238 59.0922 64.8015 59.5448 64.7115C59.9975 64.6215 60.4666 64.6677 60.893 64.8443C61.3193 65.0209 61.6837 65.32 61.9401 65.7037C62.1965 66.0874 62.3334 66.5385 62.3334 67C62.3334 67.6188 62.0875 68.2123 61.65 68.6499C61.2124 69.0875 60.6189 69.3333 60 69.3333ZM43.6667 67C43.6667 67.4615 43.8036 67.9126 44.0599 68.2963C44.3163 68.6801 44.6808 68.9791 45.1071 69.1557C45.5335 69.3323 46.0026 69.3785 46.4553 69.2885C46.9079 69.1985 47.3236 68.9762 47.65 68.6499C47.9763 68.3236 48.1985 67.9078 48.2885 67.4552C48.3786 67.0026 48.3324 66.5334 48.1558 66.1071C47.9792 65.6807 47.6801 65.3163 47.2964 65.0599C46.9127 64.8035 46.4615 64.6667 46 64.6667C45.3812 64.6667 44.7877 64.9125 44.3501 65.3501C43.9125 65.7877 43.6667 66.3812 43.6667 67ZM76.3334 67C76.3334 66.5385 76.1965 66.0874 75.9401 65.7037C75.6837 65.32 75.3193 65.0209 74.893 64.8443C74.4666 64.6677 73.9974 64.6215 73.5448 64.7115C73.0922 64.8015 72.6764 65.0238 72.3501 65.3501C72.0238 65.6764 71.8016 66.0922 71.7115 66.5448C71.6215 66.9974 71.6677 67.4666 71.8443 67.8929C72.0209 68.3193 72.32 68.6837 72.7037 68.9401C73.0874 69.1965 73.5386 69.3333 74 69.3333C74.6189 69.3333 75.2124 69.0875 75.65 68.6499C76.0875 68.2123 76.3334 67.6188 76.3334 67ZM78.6667 50.6667H69.3334C68.7145 50.6667 68.121 50.9125 67.6835 51.3501C67.2459 51.7877 67 52.3812 67 53C67 53.6189 67.2459 54.2123 67.6835 54.6499C68.121 55.0875 68.7145 55.3333 69.3334 55.3333H78.6667C79.2855 55.3333 79.879 55.5792 80.3166 56.0168C80.7542 56.4543 81 57.0478 81 57.6667V76.3333C81 76.9522 80.7542 77.5457 80.3166 77.9833C79.879 78.4208 79.2855 78.6667 78.6667 78.6667H41.3334C40.7145 78.6667 40.121 78.4208 39.6835 77.9833C39.2459 77.5457 39 76.9522 39 76.3333V57.6667C39 57.0478 39.2459 56.4543 39.6835 56.0168C40.121 55.5792 40.7145 55.3333 41.3334 55.3333H50.6667C51.2855 55.3333 51.879 55.0875 52.3166 54.6499C52.7542 54.2123 53 53.6189 53 53C53 52.3812 52.7542 51.7877 52.3166 51.3501C51.879 50.9125 51.2855 50.6667 50.6667 50.6667H41.3334C39.4769 50.6667 37.6964 51.4042 36.3836 52.7169C35.0709 54.0297 34.3334 55.8102 34.3334 57.6667V76.3333C34.3334 78.1899 35.0709 79.9703 36.3836 81.2831C37.6964 82.5958 39.4769 83.3333 41.3334 83.3333H78.6667C80.5232 83.3333 82.3037 82.5958 83.6165 81.2831C84.9292 79.9703 85.6667 78.1899 85.6667 76.3333V57.6667C85.6667 55.8102 84.9292 54.0297 83.6165 52.7169C82.3037 51.4042 80.5232 50.6667 78.6667 50.6667Z" fill="white"/>
</svg>
