<svg width="120" height="120" viewBox="0 0 120 120" fill="none" xmlns="http://www.w3.org/2000/svg">
<rect width="120" height="120" rx="8" fill="#04D68F"/>
<path d="M44.8334 50.6667H46V51.8333C46 52.4522 46.2459 53.0457 46.6835 53.4833C47.121 53.9208 47.7145 54.1667 48.3334 54.1667C48.9522 54.1667 49.5457 53.9208 49.9833 53.4833C50.4209 53.0457 50.6667 52.4522 50.6667 51.8333V50.6667H51.8334C52.4522 50.6667 53.0457 50.4208 53.4833 49.9833C53.9209 49.5457 54.1667 48.9522 54.1667 48.3333C54.1667 47.7145 53.9209 47.121 53.4833 46.6834C53.0457 46.2458 52.4522 46 51.8334 46H50.6667V44.8333C50.6667 44.2145 50.4209 43.621 49.9833 43.1834C49.5457 42.7458 48.9522 42.5 48.3334 42.5C47.7145 42.5 47.121 42.7458 46.6835 43.1834C46.2459 43.621 46 44.2145 46 44.8333V46H44.8334C44.2145 46 43.621 46.2458 43.1835 46.6834C42.7459 47.121 42.5 47.7145 42.5 48.3333C42.5 48.9522 42.7459 49.5457 43.1835 49.9833C43.621 50.4208 44.2145 50.6667 44.8334 50.6667ZM43.3867 76.6133C43.8239 77.0479 44.4153 77.2919 45.0317 77.2919C45.6481 77.2919 46.2395 77.0479 46.6767 76.6133L48.3334 74.9567L49.99 76.6133C50.4272 77.0479 51.0186 77.2919 51.635 77.2919C52.2515 77.2919 52.8429 77.0479 53.28 76.6133C53.7146 76.1762 53.9586 75.5848 53.9586 74.9683C53.9586 74.3519 53.7146 73.7605 53.28 73.3233L51.6234 71.6667L53.28 70.01C53.6623 69.5636 53.862 68.9895 53.8394 68.4022C53.8167 67.815 53.5732 67.2579 53.1577 66.8424C52.7421 66.4268 52.1851 66.1834 51.5978 66.1607C51.0106 66.138 50.4364 66.3377 49.99 66.72L48.3334 68.3767L46.6767 66.72C46.2303 66.3377 45.6562 66.138 45.0689 66.1607C44.4817 66.1834 43.9246 66.4268 43.5091 66.8424C43.0935 67.2579 42.8501 67.815 42.8274 68.4022C42.8047 68.9895 43.0044 69.5636 43.3867 70.01L45.0434 71.6667L43.3867 73.3233C42.9521 73.7605 42.7082 74.3519 42.7082 74.9683C42.7082 75.5848 42.9521 76.1762 43.3867 76.6133ZM78.6667 34.3333H41.3334C39.4769 34.3333 37.6964 35.0708 36.3836 36.3836C35.0709 37.6964 34.3334 39.4768 34.3334 41.3333V78.6667C34.3334 80.5232 35.0709 82.3037 36.3836 83.6164C37.6964 84.9292 39.4769 85.6667 41.3334 85.6667H78.6667C80.5232 85.6667 82.3037 84.9292 83.6165 83.6164C84.9292 82.3037 85.6667 80.5232 85.6667 78.6667V41.3333C85.6667 39.4768 84.9292 37.6964 83.6165 36.3836C82.3037 35.0708 80.5232 34.3333 78.6667 34.3333ZM57.6667 81H41.3334C40.7145 81 40.121 80.7542 39.6835 80.3166C39.2459 79.879 39 79.2855 39 78.6667V62.3333H57.6667V81ZM57.6667 57.6667H39V41.3333C39 40.7145 39.2459 40.121 39.6835 39.6834C40.121 39.2458 40.7145 39 41.3334 39H57.6667V57.6667ZM81 78.6667C81 79.2855 80.7542 79.879 80.3166 80.3166C79.879 80.7542 79.2855 81 78.6667 81H62.3334V62.3333H81V78.6667ZM81 57.6667H62.3334V39H78.6667C79.2855 39 79.879 39.2458 80.3166 39.6834C80.7542 40.121 81 40.7145 81 41.3333V57.6667ZM68.1667 70.5H75.1667C75.7855 70.5 76.379 70.2542 76.8166 69.8166C77.2542 69.379 77.5 68.7855 77.5 68.1667C77.5 67.5478 77.2542 66.9543 76.8166 66.5168C76.379 66.0792 75.7855 65.8333 75.1667 65.8333H68.1667C67.5479 65.8333 66.9544 66.0792 66.5168 66.5168C66.0792 66.9543 65.8334 67.5478 65.8334 68.1667C65.8334 68.7855 66.0792 69.379 66.5168 69.8166C66.9544 70.2542 67.5479 70.5 68.1667 70.5ZM75.1667 46H68.1667C67.5479 46 66.9544 46.2458 66.5168 46.6834C66.0792 47.121 65.8334 47.7145 65.8334 48.3333C65.8334 48.9522 66.0792 49.5457 66.5168 49.9833C66.9544 50.4208 67.5479 50.6667 68.1667 50.6667H75.1667C75.7855 50.6667 76.379 50.4208 76.8166 49.9833C77.2542 49.5457 77.5 48.9522 77.5 48.3333C77.5 47.7145 77.2542 47.121 76.8166 46.6834C76.379 46.2458 75.7855 46 75.1667 46ZM68.1667 77.5H75.1667C75.7855 77.5 76.379 77.2542 76.8166 76.8166C77.2542 76.379 77.5 75.7855 77.5 75.1667C77.5 74.5478 77.2542 73.9543 76.8166 73.5168C76.379 73.0792 75.7855 72.8333 75.1667 72.8333H68.1667C67.5479 72.8333 66.9544 73.0792 66.5168 73.5168C66.0792 73.9543 65.8334 74.5478 65.8334 75.1667C65.8334 75.7855 66.0792 76.379 66.5168 76.8166C66.9544 77.2542 67.5479 77.5 68.1667 77.5Z" fill="white"/>
</svg>
