<svg width="120" height="120" viewBox="0 0 120 120" fill="none" xmlns="http://www.w3.org/2000/svg">
<rect width="120" height="120" rx="8" fill="#04D68F"/>
<path d="M60.7 60.5134C61.9451 59.4357 62.9437 58.1028 63.6281 56.6051C64.3125 55.1074 64.6667 53.48 64.6667 51.8334C64.6667 48.7392 63.4375 45.7717 61.2496 43.5838C59.0617 41.3959 56.0942 40.1667 53 40.1667C49.9058 40.1667 46.9384 41.3959 44.7505 43.5838C42.5625 45.7717 41.3334 48.7392 41.3334 51.8334C41.3334 53.48 41.6876 55.1074 42.372 56.6051C43.0564 58.1028 44.055 59.4357 45.3 60.5134C42.0337 61.9924 39.2625 64.3809 37.3177 67.3933C35.3729 70.4057 34.3368 73.9144 34.3334 77.5C34.3334 78.1189 34.5792 78.7124 35.0168 79.1499C35.4544 79.5875 36.0479 79.8334 36.6667 79.8334C37.2855 79.8334 37.879 79.5875 38.3166 79.1499C38.7542 78.7124 39 78.1189 39 77.5C39 73.787 40.475 70.226 43.1005 67.6005C45.7261 64.975 49.287 63.5 53 63.5C56.7131 63.5 60.274 64.975 62.8995 67.6005C65.525 70.226 67 73.787 67 77.5C67 78.1189 67.2459 78.7124 67.6835 79.1499C68.121 79.5875 68.7145 79.8334 69.3334 79.8334C69.9522 79.8334 70.5457 79.5875 70.9833 79.1499C71.4209 78.7124 71.6667 78.1189 71.6667 77.5C71.6633 73.9144 70.6272 70.4057 68.6824 67.3933C66.7376 64.3809 63.9664 61.9924 60.7 60.5134ZM53 58.8334C51.6156 58.8334 50.2622 58.4228 49.111 57.6536C47.9599 56.8845 47.0627 55.7912 46.5329 54.5121C46.0031 53.2331 45.8644 51.8256 46.1345 50.4677C46.4046 49.1099 47.0713 47.8626 48.0503 46.8836C49.0293 45.9046 50.2765 45.238 51.6344 44.9679C52.9923 44.6978 54.3997 44.8364 55.6788 45.3662C56.9579 45.896 58.0512 46.7932 58.8203 47.9444C59.5895 49.0955 60 50.4489 60 51.8334C60 53.6899 59.2625 55.4704 57.9498 56.7831C56.637 58.0959 54.8566 58.8334 53 58.8334ZM75.7267 59.58C77.22 57.8985 78.1954 55.8212 78.5356 53.5981C78.8758 51.3751 78.5662 49.1012 77.6442 47.05C76.7221 44.9988 75.2269 43.2579 73.3385 42.0367C71.4501 40.8155 69.2489 40.1661 67 40.1667C66.3812 40.1667 65.7877 40.4125 65.3501 40.8501C64.9125 41.2877 64.6667 41.8812 64.6667 42.5C64.6667 43.1189 64.9125 43.7124 65.3501 44.1499C65.7877 44.5875 66.3812 44.8334 67 44.8334C68.8566 44.8334 70.637 45.5709 71.9498 46.8836C73.2625 48.1964 74 49.9768 74 51.8334C73.9967 53.0589 73.6717 54.2621 73.0575 55.3227C72.4433 56.3832 71.5614 57.2639 70.5 57.8767C70.1541 58.0762 69.8652 58.3612 69.6609 58.7044C69.4566 59.0476 69.3438 59.4375 69.3334 59.8367C69.3236 60.2328 69.4149 60.6249 69.5986 60.976C69.7823 61.327 70.0524 61.6255 70.3834 61.8434L71.2934 62.45L71.5967 62.6134C74.4093 63.9474 76.7821 66.0573 78.4357 68.6948C80.0892 71.3322 80.9547 74.3872 80.93 77.5C80.93 78.1189 81.1759 78.7124 81.6135 79.1499C82.051 79.5875 82.6445 79.8334 83.2634 79.8334C83.8822 79.8334 84.4757 79.5875 84.9133 79.1499C85.3509 78.7124 85.5967 78.1189 85.5967 77.5C85.6158 73.9194 84.719 70.3933 82.9915 67.2568C81.264 64.1204 78.7632 61.4778 75.7267 59.58Z" fill="white"/>
</svg>
