<svg width="11" height="11" viewBox="0 0 11 11" fill="none" xmlns="http://www.w3.org/2000/svg">
<path d="M9.5 6.00003C9.36739 6.00003 9.24021 6.05271 9.14645 6.14648C9.05268 6.24025 9 6.36742 9 6.50003V9.50003C9 9.63264 8.94732 9.75982 8.85355 9.85358C8.75979 9.94735 8.63261 10 8.5 10H1.5C1.36739 10 1.24021 9.94735 1.14645 9.85358C1.05268 9.75982 1 9.63264 1 9.50003V2.50003C1 2.36742 1.05268 2.24025 1.14645 2.14648C1.24021 2.05271 1.36739 2.00003 1.5 2.00003H4.5C4.63261 2.00003 4.75979 1.94735 4.85355 1.85358C4.94732 1.75982 5 1.63264 5 1.50003C5 1.36742 4.94732 1.24025 4.85355 1.14648C4.75979 1.05271 4.63261 1.00003 4.5 1.00003H1.5C1.10218 1.00003 0.720644 1.15807 0.43934 1.43937C0.158035 1.72067 0 2.10221 0 2.50003V9.50003C0 9.89785 0.158035 10.2794 0.43934 10.5607C0.720644 10.842 1.10218 11 1.5 11H8.5C8.89782 11 9.27936 10.842 9.56066 10.5607C9.84196 10.2794 10 9.89785 10 9.50003V6.50003C10 6.36742 9.94732 6.24025 9.85355 6.14648C9.75979 6.05271 9.63261 6.00003 9.5 6.00003ZM2 6.38003V8.50003C2 8.63264 2.05268 8.75982 2.14645 8.85358C2.24021 8.94735 2.36739 9.00003 2.5 9.00003H4.62C4.6858 9.00041 4.75103 8.9878 4.81195 8.96292C4.87287 8.93803 4.92828 8.90137 4.975 8.85503L8.435 5.39003L9.855 4.00003C9.90186 3.95355 9.93906 3.89825 9.96445 3.83732C9.98983 3.77639 10.0029 3.71104 10.0029 3.64503C10.0029 3.57902 9.98983 3.51367 9.96445 3.45274C9.93906 3.39181 9.90186 3.33651 9.855 3.29003L7.735 1.14503C7.68852 1.09817 7.63322 1.06097 7.57229 1.03558C7.51136 1.0102 7.44601 0.997131 7.38 0.997131C7.31399 0.997131 7.24864 1.0102 7.18771 1.03558C7.12678 1.06097 7.07148 1.09817 7.025 1.14503L5.615 2.56003L2.145 6.02503C2.09866 6.07175 2.062 6.12716 2.03711 6.18808C2.01223 6.249 1.99962 6.31423 2 6.38003ZM7.38 2.20503L8.795 3.62003L8.085 4.33003L6.67 2.91503L7.38 2.20503ZM3 6.58503L5.965 3.62003L7.38 5.03503L4.415 8.00003H3V6.58503Z" fill="white"/>
</svg>
