<svg width="16" height="8" viewBox="0 0 16 8" fill="none" xmlns="http://www.w3.org/2000/svg">
<path d="M15.75 4.00001C15.75 4.74169 15.5301 5.4667 15.118 6.08337C14.706 6.70005 14.1203 7.18069 13.4351 7.46451C12.7499 7.74834 11.9959 7.8226 11.2684 7.67791C10.541 7.53322 9.87284 7.17607 9.3484 6.65164C9.33769 6.64093 9.32731 6.62991 9.31727 6.61858L5.57602 2.3942C5.2597 2.08376 4.85873 1.87365 4.42344 1.79024C3.98815 1.70684 3.53792 1.75385 3.12925 1.92538C2.72057 2.0969 2.37166 2.38531 2.12629 2.7544C1.88092 3.12349 1.75002 3.55683 1.75002 4.00004C1.75002 4.44326 1.88092 4.8766 2.12629 5.24569C2.37166 5.61478 2.72057 5.90318 3.12925 6.07471C3.53792 6.24624 3.98815 6.29325 4.42344 6.20984C4.85873 6.12644 5.2597 5.91633 5.57602 5.60589L5.76883 5.38814C5.90071 5.23923 6.08634 5.1488 6.28489 5.13676C6.48344 5.12472 6.67864 5.19204 6.82755 5.32392C6.97646 5.4558 7.06688 5.64143 7.07893 5.83998C7.09097 6.03853 7.02365 6.23373 6.89177 6.38264L6.68277 6.61858C6.67277 6.62991 6.66239 6.64095 6.65164 6.6517C6.1272 7.17615 5.45901 7.5333 4.73158 7.67799C4.00415 7.82268 3.25016 7.74842 2.56493 7.46459C1.87971 7.18076 1.29404 6.70012 0.881988 6.08343C0.469933 5.46675 0.25 4.74172 0.25 4.00004C0.25 3.25837 0.469933 2.53334 0.881988 1.91666C1.29404 1.29997 1.87971 0.819327 2.56493 0.535498C3.25016 0.251669 4.00415 0.177406 4.73158 0.322099C5.45901 0.466792 6.1272 0.823943 6.65164 1.34839C6.66235 1.3591 6.67273 1.37014 6.68277 1.38151L10.424 5.60589C10.7403 5.91632 11.1413 6.12642 11.5766 6.20982C12.0119 6.29322 12.4621 6.2462 12.8708 6.07467C13.2795 5.90314 13.6284 5.61474 13.8737 5.24565C14.1191 4.87656 14.25 4.44322 14.25 4.00001C14.25 3.55681 14.1191 3.12347 13.8737 2.75438C13.6284 2.38529 13.2795 2.09688 12.8708 1.92535C12.4621 1.75382 12.0119 1.70681 11.5766 1.79021C11.1413 1.87361 10.7403 2.0837 10.424 2.39414L10.2312 2.61189C10.1659 2.68562 10.0867 2.74577 9.99818 2.7889C9.90963 2.83203 9.81346 2.8573 9.71515 2.86327C9.61684 2.86923 9.51831 2.85577 9.4252 2.82366C9.33209 2.79154 9.24622 2.74141 9.17249 2.67611C9.09876 2.61081 9.03861 2.53162 8.99547 2.44308C8.95234 2.35453 8.92707 2.25836 8.92111 2.16005C8.90907 1.9615 8.97639 1.7663 9.10827 1.61739L9.31727 1.38145C9.32727 1.37012 9.33765 1.35908 9.3484 1.34833C9.87285 0.823885 10.541 0.466739 11.2685 0.322051C11.9959 0.177363 12.7499 0.25163 13.4351 0.535462C14.1203 0.819295 14.706 1.29994 15.118 1.91663C15.5301 2.53331 15.75 3.25834 15.75 4.00001Z" fill="#04D68F"/>
</svg>
