<svg width="17" height="18" viewBox="0 0 17 18" fill="none" xmlns="http://www.w3.org/2000/svg">
<path d="M8.59161 11.8252L5.35828 15.0586C4.96681 15.4364 4.44399 15.6475 3.89995 15.6475C3.3559 15.6475 2.83308 15.4364 2.44161 15.0586C2.24962 14.8673 2.09727 14.6401 1.99332 14.3898C1.88937 14.1396 1.83586 13.8712 1.83586 13.6002C1.83586 13.3293 1.88937 13.0609 1.99332 12.8107C2.09727 12.5604 2.24962 12.3331 2.44161 12.1419L5.67494 8.90857C5.83186 8.75165 5.92002 8.53883 5.92002 8.31691C5.92002 8.09499 5.83186 7.88216 5.67494 7.72524C5.51802 7.56832 5.3052 7.48016 5.08328 7.48016C4.86136 7.48016 4.64853 7.56832 4.49161 7.72524L1.25828 10.9669C0.606909 11.6759 0.254629 12.6091 0.275007 13.5717C0.295386 14.5343 0.686846 15.4518 1.36764 16.1325C2.04843 16.8133 2.96591 17.2048 3.92848 17.2252C4.89105 17.2456 5.82428 16.8933 6.53328 16.2419L9.77495 13.0086C9.93186 12.8517 10.02 12.6388 10.02 12.4169C10.02 12.195 9.93186 11.9822 9.77495 11.8252C9.61802 11.6683 9.4052 11.5802 9.18328 11.5802C8.96136 11.5802 8.74853 11.6683 8.59161 11.8252ZM15.7416 1.75857C15.0406 1.06191 14.0924 0.670898 13.1041 0.670898C12.1158 0.670898 11.1676 1.06191 10.4666 1.75857L7.22495 4.99191C7.14725 5.06961 7.08561 5.16185 7.04356 5.26337C7.00151 5.36488 6.97987 5.47369 6.97987 5.58357C6.97987 5.69346 7.00151 5.80226 7.04356 5.90378C7.08561 6.0053 7.14725 6.09754 7.22495 6.17524C7.30264 6.25294 7.39489 6.31457 7.4964 6.35662C7.59792 6.39867 7.70673 6.42032 7.81661 6.42032C7.9265 6.42032 8.0353 6.39867 8.13682 6.35662C8.23834 6.31457 8.33058 6.25294 8.40828 6.17524L11.6416 2.94191C12.0331 2.5641 12.5559 2.35296 13.0999 2.35296C13.644 2.35296 14.1668 2.5641 14.5583 2.94191C14.7503 3.13315 14.9026 3.36042 15.0066 3.61067C15.1105 3.86093 15.164 4.12925 15.164 4.40024C15.164 4.67123 15.1105 4.93955 15.0066 5.18981C14.9026 5.44007 14.7503 5.66733 14.5583 5.85857L11.3249 9.09191C11.2468 9.16938 11.1848 9.26154 11.1425 9.36309C11.1002 9.46464 11.0784 9.57356 11.0784 9.68357C11.0784 9.79358 11.1002 9.9025 11.1425 10.0041C11.1848 10.1056 11.2468 10.1978 11.3249 10.2752C11.4024 10.3533 11.4946 10.4153 11.5961 10.4576C11.6977 10.5 11.8066 10.5217 11.9166 10.5217C12.0266 10.5217 12.1355 10.5 12.2371 10.4576C12.3386 10.4153 12.4308 10.3533 12.5083 10.2752L15.7416 7.03357C16.4383 6.33256 16.8293 5.38439 16.8293 4.39607C16.8293 3.40776 16.4383 2.45959 15.7416 1.75857ZM5.85828 11.6419C5.93614 11.7191 6.02849 11.7802 6.13002 11.8217C6.23155 11.8632 6.34027 11.8842 6.44994 11.8836C6.55962 11.8842 6.66834 11.8632 6.76987 11.8217C6.8714 11.7802 6.96375 11.7191 7.04161 11.6419L11.1416 7.54191C11.2985 7.38499 11.3867 7.17216 11.3867 6.95024C11.3867 6.72832 11.2985 6.51549 11.1416 6.35857C10.9847 6.20165 10.7719 6.1135 10.5499 6.1135C10.328 6.1135 10.1152 6.20165 9.95828 6.35857L5.85828 10.4586C5.78017 10.536 5.71818 10.6282 5.67587 10.7298C5.63356 10.8313 5.61178 10.9402 5.61178 11.0502C5.61178 11.1602 5.63356 11.2692 5.67587 11.3707C5.71818 11.4723 5.78017 11.5644 5.85828 11.6419Z" fill="#D2D4D4"/>
</svg>
