<svg width="15" height="14" viewBox="0 0 15 14" fill="none" xmlns="http://www.w3.org/2000/svg">
<path d="M7.86732 6.14659C8.22304 5.83867 8.50835 5.45784 8.7039 5.02993C8.89945 4.60203 9.00066 4.13706 9.00065 3.66659C9.00065 2.78253 8.64946 1.93468 8.02434 1.30956C7.39922 0.684441 6.55137 0.333252 5.66732 0.333252C4.78326 0.333252 3.93542 0.684441 3.3103 1.30956C2.68517 1.93468 2.33398 2.78253 2.33398 3.66659C2.33398 4.13706 2.43519 4.60203 2.63073 5.02993C2.82628 5.45784 3.1116 5.83867 3.46732 6.14659C2.53408 6.56918 1.74229 7.25161 1.18664 8.11228C0.630981 8.97296 0.334966 9.97546 0.333984 10.9999C0.333984 11.1767 0.404222 11.3463 0.529246 11.4713C0.654271 11.5963 0.82384 11.6666 1.00065 11.6666C1.17746 11.6666 1.34703 11.5963 1.47206 11.4713C1.59708 11.3463 1.66732 11.1767 1.66732 10.9999C1.66732 9.93905 2.08875 8.92164 2.83889 8.17149C3.58904 7.42135 4.60645 6.99992 5.66732 6.99992C6.72818 6.99992 7.7456 7.42135 8.49574 8.17149C9.24589 8.92164 9.66732 9.93905 9.66732 10.9999C9.66732 11.1767 9.73756 11.3463 9.86258 11.4713C9.9876 11.5963 10.1572 11.6666 10.334 11.6666C10.5108 11.6666 10.6804 11.5963 10.8054 11.4713C10.9304 11.3463 11.0007 11.1767 11.0007 10.9999C10.9997 9.97546 10.7037 8.97296 10.148 8.11228C9.59234 7.25161 8.80056 6.56918 7.86732 6.14659ZM5.66732 5.66659C5.27176 5.66659 4.88508 5.54929 4.55618 5.32952C4.22728 5.10976 3.97093 4.7974 3.81956 4.43195C3.66818 4.0665 3.62858 3.66437 3.70575 3.2764C3.78292 2.88844 3.9734 2.53208 4.2531 2.25237C4.53281 1.97267 4.88918 1.78219 5.27714 1.70501C5.6651 1.62784 6.06723 1.66745 6.43268 1.81883C6.79814 1.9702 7.11049 2.22655 7.33026 2.55544C7.55002 2.88434 7.66732 3.27102 7.66732 3.66659C7.66732 4.19702 7.4566 4.70573 7.08153 5.0808C6.70646 5.45587 6.19775 5.66659 5.66732 5.66659Z" fill="#0A2828"/>
<path d="M14.309 5.63769C14.2931 5.59681 14.2693 5.55945 14.2389 5.52778L12.5716 3.86249C12.5405 3.83143 12.5036 3.8068 12.463 3.78999C12.4223 3.77319 12.3788 3.76454 12.3348 3.76454C12.246 3.76454 12.1608 3.79977 12.0981 3.86249C12.067 3.89354 12.0423 3.93041 12.0255 3.97098C12.0086 4.01155 12 4.05504 12 4.09896C12 4.18765 12.0353 4.27271 12.0981 4.33543L13.1985 5.43119H10.6675C10.579 5.43119 10.4942 5.46628 10.4317 5.52874C10.3691 5.5912 10.334 5.67592 10.334 5.76425C10.334 5.85258 10.3691 5.9373 10.4317 5.99976C10.4942 6.06222 10.579 6.09731 10.6675 6.09731H13.1985L12.0981 7.19307C12.0668 7.22404 12.042 7.26087 12.0251 7.30146C12.0081 7.34204 11.9994 7.38558 11.9994 7.42955C11.9994 7.47351 12.0081 7.51705 12.0251 7.55763C12.042 7.59822 12.0668 7.63506 12.0981 7.66602C12.1291 7.69723 12.1659 7.72201 12.2066 7.73892C12.2472 7.75583 12.2908 7.76454 12.3348 7.76454C12.3788 7.76454 12.4224 7.75583 12.4631 7.73892C12.5037 7.72201 12.5406 7.69723 12.5716 7.66602L14.2389 6.00072C14.2693 5.96905 14.2931 5.9317 14.309 5.89081C14.3423 5.80973 14.3423 5.71878 14.309 5.63769Z" fill="#0A2828"/>
</svg>
