<svg width="14" height="14" viewBox="0 0 14 14" fill="none" xmlns="http://www.w3.org/2000/svg">
<path d="M13.2728 4.76C13.2728 4.76 13.2728 4.76 13.2728 4.72667C12.8031 3.44415 11.9508 2.33686 10.8311 1.55458C9.71152 0.772298 8.37865 0.352783 7.01281 0.352783C5.64698 0.352783 4.3141 0.772298 3.19449 1.55458C2.07487 2.33686 1.22255 3.44415 0.752813 4.72667C0.752813 4.72667 0.752813 4.72667 0.752813 4.76C0.228229 6.20727 0.228229 7.79274 0.752813 9.24C0.752813 9.24 0.752813 9.24 0.752813 9.27334C1.22255 10.5559 2.07487 11.6631 3.19449 12.4454C4.3141 13.2277 5.64698 13.6472 7.01281 13.6472C8.37865 13.6472 9.71152 13.2277 10.8311 12.4454C11.9508 11.6631 12.8031 10.5559 13.2728 9.27334C13.2728 9.27334 13.2728 9.27334 13.2728 9.24C13.7974 7.79274 13.7974 6.20727 13.2728 4.76ZM1.83948 8.33334C1.6083 7.45948 1.6083 6.54053 1.83948 5.66667H3.07948C2.97283 6.55236 2.97283 7.44765 3.07948 8.33334H1.83948ZM2.38615 9.66667H3.31948C3.47596 10.2612 3.69962 10.836 3.98615 11.38C3.33234 10.9346 2.78581 10.3494 2.38615 9.66667ZM3.31948 4.33334H2.38615C2.78006 3.65273 3.31961 3.06765 3.96615 2.62C3.68652 3.16483 3.46957 3.73962 3.31948 4.33334ZM6.33281 12.1333C5.51399 11.5325 4.93891 10.6568 4.71281 9.66667H6.33281V12.1333ZM6.33281 8.33334H4.42615C4.30174 7.4488 4.30174 6.55121 4.42615 5.66667H6.33281V8.33334ZM6.33281 4.33334H4.71281C4.93891 3.34318 5.51399 2.46755 6.33281 1.86667V4.33334ZM11.6128 4.33334H10.6795C10.523 3.73877 10.2993 3.16396 10.0128 2.62C10.6666 3.06538 11.2131 3.65063 11.6128 4.33334ZM7.66615 1.86667C8.48497 2.46755 9.06005 3.34318 9.28615 4.33334H7.66615V1.86667ZM7.66615 12.1333V9.66667H9.28615C9.06005 10.6568 8.48497 11.5325 7.66615 12.1333ZM9.57281 8.33334H7.66615V5.66667H9.57281C9.69722 6.55121 9.69722 7.4488 9.57281 8.33334ZM10.0328 11.38C10.3193 10.836 10.543 10.2612 10.6995 9.66667H11.6328C11.2331 10.3494 10.6866 10.9346 10.0328 11.38ZM12.1595 8.33334H10.9195C10.9737 7.89097 11.0004 7.44567 10.9995 7C11.0002 6.55434 10.9735 6.10905 10.9195 5.66667H12.1595C12.3907 6.54053 12.3907 7.45948 12.1595 8.33334Z" fill="#D2D4D4"/>
</svg>
