<svg width="12" height="14" viewBox="0 0 12 14" fill="none" xmlns="http://www.w3.org/2000/svg">
<path d="M10.0006 1.98669C8.93974 0.925822 7.5009 0.329834 6.0006 0.329834C4.50031 0.329834 3.06147 0.925822 2.0006 1.98669C0.939738 3.04755 0.34375 4.4864 0.34375 5.98669C0.34375 7.48698 0.939738 8.92582 2.0006 9.98669L5.51394 13.5067C5.57591 13.5692 5.64965 13.6188 5.73089 13.6526C5.81213 13.6865 5.89926 13.7039 5.98727 13.7039C6.07528 13.7039 6.16242 13.6865 6.24366 13.6526C6.32489 13.6188 6.39863 13.5692 6.4606 13.5067L10.0006 9.95335C11.057 8.8969 11.6505 7.46406 11.6505 5.97002C11.6505 4.47599 11.057 3.04314 10.0006 1.98669ZM9.04727 9.00002L6.0006 12.06L2.95394 9.00002C2.35203 8.39757 1.94226 7.63019 1.7764 6.79488C1.61055 5.95958 1.69606 5.09385 2.02214 4.30714C2.34822 3.52043 2.90022 2.84805 3.60836 2.37501C4.3165 1.90196 5.14899 1.64948 6.0006 1.64948C6.85221 1.64948 7.68471 1.90196 8.39285 2.37501C9.10099 2.84805 9.65299 3.52043 9.97907 4.30714C10.3051 5.09385 10.3907 5.95958 10.2248 6.79488C10.059 7.63019 9.64917 8.39757 9.04727 9.00002ZM4.0006 3.94002C3.46241 4.47987 3.1602 5.21107 3.1602 5.97335C3.1602 6.73564 3.46241 7.46684 4.0006 8.00669C4.40044 8.40721 4.90966 8.68074 5.46437 8.79296C6.01908 8.90517 6.59457 8.85108 7.11865 8.63746C7.64273 8.42384 8.09206 8.06021 8.41026 7.59219C8.72846 7.12417 8.90136 6.5726 8.90727 6.00669C8.91028 5.62882 8.83749 5.25419 8.69321 4.90495C8.54893 4.5557 8.33609 4.23893 8.06727 3.97335C7.80305 3.70307 7.48799 3.48771 7.14022 3.33967C6.79245 3.19162 6.41883 3.11381 6.04087 3.11071C5.66291 3.10761 5.28807 3.17929 4.93792 3.32161C4.58777 3.46394 4.26922 3.67411 4.0006 3.94002ZM7.12727 7.06002C6.87463 7.31652 6.54074 7.47729 6.18269 7.51486C5.82463 7.55242 5.46465 7.46445 5.16428 7.26597C4.8639 7.0675 4.6418 6.77085 4.53594 6.42674C4.43008 6.08264 4.44704 5.71245 4.58391 5.37946C4.72078 5.04647 4.96907 4.77137 5.28633 4.60118C5.60358 4.43099 5.97011 4.37629 6.32323 4.44643C6.67635 4.51657 6.99414 4.70719 7.22228 4.98571C7.45041 5.26422 7.57471 5.61333 7.57394 5.97335C7.56424 6.38487 7.3916 6.77571 7.09394 7.06002H7.12727Z" fill="#D2D4D4"/>
</svg>
