<svg width="12" height="14" viewBox="0 0 12 14" fill="none" xmlns="http://www.w3.org/2000/svg">
<path d="M6.00002 7.66665C5.82321 7.66665 5.65364 7.73688 5.52862 7.86191C5.40359 7.98693 5.33335 8.1565 5.33335 8.33331V10.3333C5.33335 10.5101 5.40359 10.6797 5.52862 10.8047C5.65364 10.9297 5.82321 11 6.00002 11C6.17683 11 6.3464 10.9297 6.47142 10.8047C6.59645 10.6797 6.66669 10.5101 6.66669 10.3333V8.33331C6.66669 8.1565 6.59645 7.98693 6.47142 7.86191C6.3464 7.73688 6.17683 7.66665 6.00002 7.66665ZM9.33335 4.99998V3.66665C9.33335 2.78259 8.98216 1.93475 8.35704 1.30962C7.73192 0.684502 6.88408 0.333313 6.00002 0.333313C5.11596 0.333313 4.26812 0.684502 3.643 1.30962C3.01788 1.93475 2.66669 2.78259 2.66669 3.66665V4.99998C2.13625 4.99998 1.62755 5.21069 1.25247 5.58577C0.877401 5.96084 0.666687 6.46955 0.666687 6.99998V11.6666C0.666687 12.1971 0.877401 12.7058 1.25247 13.0809C1.62755 13.4559 2.13625 13.6666 2.66669 13.6666H9.33335C9.86379 13.6666 10.3725 13.4559 10.7476 13.0809C11.1226 12.7058 11.3334 12.1971 11.3334 11.6666V6.99998C11.3334 6.46955 11.1226 5.96084 10.7476 5.58577C10.3725 5.21069 9.86379 4.99998 9.33335 4.99998ZM4.00002 3.66665C4.00002 3.13621 4.21073 2.62751 4.58581 2.25243C4.96088 1.87736 5.46959 1.66665 6.00002 1.66665C6.53045 1.66665 7.03916 1.87736 7.41423 2.25243C7.78931 2.62751 8.00002 3.13621 8.00002 3.66665V4.99998H4.00002V3.66665ZM10 11.6666C10 11.8435 9.92978 12.013 9.80476 12.1381C9.67973 12.2631 9.51016 12.3333 9.33335 12.3333H2.66669C2.48988 12.3333 2.32031 12.2631 2.19528 12.1381C2.07026 12.013 2.00002 11.8435 2.00002 11.6666V6.99998C2.00002 6.82317 2.07026 6.6536 2.19528 6.52858C2.32031 6.40355 2.48988 6.33331 2.66669 6.33331H9.33335C9.51016 6.33331 9.67973 6.40355 9.80476 6.52858C9.92978 6.6536 10 6.82317 10 6.99998V11.6666Z" fill="#D2D4D4"/>
</svg>
