<svg width="34" height="34" viewBox="0 0 34 34" fill="none" xmlns="http://www.w3.org/2000/svg">
<path d="M17.9833 18.6667L14.15 22.4833C13.9938 22.6383 13.8698 22.8226 13.7852 23.0257C13.7006 23.2288 13.657 23.4466 13.657 23.6667C13.657 23.8867 13.7006 24.1045 13.7852 24.3076C13.8698 24.5107 13.9938 24.6951 14.15 24.85C14.3049 25.0062 14.4893 25.1302 14.6924 25.2148C14.8955 25.2994 15.1133 25.343 15.3333 25.343C15.5534 25.343 15.7712 25.2994 15.9743 25.2148C16.1774 25.1302 16.3617 25.0062 16.5167 24.85L23.1833 18.1833C23.3351 18.0248 23.454 17.8379 23.5333 17.6333C23.7 17.2276 23.7 16.7724 23.5333 16.3667C23.454 16.1621 23.3351 15.9752 23.1833 15.8167L16.5167 9.14999C16.3613 8.9946 16.1768 8.87133 15.9738 8.78723C15.7707 8.70313 15.5531 8.65984 15.3333 8.65984C15.1136 8.65984 14.896 8.70313 14.6929 8.78723C14.4899 8.87133 14.3054 8.9946 14.15 9.14999C13.9946 9.30539 13.8713 9.48987 13.7872 9.69291C13.7031 9.89595 13.6598 10.1136 13.6598 10.3333C13.6598 10.5531 13.7031 10.7707 13.7872 10.9737C13.8713 11.1768 13.9946 11.3613 14.15 11.5167L17.9833 15.3333H2C1.55797 15.3333 1.13405 15.5089 0.821489 15.8215C0.508929 16.134 0.333334 16.558 0.333334 17C0.333334 17.442 0.508929 17.8659 0.821489 18.1785C1.13405 18.4911 1.55797 18.6667 2 18.6667H17.9833ZM17 0.333327C13.8852 0.31942 10.8287 1.17868 8.17745 2.81365C5.52615 4.44861 3.38609 6.79384 2 9.58333C1.80109 9.98115 1.76836 10.4417 1.90901 10.8637C2.04966 11.2856 2.35218 11.6344 2.75 11.8333C3.14783 12.0322 3.60837 12.065 4.03033 11.9243C4.45229 11.7837 4.80109 11.4812 5 11.0833C6.05365 8.95553 7.65639 7.14769 9.64258 5.84664C11.6288 4.54559 13.9264 3.79852 16.2979 3.68265C18.6695 3.56677 21.029 4.08629 23.1325 5.18751C25.2361 6.28873 27.0075 7.93171 28.2635 9.94665C29.5196 11.9616 30.2148 14.2754 30.2773 16.649C30.3399 19.0225 29.7674 21.3697 28.6192 23.448C27.471 25.5263 25.7886 27.2603 23.7459 28.4707C21.7032 29.6812 19.3744 30.3242 17 30.3333C14.5148 30.3441 12.0769 29.6539 9.96615 28.3421C7.85538 27.0302 6.15726 25.1498 5.06667 22.9167C4.86776 22.5188 4.51895 22.2163 4.097 22.0757C3.67504 21.935 3.21449 21.9677 2.81667 22.1667C2.41884 22.3656 2.11633 22.7144 1.97568 23.1363C1.83502 23.5583 1.86775 24.0188 2.06667 24.4167C3.38805 27.0758 5.39587 29.3337 7.88245 30.9567C10.369 32.5798 13.2441 33.509 16.2102 33.6483C19.1763 33.7876 22.1258 33.132 24.7536 31.7492C27.3813 30.3664 29.592 28.3066 31.1568 25.783C32.7216 23.2594 33.5838 20.3636 33.6542 17.395C33.7245 14.4264 33.0005 11.493 31.5571 8.89805C30.1136 6.30311 28.0031 4.14094 25.4438 2.63517C22.8845 1.1294 19.9694 0.334721 17 0.333327V0.333327Z" fill="#D2D4D4"/>
</svg>
