<svg width="20" height="18" viewBox="0 0 20 18" fill="none" xmlns="http://www.w3.org/2000/svg">
<path d="M8.71665 4.00002L9.16665 3.50835V6.50002C9.16665 6.72103 9.25444 6.93299 9.41072 7.08927C9.567 7.24555 9.77896 7.33335 9.99998 7.33335C10.221 7.33335 10.433 7.24555 10.5892 7.08927C10.7455 6.93299 10.8333 6.72103 10.8333 6.50002V3.50835L11.2833 3.96668C11.359 4.05212 11.4513 4.12111 11.5547 4.16938C11.6581 4.21764 11.7703 4.24416 11.8844 4.24729C11.9985 4.25041 12.112 4.23008 12.2179 4.18754C12.3237 4.14501 12.4198 4.08118 12.5 4.00002C12.5781 3.92255 12.6401 3.83038 12.6824 3.72883C12.7247 3.62728 12.7465 3.51836 12.7465 3.40835C12.7465 3.29834 12.7247 3.18942 12.6824 3.08787C12.6401 2.98632 12.5781 2.89415 12.5 2.81668L10.5916 0.908349C10.5124 0.832482 10.4189 0.773011 10.3166 0.733349C10.1138 0.65 9.8862 0.65 9.68331 0.733349C9.58102 0.773011 9.48757 0.832482 9.40831 0.908349L7.49998 2.78335C7.33864 2.94469 7.248 3.16351 7.248 3.39168C7.248 3.61985 7.33864 3.83868 7.49998 4.00002C7.66132 4.16136 7.88014 4.252 8.10831 4.252C8.33648 4.252 8.55531 4.16136 8.71665 4.00002ZM9.99998 9.00002C9.50553 9.00002 9.02218 9.14664 8.61105 9.42134C8.19993 9.69604 7.8795 10.0865 7.69028 10.5433C7.50106 11.0001 7.45155 11.5028 7.54802 11.9877C7.64448 12.4727 7.88258 12.9182 8.23221 13.2678C8.58184 13.6174 9.0273 13.8555 9.51225 13.952C9.99721 14.0484 10.4999 13.9989 10.9567 13.8097C11.4135 13.6205 11.8039 13.3001 12.0787 12.8889C12.3534 12.4778 12.5 11.9945 12.5 11.5C12.5 10.837 12.2366 10.2011 11.7677 9.73225C11.2989 9.26341 10.663 9.00002 9.99998 9.00002ZM9.99998 12.3333C9.83516 12.3333 9.67404 12.2845 9.537 12.1929C9.39996 12.1013 9.29315 11.9712 9.23008 11.8189C9.16701 11.6666 9.1505 11.4991 9.18266 11.3374C9.21481 11.1758 9.29418 11.0273 9.41072 10.9108C9.52727 10.7942 9.67575 10.7148 9.8374 10.6827C9.99905 10.6505 10.1666 10.667 10.3189 10.7301C10.4712 10.7932 10.6013 10.9 10.6929 11.037C10.7844 11.1741 10.8333 11.3352 10.8333 11.5C10.8333 11.721 10.7455 11.933 10.5892 12.0893C10.433 12.2456 10.221 12.3333 9.99998 12.3333ZM4.16665 11.5C4.16665 11.6648 4.21552 11.8259 4.30709 11.963C4.39866 12.1 4.5288 12.2068 4.68108 12.2699C4.83335 12.333 5.0009 12.3495 5.16255 12.3173C5.32421 12.2852 5.47269 12.2058 5.58923 12.0893C5.70578 11.9727 5.78515 11.8242 5.8173 11.6626C5.84945 11.5009 5.83295 11.3334 5.76988 11.1811C5.70681 11.0288 5.6 10.8987 5.46295 10.8071C5.32591 10.7156 5.1648 10.6667 4.99998 10.6667C4.77897 10.6667 4.567 10.7545 4.41072 10.9108C4.25444 11.067 4.16665 11.279 4.16665 11.5ZM15.8333 11.5C15.8333 11.3352 15.7844 11.1741 15.6929 11.037C15.6013 10.9 15.4712 10.7932 15.3189 10.7301C15.1666 10.667 14.9991 10.6505 14.8374 10.6827C14.6758 10.7148 14.5273 10.7942 14.4107 10.9108C14.2942 11.0273 14.2148 11.1758 14.1827 11.3374C14.1505 11.4991 14.167 11.6666 14.2301 11.8189C14.2932 11.9712 14.4 12.1013 14.537 12.1929C14.674 12.2845 14.8352 12.3333 15 12.3333C15.221 12.3333 15.433 12.2456 15.5892 12.0893C15.7455 11.933 15.8333 11.721 15.8333 11.5ZM16.6666 5.66668H13.3333C13.1123 5.66668 12.9003 5.75448 12.7441 5.91076C12.5878 6.06704 12.5 6.279 12.5 6.50002C12.5 6.72103 12.5878 6.93299 12.7441 7.08927C12.9003 7.24555 13.1123 7.33335 13.3333 7.33335H16.6666C16.8877 7.33335 17.0996 7.42115 17.2559 7.57743C17.4122 7.73371 17.5 7.94567 17.5 8.16668V14.8333C17.5 15.0544 17.4122 15.2663 17.2559 15.4226C17.0996 15.5789 16.8877 15.6667 16.6666 15.6667H3.33331C3.1123 15.6667 2.90034 15.5789 2.74406 15.4226C2.58778 15.2663 2.49998 15.0544 2.49998 14.8333V8.16668C2.49998 7.94567 2.58778 7.73371 2.74406 7.57743C2.90034 7.42115 3.1123 7.33335 3.33331 7.33335H6.66665C6.88766 7.33335 7.09962 7.24555 7.2559 7.08927C7.41218 6.93299 7.49998 6.72103 7.49998 6.50002C7.49998 6.279 7.41218 6.06704 7.2559 5.91076C7.09962 5.75448 6.88766 5.66668 6.66665 5.66668H3.33331C2.67027 5.66668 2.03439 5.93007 1.56555 6.39891C1.09671 6.86776 0.833313 7.50364 0.833313 8.16668V14.8333C0.833313 15.4964 1.09671 16.1323 1.56555 16.6011C2.03439 17.07 2.67027 17.3333 3.33331 17.3333H16.6666C17.3297 17.3333 17.9656 17.07 18.4344 16.6011C18.9033 16.1323 19.1666 15.4964 19.1666 14.8333V8.16668C19.1666 7.50364 18.9033 6.86776 18.4344 6.39891C17.9656 5.93007 17.3297 5.66668 16.6666 5.66668Z" fill="#D2D4D4"/>
</svg>
