<svg width="10" height="14" viewBox="0 0 10 14" fill="none" xmlns="http://www.w3.org/2000/svg">
<path d="M5.47325 9.86L5.37325 9.78C5.33609 9.75476 5.29574 9.73459 5.25325 9.72L5.13325 9.66666C5.02513 9.64406 4.91309 9.64867 4.8072 9.68009C4.70131 9.71151 4.60488 9.76875 4.52659 9.84666C4.4677 9.91146 4.42035 9.98587 4.38659 10.0667C4.33613 10.1881 4.32274 10.3218 4.34809 10.4509C4.37344 10.5799 4.4364 10.6986 4.52905 10.792C4.6217 10.8853 4.73989 10.9492 4.86876 10.9755C4.99762 11.0019 5.1314 10.9895 5.25325 10.94C5.33292 10.9013 5.40693 10.852 5.47325 10.7933C5.56576 10.6996 5.62842 10.5805 5.65334 10.4512C5.67825 10.3219 5.66431 10.1881 5.61325 10.0667C5.58001 9.98957 5.53251 9.91946 5.47325 9.86V9.86ZM7.66659 0.333328H2.33325C1.80282 0.333328 1.29411 0.544042 0.919038 0.919115C0.543966 1.29419 0.333252 1.8029 0.333252 2.33333V11.6667C0.333252 12.1971 0.543966 12.7058 0.919038 13.0809C1.29411 13.4559 1.80282 13.6667 2.33325 13.6667H7.66659C8.19702 13.6667 8.70573 13.4559 9.0808 13.0809C9.45587 12.7058 9.66659 12.1971 9.66659 11.6667V2.33333C9.66659 1.8029 9.45587 1.29419 9.0808 0.919115C8.70573 0.544042 8.19702 0.333328 7.66659 0.333328ZM8.33325 11.6667C8.33325 11.8435 8.26301 12.013 8.13799 12.1381C8.01297 12.2631 7.8434 12.3333 7.66659 12.3333H2.33325C2.15644 12.3333 1.98687 12.2631 1.86185 12.1381C1.73682 12.013 1.66659 11.8435 1.66659 11.6667V2.33333C1.66659 2.15652 1.73682 1.98695 1.86185 1.86192C1.98687 1.7369 2.15644 1.66666 2.33325 1.66666H7.66659C7.8434 1.66666 8.01297 1.7369 8.13799 1.86192C8.26301 1.98695 8.33325 2.15652 8.33325 2.33333V11.6667Z" fill="#D2D4D4"/>
</svg>
