<svg width="6" height="8" viewBox="0 0 6 8" fill="none" xmlns="http://www.w3.org/2000/svg">
<path d="M2.58562 3.68502C2.63985 3.7397 2.70437 3.78309 2.77545 3.81271C2.84654 3.84232 2.92278 3.85757 2.99979 3.85757C3.0768 3.85757 3.15304 3.84232 3.22413 3.81271C3.29521 3.78309 3.35973 3.7397 3.41396 3.68502L5.16396 1.93502C5.21988 1.88063 5.26454 1.81576 5.29539 1.74411C5.32624 1.67246 5.34268 1.59544 5.34376 1.51744C5.34484 1.43944 5.33055 1.36199 5.3017 1.28951C5.27285 1.21703 5.23001 1.15094 5.17562 1.09502C5.12123 1.0391 5.05636 0.994439 4.98471 0.963589C4.91306 0.932738 4.83604 0.916302 4.75804 0.915218C4.68004 0.914135 4.60259 0.928426 4.53011 0.957275C4.45763 0.986124 4.39154 1.02897 4.33562 1.08335L2.99979 2.44835L1.66396 1.08335C1.55102 0.973511 1.39907 0.913031 1.24154 0.915218C1.08401 0.917406 0.9338 0.982083 0.823956 1.09502C0.714112 1.20796 0.653631 1.35991 0.655819 1.51744C0.658007 1.67497 0.722684 1.82518 0.835622 1.93502L2.58562 3.68502ZM4.33562 4.31502L2.99979 5.65669L1.66396 4.31502C1.55102 4.20518 1.39907 4.1447 1.24154 4.14688C1.08401 4.14907 0.9338 4.21375 0.823956 4.32669C0.714112 4.43963 0.653631 4.59157 0.655819 4.7491C0.658007 4.90664 0.722684 5.05684 0.835622 5.16669L2.58562 6.91669C2.63985 6.97136 2.70437 7.01476 2.77545 7.04437C2.84654 7.07399 2.92278 7.08924 2.99979 7.08924C3.0768 7.08924 3.15304 7.07399 3.22413 7.04437C3.29521 7.01476 3.35973 6.97136 3.41396 6.91669L5.16396 5.16669C5.2738 5.05684 5.33551 4.90786 5.33551 4.75252C5.33551 4.59718 5.2738 4.4482 5.16396 4.33835C5.05411 4.22851 4.90513 4.1668 4.74979 4.1668C4.59445 4.1668 4.44547 4.22851 4.33562 4.33835V4.31502Z" fill="#0A2828"/>
</svg>
