<svg width="6" height="8" viewBox="0 0 6 8" fill="none" xmlns="http://www.w3.org/2000/svg">
<path d="M3.41396 4.31496C3.35973 4.26029 3.29521 4.21689 3.22413 4.18728C3.15304 4.15766 3.0768 4.14242 2.99979 4.14242C2.92278 4.14242 2.84654 4.15766 2.77545 4.18728C2.70437 4.21689 2.63985 4.26029 2.58562 4.31496L0.835622 6.06496C0.722684 6.17481 0.658007 6.32502 0.655819 6.48255C0.653631 6.64008 0.714112 6.79203 0.823956 6.90496C0.9338 7.0179 1.08401 7.08258 1.24154 7.08477C1.39907 7.08696 1.55102 7.02648 1.66396 6.91663L2.99979 5.55163L4.33562 6.91663C4.38985 6.97131 4.45437 7.0147 4.52545 7.04432C4.59654 7.07393 4.67278 7.08918 4.74979 7.08918C4.8268 7.08918 4.90304 7.07393 4.97413 7.04432C5.04521 7.0147 5.10973 6.97131 5.16396 6.91663C5.21863 6.8624 5.26203 6.79789 5.29164 6.7268C5.32126 6.65572 5.33651 6.57947 5.33651 6.50247C5.33651 6.42546 5.32126 6.34921 5.29164 6.27813C5.26203 6.20704 5.21863 6.14253 5.16396 6.0883L3.41396 4.31496ZM1.66396 3.68496L2.99979 2.3433L4.33562 3.68496C4.38985 3.73964 4.45437 3.78304 4.52545 3.81265C4.59654 3.84227 4.67278 3.85751 4.74979 3.85751C4.8268 3.85751 4.90304 3.84227 4.97413 3.81265C5.04521 3.78304 5.10973 3.73964 5.16396 3.68496C5.21863 3.63074 5.26203 3.56622 5.29164 3.49513C5.32126 3.42405 5.33651 3.3478 5.33651 3.2708C5.33651 3.19379 5.32126 3.11755 5.29164 3.04646C5.26203 2.97538 5.21863 2.91086 5.16396 2.85663L3.41396 1.10663C3.35973 1.05196 3.29521 1.00856 3.22413 0.978945C3.15304 0.949329 3.0768 0.934082 2.99979 0.934082C2.92278 0.934082 2.84654 0.949329 2.77545 0.978945C2.70437 1.00856 2.63985 1.05196 2.58562 1.10663L0.835622 2.85663C0.725778 2.96648 0.664069 3.11546 0.664069 3.2708C0.664069 3.42614 0.725778 3.57512 0.835622 3.68496C0.945466 3.79481 1.09445 3.85652 1.24979 3.85652C1.40513 3.85652 1.55411 3.79481 1.66396 3.68496Z" fill="#0A2828"/>
</svg>
