<svg width="106" height="117" viewBox="0 0 106 117" fill="none" xmlns="http://www.w3.org/2000/svg">
<path d="M76.3333 105.167H29.6667C25.0254 105.167 20.5742 103.323 17.2923 100.041C14.0104 96.7591 12.1667 92.308 12.1667 87.6667V29.3333C12.1667 27.7862 11.5521 26.3025 10.4581 25.2085C9.36416 24.1146 7.88043 23.5 6.33333 23.5C4.78624 23.5 3.30251 24.1146 2.20854 25.2085C1.11458 26.3025 0.5 27.7862 0.5 29.3333V87.6667C0.5 95.4021 3.57291 102.821 9.04272 108.291C14.5125 113.76 21.9312 116.833 29.6667 116.833H76.3333C77.8804 116.833 79.3642 116.219 80.4581 115.125C81.5521 114.031 82.1667 112.547 82.1667 111C82.1667 109.453 81.5521 107.969 80.4581 106.875C79.3642 105.781 77.8804 105.167 76.3333 105.167ZM41.3333 64.3333C41.3333 65.8804 41.9479 67.3642 43.0419 68.4581C44.1358 69.5521 45.6196 70.1667 47.1667 70.1667H76.3333C77.8804 70.1667 79.3642 69.5521 80.4581 68.4581C81.5521 67.3642 82.1667 65.8804 82.1667 64.3333C82.1667 62.7862 81.5521 61.3025 80.4581 60.2085C79.3642 59.1146 77.8804 58.5 76.3333 58.5H47.1667C45.6196 58.5 44.1358 59.1146 43.0419 60.2085C41.9479 61.3025 41.3333 62.7862 41.3333 64.3333ZM105.5 40.65C105.439 40.1141 105.322 39.5862 105.15 39.075V38.55C104.87 37.9502 104.495 37.3989 104.042 36.9167L69.0417 1.91666C68.5595 1.46292 68.0081 1.0888 67.4083 0.808323C67.2342 0.78359 67.0575 0.78359 66.8833 0.808323C66.2908 0.46848 65.6363 0.250331 64.9583 0.166656H41.3333C36.692 0.166656 32.2409 2.0104 28.959 5.29229C25.6771 8.57418 23.8333 13.0254 23.8333 17.6667V76C23.8333 80.6413 25.6771 85.0925 28.959 88.3744C32.2409 91.6563 36.692 93.5 41.3333 93.5H88C92.6413 93.5 97.0925 91.6563 100.374 88.3744C103.656 85.0925 105.5 80.6413 105.5 76V41C105.5 41 105.5 41 105.5 40.65ZM70.5 20.0583L85.6083 35.1667H76.3333C74.7862 35.1667 73.3025 34.5521 72.2085 33.4581C71.1146 32.3642 70.5 30.8804 70.5 29.3333V20.0583ZM93.8333 76C93.8333 77.5471 93.2188 79.0308 92.1248 80.1248C91.0308 81.2188 89.5471 81.8333 88 81.8333H41.3333C39.7862 81.8333 38.3025 81.2188 37.2085 80.1248C36.1146 79.0308 35.5 77.5471 35.5 76V17.6667C35.5 16.1196 36.1146 14.6358 37.2085 13.5419C38.3025 12.4479 39.7862 11.8333 41.3333 11.8333H58.8333V29.3333C58.8491 31.3233 59.2042 33.2961 59.8833 35.1667H47.1667C45.6196 35.1667 44.1358 35.7812 43.0419 36.8752C41.9479 37.9692 41.3333 39.4529 41.3333 41C41.3333 42.5471 41.9479 44.0308 43.0419 45.1248C44.1358 46.2187 45.6196 46.8333 47.1667 46.8333H93.8333V76Z" fill="#EFF1F1"/>
</svg>
