<svg width="118" height="118" viewBox="0 0 118 118" fill="none" xmlns="http://www.w3.org/2000/svg">
<path d="M109.225 100.942C112.881 96.0418 115.389 90.3831 116.566 84.3837C117.743 78.3843 117.557 72.1972 116.023 66.2791C114.489 60.361 111.645 54.8629 107.702 50.1906C103.759 45.5183 98.8176 41.791 93.2416 39.2838C92.0271 32.296 89.2358 25.677 85.0798 19.9298C80.9238 14.1825 75.5124 9.4581 69.2569 6.11561C63.0014 2.77312 56.0663 0.900451 48.9786 0.639901C41.8909 0.379352 34.837 1.73777 28.353 4.61195C21.869 7.48613 16.1254 11.8004 11.5586 17.2271C6.99183 22.6537 3.72207 29.0499 1.99776 35.9296C0.273442 42.8093 0.139943 49.9915 1.6074 56.9306C3.07487 63.8696 6.10468 70.3829 10.4666 75.9754L2.35829 84.0255C1.54887 84.8458 1.00056 85.8874 0.782543 87.019C0.564527 88.1506 0.686576 89.3215 1.13329 90.3838C1.57091 91.4491 2.31406 92.361 3.2691 93.0046C4.22413 93.6482 5.34831 93.9947 6.49996 94.0004H39.6916C42.9971 100.969 48.2085 106.859 54.7227 110.988C61.2368 115.118 68.7873 117.318 76.5 117.334H111.5C112.652 117.328 113.776 116.982 114.731 116.338C115.686 115.694 116.429 114.782 116.867 113.717C117.313 112.655 117.435 111.484 117.217 110.352C116.999 109.221 116.451 108.179 115.642 107.359L109.225 100.942ZM35.6666 76.5004C35.6746 78.4539 35.8306 80.4039 36.1333 82.3338H20.5583L22.6 80.3504C23.1467 79.8082 23.5807 79.163 23.8768 78.4521C24.173 77.7413 24.3255 76.9788 24.3255 76.2088C24.3255 75.4387 24.173 74.6763 23.8768 73.9654C23.5807 73.2546 23.1467 72.6094 22.6 72.0671C19.3307 68.8337 16.7389 64.981 14.9761 60.7342C13.2133 56.4875 12.3148 51.9318 12.3333 47.3338C12.3333 38.0512 16.0208 29.1488 22.5846 22.585C29.1483 16.0213 38.0507 12.3338 47.3333 12.3338C54.5765 12.2902 61.6512 14.5177 67.5629 18.703C73.4746 22.8883 77.9261 28.821 80.2916 35.6671C79.0083 35.6671 77.7833 35.6671 76.5 35.6671C65.6703 35.6671 55.2842 39.9692 47.6264 47.6269C39.9687 55.2846 35.6666 65.6708 35.6666 76.5004ZM97.15 105.667L97.4416 105.959H76.5C69.7528 105.947 63.2184 103.596 58.0102 99.3064C52.8019 95.0171 49.2418 89.0547 47.9364 82.4349C46.6311 75.8152 47.6612 68.9477 50.8512 63.0022C54.0413 57.0568 59.194 52.4012 65.4315 49.8287C71.6691 47.2561 78.6056 46.9257 85.0594 48.8938C91.5132 50.8618 97.0851 55.0065 100.826 60.6218C104.567 66.2371 106.245 72.9757 105.574 79.6895C104.904 86.4033 101.927 92.6771 97.15 97.4421C96.0509 98.5191 95.4219 99.9868 95.4 101.525C95.4032 102.297 95.5595 103.061 95.8599 103.772C96.1603 104.483 96.5988 105.127 97.15 105.667Z" fill="#EFF1F1"/>
</svg>
