<svg width="130" height="129" viewBox="0 0 130 129" fill="none" xmlns="http://www.w3.org/2000/svg">
<path d="M27.0833 41.1663H29.9999V44.083C29.9999 45.6301 30.6145 47.1138 31.7085 48.2078C32.8024 49.3018 34.2862 49.9163 35.8333 49.9163C37.3803 49.9163 38.8641 49.3018 39.958 48.2078C41.052 47.1138 41.6666 45.6301 41.6666 44.083V41.1663H44.5832C46.1303 41.1663 47.6141 40.5518 48.708 39.4578C49.802 38.3638 50.4166 36.8801 50.4166 35.333C50.4166 33.7859 49.802 32.3022 48.708 31.2082C47.6141 30.1143 46.1303 29.4997 44.5832 29.4997H41.6666V26.583C41.6666 25.0359 41.052 23.5522 39.958 22.4582C38.8641 21.3643 37.3803 20.7497 35.8333 20.7497C34.2862 20.7497 32.8024 21.3643 31.7085 22.4582C30.6145 23.5522 29.9999 25.0359 29.9999 26.583V29.4997H27.0833C25.5362 29.4997 24.0524 30.1143 22.9585 31.2082C21.8645 32.3022 21.2499 33.7859 21.2499 35.333C21.2499 36.8801 21.8645 38.3638 22.9585 39.4578C24.0524 40.5518 25.5362 41.1663 27.0833 41.1663ZM23.4666 106.033C24.5595 107.119 26.038 107.729 27.5791 107.729C29.1202 107.729 30.5986 107.119 31.6916 106.033L35.8333 101.891L39.9749 106.033C41.0679 107.119 42.5463 107.729 44.0874 107.729C45.6285 107.729 47.107 107.119 48.1999 106.033C49.2864 104.94 49.8962 103.462 49.8962 101.921C49.8962 100.379 49.2864 98.9009 48.1999 97.808L44.0583 93.6663L48.1999 89.5247C49.1556 88.4088 49.6549 86.9733 49.5982 85.5052C49.5415 84.0371 48.9329 82.6444 47.894 81.6056C46.8551 80.5667 45.4625 79.9581 43.9944 79.9014C42.5263 79.8446 41.0908 80.344 39.9749 81.2997L35.8333 85.4413L31.6916 81.2997C30.5757 80.344 29.1402 79.8446 27.6721 79.9014C26.204 79.9581 24.8114 80.5667 23.7725 81.6056C22.7336 82.6444 22.125 84.0371 22.0683 85.5052C22.0116 86.9733 22.5109 88.4088 23.4666 89.5247L27.6083 93.6663L23.4666 97.808C22.3801 98.9009 21.7703 100.379 21.7703 101.921C21.7703 103.462 22.3801 104.94 23.4666 106.033ZM111.667 0.333008H18.3333C13.692 0.333008 9.24077 2.17675 5.95888 5.45864C2.677 8.74053 0.833252 13.1917 0.833252 17.833V111.166C0.833252 115.808 2.677 120.259 5.95888 123.541C9.24077 126.823 13.692 128.666 18.3333 128.666H111.667C116.308 128.666 120.759 126.823 124.041 123.541C127.323 120.259 129.167 115.808 129.167 111.166V17.833C129.167 13.1917 127.323 8.74053 124.041 5.45864C120.759 2.17675 116.308 0.333008 111.667 0.333008ZM59.1666 117H18.3333C16.7862 117 15.3024 116.385 14.2085 115.291C13.1145 114.197 12.4999 112.713 12.4999 111.166V70.333H59.1666V117ZM59.1666 58.6663H12.4999V17.833C12.4999 16.2859 13.1145 14.8022 14.2085 13.7082C15.3024 12.6143 16.7862 11.9997 18.3333 11.9997H59.1666V58.6663ZM117.5 111.166C117.5 112.713 116.885 114.197 115.791 115.291C114.697 116.385 113.214 117 111.667 117H70.8333V70.333H117.5V111.166ZM117.5 58.6663H70.8333V11.9997H111.667C113.214 11.9997 114.697 12.6143 115.791 13.7082C116.885 14.8022 117.5 16.2859 117.5 17.833V58.6663ZM85.4166 90.7497H102.917C104.464 90.7497 105.947 90.1351 107.041 89.0411C108.135 87.9472 108.75 86.4634 108.75 84.9163C108.75 83.3692 108.135 81.8855 107.041 80.7915C105.947 79.6976 104.464 79.083 102.917 79.083H85.4166C83.8695 79.083 82.3858 79.6976 81.2918 80.7915C80.1978 81.8855 79.5832 83.3692 79.5832 84.9163C79.5832 86.4634 80.1978 87.9472 81.2918 89.0411C82.3858 90.1351 83.8695 90.7497 85.4166 90.7497ZM102.917 29.4997H85.4166C83.8695 29.4997 82.3858 30.1143 81.2918 31.2082C80.1978 32.3022 79.5832 33.7859 79.5832 35.333C79.5832 36.8801 80.1978 38.3638 81.2918 39.4578C82.3858 40.5518 83.8695 41.1663 85.4166 41.1663H102.917C104.464 41.1663 105.947 40.5518 107.041 39.4578C108.135 38.3638 108.75 36.8801 108.75 35.333C108.75 33.7859 108.135 32.3022 107.041 31.2082C105.947 30.1143 104.464 29.4997 102.917 29.4997ZM85.4166 108.25H102.917C104.464 108.25 105.947 107.635 107.041 106.541C108.135 105.447 108.75 103.963 108.75 102.416C108.75 100.869 108.135 99.3855 107.041 98.2915C105.947 97.1976 104.464 96.583 102.917 96.583H85.4166C83.8695 96.583 82.3858 97.1976 81.2918 98.2915C80.1978 99.3855 79.5832 100.869 79.5832 102.416C79.5832 103.963 80.1978 105.447 81.2918 106.541C82.3858 107.635 83.8695 108.25 85.4166 108.25Z" fill="#EFF1F1"/>
</svg>
