<svg width="138" height="95" viewBox="0 0 138 95" fill="none" xmlns="http://www.w3.org/2000/svg">
<path d="M64.4944 91.4696C64.3558 92.0273 64.1084 92.5522 63.7666 93.0142C63.4247 93.4762 62.995 93.8663 62.5022 94.1619C62.0094 94.4576 61.4631 94.6531 60.8945 94.7373C60.326 94.8215 59.7465 94.7927 59.1891 94.6526L42.7065 90.5323C41.3692 90.1959 40.1297 89.5502 39.0877 88.6471L26.7553 77.9269C25.8795 77.1658 25.342 76.0879 25.2609 74.9304C25.1799 73.7729 25.562 72.6306 26.3232 71.7548C27.0844 70.8791 28.1623 70.3415 29.3198 70.2605C30.4773 70.1795 31.6195 70.5616 32.4953 71.3228L44.8288 82.0435L61.3115 86.1642C61.8688 86.3035 62.3933 86.5513 62.855 86.8933C63.3166 87.2353 63.7063 87.6649 64.0019 88.1576C64.2975 88.6502 64.4931 89.1963 64.5776 89.7646C64.6621 90.3329 64.6338 90.9122 64.4944 91.4696ZM137.011 39.3819C136.656 40.489 136.083 41.5136 135.326 42.3952C134.568 43.2767 133.641 43.9972 132.6 44.5139L119.875 50.8763L111.701 60.4387C111.672 60.472 111.641 60.5028 111.612 60.5353C111.585 60.5649 111.558 60.5942 111.53 60.6229C111.51 60.6447 111.49 60.668 111.469 60.6894L91.3458 80.8135C89.6959 82.4531 87.4643 83.3731 85.1384 83.3727C84.4296 83.3728 83.7235 83.286 83.0358 83.1142L51.3406 75.1904C50.151 74.8947 49.0373 74.3509 48.0727 73.5946L18.5259 50.4903L5.40093 43.9278C4.3617 43.408 3.43639 42.6865 2.67899 41.8053C1.92159 40.9241 1.34726 39.9009 0.989517 38.7954C0.631776 37.6899 0.497786 36.5242 0.595365 35.3664C0.692944 34.2085 1.02014 33.0817 1.55786 32.0517L15.007 6.29539C16.0772 4.27002 17.8954 2.74218 20.0749 2.03696C22.2543 1.33174 24.6229 1.5048 26.6767 2.51933L38.913 8.63746L65.5305 0.877665C67.5355 0.293876 69.6832 0.445683 71.5862 1.30571L89.6314 9.47092H98.5929L111.324 3.10549C113.378 2.09019 115.747 1.91675 117.926 2.6221C120.106 3.32745 121.924 4.85585 122.993 6.88181L136.443 32.6375C136.984 33.6664 137.313 34.7935 137.411 35.9521C137.508 37.1106 137.372 38.2769 137.011 39.3819ZM101.661 58.1226L84.3528 45.5347L79.9378 48.8459C76.144 51.6686 71.5414 53.193 66.8128 53.193C62.0841 53.193 57.4815 51.6686 53.6878 48.8459L50.7232 46.6226C49.7204 45.8704 48.8908 44.9115 48.2908 43.8109C47.6908 42.7102 47.3343 41.4935 47.2454 40.243C47.1565 38.9926 47.3374 37.7376 47.7757 36.5632C48.214 35.3887 48.8995 34.3221 49.7859 33.4357L71.1878 12.0338C71.5004 11.7258 71.8356 11.4415 72.1904 11.1832L67.9797 9.27783L41.3339 17.0458L26.4393 45.5705L53.4629 66.7021L85.1581 74.6259L101.661 58.1226ZM111.879 46.7643L96.9739 18.2209H88.7L88.6851 18.222L88.6648 18.2209H77.3748L55.9735 39.6227L58.9375 41.846C61.2139 43.5395 63.9755 44.4541 66.8128 44.4541C69.65 44.4541 72.4116 43.5395 74.688 41.846L81.6879 36.5959C82.4363 36.0345 83.345 35.7278 84.2806 35.7209C85.2161 35.714 86.1293 36.0073 86.8858 36.5578L107.677 51.679L111.879 46.7643Z" fill="#EFF1F1"/>
</svg>
