<svg width="118" height="118" viewBox="0 0 118 118" fill="none" xmlns="http://www.w3.org/2000/svg">
<path d="M47.3332 64.8337H6.49984C4.95274 64.8337 3.46901 65.4482 2.37505 66.5422C1.28109 67.6362 0.666504 69.1199 0.666504 70.667V111.5C0.666504 113.047 1.28109 114.531 2.37505 115.625C3.46901 116.719 4.95274 117.334 6.49984 117.334H47.3332C48.8803 117.334 50.364 116.719 51.458 115.625C52.5519 114.531 53.1665 113.047 53.1665 111.5V70.667C53.1665 69.1199 52.5519 67.6362 51.458 66.5422C50.364 65.4482 48.8803 64.8337 47.3332 64.8337ZM41.4998 105.667H12.3332V76.5003H41.4998V105.667ZM111.5 0.666992H70.6665C69.1194 0.666992 67.6357 1.28157 66.5417 2.37554C65.4478 3.4695 64.8332 4.95323 64.8332 6.50033V47.3337C64.8332 48.8808 65.4478 50.3645 66.5417 51.4585C67.6357 52.5524 69.1194 53.167 70.6665 53.167H111.5C113.047 53.167 114.531 52.5524 115.625 51.4585C116.719 50.3645 117.333 48.8808 117.333 47.3337V6.50033C117.333 4.95323 116.719 3.4695 115.625 2.37554C114.531 1.28157 113.047 0.666992 111.5 0.666992ZM105.667 41.5003H76.4998V12.3337H105.667V41.5003ZM111.5 64.8337H70.6665C69.1194 64.8337 67.6357 65.4482 66.5417 66.5422C65.4478 67.6362 64.8332 69.1199 64.8332 70.667V111.5C64.8332 113.047 65.4478 114.531 66.5417 115.625C67.6357 116.719 69.1194 117.334 70.6665 117.334H111.5C113.047 117.334 114.531 116.719 115.625 115.625C116.719 114.531 117.333 113.047 117.333 111.5V70.667C117.333 69.1199 116.719 67.6362 115.625 66.5422C114.531 65.4482 113.047 64.8337 111.5 64.8337ZM105.667 105.667H76.4998V76.5003H105.667V105.667ZM47.3332 0.666992H6.49984C4.95274 0.666992 3.46901 1.28157 2.37505 2.37554C1.28109 3.4695 0.666504 4.95323 0.666504 6.50033V47.3337C0.666504 48.8808 1.28109 50.3645 2.37505 51.4585C3.46901 52.5524 4.95274 53.167 6.49984 53.167H47.3332C48.8803 53.167 50.364 52.5524 51.458 51.4585C52.5519 50.3645 53.1665 48.8808 53.1665 47.3337V6.50033C53.1665 4.95323 52.5519 3.4695 51.458 2.37554C50.364 1.28157 48.8803 0.666992 47.3332 0.666992ZM41.4998 41.5003H12.3332V12.3337H41.4998V41.5003Z" fill="#EFF1F1"/>
</svg>
