<svg width="147" height="106" viewBox="0 0 147 106" fill="none" xmlns="http://www.w3.org/2000/svg">
<path fill-rule="evenodd" clip-rule="evenodd" d="M13.7086 13.7082V92.2915H133.292V13.7082H13.7086ZM0.0419617 11.9998C0.0419617 5.39543 5.39589 0.0415039 12.0003 0.0415039H135C141.605 0.0415039 146.959 5.39543 146.959 11.9998V93.9998C146.959 100.604 141.605 105.958 135 105.958H12.0003C5.39589 105.958 0.0419617 100.604 0.0419617 93.9998V11.9998Z" fill="#EFF1F1"/>
<path fill-rule="evenodd" clip-rule="evenodd" d="M92.2882 78.6248C92.2882 74.8509 95.3476 71.7915 99.1215 71.7915H119.622C123.395 71.7915 126.455 74.8509 126.455 78.6248C126.455 82.3988 123.395 85.4582 119.622 85.4582H99.1215C95.3476 85.4582 92.2882 82.3988 92.2882 78.6248Z" fill="#EFF1F1"/>
<path fill-rule="evenodd" clip-rule="evenodd" d="M61.5382 78.6248C61.5382 74.8509 64.5976 71.7915 68.3715 71.7915H78.6215C82.3955 71.7915 85.4549 74.8509 85.4549 78.6248C85.4549 82.3988 82.3955 85.4582 78.6215 85.4582H68.3715C64.5976 85.4582 61.5382 82.3988 61.5382 78.6248Z" fill="#EFF1F1"/>
<path fill-rule="evenodd" clip-rule="evenodd" d="M0.038208 33.0458C0.038208 29.2719 3.0976 26.2125 6.87154 26.2125H140.122C143.895 26.2125 146.955 29.2719 146.955 33.0458C146.955 36.8198 143.895 39.8792 140.122 39.8792H6.87154C3.0976 39.8792 0.038208 36.8198 0.038208 33.0458Z" fill="#EFF1F1"/>
</svg>
