<svg width="118" height="117" viewBox="0 0 118 117" fill="none" xmlns="http://www.w3.org/2000/svg">
<path d="M29.8334 70.1668H41.5001C43.0472 70.1668 44.5309 69.5522 45.6249 68.4582C46.7188 67.3643 47.3334 65.8805 47.3334 64.3334C47.3334 62.7863 46.7188 61.3026 45.6249 60.2086C44.5309 59.1147 43.0472 58.5001 41.5001 58.5001H29.8334C28.2863 58.5001 26.8026 59.1147 25.7086 60.2086C24.6147 61.3026 24.0001 62.7863 24.0001 64.3334C24.0001 65.8805 24.6147 67.3643 25.7086 68.4582C26.8026 69.5522 28.2863 70.1668 29.8334 70.1668ZM64.8334 81.8334H29.8334C28.2863 81.8334 26.8026 82.448 25.7086 83.542C24.6147 84.6359 24.0001 86.1197 24.0001 87.6668C24.0001 89.2139 24.6147 90.6976 25.7086 91.7915C26.8026 92.8855 28.2863 93.5001 29.8334 93.5001H64.8334C66.3805 93.5001 67.8643 92.8855 68.9582 91.7915C70.0522 90.6976 70.6668 89.2139 70.6668 87.6668C70.6668 86.1197 70.0522 84.6359 68.9582 83.542C67.8643 82.448 66.3805 81.8334 64.8334 81.8334ZM99.8334 0.166748H18.1667C13.5255 0.166748 9.07427 2.01049 5.79238 5.29238C2.51049 8.57427 0.666748 13.0255 0.666748 17.6667V99.3334C0.666748 103.975 2.51049 108.426 5.79238 111.708C9.07427 114.99 13.5255 116.833 18.1667 116.833H99.8334C104.475 116.833 108.926 114.99 112.208 111.708C115.49 108.426 117.333 103.975 117.333 99.3334V17.6667C117.333 13.0255 115.49 8.57427 112.208 5.29238C108.926 2.01049 104.475 0.166748 99.8334 0.166748ZM70.6668 11.8334V31.0251L61.8584 26.1251C60.9716 25.6131 59.9657 25.3436 58.9418 25.3436C57.9178 25.3436 56.9119 25.6131 56.0251 26.1251L47.3334 31.0251V11.8334H70.6668ZM105.667 99.3334C105.667 100.881 105.052 102.364 103.958 103.458C102.864 104.552 101.381 105.167 99.8334 105.167H18.1667C16.6197 105.167 15.1359 104.552 14.042 103.458C12.948 102.364 12.3334 100.881 12.3334 99.3334V17.6667C12.3334 16.1197 12.948 14.6359 14.042 13.542C15.1359 12.448 16.6197 11.8334 18.1667 11.8334H35.6668V41.0001C35.6729 42.0181 35.9453 43.0168 36.457 43.8968C36.9687 44.7769 37.7018 45.5078 38.5834 46.0168C39.4702 46.5287 40.4761 46.7983 41.5001 46.7983C42.5241 46.7983 43.53 46.5287 44.4168 46.0168L59.0001 37.9084L73.6418 46.0751C74.5136 46.5692 75.498 46.8304 76.5001 46.8334C78.0472 46.8334 79.5309 46.2188 80.6249 45.1249C81.7188 44.0309 82.3334 42.5472 82.3334 41.0001V11.8334H99.8334C101.381 11.8334 102.864 12.448 103.958 13.542C105.052 14.6359 105.667 16.1197 105.667 17.6667V99.3334Z" fill="#EFF1F1"/>
</svg>
