<svg width="129" height="100" viewBox="0 0 129 100" fill="none" xmlns="http://www.w3.org/2000/svg">
<path d="M66.7499 51.2837C69.8625 48.5894 72.359 45.2572 74.07 41.513C75.7811 37.7688 76.6666 33.7003 76.6666 29.5837C76.6666 21.8482 73.5937 14.4295 68.1239 8.95971C62.6541 3.4899 55.2354 0.416993 47.4999 0.416993C39.7644 0.416993 32.3458 3.4899 26.876 8.95971C21.4062 14.4295 18.3333 21.8482 18.3333 29.5837C18.3332 33.7003 19.2188 37.7688 20.9298 41.513C22.6409 45.2572 25.1374 48.5894 28.2499 51.2837C20.0841 54.9813 13.156 60.9526 8.29397 68.4835C3.43197 76.0144 0.841838 84.7863 0.833252 93.7503C0.833252 95.2974 1.44783 96.7812 2.5418 97.8751C3.63576 98.9691 5.11949 99.5837 6.66659 99.5837C8.21368 99.5837 9.69741 98.9691 10.7914 97.8751C11.8853 96.7812 12.4999 95.2974 12.4999 93.7503C12.4999 84.4678 16.1874 75.5654 22.7512 69.0016C29.315 62.4378 38.2173 58.7503 47.4999 58.7503C56.7825 58.7503 65.6849 62.4378 72.2487 69.0016C78.8124 75.5654 82.4999 84.4678 82.4999 93.7503C82.4999 95.2974 83.1145 96.7812 84.2085 97.8751C85.3024 98.9691 86.7862 99.5837 88.3333 99.5837C89.8804 99.5837 91.3641 98.9691 92.4581 97.8751C93.552 96.7812 94.1666 95.2974 94.1666 93.7503C94.158 84.7863 91.5679 76.0144 86.7059 68.4835C81.8439 60.9526 74.9158 54.9813 66.7499 51.2837ZM47.4999 47.0837C44.0387 47.0837 40.6553 46.0573 37.7774 44.1344C34.8996 42.2115 32.6566 39.4783 31.332 36.2806C30.0075 33.0829 29.6609 29.5642 30.3362 26.1696C31.0114 22.7749 32.6781 19.6567 35.1256 17.2093C37.573 14.7619 40.6912 13.0952 44.0858 12.4199C47.4805 11.7447 50.9992 12.0912 54.1969 13.4158C57.3946 14.7403 60.1277 16.9833 62.0506 19.8612C63.9736 22.739 64.9999 26.1225 64.9999 29.5837C64.9999 34.2249 63.1562 38.6761 59.8743 41.958C56.5924 45.2399 52.1412 47.0837 47.4999 47.0837ZM104.317 48.9503C108.05 44.7464 110.488 39.5531 111.339 33.9956C112.189 28.4381 111.415 22.7533 109.11 17.6253C106.805 12.4974 103.067 8.14497 98.346 5.09196C93.625 2.03895 88.1221 0.41549 82.4999 0.416993C80.9528 0.416993 79.4691 1.03157 78.3751 2.12554C77.2812 3.2195 76.6666 4.70323 76.6666 6.25033C76.6666 7.79742 77.2812 9.28115 78.3751 10.3751C79.4691 11.4691 80.9528 12.0837 82.4999 12.0837C87.1412 12.0837 91.5924 13.9274 94.8743 17.2093C98.1562 20.4912 99.9999 24.9424 99.9999 29.5837C99.9917 32.6476 99.1792 35.6556 97.6436 38.3069C96.1081 40.9583 93.9034 43.16 91.2499 44.692C90.3851 45.1909 89.6627 45.9034 89.152 46.7613C88.6414 47.6193 88.3594 48.5939 88.3333 49.592C88.3089 50.5823 88.537 51.5625 88.9963 52.4402C89.4556 53.3179 90.1308 54.0641 90.9583 54.6087L93.2333 56.1253L93.9916 56.5337C101.023 59.8687 106.955 65.1436 111.089 71.7372C115.223 78.3307 117.386 85.9683 117.325 93.7503C117.325 95.2974 117.94 96.7812 119.033 97.8751C120.127 98.9691 121.611 99.5837 123.158 99.5837C124.705 99.5837 126.189 98.9691 127.283 97.8751C128.377 96.7812 128.992 95.2974 128.992 93.7503C129.039 84.7987 126.797 75.9835 122.478 68.1424C118.16 60.3012 111.908 53.6946 104.317 48.9503Z" fill="#EFF1F1"/>
</svg>
