<svg width="14" height="14" viewBox="0 0 14 14" fill="none" xmlns="http://www.w3.org/2000/svg">
<path d="M7 6.33337C6.82319 6.33337 6.65362 6.40361 6.52859 6.52864C6.40357 6.65366 6.33333 6.82323 6.33333 7.00004V9.66671C6.33333 9.84352 6.40357 10.0131 6.52859 10.1381C6.65362 10.2631 6.82319 10.3334 7 10.3334C7.17681 10.3334 7.34638 10.2631 7.4714 10.1381C7.59643 10.0131 7.66666 9.84352 7.66666 9.66671V7.00004C7.66666 6.82323 7.59643 6.65366 7.4714 6.52864C7.34638 6.40361 7.17681 6.33337 7 6.33337ZM7.25333 3.72004C7.09102 3.65336 6.90897 3.65336 6.74666 3.72004C6.66483 3.75177 6.59007 3.79935 6.52666 3.86004C6.46778 3.92484 6.42043 3.99925 6.38666 4.08004C6.34934 4.15916 6.33108 4.24592 6.33333 4.33337C6.33282 4.42111 6.34964 4.50809 6.38282 4.58931C6.41599 4.67054 6.46488 4.74441 6.52666 4.80671C6.59146 4.86559 6.66587 4.91295 6.74666 4.94671C6.84766 4.9882 6.95731 5.00425 7.06596 4.99345C7.17462 4.98265 7.27895 4.94532 7.36981 4.88475C7.46066 4.82419 7.53524 4.74223 7.587 4.64609C7.63877 4.54995 7.66612 4.44256 7.66666 4.33337C7.66421 4.15686 7.59515 3.9878 7.47333 3.86004C7.40993 3.79935 7.33517 3.75177 7.25333 3.72004ZM7 0.333374C5.68146 0.333374 4.39252 0.724367 3.2962 1.45691C2.19987 2.18945 1.34539 3.23064 0.840801 4.44882C0.336217 5.66699 0.204195 7.00744 0.461429 8.30064C0.718664 9.59385 1.3536 10.7817 2.28595 11.7141C3.2183 12.6464 4.40619 13.2814 5.6994 13.5386C6.9926 13.7958 8.33305 13.6638 9.55122 13.1592C10.7694 12.6547 11.8106 11.8002 12.5431 10.7038C13.2757 9.60751 13.6667 8.31858 13.6667 7.00004C13.6667 6.12456 13.4942 5.25766 13.1592 4.44882C12.8242 3.63998 12.3331 2.90505 11.714 2.286C11.095 1.66694 10.3601 1.17588 9.55122 0.840844C8.74238 0.505812 7.87548 0.333374 7 0.333374ZM7 12.3334C5.94516 12.3334 4.91402 12.0206 4.03696 11.4345C3.15989 10.8485 2.47631 10.0156 2.07264 9.04102C1.66897 8.06648 1.56336 6.99412 1.76914 5.95956C1.97493 4.92499 2.48288 3.97468 3.22876 3.2288C3.97464 2.48292 4.92495 1.97497 5.95952 1.76919C6.99408 1.5634 8.06644 1.66902 9.04098 2.07268C10.0155 2.47635 10.8485 3.15994 11.4345 4.037C12.0205 4.91406 12.3333 5.94521 12.3333 7.00004C12.3333 8.41453 11.7714 9.77108 10.7712 10.7713C9.77104 11.7715 8.41449 12.3334 7 12.3334Z" fill="#437FEE"/>
</svg>
