<svg width="20" height="20" viewBox="0 0 20 20" fill="none" xmlns="http://www.w3.org/2000/svg">
<path d="M0 2.25352V17.5587L11.758 20V0L0 2.25352ZM5.92375 13.4655C2.18592 13.2268 2.57089 6.55516 6.01101 6.50215C9.69633 6.74336 9.33479 13.4123 5.92375 13.4655ZM5.97763 7.80844C4.00844 7.94383 4.09661 12.1212 5.94726 12.1547C7.90797 12.0296 7.79282 7.8409 5.97763 7.80844ZM13.7615 10.4691C13.939 10.5983 14.1529 10.4691 14.1529 10.4691C13.9397 10.5983 19.9765 6.62762 19.9765 6.62762V13.8179C19.9765 14.6005 19.4705 14.9288 18.9016 14.9288H12.5007L12.5011 9.61203L13.7615 10.4691ZM12.5014 4.24039V8.1525L13.882 9.01332C13.9184 9.02387 13.9973 9.02461 14.0337 9.01332L19.9757 5.04637C19.9757 4.57691 19.5335 4.24039 19.2839 4.24039H12.5014Z" fill="#0072C4"/>
</svg>
