<svg width="18" height="18" viewBox="0 0 18 18" fill="none" xmlns="http://www.w3.org/2000/svg">
<path d="M12.3333 7.33334H10.6667V5.66667C10.6667 5.44566 10.5789 5.2337 10.4226 5.07742C10.2663 4.92114 10.0544 4.83334 9.83334 4.83334H5.66667C5.44566 4.83334 5.2337 4.92114 5.07742 5.07742C4.92114 5.2337 4.83334 5.44566 4.83334 5.66667V9.83334C4.83334 10.0544 4.92114 10.2663 5.07742 10.4226C5.2337 10.5789 5.44566 10.6667 5.66667 10.6667H7.33334V12.3333C7.33334 12.5544 7.42114 12.7663 7.57742 12.9226C7.7337 13.0789 7.94566 13.1667 8.16667 13.1667H12.3333C12.5544 13.1667 12.7663 13.0789 12.9226 12.9226C13.0789 12.7663 13.1667 12.5544 13.1667 12.3333V8.16667C13.1667 7.94566 13.0789 7.7337 12.9226 7.57742C12.7663 7.42114 12.5544 7.33334 12.3333 7.33334ZM7.33334 8.16667V9.00001H6.50001V6.50001H9.00001V7.33334H8.16667C7.94566 7.33334 7.7337 7.42114 7.57742 7.57742C7.42114 7.7337 7.33334 7.94566 7.33334 8.16667ZM11.5 11.5H9.00001V9.00001H11.5V11.5ZM16.5 14.2333V3.76667C16.7254 3.64131 16.9186 3.46536 17.0644 3.25266C17.2103 3.03996 17.3048 2.79632 17.3405 2.5409C17.3762 2.28549 17.3521 2.02528 17.2702 1.78074C17.1883 1.5362 17.0507 1.31401 16.8684 1.13165C16.686 0.949289 16.4638 0.811737 16.2193 0.729815C15.9747 0.647894 15.7145 0.623839 15.4591 0.659544C15.2037 0.695249 14.9601 0.789739 14.7474 0.935578C14.5347 1.08142 14.3587 1.27463 14.2333 1.50001H3.76667C3.64131 1.27463 3.46536 1.08142 3.25266 0.935578C3.03996 0.789739 2.79632 0.695249 2.5409 0.659544C2.28549 0.623839 2.02528 0.647894 1.78074 0.729815C1.5362 0.811737 1.31401 0.949289 1.13165 1.13165C0.949289 1.31401 0.811737 1.5362 0.729815 1.78074C0.647894 2.02528 0.623839 2.28549 0.659544 2.5409C0.695249 2.79632 0.789739 3.03996 0.935578 3.25266C1.08142 3.46536 1.27463 3.64131 1.50001 3.76667V14.2333C1.27463 14.3587 1.08142 14.5347 0.935578 14.7474C0.789739 14.9601 0.695249 15.2037 0.659544 15.4591C0.623839 15.7145 0.647894 15.9747 0.729815 16.2193C0.811737 16.4638 0.949289 16.686 1.13165 16.8684C1.31401 17.0507 1.5362 17.1883 1.78074 17.2702C2.02528 17.3521 2.28549 17.3762 2.5409 17.3405C2.79632 17.3048 3.03996 17.2103 3.25266 17.0644C3.46536 16.9186 3.64131 16.7254 3.76667 16.5H14.2333C14.3587 16.7254 14.5347 16.9186 14.7474 17.0644C14.9601 17.2103 15.2037 17.3048 15.4591 17.3405C15.7145 17.3762 15.9747 17.3521 16.2193 17.2702C16.4638 17.1883 16.686 17.0507 16.8684 16.8684C17.0507 16.686 17.1883 16.4638 17.2702 16.2193C17.3521 15.9747 17.3762 15.7145 17.3405 15.4591C17.3048 15.2037 17.2103 14.9601 17.0644 14.7474C16.9186 14.5347 16.7254 14.3587 16.5 14.2333ZM14.8333 14.2333C14.5827 14.3754 14.3754 14.5827 14.2333 14.8333H3.76667C3.62465 14.5827 3.41728 14.3754 3.16667 14.2333V3.76667C3.41728 3.62465 3.62465 3.41728 3.76667 3.16667H14.2333C14.3754 3.41728 14.5827 3.62465 14.8333 3.76667V14.2333Z" fill="#D2D4D4"/>
</svg>
