<svg width="12" height="14" viewBox="0 0 12 14" fill="none" xmlns="http://www.w3.org/2000/svg">
<path d="M6.00002 7.66634C5.82321 7.66634 5.65364 7.73658 5.52862 7.8616C5.40359 7.98663 5.33335 8.1562 5.33335 8.33301V10.333C5.33335 10.5098 5.40359 10.6794 5.52862 10.8044C5.65364 10.9294 5.82321 10.9997 6.00002 10.9997C6.17683 10.9997 6.3464 10.9294 6.47142 10.8044C6.59645 10.6794 6.66669 10.5098 6.66669 10.333V8.33301C6.66669 8.1562 6.59645 7.98663 6.47142 7.8616C6.3464 7.73658 6.17683 7.66634 6.00002 7.66634ZM9.33335 4.99967V3.66634C9.33335 2.78229 8.98216 1.93444 8.35704 1.30932C7.73192 0.684197 6.88408 0.333008 6.00002 0.333008C5.11596 0.333008 4.26812 0.684197 3.643 1.30932C3.01788 1.93444 2.66669 2.78229 2.66669 3.66634V4.99967C2.13625 4.99967 1.62755 5.21039 1.25247 5.58546C0.877401 5.96053 0.666687 6.46924 0.666687 6.99967V11.6663C0.666687 12.1968 0.877401 12.7055 1.25247 13.0806C1.62755 13.4556 2.13625 13.6663 2.66669 13.6663H9.33335C9.86379 13.6663 10.3725 13.4556 10.7476 13.0806C11.1226 12.7055 11.3334 12.1968 11.3334 11.6663V6.99967C11.3334 6.46924 11.1226 5.96053 10.7476 5.58546C10.3725 5.21039 9.86379 4.99967 9.33335 4.99967ZM4.00002 3.66634C4.00002 3.13591 4.21073 2.6272 4.58581 2.25213C4.96088 1.87705 5.46959 1.66634 6.00002 1.66634C6.53045 1.66634 7.03916 1.87705 7.41423 2.25213C7.78931 2.6272 8.00002 3.13591 8.00002 3.66634V4.99967H4.00002V3.66634ZM10 11.6663C10 11.8432 9.92978 12.0127 9.80476 12.1377C9.67973 12.2628 9.51016 12.333 9.33335 12.333H2.66669C2.48988 12.333 2.32031 12.2628 2.19528 12.1377C2.07026 12.0127 2.00002 11.8432 2.00002 11.6663V6.99967C2.00002 6.82286 2.07026 6.65329 2.19528 6.52827C2.32031 6.40325 2.48988 6.33301 2.66669 6.33301H9.33335C9.51016 6.33301 9.67973 6.40325 9.80476 6.52827C9.92978 6.65329 10 6.82286 10 6.99967V11.6663Z" fill="#D2D4D4"/>
</svg>
