<svg width="16" height="18" viewBox="0 0 16 18" fill="none" xmlns="http://www.w3.org/2000/svg">
<path d="M11.3333 15.6667H4.66667C4.00363 15.6667 3.36774 15.4033 2.8989 14.9345C2.43006 14.4656 2.16667 13.8297 2.16667 13.1667V4.83335C2.16667 4.61234 2.07887 4.40038 1.92259 4.2441C1.76631 4.08782 1.55435 4.00002 1.33333 4.00002C1.11232 4.00002 0.900358 4.08782 0.744078 4.2441C0.587797 4.40038 0.5 4.61234 0.5 4.83335V13.1667C0.5 14.2718 0.938987 15.3316 1.72039 16.113C2.50179 16.8944 3.5616 17.3334 4.66667 17.3334H11.3333C11.5543 17.3334 11.7663 17.2456 11.9226 17.0893C12.0789 16.933 12.1667 16.721 12.1667 16.5C12.1667 16.279 12.0789 16.067 11.9226 15.9108C11.7663 15.7545 11.5543 15.6667 11.3333 15.6667ZM6.33333 9.83335C6.33333 10.0544 6.42113 10.2663 6.57741 10.4226C6.73369 10.5789 6.94565 10.6667 7.16667 10.6667H11.3333C11.5543 10.6667 11.7663 10.5789 11.9226 10.4226C12.0789 10.2663 12.1667 10.0544 12.1667 9.83335C12.1667 9.61234 12.0789 9.40038 11.9226 9.2441C11.7663 9.08782 11.5543 9.00002 11.3333 9.00002H7.16667C6.94565 9.00002 6.73369 9.08782 6.57741 9.2441C6.42113 9.40038 6.33333 9.61234 6.33333 9.83335ZM15.5 6.45002C15.4913 6.37347 15.4746 6.29805 15.45 6.22502V6.15002C15.4099 6.06434 15.3565 5.98557 15.2917 5.91669L10.2917 0.916687C10.2228 0.851867 10.144 0.798421 10.0583 0.758354C10.0335 0.75482 10.0082 0.75482 9.98333 0.758354C9.89868 0.709805 9.80519 0.678641 9.70833 0.666687H6.33333C5.67029 0.666687 5.03441 0.930079 4.56557 1.39892C4.09673 1.86776 3.83333 2.50365 3.83333 3.16669V11.5C3.83333 12.1631 4.09673 12.7989 4.56557 13.2678C5.03441 13.7366 5.67029 14 6.33333 14H13C13.663 14 14.2989 13.7366 14.7678 13.2678C15.2366 12.7989 15.5 12.1631 15.5 11.5V6.50002C15.5 6.50002 15.5 6.50002 15.5 6.45002ZM10.5 3.50835L12.6583 5.66669H11.3333C11.1123 5.66669 10.9004 5.57889 10.7441 5.42261C10.5878 5.26633 10.5 5.05437 10.5 4.83335V3.50835ZM13.8333 11.5C13.8333 11.721 13.7455 11.933 13.5893 12.0893C13.433 12.2456 13.221 12.3334 13 12.3334H6.33333C6.11232 12.3334 5.90036 12.2456 5.74408 12.0893C5.5878 11.933 5.5 11.721 5.5 11.5V3.16669C5.5 2.94567 5.5878 2.73371 5.74408 2.57743C5.90036 2.42115 6.11232 2.33335 6.33333 2.33335H8.83333V4.83335C8.83559 5.11764 8.88631 5.39946 8.98333 5.66669H7.16667C6.94565 5.66669 6.73369 5.75448 6.57741 5.91077C6.42113 6.06705 6.33333 6.27901 6.33333 6.50002C6.33333 6.72103 6.42113 6.933 6.57741 7.08928C6.73369 7.24556 6.94565 7.33335 7.16667 7.33335H13.8333V11.5Z" fill="#1FC780"/>
</svg>
