<svg width="13" height="12" viewBox="0 0 13 12" fill="none" xmlns="http://www.w3.org/2000/svg">
<path d="M11.0427 8.04758H8.40022C8.24551 8.04758 8.09713 8.10904 7.98774 8.21844C7.87834 8.32783 7.81688 8.47621 7.81688 8.63092C7.81688 8.78563 7.87834 8.934 7.98774 9.04339C8.09713 9.15279 8.24551 9.21425 8.40022 9.21425H9.80022C9.15677 9.88668 8.32695 10.3513 7.41739 10.5486C6.50784 10.7458 5.56009 10.6665 4.69592 10.321C3.83175 9.97543 3.09064 9.37939 2.56781 8.60943C2.04498 7.83947 1.76432 6.93077 1.76188 6.00008C1.76188 5.84537 1.70042 5.697 1.59103 5.5876C1.48163 5.47821 1.33326 5.41675 1.17855 5.41675C1.02384 5.41675 0.875465 5.47821 0.766069 5.5876C0.656673 5.697 0.595215 5.84537 0.595215 6.00008C0.598299 7.13921 0.934844 8.25252 1.56332 9.2026C2.19179 10.1527 3.08469 10.898 4.13181 11.3465C5.17894 11.795 6.33448 11.9271 7.45581 11.7265C8.57714 11.5258 9.6152 11.0013 10.4419 10.2176V11.2501C10.4419 11.4048 10.5033 11.5532 10.6127 11.6626C10.7221 11.772 10.8705 11.8334 11.0252 11.8334C11.1799 11.8334 11.3283 11.772 11.4377 11.6626C11.5471 11.5532 11.6085 11.4048 11.6085 11.2501V8.62508C11.6071 8.47437 11.5474 8.33006 11.4419 8.2224C11.3364 8.11475 11.1934 8.0521 11.0427 8.04758ZM6.42855 0.166748C4.93311 0.171013 3.49642 0.749448 2.41521 1.78258V0.750081C2.41521 0.595372 2.35376 0.446999 2.24436 0.337602C2.13496 0.228206 1.98659 0.166748 1.83188 0.166748C1.67717 0.166748 1.5288 0.228206 1.4194 0.337602C1.31001 0.446999 1.24855 0.595372 1.24855 0.750081V3.37508C1.24855 3.52979 1.31001 3.67816 1.4194 3.78756C1.5288 3.89696 1.67717 3.95842 1.83188 3.95842H4.45688C4.61159 3.95842 4.75996 3.89696 4.86936 3.78756C4.97876 3.67816 5.04022 3.52979 5.04022 3.37508C5.04022 3.22037 4.97876 3.072 4.86936 2.9626C4.75996 2.85321 4.61159 2.79175 4.45688 2.79175H3.05688C3.69999 2.11967 4.52927 1.65512 5.43828 1.45773C6.34729 1.26033 7.29456 1.3391 8.15849 1.68392C9.02241 2.02874 9.76358 2.62387 10.2869 3.39293C10.8101 4.162 11.0916 5.06989 11.0952 6.00008C11.0952 6.15479 11.1567 6.30316 11.2661 6.41256C11.3755 6.52196 11.5238 6.58342 11.6785 6.58342C11.8333 6.58342 11.9816 6.52196 12.091 6.41256C12.2004 6.30316 12.2619 6.15479 12.2619 6.00008C12.2619 5.23404 12.111 4.47549 11.8178 3.76776C11.5247 3.06003 11.095 2.41697 10.5533 1.87529C10.0117 1.33362 9.3686 0.903937 8.66087 0.610784C7.95314 0.317632 7.19459 0.166748 6.42855 0.166748Z" fill="#FF6D00"/>
</svg>
