<svg width="14" height="14" viewBox="0 0 14 14" fill="none" xmlns="http://www.w3.org/2000/svg">
<path d="M13.1 0.906663C12.8452 0.647038 12.5223 0.464808 12.1683 0.381046C11.8144 0.297284 11.444 0.31541 11.1 0.43333L1.66662 3.58666C1.28616 3.7112 0.953744 3.95076 0.715254 4.27229C0.476763 4.59381 0.343962 4.98144 0.335182 5.38167C0.326402 5.78189 0.442076 6.17497 0.666237 6.50664C0.890397 6.83832 1.21199 7.09223 1.58662 7.23333L5.07995 8.56666C5.1595 8.59708 5.23192 8.64356 5.29271 8.70321C5.35351 8.76285 5.40136 8.83438 5.43328 8.91333L6.76662 12.4133C6.90234 12.7827 7.14863 13.1012 7.47193 13.3254C7.79523 13.5497 8.17981 13.6689 8.57328 13.6667H8.61995C9.02063 13.6594 9.40899 13.5269 9.73058 13.2878C10.0522 13.0487 10.2909 12.7149 10.4133 12.3333L13.5666 2.88666C13.6813 2.54595 13.6984 2.17996 13.6159 1.83005C13.5334 1.48015 13.3547 1.1603 13.1 0.906663ZM12.3333 2.46666L9.14662 11.92C9.10962 12.0396 9.0353 12.1443 8.93454 12.2187C8.83377 12.2931 8.71185 12.3332 8.58662 12.3333C8.46212 12.3354 8.33995 12.2995 8.23635 12.2304C8.13274 12.1613 8.05262 12.0624 8.00662 11.9467L6.67329 8.44666C6.57662 8.19235 6.42754 7.96121 6.23574 7.76825C6.04393 7.5753 5.81369 7.42484 5.55995 7.32666L2.05995 5.99333C1.94188 5.95006 1.84039 5.8708 1.76981 5.76672C1.69923 5.66265 1.66313 5.53903 1.66662 5.41333C1.66672 5.28809 1.7069 5.16618 1.78127 5.06541C1.85564 4.96465 1.96031 4.89033 2.07995 4.85333L11.5333 1.7C11.6418 1.65576 11.7608 1.64391 11.876 1.66588C11.9911 1.68785 12.0974 1.74269 12.182 1.82379C12.2666 1.90488 12.3259 2.00875 12.3528 2.12284C12.3796 2.23692 12.3729 2.35635 12.3333 2.46666Z" fill="#D2D4D4"/>
</svg>
