<svg width="14" height="14" viewBox="0 0 14 14" fill="none" xmlns="http://www.w3.org/2000/svg">
<path d="M8.56325 4.85998L5.70326 7.72665L4.60325 6.62665C4.54349 6.55686 4.46994 6.50018 4.38723 6.46016C4.30452 6.42015 4.21444 6.39766 4.12262 6.39411C4.03081 6.39057 3.93926 6.40604 3.85371 6.43956C3.76816 6.47307 3.69046 6.52391 3.62549 6.58888C3.56052 6.65385 3.50968 6.73155 3.47616 6.8171C3.44265 6.90265 3.42718 6.9942 3.43072 7.08602C3.43427 7.17783 3.45676 7.26792 3.49677 7.35063C3.53679 7.43334 3.59347 7.50688 3.66325 7.56665L5.22992 9.13998C5.29221 9.20177 5.36609 9.25065 5.44732 9.28383C5.52854 9.317 5.61552 9.33382 5.70326 9.33331C5.87815 9.33258 6.04575 9.26314 6.16992 9.13998L9.50325 5.80665C9.56574 5.74467 9.61534 5.67094 9.64918 5.5897C9.68303 5.50846 9.70045 5.42132 9.70045 5.33331C9.70045 5.24531 9.68303 5.15817 9.64918 5.07693C9.61534 4.99569 9.56574 4.92196 9.50325 4.85998C9.37835 4.73581 9.20938 4.66612 9.03325 4.66612C8.85713 4.66612 8.68816 4.73581 8.56325 4.85998ZM6.74992 0.333313C5.43138 0.333313 4.14245 0.724306 3.04612 1.45685C1.94979 2.18939 1.09531 3.23058 0.590725 4.44876C0.0861405 5.66693 -0.0458817 7.00738 0.211353 8.30058C0.468588 9.59379 1.10353 10.7817 2.03588 11.714C2.96823 12.6464 4.15611 13.2813 5.44932 13.5385C6.74253 13.7958 8.08297 13.6638 9.30114 13.1592C10.5193 12.6546 11.5605 11.8001 12.2931 10.7038C13.0256 9.60745 13.4166 8.31852 13.4166 6.99998C13.4166 6.1245 13.2441 5.25759 12.9091 4.44876C12.5741 3.63992 12.083 2.90499 11.464 2.28593C10.8449 1.66688 10.11 1.17581 9.30114 0.840783C8.49231 0.505751 7.6254 0.333313 6.74992 0.333313ZM6.74992 12.3333C5.69509 12.3333 4.66394 12.0205 3.78688 11.4345C2.90982 10.8484 2.22623 10.0155 1.82256 9.04096C1.4189 8.06642 1.31328 6.99406 1.51907 5.9595C1.72485 4.92493 2.23281 3.97462 2.97869 3.22874C3.72457 2.48286 4.67487 1.97491 5.70944 1.76912C6.74401 1.56334 7.81636 1.66895 8.7909 2.07262C9.76544 2.47629 10.5984 3.15988 11.1844 4.03694C11.7705 4.914 12.0833 5.94515 12.0833 6.99998C12.0833 8.41447 11.5214 9.77102 10.5212 10.7712C9.52096 11.7714 8.16441 12.3333 6.74992 12.3333Z" fill="white"/>
</svg>
