<svg width="12" height="12" viewBox="0 0 12 12" fill="none" xmlns="http://www.w3.org/2000/svg">
<path d="M7.58675 4.12734L5.08425 6.63567L4.12175 5.67317C4.06946 5.61211 4.0051 5.56251 3.93273 5.5275C3.86036 5.49248 3.78153 5.47281 3.7012 5.4697C3.62086 5.4666 3.54075 5.48014 3.4659 5.50947C3.39104 5.53879 3.32305 5.58328 3.2662 5.64012C3.20936 5.69697 3.16487 5.76496 3.13555 5.83982C3.10622 5.91467 3.09268 5.99478 3.09578 6.07512C3.09889 6.15545 3.11856 6.23428 3.15358 6.30665C3.18859 6.37902 3.23819 6.44338 3.29925 6.49567L4.67008 7.87234C4.72459 7.9264 4.78923 7.96917 4.8603 7.9982C4.93138 8.02723 5.00748 8.04195 5.08425 8.0415C5.23728 8.04086 5.38393 7.9801 5.49258 7.87234L8.40925 4.95567C8.46393 4.90144 8.50732 4.83692 8.53694 4.76584C8.56655 4.69476 8.5818 4.61851 8.5818 4.5415C8.5818 4.4645 8.56655 4.38825 8.53694 4.31717C8.50732 4.24608 8.46393 4.18157 8.40925 4.12734C8.29996 4.01869 8.15211 3.95771 7.998 3.95771C7.84389 3.95771 7.69605 4.01869 7.58675 4.12734ZM6.00008 0.166504C4.84636 0.166504 3.71854 0.508623 2.75926 1.1496C1.79997 1.79057 1.0523 2.70161 0.610787 3.76752C0.169276 4.83342 0.0537561 6.00631 0.278837 7.13786C0.503917 8.26942 1.05949 9.30882 1.87529 10.1246C2.6911 10.9404 3.7305 11.496 4.86206 11.7211C5.99361 11.9462 7.1665 11.8306 8.2324 11.3891C9.29831 10.9476 10.2093 10.2 10.8503 9.24066C11.4913 8.28138 11.8334 7.15356 11.8334 5.99984C11.8334 5.23379 11.6825 4.47525 11.3894 3.76752C11.0962 3.05978 10.6665 2.41672 10.1249 1.87505C9.5832 1.33337 8.94014 0.903692 8.2324 0.61054C7.52467 0.317388 6.76613 0.166504 6.00008 0.166504ZM6.00008 10.6665C5.0771 10.6665 4.17485 10.3928 3.40742 9.88003C2.63999 9.36725 2.04186 8.63841 1.68865 7.78569C1.33544 6.93297 1.24302 5.99466 1.42309 5.08942C1.60315 4.18417 2.04761 3.35265 2.70025 2.70001C3.3529 2.04736 4.18442 1.6029 5.08966 1.42284C5.99491 1.24277 6.93322 1.33519 7.78594 1.6884C8.63866 2.04161 9.36749 2.63975 9.88027 3.40718C10.3931 4.17461 10.6667 5.07686 10.6667 5.99984C10.6667 7.23751 10.1751 8.4245 9.29992 9.29967C8.42475 10.1748 7.23776 10.6665 6.00008 10.6665Z" fill="#04D68F"/>
</svg>
