<svg width="14" height="14" viewBox="0 0 14 14" fill="none" xmlns="http://www.w3.org/2000/svg">
<path d="M13.0467 10.22L11.6667 8.80663C11.3698 8.52446 10.9954 8.33751 10.5915 8.26979C10.1876 8.20208 9.77264 8.2567 9.40001 8.42663L8.80001 7.82663C9.50705 6.88191 9.82995 5.70441 9.70371 4.53119C9.57747 3.35796 9.01146 2.27611 8.11963 1.50343C7.2278 0.730744 6.07637 0.324599 4.89712 0.366751C3.71788 0.408902 2.59838 0.896221 1.76399 1.73061C0.929608 2.56499 0.442289 3.68449 0.400137 4.86374C0.357985 6.04298 0.764131 7.19442 1.53681 8.08625C2.3095 8.97808 3.39134 9.54408 4.56457 9.67032C5.7378 9.79656 6.91529 9.47366 7.86001 8.76663L8.45335 9.35996C8.26341 9.73305 8.19533 10.1563 8.25872 10.5702C8.32211 10.984 8.51377 11.3675 8.80668 11.6666L10.22 13.08C10.595 13.4545 11.1033 13.6649 11.6333 13.6649C12.1633 13.6649 12.6717 13.4545 13.0467 13.08C13.2372 12.8937 13.3885 12.6713 13.4919 12.4257C13.5952 12.1801 13.6484 11.9164 13.6484 11.65C13.6484 11.3835 13.5952 11.1198 13.4919 10.8742C13.3885 10.6287 13.2372 10.4062 13.0467 10.22ZM7.39335 7.39329C6.92684 7.85863 6.33288 8.17526 5.68651 8.30319C5.04013 8.43113 4.37034 8.36463 3.76175 8.11209C3.15315 7.85955 2.63305 7.4323 2.26716 6.88432C1.90126 6.33634 1.70597 5.69221 1.70597 5.03329C1.70597 4.37438 1.90126 3.73025 2.26716 3.18227C2.63305 2.63429 3.15315 2.20704 3.76175 1.9545C4.37034 1.70196 5.04013 1.63546 5.68651 1.7634C6.33288 1.89133 6.92684 2.20796 7.39335 2.67329C7.70377 2.98293 7.95005 3.35077 8.1181 3.75574C8.28614 4.1607 8.37264 4.59485 8.37264 5.03329C8.37264 5.47174 8.28614 5.90588 8.1181 6.31085C7.95005 6.71582 7.70377 7.08366 7.39335 7.39329ZM12.1067 12.1066C12.0447 12.1691 11.971 12.2187 11.8897 12.2526C11.8085 12.2864 11.7214 12.3038 11.6333 12.3038C11.5453 12.3038 11.4582 12.2864 11.377 12.2526C11.2957 12.2187 11.222 12.1691 11.16 12.1066L9.74668 10.6933C9.68419 10.6313 9.6346 10.5576 9.60075 10.4763C9.56691 10.3951 9.54948 10.308 9.54948 10.22C9.54948 10.132 9.56691 10.0448 9.60075 9.96358C9.6346 9.88234 9.68419 9.8086 9.74668 9.74663C9.80866 9.68414 9.88239 9.63455 9.96363 9.6007C10.0449 9.56685 10.132 9.54943 10.22 9.54943C10.308 9.54943 10.3952 9.56685 10.4764 9.6007C10.5576 9.63455 10.6314 9.68414 10.6933 9.74663L12.1067 11.16C12.1692 11.2219 12.2188 11.2957 12.2526 11.3769C12.2865 11.4581 12.3039 11.5453 12.3039 11.6333C12.3039 11.7213 12.2865 11.8084 12.2526 11.8897C12.2188 11.9709 12.1692 12.0447 12.1067 12.1066Z" fill="#D2D4D4"/>
</svg>
