<svg width="15" height="14" viewBox="0 0 15 14" fill="none" xmlns="http://www.w3.org/2000/svg">
<path d="M13.0602 5.21334L3.72683 0.546671C3.35849 0.363344 2.94258 0.298078 2.53579 0.359772C2.129 0.421466 1.75114 0.607118 1.45372 0.891415C1.1563 1.17571 0.9538 1.54482 0.873827 1.94841C0.793853 2.352 0.840299 2.77044 1.00683 3.14667L2.60683 6.72667C2.64314 6.81323 2.66183 6.90614 2.66183 7C2.66183 7.09386 2.64314 7.18678 2.60683 7.27334L1.00683 10.8533C0.871298 11.1578 0.814002 11.4913 0.84015 11.8236C0.866297 12.1558 0.97506 12.4763 1.15655 12.7558C1.33805 13.0353 1.58652 13.2651 1.87938 13.4241C2.17225 13.5832 2.50022 13.6666 2.8335 13.6667C3.14565 13.6636 3.45316 13.5907 3.7335 13.4533L13.0668 8.78667C13.3979 8.62013 13.6762 8.36487 13.8706 8.04939C14.0651 7.73391 14.168 7.3706 14.168 7C14.168 6.62941 14.0651 6.2661 13.8706 5.95062C13.6762 5.63513 13.3979 5.37988 13.0668 5.21334H13.0602ZM12.4668 7.59334L3.1335 12.26C3.01094 12.3188 2.87332 12.3388 2.73909 12.3172C2.60486 12.2956 2.48044 12.2335 2.38251 12.1392C2.28458 12.0449 2.21782 11.9229 2.19119 11.7896C2.16455 11.6563 2.17932 11.518 2.2335 11.3933L3.82683 7.81334C3.84746 7.76553 3.86527 7.71656 3.88017 7.66667H8.4735C8.65031 7.66667 8.81988 7.59643 8.9449 7.47141C9.06993 7.34638 9.14017 7.17682 9.14017 7C9.14017 6.82319 9.06993 6.65362 8.9449 6.5286C8.81988 6.40358 8.65031 6.33334 8.4735 6.33334H3.88017C3.86527 6.28345 3.84746 6.23448 3.82683 6.18667L2.2335 2.60667C2.17932 2.48198 2.16455 2.3437 2.19119 2.21038C2.21782 2.07706 2.28458 1.95507 2.38251 1.86077C2.48044 1.76647 2.60486 1.70436 2.73909 1.68277C2.87332 1.66119 3.01094 1.68116 3.1335 1.74L12.4668 6.40667C12.576 6.46262 12.6677 6.54761 12.7317 6.6523C12.7957 6.75699 12.8295 6.87731 12.8295 7C12.8295 7.1227 12.7957 7.24302 12.7317 7.34771C12.6677 7.45239 12.576 7.53739 12.4668 7.59334Z" fill="white"/>
</svg>
