<svg width="16" height="16" viewBox="0 0 16 16" fill="none" xmlns="http://www.w3.org/2000/svg">
<path d="M10.0922 7.87511C9.82521 7.70369 9.53548 7.57066 9.23149 7.47993C9.04497 7.42353 8.83847 7.36836 8.62456 7.31518C8.43848 7.2633 8.21701 7.21007 7.94308 7.14985C7.61691 7.0815 7.29676 6.98701 6.98575 6.86729C6.8255 6.80495 6.6841 6.70224 6.57527 6.56912C6.49584 6.46026 6.45818 6.32648 6.46915 6.19217C6.46879 6.04809 6.51669 5.90805 6.60521 5.79438C6.7294 5.64871 6.89054 5.53919 7.07169 5.47732C7.37682 5.37251 7.69839 5.32377 8.02087 5.33345C8.27 5.32946 8.51835 5.36236 8.75785 5.4311C8.91687 5.47562 9.06668 5.54816 9.20023 5.64529C9.28653 5.7068 9.36014 5.7844 9.41702 5.87381C9.45833 5.95117 9.5145 6.01962 9.58231 6.07523C9.65012 6.13084 9.72824 6.17252 9.81219 6.19789C9.89614 6.22325 9.98427 6.23179 10.0715 6.22303C10.1588 6.21427 10.2435 6.18837 10.3207 6.14682C10.3979 6.10527 10.4662 6.04889 10.5216 5.9809C10.577 5.91292 10.6184 5.83467 10.6435 5.75064C10.6686 5.66661 10.6769 5.57845 10.6678 5.49122C10.6588 5.40399 10.6326 5.3194 10.5909 5.2423C10.4502 4.99362 10.2602 4.77628 10.0326 4.60363C9.76973 4.40171 9.47158 4.25048 9.15338 4.15767C8.78584 4.049 8.40412 3.9959 8.02087 4.00011C7.53391 3.98977 7.04919 4.06899 6.59087 4.23384C6.17618 4.38436 5.81179 4.64773 5.53877 4.99425C5.27749 5.33898 5.13598 5.75962 5.13577 6.19217C5.12498 6.6228 5.26139 7.04423 5.52249 7.38684C5.77454 7.70434 6.10495 7.9507 6.48116 8.10168C6.76544 8.21104 7.05651 8.30188 7.35253 8.37361C7.35811 8.37545 7.36187 8.37992 7.36756 8.38161C7.49516 8.42002 7.69925 8.47145 7.99418 8.53525C8.10909 8.55992 8.21737 8.58718 8.3256 8.61423C8.3361 8.61737 8.35127 8.62067 8.36137 8.6238L8.37341 8.62563C8.53898 8.66783 8.69812 8.71145 8.84379 8.75596C9.0233 8.80836 9.19465 8.88549 9.3529 8.98513C9.45134 9.04713 9.53402 9.13115 9.59444 9.23057C9.6532 9.35184 9.6804 9.48598 9.67354 9.62057C9.68287 9.7948 9.63258 9.96702 9.53096 10.1089C9.39363 10.2874 9.20788 10.4228 8.99581 10.4989C8.6801 10.6207 8.34313 10.6778 8.00491 10.6668C7.61349 10.6819 7.2241 10.6034 6.86917 10.4376C6.70539 10.3503 6.56469 10.2254 6.45869 10.073C6.38436 9.9755 6.3379 9.85962 6.32425 9.73775C6.32425 9.56094 6.25401 9.39137 6.12899 9.26634C6.00396 9.14132 5.83439 9.07108 5.65758 9.07108C5.48077 9.07108 5.3112 9.14132 5.18618 9.26634C5.06115 9.39137 4.99091 9.56094 4.99091 9.73775C5.00209 10.1308 5.13128 10.5115 5.36169 10.8302C5.59198 11.1621 5.89881 11.4336 6.25622 11.6219C6.80002 11.8873 7.40002 12.0171 8.00491 12.0001C8.51889 12.0125 9.03005 11.9206 9.50752 11.7299C9.95135 11.5597 10.3367 11.2652 10.6175 10.8816C10.8844 10.5076 11.021 10.0563 11.0065 9.59712C11.0128 9.24117 10.9266 8.88967 10.7565 8.57693C10.5923 8.29475 10.3649 8.05451 10.0922 7.87511ZM14.9069 9.12772C15.0869 8.03192 15.0033 6.90901 14.6632 5.85191C14.323 4.79481 13.7361 3.83389 12.9508 3.04866C12.1656 2.26343 11.2047 1.67646 10.1476 1.33631C9.09048 0.996157 7.96758 0.912603 6.87177 1.09256C6.06286 0.704736 5.1535 0.577565 4.26923 0.7286C3.38495 0.879635 2.56936 1.30143 1.93503 1.93576C1.3007 2.57009 0.878903 3.38568 0.727868 4.26996C0.576833 5.15423 0.704004 6.06359 1.09183 6.87251C0.911871 7.96831 0.995424 9.09122 1.33558 10.1483C1.67573 11.2054 2.2627 12.1663 3.04793 12.9516C3.83316 13.7368 4.79407 14.3238 5.85118 14.6639C6.90828 15.0041 8.03118 15.0876 9.12699 14.9077C9.93591 15.2955 10.8453 15.4227 11.7295 15.2716C12.6138 15.1206 13.4294 14.6988 14.0637 14.0645C14.6981 13.4301 15.1199 12.6145 15.2709 11.7303C15.4219 10.846 15.2948 9.93664 14.9069 9.12772ZM10.9994 14.0001C10.4937 13.9999 9.99621 13.8721 9.55309 13.6284C9.41559 13.5525 9.25576 13.5273 9.10159 13.5574C8.27996 13.7213 7.4322 13.7008 6.61945 13.4974C5.80671 13.2939 5.04925 12.9126 4.40171 12.381C3.75417 11.8494 3.2327 11.1806 2.87491 10.4231C2.51712 9.66548 2.33194 8.83793 2.33271 8.00011C2.3334 7.62982 2.37003 7.26046 2.44209 6.89725C2.47219 6.74324 2.44719 6.58355 2.37145 6.44611C2.05811 5.87683 1.9381 5.22118 2.02949 4.57782C2.12089 3.93445 2.41874 3.33817 2.87823 2.87867C3.33772 2.41917 3.93401 2.12132 4.57737 2.02992C5.22073 1.93852 5.87638 2.05852 6.44567 2.37186C6.5831 2.448 6.74301 2.47313 6.89717 2.44282C7.7188 2.27893 8.56657 2.29944 9.37931 2.50287C10.1921 2.70631 10.9495 3.0876 11.5971 3.61923C12.2446 4.15086 12.7661 4.81959 13.1239 5.57717C13.4816 6.33475 13.6668 7.1623 13.666 8.00011C13.6654 8.37041 13.6287 8.73976 13.5567 9.10298C13.5266 9.257 13.5516 9.4167 13.6273 9.55415C13.8789 10.0109 14.007 10.5253 13.9991 11.0466C13.9911 11.568 13.8474 12.0782 13.5821 12.5271C13.3168 12.9759 12.9391 13.3479 12.4861 13.6062C12.0332 13.8645 11.5208 14.0003 10.9994 14.0001Z" fill="#D2D4D4"/>
</svg>
