<svg width="10" height="14" viewBox="0 0 10 14" fill="none" xmlns="http://www.w3.org/2000/svg">
<path d="M7.86078 8.52663L5.00077 11.3933L2.14077 8.52663C2.01524 8.40109 1.84498 8.33057 1.66744 8.33057C1.48991 8.33057 1.31964 8.40109 1.19411 8.52663C1.06857 8.65216 0.998047 8.82243 0.998047 8.99996C0.998047 9.1775 1.06857 9.34776 1.19411 9.47329L4.52744 12.8066C4.58942 12.8691 4.66315 12.9187 4.74439 12.9526C4.82563 12.9864 4.91277 13.0038 5.00077 13.0038C5.08878 13.0038 5.17592 12.9864 5.25716 12.9526C5.3384 12.9187 5.41213 12.8691 5.47411 12.8066L8.80744 9.47329C8.8696 9.41113 8.91891 9.33734 8.95255 9.25613C8.98619 9.17491 9.0035 9.08787 9.0035 8.99996C9.0035 8.91205 8.98619 8.82501 8.95255 8.74379C8.91891 8.66258 8.8696 8.58879 8.80744 8.52663C8.74528 8.46447 8.67149 8.41516 8.59027 8.38152C8.50906 8.34788 8.42201 8.33057 8.33411 8.33057C8.2462 8.33057 8.15916 8.34788 8.07794 8.38152C7.99673 8.41516 7.92293 8.46447 7.86078 8.52663Z" fill="#D2D4D4"/>
<path d="M2.14077 5.47329L5.00077 2.60663L7.86077 5.47329C7.92275 5.53578 7.99648 5.58537 8.07772 5.61922C8.15896 5.65307 8.2461 5.67049 8.33411 5.67049C8.42212 5.67049 8.50925 5.65307 8.59049 5.61922C8.67173 5.58537 8.74546 5.53578 8.80744 5.47329C8.86993 5.41132 8.91952 5.33758 8.95337 5.25634C8.98721 5.1751 9.00464 5.08797 9.00464 4.99996C9.00464 4.91195 8.98721 4.82481 8.95337 4.74357C8.91952 4.66234 8.86993 4.5886 8.80744 4.52663L5.47411 1.19329C5.41213 1.13081 5.3384 1.08121 5.25716 1.04737C5.17592 1.01352 5.08878 0.996094 5.00077 0.996094C4.91277 0.996094 4.82563 1.01352 4.74439 1.04737C4.66315 1.08121 4.58942 1.13081 4.52744 1.19329L1.19411 4.52663C1.06857 4.65216 0.998047 4.82242 0.998047 4.99996C0.998047 5.17749 1.06857 5.34776 1.19411 5.47329C1.31964 5.59883 1.48991 5.66935 1.66744 5.66935C1.84498 5.66935 2.01524 5.59883 2.14077 5.47329Z" fill="#D2D4D4"/>
</svg>
