<svg width="16" height="12" viewBox="0 0 16 12" fill="none" xmlns="http://www.w3.org/2000/svg">
<path fill-rule="evenodd" clip-rule="evenodd" d="M2.16659 2.16671V9.83337H13.8333V2.16671H2.16659ZM0.833252 2.00004C0.833252 1.35571 1.35559 0.833374 1.99992 0.833374H13.9999C14.6442 0.833374 15.1666 1.35571 15.1666 2.00004V10C15.1666 10.6444 14.6442 11.1667 13.9999 11.1667H1.99992C1.35559 11.1667 0.833252 10.6444 0.833252 10V2.00004Z" fill="#D2D4D4"/>
<path fill-rule="evenodd" clip-rule="evenodd" d="M9.83288 8.50004C9.83288 8.13185 10.1314 7.83337 10.4996 7.83337H12.4996C12.8677 7.83337 13.1662 8.13185 13.1662 8.50004C13.1662 8.86823 12.8677 9.16671 12.4996 9.16671H10.4996C10.1314 9.16671 9.83288 8.86823 9.83288 8.50004Z" fill="#D2D4D4"/>
<path fill-rule="evenodd" clip-rule="evenodd" d="M6.83289 8.50004C6.83289 8.13185 7.13136 7.83337 7.49955 7.83337H8.49955C8.86774 7.83337 9.16622 8.13185 9.16622 8.50004C9.16622 8.86823 8.86774 9.16671 8.49955 9.16671H7.49955C7.13136 9.16671 6.83289 8.86823 6.83289 8.50004Z" fill="#D2D4D4"/>
<path fill-rule="evenodd" clip-rule="evenodd" d="M0.832886 4.05331C0.832886 3.68512 1.13136 3.38664 1.49955 3.38664H14.4995C14.8677 3.38664 15.1662 3.68512 15.1662 4.05331C15.1662 4.4215 14.8677 4.71997 14.4995 4.71997H1.49955C1.13136 4.71997 0.832886 4.4215 0.832886 4.05331Z" fill="#D2D4D4"/>
</svg>
