<svg width="28" height="28" viewBox="0 0 28 28" fill="none" xmlns="http://www.w3.org/2000/svg">
<path d="M17.626 9.72008L11.906 15.4534L9.70602 13.2534C9.58649 13.1138 9.4394 13.0005 9.27398 12.9204C9.10856 12.8404 8.92838 12.7954 8.74476 12.7884C8.56113 12.7813 8.37802 12.8122 8.20692 12.8792C8.03582 12.9463 7.88043 13.0479 7.75049 13.1779C7.62055 13.3078 7.51887 13.4632 7.45184 13.6343C7.38481 13.8054 7.35386 13.9885 7.36096 14.1722C7.36805 14.3558 7.41302 14.536 7.49305 14.7014C7.57309 14.8668 7.68645 15.0139 7.82602 15.1334L10.9594 18.2801C11.0839 18.4037 11.2317 18.5014 11.3941 18.5678C11.5566 18.6341 11.7305 18.6678 11.906 18.6667C12.2558 18.6653 12.591 18.5264 12.8394 18.2801L19.506 11.6134C19.631 11.4895 19.7302 11.342 19.7979 11.1795C19.8656 11.017 19.9004 10.8428 19.9004 10.6667C19.9004 10.4907 19.8656 10.3165 19.7979 10.154C19.7302 9.9915 19.631 9.84403 19.506 9.72008C19.2562 9.47175 18.9183 9.33236 18.566 9.33236C18.2138 9.33236 17.8758 9.47175 17.626 9.72008ZM13.9994 0.666748C11.3623 0.666748 8.78441 1.44873 6.59175 2.91382C4.3991 4.37891 2.69013 6.46129 1.68096 8.89764C0.671793 11.334 0.407748 14.0149 0.922218 16.6013C1.43669 19.1877 2.70656 21.5635 4.57126 23.4282C6.43597 25.2929 8.81174 26.5627 11.3982 27.0772C13.9846 27.5917 16.6655 27.3276 19.1018 26.3185C21.5382 25.3093 23.6205 23.6003 25.0856 21.4077C26.5507 19.215 27.3327 16.6372 27.3327 14.0001C27.3327 12.2491 26.9878 10.5153 26.3177 8.89764C25.6477 7.27996 24.6656 5.81011 23.4274 4.57199C22.1893 3.33388 20.7195 2.35175 19.1018 1.68169C17.4841 1.01162 15.7503 0.666748 13.9994 0.666748ZM13.9994 24.6667C11.8897 24.6667 9.8274 24.0412 8.07327 22.8691C6.31915 21.697 4.95198 20.0311 4.14464 18.082C3.33731 16.133 3.12607 13.9882 3.53765 11.9191C3.94922 9.84999 4.96512 7.94937 6.45688 6.45761C7.94864 4.96585 9.84926 3.94995 11.9184 3.53837C13.9875 3.1268 16.1322 3.33803 18.0813 4.14537C20.0304 4.9527 21.6963 6.31987 22.8684 8.074C24.0404 9.82812 24.666 11.8904 24.666 14.0001C24.666 16.8291 23.5422 19.5422 21.5418 21.5426C19.5414 23.5429 16.8283 24.6667 13.9994 24.6667Z" fill="white"/>
</svg>
