<svg width="14" height="14" viewBox="0 0 14 14" fill="none" xmlns="http://www.w3.org/2000/svg">
<path d="M8.99998 6.3335H7.66665V3.66683C7.66665 3.49002 7.59641 3.32045 7.47139 3.19543C7.34636 3.0704 7.17679 3.00016 6.99998 3.00016C6.82317 3.00016 6.6536 3.0704 6.52858 3.19543C6.40355 3.32045 6.33332 3.49002 6.33332 3.66683V7.00016C6.33332 7.17697 6.40355 7.34654 6.52858 7.47157C6.6536 7.59659 6.82317 7.66683 6.99998 7.66683H8.99998C9.17679 7.66683 9.34636 7.59659 9.47139 7.47157C9.59641 7.34654 9.66665 7.17697 9.66665 7.00016C9.66665 6.82335 9.59641 6.65378 9.47139 6.52876C9.34636 6.40373 9.17679 6.3335 8.99998 6.3335ZM6.99998 0.333496C5.68144 0.333496 4.39251 0.724489 3.29618 1.45703C2.19985 2.18957 1.34537 3.23077 0.840786 4.44894C0.336202 5.66711 0.204179 7.00756 0.461414 8.30077C0.718649 9.59397 1.35359 10.7819 2.28594 11.7142C3.21829 12.6466 4.40617 13.2815 5.69938 13.5387C6.99259 13.796 8.33303 13.6639 9.55121 13.1594C10.7694 12.6548 11.8106 11.8003 12.5431 10.704C13.2757 9.60764 13.6666 8.31871 13.6666 7.00016C13.6666 6.12468 13.4942 5.25778 13.1592 4.44894C12.8241 3.6401 12.3331 2.90517 11.714 2.28612C11.095 1.66706 10.36 1.176 9.55121 0.840966C8.74237 0.505935 7.87546 0.333496 6.99998 0.333496ZM6.99998 12.3335C5.94515 12.3335 4.914 12.0207 4.03694 11.4347C3.15988 10.8486 2.47629 10.0157 2.07263 9.04114C1.66896 8.0666 1.56334 6.99425 1.76913 5.95968C1.97492 4.92512 2.48287 3.97481 3.22875 3.22893C3.97463 2.48305 4.92494 1.9751 5.9595 1.76931C6.99407 1.56352 8.06642 1.66914 9.04096 2.07281C10.0155 2.47647 10.8485 3.16006 11.4345 4.03712C12.0205 4.91418 12.3333 5.94533 12.3333 7.00016C12.3333 8.41465 11.7714 9.77121 10.7712 10.7714C9.77103 11.7716 8.41447 12.3335 6.99998 12.3335Z" fill="#455252"/>
</svg>
