<svg width="10" height="11" viewBox="0 0 10 11" fill="none" xmlns="http://www.w3.org/2000/svg">
<path d="M0.0625277 4.68675C0.102188 4.58445 0.161657 4.491 0.237527 4.41175L4.40419 0.245078C4.48189 0.167378 4.57413 0.105748 4.67565 0.063698C4.77717 0.021648 4.88598 0 4.99586 0C5.21778 0 5.43061 0.088158 5.58753 0.245078C5.66523 0.322778 5.72686 0.415018 5.76891 0.516538C5.81096 0.618058 5.8326 0.726858 5.8326 0.836748C5.8326 1.05866 5.74445 1.27149 5.58753 1.42841L2.83753 4.17008H9.16252C9.38354 4.17008 9.5955 4.25788 9.75178 4.41416C9.90806 4.57044 9.99586 4.7824 9.99586 5.00341C9.99586 5.22443 9.90806 5.43639 9.75178 5.59267C9.5955 5.74895 9.38354 5.83675 9.16252 5.83675H2.83753L5.58753 8.57841C5.66563 8.65588 5.72763 8.74805 5.76994 8.8496C5.81224 8.95115 5.83403 9.06002 5.83403 9.17012C5.83403 9.28012 5.81224 9.38902 5.76994 9.49052C5.72763 9.59212 5.66563 9.68432 5.58753 9.76172C5.51006 9.83982 5.41789 9.90182 5.31634 9.94412C5.21479 9.98642 5.10587 10.0082 4.99586 10.0082C4.88585 10.0082 4.77693 9.98642 4.67538 9.94412C4.57383 9.90182 4.48166 9.83982 4.40419 9.76172L0.237527 5.59508C0.161657 5.51583 0.102188 5.42237 0.0625277 5.32008C-0.0208423 5.11719 -0.0208423 4.88963 0.0625277 4.68675Z" fill="#D2D4D4"/>
</svg>
