<svg width="10" height="6" viewBox="0 0 10 6" fill="none" xmlns="http://www.w3.org/2000/svg">
<path d="M2.14001 5.47329L5.00001 2.60663L7.86001 5.47329C7.92199 5.53578 7.99572 5.58537 8.07696 5.61922C8.1582 5.65307 8.24534 5.67049 8.33334 5.67049C8.42135 5.67049 8.50849 5.65307 8.58973 5.61922C8.67097 5.58537 8.7447 5.53578 8.80668 5.47329C8.86916 5.41132 8.91876 5.33758 8.95261 5.25634C8.98645 5.1751 9.00388 5.08797 9.00388 4.99996C9.00388 4.91195 8.98645 4.82481 8.95261 4.74357C8.91876 4.66234 8.86916 4.5886 8.80668 4.52663L5.47334 1.19329C5.41137 1.13081 5.33764 1.08121 5.2564 1.04737C5.17516 1.01352 5.08802 0.996094 5.00001 0.996094C4.912 0.996094 4.82487 1.01352 4.74363 1.04737C4.66239 1.08121 4.58865 1.13081 4.52668 1.19329L1.19335 4.52663C1.06781 4.65216 0.997284 4.82242 0.997284 4.99996C0.997284 5.17749 1.06781 5.34776 1.19335 5.47329C1.31888 5.59883 1.48914 5.66935 1.66668 5.66935C1.84421 5.66935 2.01448 5.59883 2.14001 5.47329Z" fill="#D2D4D4"/>
</svg>
