<svg width="14" height="14" viewBox="0 0 14 14" fill="none" xmlns="http://www.w3.org/2000/svg">
<path d="M4.80659 4.14001L6.33325 2.60668V9.00001C6.33325 9.17682 6.40349 9.34639 6.52851 9.47142C6.65354 9.59644 6.82311 9.66668 6.99992 9.66668C7.17673 9.66668 7.3463 9.59644 7.47132 9.47142C7.59635 9.34639 7.66659 9.17682 7.66659 9.00001V2.60668L9.19325 4.14001C9.25523 4.2025 9.32896 4.25209 9.4102 4.28594C9.49144 4.31979 9.57858 4.33721 9.66659 4.33721C9.75459 4.33721 9.84173 4.31979 9.92297 4.28594C10.0042 4.25209 10.0779 4.2025 10.1399 4.14001C10.2024 4.07804 10.252 4.0043 10.2858 3.92306C10.3197 3.84182 10.3371 3.75469 10.3371 3.66668C10.3371 3.57867 10.3197 3.49153 10.2858 3.41029C10.252 3.32906 10.2024 3.25532 10.1399 3.19335L7.47325 0.526679C7.40985 0.465985 7.33509 0.418409 7.25325 0.386679C7.09094 0.32 6.90889 0.32 6.74659 0.386679C6.66475 0.418409 6.58999 0.465985 6.52659 0.526679L3.85992 3.19335C3.79776 3.2555 3.74845 3.3293 3.71481 3.41051C3.68117 3.49173 3.66386 3.57877 3.66386 3.66668C3.66386 3.75459 3.68117 3.84163 3.71481 3.92285C3.74845 4.00406 3.79776 4.07785 3.85992 4.14001C3.92208 4.20217 3.99587 4.25148 4.07709 4.28512C4.1583 4.31876 4.24535 4.33607 4.33325 4.33607C4.42116 4.33607 4.5082 4.31876 4.58942 4.28512C4.67063 4.25148 4.74443 4.20217 4.80659 4.14001ZM12.9999 7.00001C12.8231 7.00001 12.6535 7.07025 12.5285 7.19527C12.4035 7.3203 12.3333 7.48987 12.3333 7.66668V11.6667C12.3333 11.8435 12.263 12.0131 12.138 12.1381C12.013 12.2631 11.8434 12.3333 11.6666 12.3333H2.33325C2.15644 12.3333 1.98687 12.2631 1.86185 12.1381C1.73682 12.0131 1.66659 11.8435 1.66659 11.6667V7.66668C1.66659 7.48987 1.59635 7.3203 1.47132 7.19527C1.3463 7.07025 1.17673 7.00001 0.999919 7.00001C0.823108 7.00001 0.653538 7.07025 0.528514 7.19527C0.40349 7.3203 0.333252 7.48987 0.333252 7.66668V11.6667C0.333252 12.1971 0.543966 12.7058 0.919038 13.0809C1.29411 13.456 1.80282 13.6667 2.33325 13.6667H11.6666C12.197 13.6667 12.7057 13.456 13.0808 13.0809C13.4559 12.7058 13.6666 12.1971 13.6666 11.6667V7.66668C13.6666 7.48987 13.5963 7.3203 13.4713 7.19527C13.3463 7.07025 13.1767 7.00001 12.9999 7.00001Z" fill="#D2D4D4"/>
</svg>
