<svg width="14" height="14" viewBox="0 0 14 14" fill="none" xmlns="http://www.w3.org/2000/svg">
<path d="M6.99995 0.333374C5.70694 0.335831 4.44254 0.714248 3.36077 1.42253C2.279 2.13082 1.42655 3.1384 0.907245 4.32255C0.387942 5.50671 0.224202 6.81632 0.435969 8.09188C0.647736 9.36744 1.22587 10.5539 2.09995 11.5067C2.72423 12.1834 3.48191 12.7235 4.32524 13.0928C5.16857 13.4622 6.07927 13.6529 6.99995 13.6529C7.92063 13.6529 8.83133 13.4622 9.67466 13.0928C10.518 12.7235 11.2757 12.1834 11.9 11.5067C12.774 10.5539 13.3522 9.36744 13.5639 8.09188C13.7757 6.81632 13.612 5.50671 13.0927 4.32255C12.5734 3.1384 11.7209 2.13082 10.6391 1.42253C9.55736 0.714248 8.29297 0.335831 6.99995 0.333374ZM6.99995 12.3334C5.61893 12.3313 4.29256 11.7936 3.29995 10.8334C3.60131 10.0997 4.11397 9.47224 4.77279 9.03063C5.4316 8.58903 6.20682 8.35324 6.99995 8.35324C7.79308 8.35324 8.5683 8.58903 9.22712 9.03063C9.88593 9.47224 10.3986 10.0997 10.7 10.8334C9.70734 11.7936 8.38097 12.3313 6.99995 12.3334ZM5.66662 5.66671C5.66662 5.403 5.74482 5.14521 5.89132 4.92595C6.03783 4.70668 6.24607 4.53578 6.48971 4.43487C6.73334 4.33395 7.00143 4.30755 7.26007 4.35899C7.51871 4.41044 7.75629 4.53743 7.94276 4.7239C8.12923 4.91037 8.25622 5.14795 8.30766 5.40659C8.35911 5.66523 8.33271 5.93332 8.23179 6.17695C8.13087 6.42059 7.95998 6.62883 7.74071 6.77533C7.52145 6.92184 7.26366 7.00004 6.99995 7.00004C6.64633 7.00004 6.30719 6.85956 6.05714 6.60952C5.80709 6.35947 5.66662 6.02033 5.66662 5.66671ZM11.6066 9.66671C11.011 8.64788 10.0942 7.85539 8.99995 7.41337C9.3394 7.02848 9.56057 6.55381 9.63693 6.04633C9.71329 5.53885 9.6416 5.02012 9.43045 4.55237C9.21931 4.08463 8.87768 3.68775 8.44656 3.40935C8.01544 3.13096 7.51314 2.98287 6.99995 2.98287C6.48676 2.98287 5.98447 3.13096 5.55335 3.40935C5.12223 3.68775 4.7806 4.08463 4.56945 4.55237C4.3583 5.02012 4.28661 5.53885 4.36297 6.04633C4.43933 6.55381 4.66051 7.02848 4.99995 7.41337C3.90568 7.85539 2.98893 8.64788 2.39328 9.66671C1.91858 8.85811 1.66776 7.93768 1.66662 7.00004C1.66662 5.58555 2.22852 4.229 3.22872 3.2288C4.22891 2.22861 5.58546 1.66671 6.99995 1.66671C8.41444 1.66671 9.77099 2.22861 10.7712 3.2288C11.7714 4.229 12.3333 5.58555 12.3333 7.00004C12.3321 7.93768 12.0813 8.85811 11.6066 9.66671Z" fill="#D2D4D4"/>
</svg>
