<svg width="130" height="111" viewBox="0 0 130 111" fill="none" xmlns="http://www.w3.org/2000/svg">
<path fill-rule="evenodd" clip-rule="evenodd" d="M74.2659 69.3456C73.7511 61.2615 69.8905 53.6076 61.483 48.5336C47.2416 39.7616 26.5659 42.3416 14.1262 52.7477C10.7804 55.4996 7.94925 58.9397 5.97604 62.6376C0.313818 73.1295 -1.91676 87.4916 5.03233 97.9836C13.6972 110.97 31.7991 112.432 46.0406 107.616C62.7699 101.854 75.2954 86.4596 74.2659 69.3456Z" fill="url(#paint0_linear_2_227)"/>
<path fill-rule="evenodd" clip-rule="evenodd" d="M129.258 50.0809C128.744 41.4809 124.883 33.3109 116.476 27.8069C102.234 18.4328 81.5585 21.1849 69.1188 32.2789C65.7729 35.2889 62.9418 38.8149 60.9686 42.8569C55.3063 54.1229 53.0757 69.4309 60.0248 80.6109C68.6898 94.5429 86.7917 96.0049 101.033 90.8449C117.762 84.8249 130.374 68.3989 129.258 50.0809Z" fill="url(#paint1_linear_2_227)"/>
<path fill-rule="evenodd" clip-rule="evenodd" d="M108.411 101.51C76.1531 101.51 47.5846 101.51 18.244 100.736C17.5576 100.736 17.0429 100.048 17.0429 99.1881C16.4424 73.9041 16.8714 60.7461 16.4424 38.0421C16.4424 37.1822 17.0429 36.4941 17.7293 36.4941C45.2682 36.8382 75.8957 36.4941 108.925 37.3542C109.612 37.3542 110.126 38.0421 110.126 38.9022C110.298 70.5501 109.783 73.8182 109.697 99.9621C109.697 100.822 109.097 101.51 108.411 101.51Z" fill="#FCDB7E"/>
<path fill-rule="evenodd" clip-rule="evenodd" d="M93.0544 84.5676C86.7058 79.1496 79.7569 74.4195 74.0088 68.2275C73.923 68.2275 73.923 68.2275 73.8373 68.2275H56.9364C56.8506 68.3136 56.8506 68.3136 56.7647 68.3996C52.8184 70.9796 49.2151 73.9896 45.6119 76.9995C39.1776 82.4175 32.4001 87.4916 26.0515 92.9955C23.2204 95.4036 20.3893 97.8975 17.6439 100.392C17.8155 100.564 18.0729 100.65 18.3303 100.65C47.6709 101.424 76.4968 100.65 108.754 100.65C109.269 100.65 109.612 100.306 109.869 99.7896C104.55 94.3716 98.8883 89.4696 93.0544 84.5676Z" fill="#FCD250"/>
<path d="M107.639 38.5569C107.982 54.4669 107.553 70.4628 107.382 86.3728C107.296 90.9309 107.296 95.4888 107.296 100.047C107.296 101.939 110.213 101.939 110.213 100.047C110.213 84.2229 110.728 68.3129 110.728 52.4889C110.728 47.8449 110.728 43.2009 110.556 38.5569C110.556 36.6649 107.553 36.5789 107.639 38.5569Z" fill="#FCBD24"/>
<path fill-rule="evenodd" clip-rule="evenodd" d="M94.1689 0.975586C71.52 1.31959 58.394 0.975586 33.1714 1.40559C31.6272 1.31959 31.1982 2.6096 31.1982 3.1256C30.5977 18.7776 30.6834 33.6556 30.7692 49.7376C33.4288 51.2856 36.0883 52.9197 38.662 54.6396C44.9247 58.9396 50.8443 63.8416 56.6782 68.6577C56.7639 68.8296 56.8498 68.9157 56.9356 69.0876C57.965 70.1196 59.0803 70.9797 60.2814 71.7535C61.4825 72.5277 63.0266 73.3876 64.5709 73.0435C65.2573 72.8716 65.8578 72.4416 66.4584 72.0976C67.1446 71.6676 67.7453 71.3236 68.4315 70.8936C69.2036 70.3776 70.0616 69.9475 70.8337 69.4317C71.2626 69.4317 71.6916 69.4317 72.1206 69.4317C80.0133 63.2395 87.8204 57.1336 95.2842 50.4256C95.5416 33.0535 95.4557 16.7995 95.7131 1.74959C95.7131 1.40559 95.0269 0.975586 94.1689 0.975586Z" fill="#EFF3F6"/>
<path d="M37.8903 15.5096C37.0324 18.9495 39.3488 22.2176 42.523 23.3355C46.4695 24.7976 50.4158 22.8195 53.7617 21.0135C55.3917 20.0675 57.3649 19.1216 59.3382 19.4655C61.1398 19.8095 62.255 21.5295 64.0567 21.9596C66.0299 22.4756 68.003 21.9596 69.8905 21.3575C71.8636 20.7555 73.7511 20.2395 75.8101 19.8956C80.4428 19.2075 85.247 19.3796 89.8798 20.4975C91.7673 20.9276 92.5394 18.0896 90.6519 17.6595C86.9629 16.7996 83.1023 16.4555 79.3274 16.7135C75.3811 16.9715 71.7779 17.9175 68.003 18.9495C67.1451 19.2075 66.373 19.3796 65.4293 19.3796C64.4857 19.2935 63.885 18.8636 63.1129 18.3476C61.6545 17.3156 60.2818 16.5416 58.3944 16.5416C54.4481 16.5416 51.617 19.4655 48.0137 20.5835C46.2979 21.0995 44.2389 21.3575 42.523 20.3255C41.2361 19.5515 40.2066 18.0035 40.5498 16.4555C41.1504 14.4776 38.3193 13.7036 37.8903 15.5096Z" fill="#CFD9E0"/>
<path d="M38.6628 36.666C52.561 37.096 66.545 36.838 80.5289 36.7521C82.7596 36.7521 84.99 36.666 87.1349 36.666C89.0223 36.666 89.0223 33.742 87.1349 33.742C74.6093 33.742 62.1697 34 49.6441 33.9141C45.9551 33.9141 42.3519 33.828 38.6628 33.742C36.7754 33.6561 36.7754 36.666 38.6628 36.666Z" fill="#CFD9E0"/>
<path d="M39.0052 49.7373C46.9838 49.9953 54.9624 49.9953 62.941 50.0813C64.8283 50.0813 64.8283 47.1573 62.941 47.1573C54.9624 47.0714 46.9838 47.0714 39.0052 46.8134C37.1177 46.7274 37.1177 49.6514 39.0052 49.7373Z" fill="#CFD9E0"/>
<path d="M19.3595 100.821C42.7805 101.423 66.2874 101.767 89.7084 101.681C96.0569 101.681 102.405 101.595 108.754 101.509C110.641 101.509 110.641 98.4993 108.754 98.5854C85.5045 99.0153 62.2552 98.7573 39.0058 98.3274C32.4856 98.2413 25.9655 98.0692 19.3595 97.8973C17.4721 97.8112 17.4721 100.821 19.3595 100.821Z" fill="#FCBD24"/>
<path d="M16.9574 38.7293C28.4533 48.7053 40.4641 58.1652 52.4748 67.6253C55.7349 70.2053 59.0808 72.7853 62.3409 75.4512C62.9414 75.9672 63.7992 76.0533 64.3999 75.4512C64.9146 74.9352 65.0004 73.9032 64.3999 73.3872C52.6464 63.9273 40.6356 54.7253 29.0538 45.1793C25.7079 42.4272 22.3622 39.5892 19.0164 36.6653C17.6436 35.4612 15.4989 37.5252 16.9574 38.7293Z" fill="#FCBD24"/>
<path d="M107.381 37.4401C101.204 44.234 93.912 49.996 86.7055 55.586C80.1853 60.6601 73.4936 65.5621 66.7161 70.292C65.3435 71.2381 63.9708 72.184 62.5982 73.13C61.0539 74.162 62.5124 76.742 64.0567 75.71C68.003 73.0441 71.9494 70.292 75.81 67.454C83.6171 61.778 91.424 55.93 98.8021 49.738C102.577 46.556 106.266 43.288 109.526 39.59C110.727 38.128 108.668 36.064 107.381 37.4401Z" fill="#FCBD24"/>
<path d="M54.7914 67.9695C44.4965 75.6235 34.8879 84.1375 24.9361 92.2215C22.534 94.1134 20.2176 96.0055 17.7296 97.8975C17.1291 98.4135 16.786 99.1875 17.2149 99.8755C17.5581 100.477 18.5876 100.908 19.1881 100.392C29.4831 92.7375 39.0916 84.2235 49.0435 76.1395C51.4456 74.2474 53.7619 72.3555 56.2499 70.4635C56.8504 69.9475 57.1937 69.1735 56.7647 68.4855C56.4216 67.8835 55.3921 67.5394 54.7914 67.9695Z" fill="#FCBD24"/>
<path d="M73.4083 70.0341C82.6738 78.2042 91.8535 86.3741 100.947 94.6301C103.092 96.6081 105.151 98.5001 107.296 100.478C108.669 101.768 110.728 99.7041 109.355 98.4141C100.433 89.9001 91.1671 81.8162 81.9876 73.6461C79.8427 71.7542 77.6979 69.8621 75.4673 67.8842C74.0947 66.6801 72.0357 68.7441 73.4083 70.0341Z" fill="#FCBD24"/>
<path fill-rule="evenodd" clip-rule="evenodd" d="M105.501 34.6015C102.756 30.7315 98.3806 27.9795 93.6621 28.0654C84.654 28.1515 77.619 38.6434 80.7075 46.9854C82.595 52.2315 87.914 55.5855 93.3188 56.0154C95.2063 56.1874 97.0937 56.0154 98.8096 55.4134C99.0669 55.3275 99.3243 55.2414 99.5817 55.1554C103.871 53.5215 107.217 49.9095 108.075 45.3514C108.761 41.5674 107.646 37.6975 105.501 34.6015Z" fill="#22CEA7"/>
<path fill-rule="evenodd" clip-rule="evenodd" d="M91.5092 39.5901C92.9676 38.5581 94.5118 37.612 95.7988 36.408C97.1714 35.118 95.1125 33.054 93.7397 34.344C92.6245 35.376 91.3376 36.15 90.0507 37.0101C89.3644 37.44 89.107 38.3001 89.536 39.0741C89.8791 39.676 90.8228 40.02 91.5092 39.5901Z" fill="white"/>
<path fill-rule="evenodd" clip-rule="evenodd" d="M93.2256 35.376C93.1397 39.504 93.2256 43.632 93.2256 47.76C93.2256 49.652 96.2282 49.652 96.1425 47.76C96.0567 43.632 96.0567 39.504 96.1425 35.376C96.2282 33.484 93.3114 33.484 93.2256 35.376Z" fill="white"/>
<path d="M92.11 55.5861C95.1127 56.6181 98.4586 55.758 101.118 54.2961C104.121 52.662 106.266 49.9961 107.552 46.8141C108.754 43.7181 108.839 40.0202 107.552 37.0101C106.266 33.9141 103.778 31.4201 100.861 29.8721C99.2307 28.9262 97.6865 31.5062 99.4022 32.4521C101.719 33.7421 103.778 35.6342 104.893 38.1281C105.922 40.536 105.751 43.374 104.893 45.8681C103.349 50.2541 97.858 54.6401 93.0538 52.92C91.1663 52.146 90.3941 54.984 92.11 55.5861Z" fill="#128A81"/>
<defs>
<linearGradient id="paint0_linear_2_227" x1="0.656984" y1="76.6121" x2="74.2893" y2="76.6121" gradientUnits="userSpaceOnUse">
<stop stop-color="#C7EBFF"/>
<stop offset="1" stop-color="white"/>
</linearGradient>
<linearGradient id="paint1_linear_2_227" x1="75.7043" y1="22.0184" x2="111.774" y2="99.7509" gradientUnits="userSpaceOnUse">
<stop stop-color="#C7EBFF"/>
<stop offset="1" stop-color="white"/>
</linearGradient>
</defs>
</svg>
