<svg width="27" height="10" viewBox="0 0 27 10" fill="none" xmlns="http://www.w3.org/2000/svg">
<path d="M13.8806 3.33624C13.8653 4.62146 14.9566 5.33862 15.7787 5.76505C16.6233 6.20254 16.907 6.48311 16.9036 6.87439C16.8973 7.47314 16.2299 7.73742 15.6054 7.74768C14.5158 7.76565 13.8822 7.43452 13.3785 7.18409L12.986 9.13926C13.4914 9.38713 14.4271 9.60331 15.3974 9.61279C17.675 9.61279 19.1651 8.41596 19.1732 6.56034C19.1821 4.20529 16.1131 4.07494 16.1341 3.0223C16.1413 2.70311 16.4274 2.3625 17.0544 2.2759C17.3647 2.23215 18.2214 2.19867 19.1926 2.67477L19.5738 0.783094C19.0515 0.580647 18.3802 0.386791 17.5444 0.386791C15.4006 0.386791 13.8928 1.59992 13.8806 3.33624ZM23.2367 0.549732C22.8208 0.549732 22.4703 0.807981 22.3139 1.20428L19.0604 9.47385H21.3364L21.7893 8.14142H24.5705L24.8333 9.47385H26.8393L25.0887 0.549732H23.2367ZM23.5551 2.96047L24.212 6.31157H22.4131L23.5551 2.96047ZM11.1211 0.549844L9.32707 9.47374H11.4959L13.2891 0.549621L11.1211 0.549844ZM7.91266 0.549621L5.65522 6.62384L4.74206 1.45919C4.63491 0.882644 4.21177 0.549732 3.74188 0.549732H0.0516866L0 0.808874C0.757581 0.983868 1.61832 1.26611 2.1398 1.56811C2.45894 1.75259 2.54994 1.91386 2.65478 2.35223L4.38434 9.47385H6.67627L10.1901 0.549732L7.91266 0.549621Z" fill="url(#paint0_linear_11910_1221)"/>
<defs>
<linearGradient id="paint0_linear_11910_1221" x1="12.3391" y1="9.79787" x2="12.6233" y2="0.32363" gradientUnits="userSpaceOnUse">
<stop stop-color="#222357"/>
<stop offset="1" stop-color="#254AA5"/>
</linearGradient>
</defs>
</svg>
