<svg width="14" height="16" viewBox="0 0 14 16" fill="none" xmlns="http://www.w3.org/2000/svg">
<path d="M7.00065 12.6667C7.13251 12.6667 7.2614 12.6276 7.37103 12.5544C7.48066 12.4811 7.56611 12.377 7.61657 12.2552C7.66703 12.1334 7.68023 11.9993 7.65451 11.87C7.62878 11.7407 7.56529 11.6219 7.47206 11.5287C7.37882 11.4354 7.26003 11.3719 7.13071 11.3462C7.00139 11.3205 6.86735 11.3337 6.74553 11.3842C6.62371 11.4346 6.51959 11.5201 6.44634 11.6297C6.37308 11.7393 6.33398 11.8682 6.33398 12.0001C6.33398 12.1769 6.40422 12.3465 6.52925 12.4715C6.65427 12.5965 6.82384 12.6667 7.00065 12.6667ZM10.334 12.6667C10.4658 12.6667 10.5947 12.6276 10.7044 12.5544C10.814 12.4811 10.8994 12.377 10.9499 12.2552C11.0004 12.1334 11.0136 11.9993 10.9878 11.87C10.9621 11.7407 10.8986 11.6219 10.8054 11.5287C10.7122 11.4354 10.5934 11.3719 10.464 11.3462C10.3347 11.3205 10.2007 11.3337 10.0789 11.3842C9.95705 11.4346 9.85293 11.5201 9.77967 11.6297C9.70642 11.7393 9.66732 11.8682 9.66732 12.0001C9.66732 12.1769 9.73756 12.3465 9.86258 12.4715C9.9876 12.5965 10.1572 12.6667 10.334 12.6667ZM10.334 10.0001C10.4658 10.0001 10.5947 9.96098 10.7044 9.88773C10.814 9.81447 10.8994 9.71035 10.9499 9.58854C11.0004 9.46672 11.0136 9.33267 10.9878 9.20335C10.9621 9.07403 10.8986 8.95525 10.8054 8.86201C10.7122 8.76877 10.5934 8.70528 10.464 8.67956C10.3347 8.65383 10.2007 8.66704 10.0789 8.71749C9.95705 8.76795 9.85293 8.8534 9.77967 8.96303C9.70642 9.07267 9.66732 9.20156 9.66732 9.33341C9.66732 9.51023 9.73756 9.67979 9.86258 9.80482C9.9876 9.92984 10.1572 10.0001 10.334 10.0001ZM7.00065 10.0001C7.13251 10.0001 7.2614 9.96098 7.37103 9.88773C7.48066 9.81447 7.56611 9.71035 7.61657 9.58854C7.66703 9.46672 7.68023 9.33267 7.65451 9.20335C7.62878 9.07403 7.56529 8.95525 7.47206 8.86201C7.37882 8.76877 7.26003 8.70528 7.13071 8.67956C7.00139 8.65383 6.86735 8.66704 6.74553 8.71749C6.62371 8.76795 6.51959 8.8534 6.44634 8.96303C6.37308 9.07267 6.33398 9.20156 6.33398 9.33341C6.33398 9.51023 6.40422 9.67979 6.52925 9.80482C6.65427 9.92984 6.82384 10.0001 7.00065 10.0001ZM11.6673 2.00008H11.0007V1.33341C11.0007 1.1566 10.9304 0.987034 10.8054 0.86201C10.6804 0.736986 10.5108 0.666748 10.334 0.666748C10.1572 0.666748 9.9876 0.736986 9.86258 0.86201C9.73756 0.987034 9.66732 1.1566 9.66732 1.33341V2.00008H4.33398V1.33341C4.33398 1.1566 4.26375 0.987034 4.13872 0.86201C4.0137 0.736986 3.84413 0.666748 3.66732 0.666748C3.49051 0.666748 3.32094 0.736986 3.19591 0.86201C3.07089 0.987034 3.00065 1.1566 3.00065 1.33341V2.00008H2.33398C1.80355 2.00008 1.29484 2.2108 0.919771 2.58587C0.544698 2.96094 0.333984 3.46965 0.333984 4.00008V13.3334C0.333984 13.8638 0.544698 14.3726 0.919771 14.7476C1.29484 15.1227 1.80355 15.3334 2.33398 15.3334H11.6673C12.1978 15.3334 12.7065 15.1227 13.0815 14.7476C13.4566 14.3726 13.6673 13.8638 13.6673 13.3334V4.00008C13.6673 3.46965 13.4566 2.96094 13.0815 2.58587C12.7065 2.2108 12.1978 2.00008 11.6673 2.00008ZM12.334 13.3334C12.334 13.5102 12.2637 13.6798 12.1387 13.8048C12.0137 13.9298 11.8441 14.0001 11.6673 14.0001H2.33398C2.15717 14.0001 1.9876 13.9298 1.86258 13.8048C1.73756 13.6798 1.66732 13.5102 1.66732 13.3334V7.33341H12.334V13.3334ZM12.334 6.00008H1.66732V4.00008C1.66732 3.82327 1.73756 3.6537 1.86258 3.52868C1.9876 3.40365 2.15717 3.33341 2.33398 3.33341H3.00065V4.00008C3.00065 4.17689 3.07089 4.34646 3.19591 4.47149C3.32094 4.59651 3.49051 4.66675 3.66732 4.66675C3.84413 4.66675 4.0137 4.59651 4.13872 4.47149C4.26375 4.34646 4.33398 4.17689 4.33398 4.00008V3.33341H9.66732V4.00008C9.66732 4.17689 9.73756 4.34646 9.86258 4.47149C9.9876 4.59651 10.1572 4.66675 10.334 4.66675C10.5108 4.66675 10.6804 4.59651 10.8054 4.47149C10.9304 4.34646 11.0007 4.17689 11.0007 4.00008V3.33341H11.6673C11.8441 3.33341 12.0137 3.40365 12.1387 3.52868C12.2637 3.6537 12.334 3.82327 12.334 4.00008V6.00008ZM3.66732 10.0001C3.79917 10.0001 3.92807 9.96098 4.0377 9.88773C4.14733 9.81447 4.23278 9.71035 4.28324 9.58854C4.3337 9.46672 4.3469 9.33267 4.32117 9.20335C4.29545 9.07403 4.23196 8.95525 4.13872 8.86201C4.04549 8.76877 3.9267 8.70528 3.79738 8.67956C3.66806 8.65383 3.53401 8.66704 3.4122 8.71749C3.29038 8.76795 3.18626 8.8534 3.113 8.96303C3.03975 9.07267 3.00065 9.20156 3.00065 9.33341C3.00065 9.51023 3.07089 9.67979 3.19591 9.80482C3.32094 9.92984 3.49051 10.0001 3.66732 10.0001ZM3.66732 12.6667C3.79917 12.6667 3.92807 12.6276 4.0377 12.5544C4.14733 12.4811 4.23278 12.377 4.28324 12.2552C4.3337 12.1334 4.3469 11.9993 4.32117 11.87C4.29545 11.7407 4.23196 11.6219 4.13872 11.5287C4.04549 11.4354 3.9267 11.3719 3.79738 11.3462C3.66806 11.3205 3.53401 11.3337 3.4122 11.3842C3.29038 11.4346 3.18626 11.5201 3.113 11.6297C3.03975 11.7393 3.00065 11.8682 3.00065 12.0001C3.00065 12.1769 3.07089 12.3465 3.19591 12.4715C3.32094 12.5965 3.49051 12.6667 3.66732 12.6667Z" fill="#D2D4D4"/>
</svg>
