<svg width="617" height="96" viewBox="0 0 617 96" fill="none" xmlns="http://www.w3.org/2000/svg">
<g clip-path="url(#clip0_6782_447883)">
<path d="M398.305 64.675C395.109 64.7551 391.956 63.9266 389.212 62.2859C386.468 60.6453 384.247 58.2598 382.807 55.4071C381.227 52.328 380.437 48.9053 380.507 45.4458C380.438 41.9435 381.287 38.4841 382.971 35.4116C384.576 32.5703 386.923 30.2182 389.762 28.6066C392.809 26.9901 396.206 26.1448 399.656 26.1448C403.106 26.1448 406.503 26.9901 409.55 28.6066C412.384 30.2186 414.725 32.571 416.323 35.4116C418.007 38.4841 418.856 41.9435 418.787 45.4458H414.698C414.764 48.8844 414.04 52.2923 412.581 55.4071C411.288 58.1524 409.284 60.502 406.776 62.2121C404.266 63.8689 401.313 64.7276 398.305 64.675ZM399.547 80.1642C396.364 80.1898 393.214 79.5303 390.31 78.2303C387.453 76.9472 384.948 74.9947 383.008 72.5382C382.726 72.2035 382.521 71.8111 382.408 71.3887C382.294 70.9664 382.275 70.5242 382.351 70.0935C382.433 69.6867 382.594 69.3 382.826 68.9556C383.058 68.6113 383.355 68.316 383.701 68.0867C384.075 67.8201 384.5 67.6339 384.949 67.5397C385.399 67.4455 385.862 67.4454 386.312 67.5393C387.195 67.6993 387.98 68.1966 388.502 68.9259C389.771 70.4954 391.39 71.7453 393.23 72.5747C395.262 73.4843 397.467 73.9388 399.693 73.9065C401.849 73.9184 403.97 73.3648 405.845 72.301C407.758 71.1867 409.31 69.5466 410.317 67.5758C411.493 65.2101 412.064 62.59 411.978 59.9498V50.0798L414.278 43.9681L418.787 45.4276V60.4242C418.838 63.8968 418.003 67.3252 416.36 70.3854C414.784 73.3281 412.445 75.7923 409.587 77.5188C406.551 79.3159 403.074 80.2319 399.547 80.1642ZM399.693 58.4356C401.935 58.4807 404.146 57.9062 406.082 56.7754C407.925 55.67 409.428 54.0795 410.427 52.1779C411.499 50.0987 412.032 47.7842 411.978 45.4458C412.025 43.0965 411.492 40.7719 410.427 38.6773C409.433 36.7668 407.929 35.169 406.082 34.0616C404.128 32.9736 401.929 32.4025 399.693 32.4025C397.456 32.4025 395.257 32.9736 393.303 34.0616C391.446 35.1675 389.929 36.7648 388.922 38.6773C387.822 40.761 387.269 43.0901 387.316 45.4458C387.262 47.7907 387.815 50.1097 388.922 52.1779C389.935 54.0815 391.45 55.6715 393.303 56.7754C395.239 57.9089 397.45 58.4836 399.693 58.4356Z" fill="#02665E"/>
<path d="M447.21 64.6751C443.642 64.7445 440.116 63.8964 436.969 62.2121C434.043 60.6359 431.61 58.2806 429.941 55.4071C428.217 52.3742 427.34 48.9336 427.404 45.4458C427.332 41.9498 428.161 38.4941 429.813 35.4116C431.351 32.575 433.645 30.2196 436.44 28.6066C439.403 26.9282 442.764 26.0775 446.17 26.1437C449.436 26.0556 452.661 26.8835 455.48 28.5336C458.05 30.1209 460.11 32.4135 461.413 35.138C462.832 38.1673 463.538 41.4813 463.476 44.8256C463.484 45.2338 463.407 45.6394 463.25 46.0164C463.093 46.3933 462.859 46.7334 462.563 47.0148C462.256 47.304 461.895 47.5288 461.5 47.6761C461.105 47.8233 460.684 47.8901 460.263 47.8723H432.278V42.3991H460.062L457.214 44.3512C457.201 42.2023 456.728 40.081 455.827 38.13C454.991 36.292 453.625 34.7447 451.905 33.6854C450.185 32.6261 448.189 32.1028 446.17 32.1824C443.785 32.1344 441.435 32.7673 439.397 34.0068C437.539 35.1348 436.053 36.7845 435.126 38.7503C434.13 40.8919 433.631 43.2305 433.665 45.5918C433.616 47.9753 434.215 50.3274 435.4 52.3968C436.54 54.379 438.2 56.0127 440.201 57.122C442.336 58.3358 444.754 58.9651 447.21 58.9464C450.094 58.8664 452.892 57.947 455.261 56.301C455.92 55.8195 456.709 55.5463 457.525 55.5166C458.299 55.4729 459.059 55.735 459.642 56.2463C459.994 56.5227 460.287 56.867 460.504 57.2587C460.72 57.6505 460.855 58.0817 460.902 58.5268C460.916 58.9508 460.821 59.3714 460.626 59.7483C460.431 60.1252 460.142 60.4459 459.788 60.6796C458.012 61.9799 456.023 62.9614 453.91 63.5804C451.751 64.3064 449.488 64.6762 447.21 64.6751Z" fill="#02665E"/>
<path d="M476.035 64.4744C475.566 64.4894 475.099 64.4081 474.662 64.2355C474.226 64.0629 473.829 63.8027 473.498 63.4709C473.169 63.1368 472.911 62.7402 472.739 62.3046C472.566 61.869 472.483 61.4033 472.494 60.935V29.9202C472.473 29.4453 472.552 28.9714 472.725 28.5286C472.898 28.0857 473.161 27.6836 473.498 27.3478C473.833 27.0219 474.23 26.7667 474.666 26.5975C475.102 26.4282 475.568 26.3484 476.035 26.3626C476.517 26.3345 476.999 26.4105 477.449 26.5855C477.899 26.7604 478.306 27.0303 478.642 27.3765C478.978 27.7228 479.235 28.1374 479.397 28.5921C479.558 29.0468 479.619 29.5309 479.577 30.0114V61.0262C479.594 61.4922 479.518 61.957 479.351 62.3928C479.185 62.8285 478.933 63.2262 478.609 63.5622C478.267 63.8849 477.862 64.1328 477.418 64.2899C476.975 64.447 476.504 64.5098 476.035 64.4744ZM504.604 64.4744C504.135 64.4916 503.667 64.4113 503.23 64.2386C502.793 64.0659 502.397 63.8045 502.067 63.4709C501.731 63.1409 501.468 62.7454 501.292 62.3092C501.116 61.8729 501.032 61.4052 501.044 60.935V43.8586C501.14 41.6166 500.642 39.389 499.602 37.4002C498.682 35.8243 497.317 34.555 495.677 33.7514C493.902 32.9202 491.96 32.5082 490 32.5473C488.174 32.5185 486.367 32.9184 484.724 33.7149C483.263 34.4464 482.008 35.5314 481.073 36.8712C480.138 38.2065 479.646 39.8021 479.668 41.4322H475.305C475.252 38.6809 475.987 35.9719 477.422 33.6237C478.83 31.3108 480.835 29.42 483.228 28.1505C485.759 26.7799 488.6 26.0825 491.479 26.1254C494.467 26.0756 497.419 26.785 500.059 28.187C502.601 29.5571 504.683 31.6446 506.046 34.1893C507.594 37.1911 508.348 40.5384 508.237 43.9133V60.9897C508.25 61.4599 508.165 61.9276 507.989 62.3639C507.814 62.8001 507.55 63.1956 507.215 63.5257C506.872 63.8597 506.462 64.1171 506.011 64.2806C505.561 64.4442 505.082 64.5102 504.604 64.4744Z" fill="#02665E"/>
<path d="M524.119 20.2509C523.008 20.1101 521.986 19.5692 521.246 18.7295C520.505 17.8898 520.097 16.8091 520.097 15.6899C520.097 14.5706 520.505 13.4899 521.246 12.6502C521.986 11.8105 523.008 11.2696 524.119 11.1288C525.23 11.2696 526.251 11.8105 526.992 12.6502C527.732 13.4899 528.141 14.5706 528.141 15.6899C528.141 16.8091 527.732 17.8898 526.992 18.7295C526.251 19.5692 525.23 20.1101 524.119 20.2509ZM524.119 64.4014C523.649 64.4166 523.182 64.3354 522.746 64.163C522.309 63.9905 521.913 63.7303 521.581 63.3986C521.249 63.0668 520.988 62.6706 520.816 62.2343C520.643 61.798 520.562 61.3309 520.577 60.862V29.9749C520.554 29.4996 520.631 29.0247 520.804 28.5814C520.977 28.1381 521.242 27.7363 521.581 27.4025C522.075 26.8813 522.716 26.5232 523.419 26.3762C524.122 26.2293 524.853 26.3005 525.514 26.5803C526.175 26.8602 526.735 27.3352 527.119 27.9419C527.502 28.5486 527.691 29.2579 527.66 29.9749V60.862C527.674 61.3275 527.595 61.7912 527.429 62.2263C527.263 62.6615 527.013 63.0596 526.693 63.3979C526.357 63.7343 525.954 63.9972 525.511 64.1699C525.068 64.3427 524.594 64.4215 524.119 64.4014Z" fill="#02665E"/>
<path d="M556.832 64.748C553.845 64.7994 550.894 64.0966 548.252 62.7047C545.723 61.3232 543.649 59.2381 542.282 56.7024C540.736 53.7 539.982 50.3531 540.092 46.9783V29.9019C540.081 29.4336 540.164 28.9679 540.337 28.5323C540.509 28.0967 540.767 27.7001 541.096 27.366C541.591 26.8572 542.228 26.5091 542.924 26.3668C543.62 26.2246 544.343 26.2947 544.998 26.5682C545.654 26.8416 546.212 27.3057 546.6 27.9002C546.988 28.4948 547.188 29.1922 547.175 29.9019V46.9783C547.091 49.2097 547.595 51.424 548.635 53.4002C549.544 55.0209 550.926 56.3258 552.596 57.1402C554.351 57.9764 556.276 58.3948 558.219 58.3626C560.066 58.4044 561.895 57.9974 563.549 57.1767C565.02 56.4431 566.278 55.3436 567.2 53.984C568.123 52.6639 568.608 51.0879 568.588 49.4778H572.969C573.001 52.2149 572.267 54.9065 570.851 57.2497C569.444 59.55 567.454 61.4381 565.083 62.7229C562.552 64.0936 559.71 64.7909 556.832 64.748ZM572.202 64.4014C571.733 64.4186 571.265 64.3383 570.828 64.1656C570.392 63.9929 569.995 63.7315 569.665 63.3979C569.33 63.0679 569.066 62.6724 568.89 62.2362C568.714 61.7999 568.63 61.3322 568.643 60.862V29.8472C568.621 29.3706 568.702 28.8949 568.878 28.4514C569.054 28.008 569.322 27.607 569.665 27.2748C570 26.9496 570.398 26.6961 570.834 26.5298C571.27 26.3636 571.736 26.2881 572.202 26.3079C572.674 26.2815 573.147 26.3549 573.588 26.5234C574.03 26.692 574.431 26.9518 574.765 27.2858C575.1 27.6199 575.359 28.0208 575.528 28.4621C575.697 28.9035 575.77 29.3755 575.744 29.8472V60.862C575.758 61.3292 575.678 61.7944 575.509 62.2301C575.339 62.6658 575.084 63.0629 574.758 63.3979C574.427 63.7357 574.028 63.9996 573.587 64.1726C573.147 64.3455 572.675 64.4235 572.202 64.4014Z" fill="#02665E"/>
<path d="M602.067 64.675C599.005 64.7055 595.96 64.2055 593.068 63.1972C590.675 62.414 588.483 61.119 586.642 59.4025C586.311 59.0763 586.06 58.6769 585.911 58.2365C585.762 57.7961 585.719 57.3269 585.784 56.8666C585.835 56.4074 585.981 55.964 586.214 55.5649C586.446 55.1658 586.76 54.8199 587.135 54.5496C587.502 54.213 587.935 53.9553 588.406 53.7921C588.877 53.6289 589.376 53.5639 589.873 53.6009C590.772 53.7209 591.599 54.1537 592.21 54.8232C593.287 55.8949 594.573 56.7333 595.989 57.2862C597.821 58.0725 599.799 58.4641 601.794 58.4356C603.925 58.5616 606.051 58.1076 607.946 57.122C608.572 56.7873 609.101 56.2981 609.485 55.7009C609.868 55.1038 610.093 54.4185 610.136 53.7104C610.143 52.9831 609.964 52.2663 609.615 51.6277C609.267 50.9891 608.762 50.45 608.146 50.0616C605.86 48.7166 603.316 47.8652 600.68 47.5621C596.989 47.0512 593.486 45.6208 590.494 43.4025C589.496 42.5728 588.695 41.5319 588.149 40.3551C587.603 39.1782 587.325 37.8947 587.336 36.5975C587.257 34.4461 588.001 32.3454 589.417 30.7229C590.875 29.1307 592.716 27.9375 594.765 27.2565C596.954 26.4903 599.256 26.1017 601.575 26.1072C604.358 26.0593 607.123 26.5551 609.716 27.5667C611.902 28.4123 613.837 29.7998 615.339 31.5986C615.636 31.9049 615.869 32.268 616.022 32.6661C616.176 33.0642 616.248 33.4892 616.233 33.9156C616.208 34.3254 616.09 34.7241 615.888 35.0813C615.685 35.4386 615.404 35.7449 615.065 35.9772C614.678 36.2303 614.245 36.4027 613.79 36.4843C613.335 36.5658 612.869 36.5546 612.418 36.4515C611.458 36.2959 610.564 35.8649 609.844 35.2109C608.794 34.1628 607.512 33.3755 606.102 32.9122C604.59 32.4733 603.021 32.2643 601.447 32.2919C599.662 32.2393 597.889 32.595 596.262 33.3318C595.645 33.5693 595.113 33.9867 594.735 34.5299C594.357 35.0732 594.152 35.7172 594.145 36.3785C594.135 37.1811 594.363 37.9685 594.802 38.6408C595.472 39.494 596.381 40.129 597.412 40.4652C599.261 41.1535 601.167 41.6785 603.108 42.0342C605.961 42.5239 608.732 43.4081 611.341 44.6613C613.083 45.4786 614.58 46.7364 615.686 48.3102C616.577 49.7834 617.032 51.4784 617 53.1995C617.024 55.2477 616.433 57.256 615.302 58.9646C614.057 60.7778 612.322 62.201 610.3 63.0696C607.705 64.1948 604.896 64.7426 602.067 64.675Z" fill="#02665E"/>
<path d="M120.41 65.1859C120.131 65.1971 119.852 65.1512 119.592 65.0507C119.331 64.9503 119.094 64.7976 118.895 64.6021C118.702 64.4011 118.55 64.1637 118.45 63.9037C118.35 63.6437 118.302 63.3663 118.31 63.0878V29.008C118.297 28.7234 118.342 28.4392 118.443 28.1725C118.543 27.9059 118.697 27.6625 118.895 27.4572C119.311 27.0875 119.853 26.8915 120.41 26.9099C120.692 26.8848 120.976 26.9218 121.242 27.0183C121.508 27.1149 121.75 27.2686 121.95 27.4687C122.15 27.6688 122.304 27.9103 122.401 28.1763C122.497 28.4422 122.534 28.7262 122.509 29.008V63.0878C122.521 63.3652 122.477 63.6421 122.379 63.9021C122.282 64.1622 122.134 64.4002 121.943 64.6021C121.745 64.8047 121.506 64.9619 121.241 65.0627C120.976 65.1635 120.692 65.2055 120.41 65.1859ZM145.839 65.1859C145.56 65.1989 145.281 65.1535 145.021 65.0526C144.76 64.9518 144.523 64.7977 144.326 64.6002C144.128 64.4028 143.974 64.1663 143.873 63.9058C143.772 63.6454 143.727 63.3668 143.74 63.0878V42.8552C143.876 39.672 142.865 36.5456 140.892 34.0433C140.01 32.9382 138.883 32.053 137.6 31.4578C136.317 30.8626 134.913 30.5735 133.499 30.6134C132.036 30.5588 130.578 30.8082 129.217 31.3459C127.857 31.8836 126.622 32.6979 125.592 33.7373C124.563 34.7766 123.76 36.0182 123.236 37.3836C122.711 38.749 122.476 40.2084 122.546 41.6693H119.004C119.091 38.9058 119.822 36.2007 121.14 33.7697C122.349 31.5277 124.124 29.6408 126.288 28.2965C128.465 26.993 130.961 26.3173 133.499 26.3444C136.166 26.3048 138.784 27.0606 141.02 28.5154C143.204 29.9825 144.951 32.0122 146.076 34.39C147.345 37.054 147.97 39.9785 147.902 42.9282V63.1608C147.913 63.4382 147.869 63.715 147.772 63.9751C147.675 64.2352 147.527 64.4732 147.336 64.675C147.135 64.8579 146.898 64.9976 146.64 65.0855C146.383 65.1734 146.11 65.2075 145.839 65.1859ZM171.049 65.1859C170.77 65.1971 170.492 65.1512 170.231 65.0507C169.97 64.9503 169.733 64.7976 169.534 64.6021C169.341 64.4011 169.19 64.1637 169.089 63.9037C168.989 63.6437 168.942 63.3663 168.95 63.0878V42.8552C169.086 39.672 168.075 36.5456 166.102 34.0433C165.229 32.9506 164.117 32.073 162.851 31.4783C161.585 30.8836 160.199 30.5877 158.8 30.6134C157.334 30.5579 155.874 30.8138 154.514 31.3642C153.155 31.9145 151.928 32.7468 150.914 33.8061C149.873 34.9635 149.078 36.3206 148.579 37.7949C148.08 39.2691 147.887 40.8295 148.011 42.3809H143.813C143.826 39.4495 144.546 36.5646 145.912 33.9704C147.141 31.6657 148.978 29.7413 151.224 28.4059C153.521 27.066 156.141 26.3784 158.8 26.4173C161.448 26.3589 164.053 27.0892 166.285 28.5154C168.471 29.9538 170.225 31.9592 171.359 34.317C172.628 36.981 173.254 39.9056 173.185 42.8552V63.0878C173.197 63.3652 173.152 63.6421 173.055 63.9021C172.958 64.1622 172.81 64.4002 172.619 64.6021C172.417 64.8096 172.171 64.9697 171.9 65.0707C171.628 65.1717 171.338 65.211 171.049 65.1859Z" fill="#02665E"/>
<path d="M202.557 65.6055C199.042 65.6665 195.575 64.7845 192.517 63.0513C189.594 61.3949 187.172 58.9809 185.507 56.0639C183.823 52.9872 182.94 49.5366 182.94 46.0297C182.94 42.5227 183.823 39.0721 185.507 35.9954C187.172 33.0784 189.594 30.6644 192.517 29.008C195.597 27.3281 199.049 26.4479 202.557 26.4479C206.066 26.4479 209.518 27.3281 212.597 29.008C215.487 30.6938 217.875 33.1182 219.516 36.0319C221.243 39.0978 222.125 42.5666 222.072 46.0844L220.246 48.8757C220.291 51.8878 219.474 54.85 217.891 57.4139C216.345 59.9366 214.16 62.007 211.557 63.4162C208.789 64.8919 205.694 65.645 202.557 65.6055ZM202.557 61.7013C205.328 61.7489 208.057 61.0291 210.443 59.6214C212.74 58.2814 214.632 56.3463 215.92 54.0205C217.238 51.5696 217.928 48.8304 217.928 46.0479C217.928 43.2653 217.238 40.5262 215.92 38.0753C214.632 35.7495 212.74 33.8144 210.443 32.4743C208.686 31.4335 206.739 30.7516 204.716 30.468C202.692 30.1845 200.633 30.305 198.656 30.8226C196.68 31.3401 194.826 32.2444 193.202 33.4831C191.578 34.7218 190.216 36.2703 189.195 38.0388C187.854 40.4825 187.151 43.2245 187.151 46.0114C187.151 48.7983 187.854 51.5403 189.195 53.984C190.533 56.3395 192.479 58.294 194.828 59.6446C197.178 60.9952 199.847 61.6927 202.557 61.6648V61.7013ZM220.082 65.1859C219.791 65.2018 219.501 65.1582 219.228 65.0578C218.954 64.9574 218.705 64.8024 218.494 64.602C218.301 64.4011 218.15 64.1637 218.049 63.9037C217.949 63.6437 217.902 63.3663 217.91 63.0878V50.317L219.242 46.1209H222.108V63.1243C222.12 63.4017 222.076 63.6785 221.979 63.9386C221.881 64.1987 221.733 64.4367 221.542 64.6385C221.355 64.8319 221.126 64.9813 220.874 65.0759C220.621 65.1706 220.351 65.2081 220.082 65.1859Z" fill="#02665E"/>
<path d="M234.704 65.1859C234.428 65.1968 234.152 65.1506 233.895 65.0501C233.637 64.9497 233.403 64.7971 233.207 64.6021C233.008 64.4045 232.852 64.1681 232.749 63.9076C232.645 63.647 232.596 63.368 232.605 63.0878V29.008C232.59 28.7216 232.636 28.4353 232.739 28.168C232.843 27.9006 233.003 27.6584 233.207 27.4572C233.636 27.1028 234.175 26.9088 234.732 26.9088C235.288 26.9088 235.827 27.1028 236.256 27.4572C236.448 27.6658 236.596 27.9101 236.693 28.1762C236.791 28.4424 236.834 28.725 236.822 29.008V63.0878C236.837 63.6469 236.634 64.1899 236.256 64.6021C236.053 64.8032 235.81 64.9592 235.543 65.0598C235.275 65.1604 234.989 65.2034 234.704 65.1859ZM234.011 41.8153C234.229 39.0159 235.064 36.2995 236.457 33.8609C237.726 31.6277 239.533 29.7465 241.714 28.3877C243.869 27.0788 246.349 26.4023 248.87 26.4356C250.273 26.373 251.674 26.5837 252.996 27.0559C253.433 27.2172 253.792 27.5395 253.999 27.9567C254.206 28.3739 254.245 28.8545 254.109 29.2999C254.091 29.582 253.99 29.8524 253.817 30.0766C253.645 30.3008 253.41 30.4687 253.142 30.5587C252.54 30.6841 251.918 30.6841 251.316 30.5587C250.519 30.4379 249.713 30.377 248.907 30.3763C246.734 30.3366 244.587 30.8449 242.663 31.8541C240.895 32.7788 239.416 34.1741 238.392 35.886C237.351 37.6533 236.821 39.6739 236.858 41.7241L234.011 41.8153Z" fill="#02665E"/>
<path d="M277.932 65.6055C274.38 65.6801 270.871 64.8113 267.764 63.0878C264.862 61.4527 262.463 59.0553 260.827 56.1551C259.15 53.05 258.271 49.5767 258.271 46.0479C258.271 42.5191 259.15 39.0458 260.827 35.9407C262.508 33.0374 264.942 30.642 267.874 29.008C270.963 27.3582 274.411 26.4952 277.914 26.4952C281.416 26.4952 284.865 27.3582 287.954 29.008C290.843 30.6483 293.228 33.0453 294.854 35.9407C296.576 39.0402 297.445 42.5401 297.374 46.0844L294.927 48.8757C294.984 51.9114 294.234 54.9077 292.755 57.5599C291.333 60.0494 289.248 62.0956 286.731 63.4709C284.027 64.9178 280.999 65.6525 277.932 65.6055ZM278.206 79.8175C275.017 79.9363 271.846 79.3008 268.95 77.963C266.054 76.6251 263.514 74.6226 261.539 72.1186C261.18 71.7166 260.979 71.198 260.973 70.6591C260.976 70.3982 261.04 70.1417 261.161 69.9103C261.281 69.6789 261.455 69.4792 261.667 69.3272C261.911 69.1725 262.184 69.0685 262.47 69.0215C262.755 68.9745 263.047 68.9854 263.328 69.0536C263.617 69.0859 263.896 69.1831 264.142 69.3379C264.389 69.4927 264.597 69.7011 264.752 69.9476C266.27 71.7354 268.132 73.1996 270.228 74.2531C272.695 75.4483 275.411 76.0363 278.151 75.9681C280.878 76.0161 283.562 75.2885 285.891 73.87C288.165 72.4698 290.014 70.4767 291.24 68.1049C292.573 65.5693 293.251 62.7409 293.211 59.8769V48.748L295.037 46.1573H297.355V59.8769C297.409 63.4423 296.541 66.9613 294.836 70.0935C293.227 73.0512 290.858 75.5263 287.972 77.2634C285.034 78.9801 281.682 79.8631 278.279 79.8175H278.206ZM277.932 61.756C280.71 61.8037 283.451 61.111 285.873 59.7491C288.174 58.4709 290.07 56.5751 291.349 54.2759C292.645 51.7655 293.32 48.9819 293.32 46.1573C293.32 43.3328 292.645 40.5492 291.349 38.0388C290.07 35.7396 288.174 33.8438 285.873 32.5656C283.451 31.2037 280.71 30.511 277.932 30.5587C275.136 30.5118 272.378 31.2041 269.936 32.5656C267.635 33.8422 265.737 35.7384 264.46 38.0388C263.165 40.5492 262.489 43.3328 262.489 46.1573C262.489 48.9819 263.165 51.7655 264.46 54.2759C265.737 56.5763 267.635 58.4725 269.936 59.7491C272.378 61.1106 275.136 61.8029 277.932 61.756Z" fill="#02665E"/>
<path d="M311.485 18.8461C311.061 18.8538 310.64 18.7754 310.248 18.6154C309.856 18.4555 309.5 18.2174 309.203 17.9156C308.892 17.609 308.647 17.242 308.484 16.8372C308.321 16.4324 308.242 15.9984 308.254 15.5621C308.222 15.1086 308.298 14.654 308.476 14.2355C308.653 13.8169 308.927 13.4463 309.276 13.1539C309.911 12.6255 310.713 12.3408 311.539 12.3512C312.348 12.3474 313.131 12.6321 313.748 13.1539C314.097 13.4463 314.371 13.8169 314.549 14.2355C314.726 14.654 314.802 15.1086 314.771 15.5621C314.781 15.9961 314.702 16.4276 314.541 16.8305C314.379 17.2335 314.138 17.5995 313.83 17.9064C313.523 18.2134 313.157 18.4549 312.754 18.6164C312.351 18.7779 311.919 18.856 311.485 18.8461ZM311.485 65.1859C311.208 65.1968 310.933 65.1506 310.675 65.0501C310.418 64.9497 310.184 64.7971 309.988 64.602C309.789 64.4044 309.633 64.168 309.529 63.9075C309.425 63.647 309.376 63.368 309.385 63.0878V29.008C309.37 28.7216 309.416 28.4353 309.52 28.1679C309.624 27.9006 309.783 27.6583 309.988 27.4572C310.276 27.1221 310.663 26.8872 311.093 26.7866C311.523 26.686 311.974 26.7249 312.381 26.8976C312.788 27.0704 313.129 27.368 313.355 27.7474C313.581 28.1268 313.68 28.5683 313.639 29.008V63.0878C313.659 63.6443 313.463 64.1871 313.091 64.602C312.888 64.8032 312.645 64.9592 312.378 65.0598C312.11 65.1604 311.825 65.2034 311.539 65.1859H311.485Z" fill="#02665E"/>
<path d="M329.758 65.1859C329.479 65.1971 329.2 65.1512 328.94 65.0507C328.679 64.9503 328.442 64.7976 328.243 64.602C328.05 64.4011 327.899 64.1637 327.798 63.9037C327.698 63.6437 327.651 63.3663 327.659 63.0878V29.008C327.646 28.7234 327.691 28.4391 327.791 28.1725C327.891 27.9059 328.045 27.6625 328.243 27.4572C328.659 27.0874 329.201 26.8915 329.758 26.9099C330.04 26.8848 330.324 26.9218 330.59 27.0183C330.856 27.1149 331.098 27.2686 331.298 27.4687C331.498 27.6688 331.652 27.9103 331.749 28.1763C331.845 28.4422 331.882 28.7262 331.857 29.008V63.0878C331.869 63.3652 331.825 63.642 331.728 63.9021C331.63 64.1622 331.482 64.4002 331.291 64.602C331.093 64.8047 330.854 64.9619 330.589 65.0627C330.324 65.1635 330.041 65.2055 329.758 65.1859ZM360.791 65.1859C360.512 65.1989 360.233 65.1535 359.973 65.0526C359.712 64.9518 359.476 64.7977 359.278 64.6002C359.08 64.4028 358.926 64.1663 358.825 63.9058C358.724 63.6454 358.679 63.3668 358.692 63.0878V44.26C358.781 41.6002 358.15 38.9656 356.867 36.634C355.726 34.6902 354.045 33.1186 352.029 32.1095C349.877 31.1417 347.543 30.6414 345.183 30.6414C342.823 30.6414 340.49 31.1417 338.338 32.1095C336.428 32.9768 334.783 34.337 333.573 36.0502C332.388 37.705 331.749 39.6888 331.748 41.7241H328.243C328.398 38.9375 329.293 36.2425 330.835 33.9156C332.364 31.6256 334.433 29.746 336.859 28.4424C339.381 27.1025 342.2 26.4186 345.056 26.4538C348.22 26.3983 351.351 27.1054 354.183 28.5154C356.841 29.8567 359.044 31.9507 360.518 34.5359C362.153 37.5223 362.954 40.8939 362.836 44.2965V63.1243C362.845 63.4045 362.796 63.6835 362.692 63.944C362.589 64.2045 362.433 64.4409 362.234 64.6385C362.041 64.8203 361.815 64.9622 361.567 65.0561C361.32 65.15 361.056 65.1942 360.791 65.1859Z" fill="#02665E"/>
<path d="M89.9058 96H6.2432C4.58888 95.9952 3.0037 95.3363 1.83391 94.1672C0.664128 92.9981 0.0048161 91.4139 0 89.7606V6.23947C0.0048161 4.58614 0.664128 3.00188 1.83391 1.8328C3.0037 0.663718 4.58888 0.00480558 6.2432 -7.62939e-06H89.9058C91.5601 0.00480558 93.1453 0.663718 94.3151 1.8328C95.4848 3.00188 96.1441 4.58614 96.149 6.23947V89.7606C96.1441 91.4139 95.4848 92.9981 94.3151 94.1672C93.1453 95.3363 91.5601 95.9952 89.9058 96Z" fill="#02665E"/>
<path d="M17.5248 69.5279C17.0402 69.5476 16.5566 69.4707 16.1021 69.3015C15.6476 69.1324 15.2314 68.8744 14.8778 68.5428C14.53 68.2059 14.2574 67.7993 14.0781 67.3496C13.8988 66.9 13.8167 66.4175 13.8373 65.9338V26.4538C13.8183 25.9649 13.901 25.4775 14.0801 25.0221C14.2592 24.5668 14.5308 24.1536 14.8778 23.8084C15.2234 23.4631 15.6374 23.1939 16.0932 23.0179C16.5491 22.842 17.0367 22.7632 17.5248 22.7868C18.0073 22.7638 18.4893 22.843 18.9391 23.019C19.389 23.1951 19.7966 23.4641 20.1352 23.8084C20.4671 24.1618 20.7252 24.5778 20.8945 25.032C21.0637 25.4862 21.1407 25.9695 21.121 26.4538V65.9338C21.1595 66.4228 21.0914 66.9143 20.9215 67.3744C20.7516 67.8345 20.484 68.2524 20.1369 68.5992C19.7899 68.946 19.3718 69.2135 18.9114 69.3833C18.451 69.5531 17.9592 69.6211 17.47 69.5827L17.5248 69.5279ZM47.0248 69.5279C46.0585 69.5579 45.1197 69.2036 44.4144 68.5428C44.058 68.2106 43.7774 67.8057 43.5916 67.3555C43.4057 66.9054 43.319 66.4205 43.3373 65.9338V41.4139C43.5644 38.0998 42.4905 34.8277 40.3435 32.2919C39.3678 31.2372 38.1765 30.4047 36.8504 29.8506C35.5244 29.2966 34.0946 29.0341 32.6582 29.0809C31.1202 29.0297 29.5885 29.3003 28.1613 29.8752C26.7341 30.4501 25.4429 31.3168 24.3704 32.4196C23.2771 33.5665 22.426 34.9216 21.8678 36.4041C21.3095 37.8867 21.0555 39.4663 21.121 41.049H16.2469C16.23 37.6493 17.0314 34.2954 18.5836 31.2702C19.6943 29.249 21.197 27.4693 23.0039 26.0352C24.8108 24.6011 26.8856 23.5414 29.1071 22.918C31.3286 22.2946 33.6521 22.12 35.9419 22.4045C38.2316 22.6889 40.4417 23.4267 42.4428 24.5747C45.055 26.1522 47.1538 28.4525 48.4852 31.1973C49.9994 34.386 50.7435 37.8854 50.6576 41.4139V65.9338C50.6771 66.4157 50.5963 66.8964 50.4203 67.3455C50.2444 67.7946 49.9771 68.2023 49.6353 68.5428C48.93 69.2036 47.9912 69.5579 47.0248 69.5279ZM76.4336 69.5279C75.949 69.5476 75.4654 69.4707 75.0109 69.3015C74.5564 69.1324 74.1402 68.8744 73.7866 68.5428C73.4421 68.2043 73.1729 67.797 72.9968 67.3474C72.8206 66.8978 72.7414 66.4161 72.7643 65.9338V41.4139C72.9915 38.0998 71.9176 34.8277 69.7705 32.2919C68.7898 31.2387 67.595 30.4073 66.2663 29.8535C64.9377 29.2996 63.5058 29.0363 62.0669 29.0809C60.5235 29.0478 58.9906 29.3412 57.5686 29.9417C56.1466 30.5422 54.8676 31.4364 53.8157 32.5656C52.7258 33.7727 51.8882 35.1853 51.3521 36.7205C50.8161 38.2556 50.5924 39.8824 50.6941 41.5051H44.3779C44.3542 38.0021 45.201 34.548 46.8423 31.4527C48.3507 28.6239 50.6207 26.2731 53.3958 24.6659C56.3354 23.0328 59.6534 22.2022 63.0162 22.2577C66.1121 22.2084 69.1621 23.0099 71.8333 24.5747C74.4341 26.1497 76.5158 28.4522 77.821 31.1973C79.3136 34.392 80.0447 37.8891 79.9568 41.4139V65.9338C79.9952 66.4228 79.9272 66.9143 79.7573 67.3744C79.5874 67.8345 79.3198 68.2524 78.9727 68.5992C78.6257 68.946 78.2076 69.2135 77.7472 69.3833C77.2868 69.5531 76.795 69.6211 76.3058 69.5827L76.4336 69.5279Z" fill="#04D68F"/>
<path d="M63.2718 48.0182H87.5874V72.3193H63.2718V48.0182Z" fill="#02665E"/>
<path d="M82.1656 52.634V61.6283H85.8167V52.634C85.8167 51.9225 84.9952 51.3386 83.9911 51.3386C82.9871 51.3386 82.1656 51.8495 82.1656 52.634Z" fill="white"/>
<path d="M83.261 60.3512H83.1697C83.0284 60.4538 82.91 60.5846 82.822 60.7353C82.734 60.8861 82.6783 61.0535 82.6585 61.2269C82.6585 61.9384 83.48 62.504 84.484 62.504C85.4881 62.504 86.3095 61.9384 86.3095 61.2269C86.3095 60.5336 85.4881 59.9681 84.484 59.9681C84.0448 59.9547 83.6139 60.0896 83.261 60.3512Z" fill="white"/>
<path d="M74.5898 73.4869C72.8293 73.5243 71.0938 73.0649 69.5827 72.1613C68.0715 71.2577 66.8459 69.9467 66.0465 68.3786C65.1866 66.684 64.7542 64.8051 64.7869 62.9054C64.7573 60.9951 65.2226 59.1096 66.1378 57.4322C66.9985 55.8459 68.2727 54.522 69.8253 53.6009C71.5115 52.7048 73.392 52.2363 75.3018 52.2363C77.2115 52.2363 79.0921 52.7048 80.7783 53.6009C82.3079 54.5071 83.5681 55.8044 84.4293 57.3592C85.3444 59.0366 85.8098 60.9221 85.7801 62.8324H83.6078C83.6432 64.7221 83.2434 66.5948 82.4395 68.3056C81.7372 69.821 80.6322 71.1147 79.2449 72.0456C77.8773 72.9908 76.2525 73.4939 74.5898 73.4869ZM75.3018 82.0069C73.548 82.0209 71.8115 81.6602 70.2086 80.9487C68.635 80.2354 67.2526 79.1601 66.1743 77.8107C66.0188 77.6258 65.9056 77.4092 65.8426 77.176C65.7795 76.9428 65.7681 76.6987 65.8092 76.4607C65.854 76.2373 65.9434 76.0253 66.072 75.8372C66.2006 75.6492 66.3658 75.4889 66.5576 75.366C66.7632 75.2169 66.9976 75.1123 67.246 75.0589C67.4943 75.0055 67.751 75.0044 67.9998 75.0559C68.2418 75.0961 68.4733 75.1847 68.6803 75.3164C68.8873 75.448 69.0656 75.62 69.2046 75.8221C69.9033 76.6855 70.7899 77.3781 71.7968 77.8472C72.9461 78.3535 74.1921 78.6025 75.4478 78.577C76.6396 78.5904 77.8128 78.2815 78.8432 77.683C79.9033 77.0824 80.7611 76.1808 81.3077 75.0924C81.9642 73.7869 82.2842 72.3383 82.2387 70.878V65.4048L83.4983 62.0479L85.9809 62.8506V71.1152C86.0049 73.0226 85.5465 74.9052 84.6483 76.5884C83.7524 78.2472 82.4124 79.6242 80.7783 80.5656C79.1212 81.5428 77.2255 82.0417 75.3018 82.0069ZM75.3018 70.0388C76.5878 70.0645 77.8545 69.7227 78.9528 69.0536C79.9691 68.4455 80.7969 67.5677 81.3442 66.5177C81.9387 65.3944 82.2401 64.1394 82.2204 62.8689C82.2347 61.5989 81.9336 60.3452 81.3442 59.2201C80.8029 58.1611 79.9741 57.2759 78.9528 56.6659C77.8759 56.075 76.6672 55.7653 75.4387 55.7653C74.2102 55.7653 73.0015 56.075 71.9246 56.6659C70.9011 57.2847 70.0626 58.1668 69.4967 59.2201C68.9073 60.3452 68.6062 61.5989 68.6205 62.8689C68.6008 64.1394 68.9021 65.3944 69.4967 66.5177C70.0486 67.5798 70.882 68.4699 71.9057 69.0909C72.9295 69.7118 74.1042 70.0397 75.3018 70.0388Z" fill="white"/>
</g>
<defs>
<clipPath id="clip0_6782_447883">
<rect width="617" height="96" fill="white"/>
</clipPath>
</defs>
</svg>
