<svg width="97" height="96" viewBox="0 0 97 96" fill="none" xmlns="http://www.w3.org/2000/svg">
<path d="M89.9058 96H6.2432C4.58888 95.9952 3.0037 95.3363 1.83391 94.1672C0.664128 92.9981 0.0048161 91.4139 0 89.7606V6.23947C0.0048161 4.58614 0.664128 3.00188 1.83391 1.8328C3.0037 0.663718 4.58888 0.00480558 6.2432 -7.62939e-06H89.9058C91.5601 0.00480558 93.1453 0.663718 94.3151 1.8328C95.4848 3.00188 96.1441 4.58614 96.149 6.23947V89.7606C96.1441 91.4139 95.4848 92.9981 94.3151 94.1672C93.1453 95.3363 91.5601 95.9952 89.9058 96Z" fill="#02665E"/>
<path d="M17.5248 69.5279C17.0402 69.5476 16.5566 69.4707 16.1021 69.3015C15.6476 69.1324 15.2314 68.8744 14.8778 68.5428C14.53 68.2059 14.2574 67.7993 14.0781 67.3496C13.8988 66.9 13.8167 66.4175 13.8373 65.9338V26.4538C13.8183 25.9649 13.901 25.4775 14.0801 25.0221C14.2592 24.5668 14.5308 24.1536 14.8778 23.8084C15.2234 23.4631 15.6374 23.1939 16.0932 23.0179C16.5491 22.842 17.0367 22.7632 17.5248 22.7868C18.0073 22.7638 18.4893 22.843 18.9391 23.019C19.389 23.1951 19.7966 23.4641 20.1352 23.8084C20.4671 24.1618 20.7252 24.5778 20.8945 25.032C21.0637 25.4862 21.1407 25.9695 21.121 26.4538V65.9338C21.1595 66.4228 21.0914 66.9143 20.9215 67.3744C20.7516 67.8345 20.484 68.2524 20.1369 68.5992C19.7899 68.946 19.3718 69.2135 18.9114 69.3833C18.451 69.5531 17.9592 69.6211 17.47 69.5827L17.5248 69.5279ZM47.0248 69.5279C46.0585 69.5579 45.1197 69.2036 44.4144 68.5428C44.058 68.2106 43.7774 67.8057 43.5916 67.3555C43.4057 66.9054 43.319 66.4205 43.3373 65.9338V41.4139C43.5644 38.0998 42.4905 34.8277 40.3435 32.2919C39.3678 31.2372 38.1765 30.4047 36.8504 29.8506C35.5244 29.2966 34.0946 29.0341 32.6582 29.0809C31.1202 29.0297 29.5885 29.3003 28.1613 29.8752C26.7341 30.4501 25.4429 31.3168 24.3704 32.4196C23.2771 33.5665 22.426 34.9216 21.8678 36.4041C21.3095 37.8867 21.0555 39.4663 21.121 41.049H16.2469C16.23 37.6493 17.0314 34.2954 18.5836 31.2702C19.6943 29.249 21.197 27.4693 23.0039 26.0352C24.8108 24.6011 26.8856 23.5414 29.1071 22.918C31.3286 22.2946 33.6521 22.12 35.9419 22.4045C38.2316 22.6889 40.4417 23.4267 42.4428 24.5747C45.055 26.1522 47.1538 28.4525 48.4852 31.1973C49.9994 34.386 50.7435 37.8854 50.6576 41.4139V65.9338C50.6771 66.4157 50.5963 66.8964 50.4203 67.3455C50.2444 67.7946 49.9771 68.2023 49.6353 68.5428C48.93 69.2036 47.9912 69.5579 47.0248 69.5279ZM76.4336 69.5279C75.949 69.5476 75.4654 69.4707 75.0109 69.3015C74.5564 69.1324 74.1402 68.8744 73.7866 68.5428C73.4421 68.2043 73.1729 67.797 72.9968 67.3474C72.8206 66.8978 72.7414 66.4161 72.7643 65.9338V41.4139C72.9915 38.0998 71.9176 34.8277 69.7705 32.2919C68.7898 31.2387 67.595 30.4073 66.2663 29.8535C64.9377 29.2996 63.5058 29.0363 62.0669 29.0809C60.5235 29.0478 58.9906 29.3412 57.5686 29.9417C56.1466 30.5422 54.8676 31.4364 53.8157 32.5656C52.7258 33.7727 51.8882 35.1853 51.3521 36.7205C50.8161 38.2556 50.5924 39.8824 50.6941 41.5051H44.3779C44.3542 38.0021 45.201 34.548 46.8423 31.4527C48.3507 28.6239 50.6207 26.2731 53.3958 24.6659C56.3354 23.0328 59.6534 22.2022 63.0162 22.2577C66.1121 22.2084 69.1621 23.0099 71.8333 24.5747C74.4341 26.1497 76.5158 28.4522 77.821 31.1973C79.3136 34.392 80.0447 37.8891 79.9568 41.4139V65.9338C79.9952 66.4228 79.9272 66.9143 79.7573 67.3744C79.5874 67.8345 79.3198 68.2524 78.9727 68.5992C78.6257 68.946 78.2076 69.2135 77.7472 69.3833C77.2868 69.5531 76.795 69.6211 76.3058 69.5827L76.4336 69.5279Z" fill="#04D68F"/>
<path d="M63.2718 48.0182H87.5874V72.3193H63.2718V48.0182Z" fill="#02665E"/>
<path d="M82.1656 52.634V61.6283H85.8167V52.634C85.8167 51.9225 84.9952 51.3386 83.9911 51.3386C82.9871 51.3386 82.1656 51.8495 82.1656 52.634Z" fill="white"/>
<path d="M83.261 60.3512H83.1697C83.0284 60.4538 82.91 60.5846 82.822 60.7353C82.734 60.8861 82.6783 61.0535 82.6585 61.2269C82.6585 61.9384 83.48 62.504 84.484 62.504C85.4881 62.504 86.3095 61.9384 86.3095 61.2269C86.3095 60.5336 85.4881 59.9681 84.484 59.9681C84.0448 59.9547 83.6139 60.0896 83.261 60.3512Z" fill="white"/>
<path d="M74.5898 73.4869C72.8293 73.5243 71.0938 73.0649 69.5827 72.1613C68.0715 71.2577 66.8459 69.9467 66.0465 68.3786C65.1866 66.684 64.7542 64.8051 64.7869 62.9054C64.7573 60.9951 65.2226 59.1096 66.1378 57.4322C66.9985 55.8459 68.2727 54.522 69.8253 53.6009C71.5115 52.7048 73.392 52.2363 75.3018 52.2363C77.2115 52.2363 79.0921 52.7048 80.7783 53.6009C82.3079 54.5071 83.5681 55.8044 84.4293 57.3592C85.3444 59.0366 85.8098 60.9221 85.7801 62.8324H83.6078C83.6432 64.7221 83.2434 66.5948 82.4395 68.3056C81.7372 69.821 80.6322 71.1147 79.2449 72.0456C77.8773 72.9908 76.2525 73.4939 74.5898 73.4869ZM75.3018 82.0069C73.548 82.0209 71.8115 81.6602 70.2086 80.9487C68.635 80.2354 67.2526 79.1601 66.1743 77.8107C66.0188 77.6258 65.9056 77.4092 65.8426 77.176C65.7795 76.9428 65.7681 76.6987 65.8092 76.4607C65.854 76.2373 65.9434 76.0253 66.072 75.8372C66.2006 75.6492 66.3658 75.4889 66.5576 75.366C66.7632 75.2169 66.9976 75.1123 67.246 75.0589C67.4943 75.0055 67.751 75.0044 67.9998 75.0559C68.2418 75.0961 68.4733 75.1847 68.6803 75.3164C68.8873 75.448 69.0656 75.62 69.2046 75.8221C69.9033 76.6855 70.7899 77.3781 71.7968 77.8472C72.9461 78.3535 74.1921 78.6025 75.4478 78.577C76.6396 78.5904 77.8128 78.2815 78.8432 77.683C79.9033 77.0824 80.7611 76.1808 81.3077 75.0924C81.9642 73.7869 82.2842 72.3383 82.2387 70.878V65.4048L83.4983 62.0479L85.9809 62.8506V71.1152C86.0049 73.0226 85.5465 74.9052 84.6483 76.5884C83.7524 78.2472 82.4124 79.6242 80.7783 80.5656C79.1212 81.5428 77.2255 82.0417 75.3018 82.0069ZM75.3018 70.0388C76.5878 70.0645 77.8545 69.7227 78.9528 69.0536C79.9691 68.4455 80.7969 67.5677 81.3442 66.5177C81.9387 65.3944 82.2401 64.1394 82.2204 62.8689C82.2347 61.5989 81.9336 60.3452 81.3442 59.2201C80.8029 58.1611 79.9741 57.2759 78.9528 56.6659C77.8759 56.075 76.6672 55.7653 75.4387 55.7653C74.2102 55.7653 73.0015 56.075 71.9246 56.6659C70.9011 57.2847 70.0626 58.1668 69.4967 59.2201C68.9073 60.3452 68.6062 61.5989 68.6205 62.8689C68.6008 64.1394 68.9021 65.3944 69.4967 66.5177C70.0486 67.5798 70.882 68.4699 71.9057 69.0909C72.9295 69.7118 74.1042 70.0397 75.3018 70.0388Z" fill="white"/>
</svg>
