<svg width="127" height="110" viewBox="0 0 127 110" fill="none" xmlns="http://www.w3.org/2000/svg">
<path d="M64.075 5.46482C64.1712 5.17606 64.579 5.17606 64.6752 5.46482L65.2396 7.15969C65.3638 7.53227 65.5731 7.87079 65.8509 8.14842C66.1287 8.42605 66.4674 8.63517 66.84 8.75919L68.534 9.32356C68.8227 9.41981 68.8227 9.82757 68.534 9.92381L66.8391 10.4882C66.4665 10.6124 66.128 10.8217 65.8504 11.0995C65.5728 11.3773 65.3636 11.7159 65.2396 12.0886L64.6752 13.7826C64.6545 13.8458 64.6143 13.9009 64.5604 13.9399C64.5065 13.9789 64.4417 13.9999 64.3751 13.9999C64.3086 13.9999 64.2437 13.9789 64.1898 13.9399C64.1359 13.9009 64.0957 13.8458 64.075 13.7826L63.5106 12.0877C63.3865 11.7152 63.1773 11.3767 62.8997 11.0991C62.6221 10.8215 62.2836 10.6123 61.9111 10.4882L60.2162 9.92381C60.153 9.90306 60.098 9.86287 60.0589 9.80898C60.0199 9.75508 59.9989 9.69024 59.9989 9.62369C59.9989 9.55714 60.0199 9.4923 60.0589 9.4384C60.098 9.38451 60.153 9.34432 60.2162 9.32356L61.9111 8.75919C62.2836 8.63505 62.6221 8.42589 62.8997 8.14826C63.1773 7.87063 63.3865 7.53217 63.5106 7.15969L64.075 5.46482ZM60.6949 1.00319C60.7074 0.965297 60.7316 0.932323 60.7639 0.908952C60.7963 0.88558 60.8352 0.873001 60.8751 0.873001C60.915 0.873001 60.9539 0.88558 60.9863 0.908952C61.0187 0.932323 61.0428 0.965297 61.0554 1.00319L61.394 2.01994C61.5454 2.47319 61.9006 2.82844 62.3539 2.97982L63.3706 3.31844C63.4085 3.33099 63.4415 3.35516 63.4649 3.38752C63.4882 3.41987 63.5008 3.45877 63.5008 3.49869C63.5008 3.53861 63.4882 3.57751 63.4649 3.60986C63.4415 3.64222 63.4085 3.66639 63.3706 3.67894L62.3539 4.01756C62.1303 4.09204 61.9272 4.21756 61.7606 4.38417C61.594 4.55078 61.4685 4.7539 61.394 4.97744L61.0554 5.99419C61.0428 6.03208 61.0187 6.06506 60.9863 6.08843C60.9539 6.1118 60.915 6.12438 60.8751 6.12438C60.8352 6.12438 60.7963 6.1118 60.7639 6.08843C60.7316 6.06506 60.7074 6.03208 60.6949 5.99419L60.3562 4.97744C60.2818 4.7539 60.1563 4.55078 59.9896 4.38417C59.823 4.21756 59.6199 4.09204 59.3964 4.01756L58.3796 3.67894C58.3417 3.66639 58.3088 3.64222 58.2854 3.60986C58.262 3.57751 58.2494 3.53861 58.2494 3.49869C58.2494 3.45877 58.262 3.41987 58.2854 3.38752C58.3088 3.35516 58.3417 3.33099 58.3796 3.31844L59.3964 2.97982C59.6199 2.90534 59.823 2.77982 59.9896 2.61321C60.1563 2.4466 60.2818 2.24348 60.3562 2.01994L60.6949 1.00319ZM66.8802 0.0853148C66.8889 0.0604003 66.9051 0.0387962 66.9266 0.0235062C66.948 0.00821617 66.9738 0 67.0001 0C67.0265 0 67.0522 0.00821617 67.0737 0.0235062C67.0952 0.0387962 67.1114 0.0604003 67.12 0.0853148L67.3457 0.762565C67.4464 1.06531 67.6835 1.30244 67.9862 1.40306L68.6635 1.62881C68.6884 1.63745 68.71 1.65364 68.7253 1.67512C68.7406 1.69661 68.7488 1.72232 68.7488 1.74869C68.7488 1.77506 68.7406 1.80077 68.7253 1.82226C68.71 1.84374 68.6884 1.85993 68.6635 1.86856L67.9862 2.09431C67.837 2.14395 67.7015 2.22768 67.5903 2.33886C67.4791 2.45005 67.3954 2.58562 67.3457 2.73481L67.12 3.41207C67.1114 3.43698 67.0952 3.45858 67.0737 3.47387C67.0522 3.48916 67.0265 3.49738 67.0001 3.49738C66.9738 3.49738 66.948 3.48916 66.9266 3.47387C66.9051 3.45858 66.8889 3.43698 66.8802 3.41207L66.6545 2.73481C66.6049 2.58562 66.5211 2.45005 66.41 2.33886C66.2988 2.22768 66.1632 2.14395 66.014 2.09431L65.3376 1.86856C65.3127 1.85993 65.2911 1.84374 65.2758 1.82226C65.2605 1.80077 65.2523 1.77506 65.2523 1.74869C65.2523 1.72232 65.2605 1.69661 65.2758 1.67512C65.2911 1.65364 65.3127 1.63745 65.3376 1.62881L66.0149 1.40306C66.3176 1.30244 66.5547 1.06531 66.6554 0.762565L66.8802 0.0861898V0.0853148Z" fill="#04D68F"/>
<path d="M60.398 102.603C79.3587 102.603 94.7293 100.58 94.7293 98.0849C94.7293 95.5894 79.3587 93.5664 60.398 93.5664C41.4374 93.5664 26.0668 95.5894 26.0668 98.0849C26.0668 100.58 41.4374 102.603 60.398 102.603Z" fill="#D1D3D4"/>
<path d="M57.9533 50.8545C57.9533 50.8545 54.6767 51.2493 53.4733 51.329C52.27 51.4086 51.0286 52.2842 50.8254 52.4562C50.6222 52.6282 49.6633 53.9847 49.984 55.0291C50.3047 56.0736 51.6287 57.0798 52.1906 57.1594C52.7526 57.239 57.2484 54.9654 58.2517 54.1598L57.9533 50.8545Z" fill="white"/>
<path d="M52.2097 57.3191H52.1684C51.5175 57.2268 50.1555 56.1378 49.8284 55.0901C49.4728 53.931 50.5269 52.5013 50.7238 52.3389C50.7238 52.3389 52.0922 51.2689 53.4638 51.1798C54.6481 51.1002 57.9088 50.7085 57.9342 50.7053C57.9557 50.7027 57.9776 50.7044 57.9984 50.7104C58.0193 50.7163 58.0387 50.7265 58.0556 50.7401C58.0725 50.7538 58.0865 50.7707 58.0967 50.7899C58.1069 50.8091 58.1132 50.8301 58.1152 50.8518L58.4136 54.1603C58.4166 54.1874 58.4127 54.2147 58.4021 54.2398C58.3916 54.2649 58.3747 54.2869 58.3533 54.3036C57.423 55.0328 53.0225 57.3191 52.2097 57.3191ZM57.804 51.0301C57.1182 51.1129 54.5211 51.4186 53.4829 51.4887C52.4446 51.5587 51.2604 52.3166 50.9429 52.5777C50.7936 52.6955 49.8538 53.9947 50.1555 54.9755C50.4571 55.9562 51.7112 56.9179 52.2256 56.9911C52.7399 57.0644 56.9595 54.9373 58.093 54.0807L57.804 51.0301Z" fill="#231F20"/>
<path d="M50.4571 55.2554C50.4571 55.2554 52.651 57.166 53.3718 57.1851C54.0925 57.2042 53.6893 56.4591 53.6893 56.4591C53.6893 56.4591 54.3814 57.0036 54.5021 56.5515C54.6227 56.0993 54.4703 55.9146 54.4703 55.9146C54.4703 55.9146 55.0418 56.6979 55.1942 56.1248C55.3466 55.5516 55.2545 55.3701 55.2545 55.3701C55.2545 55.3701 55.7054 56.2776 55.9149 55.6439C56.1245 55.0102 54.8926 52.778 53.6607 51.7208C53.6607 51.7208 55.1021 51.8737 55.2228 51.361C55.3434 50.8483 54.0512 50.635 53.5083 50.6063C52.9654 50.5777 51.9208 51.2687 50.9842 51.361C50.1799 51.3948 49.3743 51.3543 48.5775 51.24L48.6982 54.7428L50.4571 55.2554Z" fill="white"/>
<path d="M53.413 57.3509H53.3654C52.632 57.3222 50.7047 55.6886 50.3777 55.4052L48.6378 54.9021C48.6039 54.8932 48.5738 54.8734 48.5521 54.8459C48.5303 54.8183 48.5181 54.7844 48.5172 54.7493L48.3965 51.2465C48.3964 51.2223 48.401 51.1982 48.4103 51.1758C48.4196 51.1533 48.4333 51.133 48.4505 51.116C48.4689 51.1008 48.4903 51.0896 48.5132 51.083C48.5362 51.0764 48.5602 51.0747 48.5838 51.0778C49.3682 51.1891 50.1609 51.2285 50.9524 51.1956C51.4397 51.1176 51.914 50.9729 52.3621 50.7657C52.7184 50.5879 53.1052 50.4798 53.5019 50.4473C53.5178 50.4473 54.9148 50.5332 55.2831 51.0268C55.3246 51.0795 55.3537 51.1411 55.368 51.2067C55.3823 51.2724 55.3815 51.3404 55.3656 51.4057C55.264 51.842 54.5687 51.9152 54.0956 51.9152C55.2323 53.0711 56.2864 55.039 56.0673 55.7014C55.9975 55.9147 55.8832 56.0198 55.7339 56.0389C55.6738 56.0377 55.6146 56.024 55.56 55.9988C55.5054 55.9736 55.4565 55.9374 55.4164 55.8924C55.4164 55.9752 55.3815 56.0676 55.3561 56.1727C55.2926 56.4115 55.1624 56.4911 55.064 56.4911C54.9998 56.4979 54.9349 56.4915 54.8732 56.4723C54.8115 56.4532 54.7544 56.4216 54.7052 56.3796C54.6952 56.4493 54.6814 56.5184 54.664 56.5866C54.651 56.6511 54.6213 56.711 54.5778 56.7602C54.5343 56.8094 54.4786 56.8462 54.4163 56.8668C54.2679 56.9037 54.1112 56.8856 53.975 56.8159C53.991 56.9262 53.9686 57.0387 53.9115 57.1343C53.8568 57.2135 53.7812 57.2757 53.6931 57.314C53.605 57.3522 53.508 57.365 53.413 57.3509ZM48.841 54.6155L50.5015 55.0964C50.5242 55.1029 50.545 55.1149 50.5619 55.1314C51.4286 55.8797 52.8923 57.0006 53.3781 57.0197C53.5019 57.0197 53.5876 57.0038 53.613 56.9592C53.6384 56.9146 53.5876 56.6408 53.5305 56.542C53.513 56.5088 53.5073 56.4707 53.5144 56.4338C53.5214 56.3969 53.5407 56.3635 53.5691 56.3391C53.5975 56.3147 53.6334 56.3006 53.6708 56.2993C53.7082 56.298 53.7449 56.3095 53.775 56.3319C53.9191 56.4615 54.1001 56.5427 54.2925 56.5643C54.2925 56.5643 54.3147 56.5643 54.3274 56.5102C54.3897 56.3527 54.3897 56.1773 54.3274 56.0198C54.302 55.9855 54.291 55.9426 54.297 55.9002C54.3029 55.8579 54.3253 55.8196 54.3592 55.7937C54.3929 55.7683 54.435 55.7568 54.4769 55.7615C54.5189 55.7662 54.5574 55.7869 54.5846 55.8192C54.6823 55.9691 54.8182 56.0901 54.9783 56.1695C54.9926 56.1409 55.0043 56.111 55.0132 56.0803C55.0873 55.8768 55.1102 55.658 55.0799 55.4435C55.0703 55.4243 55.0646 55.4034 55.0633 55.382C55.0619 55.3606 55.0649 55.3391 55.072 55.3189C55.0791 55.2987 55.0902 55.2801 55.1047 55.2643C55.1191 55.2485 55.1366 55.2358 55.1561 55.2269C55.1958 55.2081 55.2412 55.2055 55.2827 55.2198C55.3242 55.2341 55.3586 55.2641 55.3783 55.3033C55.4479 55.4632 55.5572 55.6024 55.6958 55.7078C55.7141 55.6717 55.73 55.6345 55.7435 55.5963C55.9117 55.0964 54.791 52.9342 53.5368 51.8547C53.5101 51.8318 53.4914 51.8009 53.4834 51.7665C53.4754 51.7321 53.4785 51.6961 53.4924 51.6637C53.5064 51.6314 53.5302 51.6045 53.5605 51.5867C53.5907 51.569 53.6258 51.5614 53.6607 51.565C54.2068 51.6223 54.991 51.565 55.0481 51.3293C55.0523 51.311 55.0522 51.292 55.0478 51.2738C55.0434 51.2555 55.0348 51.2386 55.0227 51.2242C54.8291 50.9663 53.9909 50.8039 53.4829 50.7784C53.1354 50.8178 52.7978 50.9191 52.4859 51.0778C52.0085 51.2973 51.5031 51.4494 50.9841 51.5299C50.2325 51.5691 49.4788 51.5372 48.7331 51.4344L48.841 54.6155Z" fill="#231F20"/>
<path d="M55.7213 51.1736C55.2605 51.1545 54.7991 51.1673 54.3401 51.2118C53.5083 51.2914 52.6129 51.5303 52.1018 52.1862C52.0685 52.22 52.0441 52.2616 52.0308 52.3072C52.0175 52.3527 52.0157 52.4009 52.0256 52.4474C52.0637 52.5397 52.178 52.5684 52.2732 52.5843C52.9617 52.6914 53.6619 52.7 54.3528 52.6098C54.4466 52.5858 54.5448 52.5858 54.6386 52.6098C54.7106 52.6424 54.7762 52.6877 54.8323 52.7435C55.1061 52.9713 55.4454 53.1051 55.8006 53.1256" fill="white"/>
<path d="M55.8006 53.2813C55.4089 53.2612 55.0344 53.1137 54.7338 52.8609L54.7053 52.8386C54.6706 52.8052 54.6309 52.7772 54.5878 52.7558C54.521 52.74 54.4514 52.74 54.3846 52.7558C53.6769 52.8493 52.9595 52.8407 52.2542 52.7304C52.1773 52.7261 52.1029 52.7023 52.0378 52.661C51.9728 52.6198 51.9194 52.5625 51.8827 52.4947C51.858 52.4217 51.8538 52.3432 51.8706 52.268C51.8874 52.1927 51.9246 52.1235 51.9779 52.068C52.4288 51.4789 53.2003 51.1414 54.3306 51.0331C54.797 50.9886 55.2658 50.9758 55.734 50.9949C55.7552 50.9957 55.7761 51.0008 55.7955 51.0097C55.8148 51.0186 55.8322 51.0313 55.8466 51.047C55.8611 51.0626 55.8723 51.081 55.8797 51.101C55.887 51.1211 55.8904 51.1424 55.8895 51.1637C55.8856 51.2068 55.8659 51.2469 55.8343 51.2763C55.8026 51.3057 55.7612 51.3223 55.7181 51.3229C55.2659 51.3044 54.813 51.3161 54.3624 51.3579C53.3273 51.4598 52.632 51.756 52.2383 52.2686C52.1843 52.3419 52.1843 52.3705 52.1843 52.3705C52.1843 52.3705 52.2034 52.3896 52.305 52.4056C52.9776 52.5111 53.6619 52.5197 54.337 52.431C54.4566 52.3995 54.5824 52.3995 54.7021 52.431C54.7824 52.4648 54.8556 52.5134 54.918 52.5743C55.1698 52.7907 55.4854 52.9183 55.8165 52.9373C55.86 52.9406 55.9006 52.9607 55.9296 52.9934C55.9586 53.0261 55.9738 53.0688 55.9721 53.1125C55.9725 53.135 55.9684 53.1575 55.9599 53.1783C55.9514 53.1992 55.9387 53.2182 55.9227 53.234C55.9066 53.2498 55.8875 53.2621 55.8665 53.2703C55.8455 53.2784 55.8231 53.2821 55.8006 53.2813Z" fill="#231F20"/>
<path d="M85.6583 94.2672C85.6583 94.2672 85.9155 95.9421 85.5313 96.5853C85.1472 97.2286 84.8011 98.047 84.6328 99.5499C84.9403 99.8948 85.3157 100.172 85.7354 100.364C86.1552 100.556 86.61 100.658 87.0712 100.664C88.6143 100.664 90.1541 99.5054 90.3256 98.9481C90.497 98.3909 89.0841 92.4648 89.0841 92.4648L85.6583 94.2672Z" fill="white"/>
<path d="M87.0712 100.829C86.5848 100.823 86.1052 100.715 85.6628 100.512C85.2205 100.309 84.8253 100.016 84.5026 99.6509C84.4772 99.6159 84.4648 99.5731 84.4677 99.5299C84.6518 97.9091 85.0392 97.0875 85.3884 96.5016C85.6805 96.0144 85.5662 94.7407 85.4964 94.2917C85.4915 94.2577 85.4971 94.223 85.5125 94.1923C85.5278 94.1616 85.5521 94.1363 85.5821 94.1198L89.0079 92.3174C89.0302 92.3065 89.0546 92.3008 89.0794 92.3008C89.1041 92.3008 89.1286 92.3065 89.1508 92.3174C89.174 92.3272 89.1945 92.3424 89.2105 92.3618C89.2265 92.3812 89.2377 92.4042 89.2429 92.4289C89.481 93.4256 90.6589 98.425 90.4811 98.9981C90.3033 99.5713 88.6873 100.829 87.0712 100.829ZM84.8011 99.4949C85.094 99.8052 85.4456 100.054 85.8353 100.227C86.2251 100.399 86.6452 100.493 87.0712 100.501C88.5507 100.501 90.0271 99.3611 90.17 98.909C90.2684 98.5905 89.6366 95.5145 88.973 92.7155L85.8361 94.3681C85.8901 94.7694 86.0234 96.0877 85.671 96.68C85.3186 97.2722 84.982 97.9823 84.8011 99.4949Z" fill="#231F20"/>
<path d="M75.0062 57.7906L82.4293 59.8508L84.1565 37.2422C84.1565 37.2422 77.3779 38.3599 75.9015 39.0445C74.4252 39.7291 75.0062 57.7906 75.0062 57.7906Z" fill="white"/>
<path d="M82.4293 60.0164H82.3849L74.9649 57.9562C74.9313 57.9468 74.9015 57.9269 74.8798 57.8995C74.8581 57.872 74.8457 57.8383 74.8443 57.8033C74.8443 57.7588 74.6951 53.2307 74.73 48.6771C74.803 39.3694 75.5428 39.0254 75.8222 38.8981C77.3113 38.2071 83.8517 37.1276 84.128 37.0798C84.1526 37.0753 84.1779 37.0765 84.202 37.0835C84.2261 37.0904 84.2482 37.1029 84.2667 37.1198C84.2852 37.1368 84.2994 37.1578 84.3084 37.1813C84.3174 37.2047 84.3208 37.23 84.3185 37.255L82.5913 59.8636C82.5898 59.8883 82.5828 59.9123 82.5707 59.9338C82.5586 59.9553 82.5417 59.9738 82.5214 59.9878C82.4944 60.0067 82.4623 60.0167 82.4293 60.0164ZM75.1681 57.6632L82.2801 59.6407L83.9756 37.4333C82.8326 37.6275 77.2636 38.586 75.9619 39.1878C75.0665 39.605 74.8824 48.9923 75.1681 57.6632Z" fill="#231F20"/>
<path d="M77.47 91.891V96.9285L75.0729 97.6164L75.13 96.5846L74.0569 97.6641C74.0569 97.6641 67.6148 98.8232 67.6465 97.9634C67.6783 97.1037 68.3323 96.6324 69.1451 96.2025C70.0183 95.744 72.3201 94.4416 72.3201 94.4416L72.663 90.751" fill="white"/>
<path d="M68.8436 98.451C68.2435 98.451 67.7831 98.3905 67.6053 98.2345C67.5653 98.2029 67.5334 98.1621 67.5124 98.1155C67.4914 98.069 67.4819 98.018 67.4847 97.967C67.5228 97.0117 68.2689 96.4895 69.0722 96.0564C69.8754 95.6233 71.7614 94.5662 72.1614 94.3401L72.498 90.7322C72.4959 90.7086 72.499 90.6847 72.5072 90.6624C72.5153 90.6401 72.5282 90.6199 72.5449 90.6031C72.5617 90.5863 72.5819 90.5734 72.6042 90.5654C72.6265 90.5573 72.6502 90.5542 72.6738 90.5563C72.6974 90.5584 72.7202 90.5657 72.7407 90.5777C72.7612 90.5896 72.7788 90.6059 72.7923 90.6254C72.8058 90.6449 72.8149 90.6672 72.8189 90.6906C72.8229 90.714 72.8217 90.738 72.8155 90.7609L72.4789 94.4802C72.4761 94.5064 72.4671 94.5316 72.4528 94.5537C72.4384 94.5758 72.4191 94.5943 72.3964 94.6075C72.371 94.6075 70.0882 95.9163 69.2214 96.3717C68.3546 96.827 67.8403 97.2505 67.8117 97.9925C67.9863 98.3109 70.8025 98.1007 73.9775 97.5339L75.0253 96.4831C75.0478 96.4587 75.0775 96.4421 75.11 96.4358C75.1426 96.4295 75.1763 96.4338 75.2062 96.4481C75.2368 96.4615 75.2625 96.484 75.2801 96.5124C75.2976 96.5408 75.3062 96.5739 75.3047 96.6073L75.2602 97.4066L77.3176 96.8175V91.8913C77.3106 91.8667 77.3094 91.8407 77.3141 91.8155C77.3187 91.7903 77.3292 91.7666 77.3446 91.7461C77.36 91.7257 77.3799 91.7091 77.4027 91.6976C77.4256 91.6862 77.4508 91.6803 77.4764 91.6803C77.5019 91.6803 77.5271 91.6862 77.55 91.6976C77.5729 91.7091 77.5928 91.7257 77.6082 91.7461C77.6236 91.7666 77.634 91.7903 77.6387 91.8155C77.6434 91.8407 77.6421 91.8667 77.6351 91.8913V96.9289C77.6348 96.9645 77.6232 96.999 77.6021 97.0276C77.581 97.0562 77.5515 97.0774 77.5176 97.0881L75.1173 97.7728C75.0925 97.78 75.0663 97.7812 75.0408 97.7763C75.0154 97.7713 74.9916 97.7602 74.9713 97.7441C74.9508 97.728 74.9346 97.7071 74.9241 97.6832C74.9136 97.6593 74.9091 97.6332 74.911 97.6072L74.9427 97.0053L74.1617 97.7887C74.139 97.8135 74.1089 97.8302 74.076 97.8364C73.3743 97.9638 70.5454 98.451 68.8436 98.451Z" fill="#231F20"/>
<path d="M88.9953 59.8219L91.0114 93.9228C91.0114 93.9228 90.8209 95.3207 87.7951 95.4926C84.7693 95.6646 85.0741 94.9545 85.0741 94.9545L80.3116 71.0467L78.3685 93.3177L71.8376 93.7222L73.1361 57.1025L88.9953 59.8219Z" fill="#231F20"/>
<path d="M86.9347 95.6773C85.8456 95.6773 85.1884 95.5276 84.9789 95.2251C84.9222 95.1447 84.8983 95.0456 84.9122 94.9481L80.3783 72.1643L78.5336 93.3305C78.5306 93.3689 78.5138 93.4049 78.4864 93.4318C78.459 93.4587 78.4227 93.4748 78.3844 93.477L71.8534 93.8814C71.8089 93.8831 71.7655 93.8671 71.7328 93.8368C71.7017 93.8043 71.6846 93.7608 71.6851 93.7158L72.9837 57.0962C72.9848 57.0738 72.9907 57.0519 73.0012 57.0321C73.0116 57.0123 73.0262 56.995 73.044 56.9815C73.0608 56.9668 73.0806 56.956 73.102 56.95C73.1234 56.9439 73.1459 56.9427 73.1679 56.9465L89.0206 59.6755C89.0558 59.6813 89.0879 59.699 89.1116 59.7256C89.1353 59.7523 89.1491 59.7863 89.1508 59.8219L91.1701 93.9228C91.1701 94.0151 90.9225 95.4831 87.8046 95.6614C87.4871 95.6678 87.1982 95.6773 86.9347 95.6773ZM85.2202 95.0118C85.2293 95.0286 85.2399 95.0446 85.2519 95.0596C85.3599 95.1806 85.8203 95.4449 87.7919 95.3334C90.4748 95.1837 90.8272 94.0438 90.859 93.9132L88.8492 59.9589L73.2917 57.2809L72.0217 93.5534L78.2415 93.1681L80.1719 71.0307C80.175 70.9927 80.1919 70.9571 80.2194 70.9307C80.2469 70.9042 80.2831 70.8889 80.3211 70.8874C80.359 70.8852 80.3963 70.897 80.4261 70.9204C80.4559 70.9439 80.4762 70.9774 80.4831 71.0148L85.2456 94.9226C85.2551 94.9527 85.2551 94.9849 85.2456 95.015L85.2202 95.0118Z" fill="#231F20"/>
<path d="M83.0009 36.5479C83.0009 36.5479 80.4291 60.3952 81.5721 61.8854C82.7151 63.3757 87.8237 65.3468 90.1065 63.5158C92.3893 61.6848 89.5921 40.127 88.5825 38.5253C86.8155 37.6258 84.9391 36.9611 83.0009 36.5479Z" fill="#04D68F"/>
<path d="M92.5417 67.5628C92.5417 67.5628 92.2242 65.5281 92.4052 65.3338C92.5862 65.1396 97.1264 65.0154 97.4852 65.0568C97.844 65.0982 97.9043 67.2158 97.9043 67.2158L97.228 67.2826C97.228 67.2826 97.301 65.9038 97.0502 65.8433C96.7994 65.7828 93.1132 65.8943 93.1132 65.8943L93.3101 67.5565L92.5417 67.5628Z" fill="#231F20"/>
<path d="M92.5417 67.7319C92.5042 67.7316 92.468 67.7181 92.4396 67.6936C92.4111 67.6691 92.3922 67.6353 92.3862 67.5982C92.1639 66.1939 92.1322 65.401 92.2941 65.2354C92.5767 64.9488 97.4662 64.917 97.5138 64.917C97.8567 64.9425 98.0472 65.7226 98.0789 67.232C98.0785 67.2717 98.0639 67.31 98.0376 67.3399C98.0114 67.3697 97.9753 67.389 97.9361 67.3944L97.2598 67.4612C97.2372 67.4631 97.2144 67.4601 97.193 67.4524C97.1717 67.4447 97.1522 67.4325 97.136 67.4167C97.1189 67.4017 97.1054 67.383 97.0966 67.3621C97.0878 67.3411 97.0839 67.3184 97.0852 67.2957C97.1283 66.8696 97.1015 66.4393 97.0058 66.0219C96.7105 65.9901 94.6722 66.0219 93.3037 66.0761L93.4815 67.5663C93.484 67.5885 93.482 67.611 93.4754 67.6324C93.4689 67.6538 93.458 67.6736 93.4434 67.6905C93.429 67.7076 93.411 67.7213 93.3907 67.7307C93.3704 67.7401 93.3483 67.7448 93.326 67.7447H92.5417V67.7319ZM92.5227 65.4679C92.5047 66.1201 92.5569 66.7724 92.6783 67.4135H93.1482L92.9704 65.9296C92.9683 65.9079 92.9706 65.886 92.9771 65.8652C92.9837 65.8444 92.9943 65.8252 93.0085 65.8086C93.0223 65.7916 93.0397 65.7779 93.0595 65.7685C93.0793 65.7591 93.1009 65.7543 93.1228 65.7545C93.7419 65.7354 96.847 65.6398 97.1042 65.7035C97.1931 65.7258 97.4598 65.7895 97.4217 67.1237L97.771 67.0887C97.7392 66.1589 97.6122 65.3214 97.4789 65.2227C97.082 65.1845 93.0275 65.3055 92.5227 65.4583V65.4679Z" fill="#231F20"/>
<path d="M93.5069 62.2988C93.1372 62.9087 92.8338 63.5567 92.6021 64.2317C92.4988 64.5867 92.5088 64.9652 92.6306 65.3143L93.6879 65.1424C93.6879 65.1424 93.5323 67.2122 93.8625 67.2122C94.1927 67.2122 94.7071 67.4637 94.6753 65.8652C94.6753 65.8652 94.8182 66.4766 95.358 66.2378C95.6572 66.1214 95.8996 65.8931 96.0342 65.6009C96.0342 65.6009 96.5073 66.3715 96.9867 65.5245C97.4662 64.6775 96.6851 62.2797 96.6851 62.2797L96.6089 61.127L93.3736 61.2161L93.5069 62.2988Z" fill="white"/>
<path d="M94.1229 67.3913C94.0689 67.3913 94.0181 67.3913 93.9705 67.3913H93.8625C93.7928 67.3886 93.7268 67.359 93.6784 67.3085C93.4434 67.057 93.472 65.9807 93.5101 65.3533L92.6592 65.4903C92.6244 65.4961 92.5887 65.4905 92.5573 65.4745C92.5259 65.4584 92.5004 65.4327 92.4846 65.4011C92.3446 65.0187 92.3301 64.6014 92.4433 64.2102C92.6683 63.5342 92.9687 62.8858 93.3387 62.2773L93.2212 61.252C93.2184 61.2292 93.2204 61.2062 93.2269 61.1843C93.2335 61.1623 93.2445 61.142 93.2593 61.1246C93.2904 61.0902 93.3337 61.0696 93.3799 61.0673L96.6153 60.9813C96.6946 60.9622 96.7772 61.045 96.7835 61.1341L96.8566 62.2646C96.9391 62.5161 97.6376 64.7515 97.136 65.6208C96.955 65.9393 96.7455 66.0985 96.501 66.1017C96.4163 66.1016 96.3326 66.084 96.255 66.0501C96.1775 66.0161 96.1077 65.9664 96.0501 65.9042C95.8868 66.1248 95.6675 66.2974 95.4151 66.4042C95.3308 66.4465 95.2379 66.4685 95.1437 66.4685C95.0494 66.4685 94.9565 66.4465 94.8722 66.4042L94.8182 66.3755C94.8311 66.6905 94.727 66.9991 94.5261 67.2416C94.4163 67.3423 94.2716 67.396 94.1229 67.3913ZM93.9038 67.0474H93.9991C94.1451 67.0474 94.2404 67.0474 94.3166 66.9933C94.3928 66.9391 94.5293 66.6271 94.5134 65.8628C94.5131 65.822 94.5279 65.7826 94.5549 65.752C94.5818 65.7215 94.6191 65.702 94.6595 65.6973C94.6992 65.6923 94.7393 65.7022 94.7721 65.7251C94.805 65.7481 94.8282 65.7824 94.8373 65.8214C94.8653 65.9356 94.9342 66.0353 95.0309 66.1017C95.0737 66.1176 95.1193 66.1242 95.1648 66.1209C95.2103 66.1176 95.2545 66.1045 95.2945 66.0826C95.5544 65.9861 95.7656 65.7903 95.8818 65.538C95.8932 65.5097 95.9121 65.4849 95.9364 65.4665C95.9608 65.448 95.9896 65.4365 96.02 65.4333C96.0503 65.43 96.0809 65.4351 96.1086 65.4479C96.1363 65.4607 96.16 65.4809 96.1771 65.5062C96.2152 65.5731 96.3613 65.7514 96.4946 65.7514C96.628 65.7514 96.7582 65.5794 96.8407 65.433C97.2122 64.7961 96.7391 62.9683 96.5232 62.3219C96.5214 62.3081 96.5214 62.2942 96.5232 62.2805L96.4565 61.287L93.5577 61.3666L93.6593 62.2709C93.6631 62.3064 93.6553 62.3422 93.6371 62.3728C93.2774 62.9697 92.9805 63.6026 92.7513 64.2611C92.6784 64.5424 92.6729 64.8371 92.7354 65.1209L93.6498 64.9712C93.6742 64.9664 93.6994 64.9677 93.7232 64.9749C93.747 64.9821 93.7687 64.9951 93.7863 65.0126C93.8048 65.0294 93.8193 65.0501 93.8286 65.0733C93.838 65.0965 93.842 65.1214 93.8403 65.1464C93.7927 65.9361 93.8022 66.8563 93.9038 67.0474Z" fill="#231F20"/>
<path d="M90.2462 67.751L88.2301 67.9962L89.1159 78.2337L91.2749 78.4121L90.2462 67.751Z" fill="white"/>
<path d="M91.2749 78.5744L89.1159 78.3993C89.0773 78.3964 89.041 78.3797 89.0137 78.3522C88.9863 78.3247 88.9696 78.2884 88.9667 78.2496L88.0809 68.0089C88.0787 67.988 88.0806 67.9668 88.0867 67.9466C88.0927 67.9265 88.1026 67.9077 88.1159 67.8914C88.1292 67.8751 88.1455 67.8617 88.1641 67.8518C88.1826 67.8419 88.2029 67.8357 88.2237 67.8337L90.2399 67.5854C90.2829 67.5825 90.3256 67.5949 90.3605 67.6204C90.3777 67.6345 90.392 67.6519 90.4023 67.6715C90.4127 67.6912 90.419 67.7128 90.4208 67.735L91.44 78.3961C91.4428 78.4189 91.4406 78.4419 91.4337 78.4637C91.4267 78.4855 91.4152 78.5056 91.3998 78.5225C91.3844 78.5394 91.3656 78.5528 91.3446 78.5618C91.3236 78.5708 91.3009 78.5751 91.2781 78.5744H91.2749ZM89.2683 78.0809L91.0939 78.2305L90.1002 67.9325L88.4079 68.1394L89.2683 78.0809Z" fill="#231F20"/>
<path d="M90.2462 67.7508C90.1986 67.8909 91.2749 78.4119 91.2749 78.4119L100.93 77.4152L100.279 67.1299L90.2462 67.7508Z" fill="white"/>
<path d="M91.2749 78.5742C91.2372 78.5737 91.2005 78.5615 91.1701 78.5391C91.1378 78.5105 91.1173 78.4707 91.113 78.4277C90.0335 67.8717 90.0747 67.7411 90.0906 67.6997C90.0999 67.6677 90.119 67.6394 90.1452 67.6188C90.1714 67.5982 90.2034 67.5865 90.2367 67.5851L100.27 66.9642C100.313 66.9615 100.356 66.9761 100.388 67.0047C100.421 67.0333 100.441 67.0736 100.444 67.117L101.095 77.4055C101.098 77.4476 101.084 77.4891 101.057 77.5211C101.03 77.5532 100.991 77.5734 100.949 77.5775L91.2908 78.5742H91.2749ZM90.4145 67.9035C90.478 68.8588 91.0304 74.3964 91.4209 78.2303L100.759 77.275L100.124 67.3081L90.4145 67.9035Z" fill="#231F20"/>
<path d="M92.5957 71.4608C92.5687 71.4607 92.5422 71.454 92.5184 71.4412C92.4946 71.4285 92.4742 71.4101 92.4592 71.3876L90.1097 67.8403C90.0919 67.8041 90.0878 67.7627 90.0983 67.7238C90.1087 67.6849 90.133 67.6511 90.1665 67.6288C90.2 67.6066 90.2404 67.5973 90.2802 67.6028C90.3201 67.6083 90.3565 67.6282 90.3828 67.6588L92.6783 71.1233L98.8092 70.6425L100.127 67.0728C100.134 67.0524 100.145 67.0336 100.159 67.0175C100.174 67.0015 100.191 66.9885 100.211 66.9793C100.23 66.9701 100.252 66.9649 100.273 66.964C100.295 66.9631 100.316 66.9666 100.336 66.9741C100.357 66.9816 100.376 66.993 100.392 67.0078C100.408 67.0226 100.421 67.0404 100.43 67.0602C100.439 67.0801 100.444 67.1015 100.445 67.1234C100.446 67.1452 100.442 67.167 100.435 67.1875L99.0791 70.8526C99.0684 70.8821 99.0496 70.9079 99.0249 70.9271C99.0001 70.9462 98.9705 70.9579 98.9394 70.9609L92.6084 71.4608H92.5957Z" fill="#231F20"/>
<path d="M96.468 70.1927L95.537 70.2949L95.7413 72.1657L96.6723 72.0634L96.468 70.1927Z" fill="#D1D3D4"/>
<path d="M72.7234 38.611C72.7234 38.611 69.9834 62.9137 70.6692 63.6015C71.355 64.2894 74.3807 63.4296 75.4063 62.7418C76.4318 62.054 77.9272 36.8438 77.9272 36.8438C77.9272 36.8438 74.2093 37.3501 72.7234 38.611Z" fill="#04D68F"/>
<path d="M72.7234 38.6113C72.7234 38.6113 67.8656 48.8011 65.5733 49.5176C62.1474 50.5907 57.3183 50.5047 57.3183 50.5047L57.7056 55.657C57.7056 55.657 63.9286 56.5295 67.4656 55.6156C71.0025 54.7017 74.7871 49.5463 74.7871 49.5463L72.7234 38.6113Z" fill="#04D68F"/>
<path d="M78.7336 40.3402L79.4036 41.3146L76.9906 55.8446L78.5336 57.8189L80.5021 56.1025L80.0735 41.4738L80.8291 40.4134L79.8735 39.7256L78.7336 40.3402Z" fill="#D1D3D4"/>
<path d="M70.8406 57.0676H70.8248C70.7818 57.0627 70.7424 57.0415 70.7146 57.0083C70.6868 56.9751 70.6728 56.9325 70.6755 56.8892C70.901 54.173 71.9233 43.1425 71.9455 43.0311C71.9583 42.9969 71.9821 42.968 72.013 42.9487C72.0439 42.9295 72.0803 42.921 72.1165 42.9247C72.1527 42.9283 72.1867 42.9438 72.2132 42.9688C72.2397 42.9938 72.2572 43.0269 72.263 43.0629C72.263 43.1744 71.2312 54.208 70.993 56.9179C70.99 56.9571 70.9729 56.9939 70.9449 57.0214C70.9168 57.049 70.8798 57.0654 70.8406 57.0676Z" fill="#231F20"/>
<path d="M78.105 34.9585L77.7335 38.095C77.7335 38.095 77.9716 39.5758 80.1211 39.3369C82.2706 39.0981 82.7627 37.697 82.7627 37.697L83.2453 31.8251C83.2453 31.8251 82.0452 30.7648 82.9278 27.4563C82.9278 27.4563 79.5814 28.039 76.5302 27.2461C76.5302 27.2461 76.0031 31.0673 76.0476 32.704C76.092 34.3407 78.105 34.9585 78.105 34.9585Z" fill="white"/>
<path d="M79.6925 39.5286C77.8383 39.5286 77.5938 38.1371 77.5907 38.1212V38.0766L77.9463 35.0738C77.4795 34.9018 75.946 34.2236 75.9047 32.7078C75.8571 31.0615 76.3651 27.3805 76.3873 27.2244C76.3905 27.2016 76.3987 27.1798 76.4114 27.1605C76.424 27.1412 76.4407 27.125 76.4604 27.113C76.4789 27.0996 76.5002 27.0904 76.5227 27.086C76.5451 27.0816 76.5683 27.0821 76.5905 27.0875C79.5655 27.8645 82.8675 27.2913 82.9151 27.2913C82.9418 27.2863 82.9693 27.2884 82.9949 27.2973C83.0205 27.3062 83.0434 27.3217 83.0612 27.3422C83.0802 27.3622 83.0937 27.3868 83.1004 27.4136C83.1071 27.4404 83.1067 27.4685 83.0993 27.4951C82.2516 30.6794 83.3533 31.6888 83.366 31.6984C83.3845 31.7158 83.399 31.7371 83.4083 31.7608C83.4176 31.7844 83.4216 31.8099 83.4199 31.8353L82.9374 37.7072C82.9406 37.7208 82.9406 37.735 82.9374 37.7486C82.9183 37.8091 82.3881 39.2484 80.1624 39.4968C80.0065 39.5165 79.8496 39.5271 79.6925 39.5286ZM77.9209 38.0893C77.9558 38.2581 78.2733 39.363 80.1211 39.1752C82.0261 38.9618 82.5532 37.825 82.6199 37.6594L83.0929 31.8863C82.8548 31.6156 82.042 30.4533 82.7278 27.6575C81.9118 27.7689 79.2099 28.0619 76.6953 27.4505C76.5905 28.2275 76.1968 31.2717 76.2381 32.6983C76.2794 34.2108 78.1431 34.7967 78.178 34.8031C78.2145 34.8145 78.2461 34.8381 78.2674 34.87C78.2888 34.9018 78.2987 34.94 78.2955 34.9782L77.9209 38.0893Z" fill="#231F20"/>
<path d="M82.2896 31.5329C82.398 31.2549 82.5928 31.0193 82.8453 30.861C83.0868 30.7253 83.35 30.6326 83.6231 30.5872C83.7697 30.5455 83.9237 30.5368 84.074 30.5617C84.1765 30.5924 84.2723 30.6421 84.3566 30.7082C84.5682 30.8478 84.7226 31.0592 84.7915 31.3037C84.8235 31.5042 84.8071 31.7094 84.7439 31.9023C84.691 32.118 84.6098 32.3257 84.5026 32.5201C84.391 32.711 84.2427 32.8778 84.0663 33.0107C83.8899 33.1436 83.6888 33.2399 83.4749 33.2941C83.261 33.3484 83.0385 33.3594 82.8203 33.3265C82.602 33.2937 82.3925 33.2176 82.2039 33.1028" fill="white"/>
<path d="M83.0675 33.5064C82.7319 33.5071 82.4025 33.4157 82.115 33.2421C82.0784 33.2197 82.0522 33.1836 82.0421 33.1418C82.032 33.1 82.0388 33.0559 82.061 33.0192C82.0718 33.0003 82.0863 32.9838 82.1036 32.9707C82.1209 32.9575 82.1406 32.948 82.1617 32.9427C82.1827 32.9373 82.2046 32.9363 82.226 32.9396C82.2474 32.9429 82.268 32.9504 82.2865 32.9619C82.4564 33.0652 82.6451 33.1336 82.8416 33.1631C83.0381 33.1926 83.2385 33.1827 83.4312 33.1338C83.6238 33.0849 83.8048 32.998 83.9637 32.8783C84.1226 32.7586 84.2561 32.6084 84.3566 32.4365C84.4577 32.2556 84.5335 32.0617 84.582 31.8601C84.6399 31.6925 84.6563 31.5132 84.6296 31.3379C84.5654 31.134 84.4331 30.9586 84.255 30.8411C84.1881 30.787 84.1116 30.7459 84.0295 30.7201C83.9043 30.7023 83.7766 30.711 83.6549 30.7456C83.3998 30.7882 83.1539 30.8743 82.9278 31.0003C82.7067 31.1389 82.5362 31.3456 82.442 31.5894C82.4264 31.6303 82.3952 31.6634 82.3554 31.6813C82.3155 31.6992 82.2702 31.7005 82.2293 31.685C82.1885 31.6693 82.1556 31.638 82.1377 31.598C82.1199 31.558 82.1186 31.5126 82.1341 31.4716C82.2587 31.1586 82.4816 30.8947 82.7691 30.7201C83.0266 30.575 83.3068 30.4749 83.5977 30.424C83.7684 30.3767 83.9476 30.3691 84.1216 30.4017C84.2466 30.4361 84.3633 30.4956 84.4645 30.5768C84.7072 30.7391 84.884 30.9831 84.963 31.2646C84.9996 31.4926 84.9822 31.7261 84.9122 31.9461C84.8555 32.1756 84.7679 32.3963 84.6518 32.602C84.5264 32.8134 84.3601 32.9974 84.1627 33.1434C83.9653 33.2894 83.7409 33.3944 83.5025 33.4523C83.3603 33.4884 83.2142 33.5066 83.0675 33.5064Z" fill="#231F20"/>
<path d="M77.8066 29.9307C77.8066 29.9307 76.454 31.3827 76.6667 31.7075C76.8795 32.0323 77.6192 31.9623 77.6192 31.9623" fill="white"/>
<path d="M77.47 32.1315C77.2033 32.1315 76.7334 32.087 76.5429 31.794C76.2889 31.431 77.1525 30.3993 77.6922 29.8388C77.7067 29.824 77.724 29.8122 77.7431 29.8042C77.7622 29.7961 77.7827 29.792 77.8034 29.792C77.8241 29.792 77.8445 29.7961 77.8636 29.8042C77.8827 29.8122 77.9 29.824 77.9145 29.8388C77.9438 29.8691 77.9602 29.9097 77.9602 29.9519C77.9602 29.9941 77.9438 30.0346 77.9145 30.0649C77.2795 30.7432 76.7556 31.4851 76.7937 31.6571C76.9112 31.8322 77.3938 31.8545 77.6097 31.8354C77.6511 31.8327 77.692 31.846 77.724 31.8727C77.7559 31.8994 77.7763 31.9373 77.7811 31.9787C77.7847 32.0204 77.7717 32.0619 77.7449 32.0941C77.7182 32.1263 77.6798 32.1466 77.6383 32.1506C77.5819 32.1472 77.5257 32.1409 77.47 32.1315Z" fill="#231F20"/>
<path d="M79.3678 29.5553C79.4463 29.3574 79.3963 29.1516 79.256 29.0956C79.1158 29.0396 78.9385 29.1547 78.86 29.3526C78.7814 29.5505 78.8315 29.7563 78.9717 29.8123C79.112 29.8682 79.2893 29.7532 79.3678 29.5553Z" fill="#231F20"/>
<path d="M77.3656 29.2227C77.4436 29.0248 77.393 28.8193 77.2528 28.7637C77.1125 28.7082 76.9356 28.8236 76.8577 29.0215C76.7798 29.2194 76.8303 29.4249 76.9705 29.4805C77.1108 29.536 77.2877 29.4206 77.3656 29.2227Z" fill="#231F20"/>
<path d="M77.1525 32.7041L78.5717 32.7964C78.5717 32.7964 78.6638 33.825 77.8954 34.0097C77.1271 34.1944 77.1525 32.7041 77.1525 32.7041Z" fill="white"/>
<path d="M77.7653 34.1751C77.6349 34.177 77.508 34.133 77.4065 34.0509C76.9842 33.7134 76.9874 32.7963 76.9874 32.6912C76.9887 32.6478 77.0069 32.6066 77.0382 32.5766C77.0711 32.549 77.1128 32.5343 77.1557 32.5352L78.5749 32.6307C78.6129 32.6322 78.6491 32.6475 78.6767 32.6739C78.7042 32.7003 78.721 32.736 78.7241 32.774C78.759 33.1752 78.6384 33.9809 77.9272 34.156C77.8741 34.1683 77.8198 34.1747 77.7653 34.1751ZM77.3112 32.8664C77.3271 33.1593 77.397 33.637 77.6033 33.8025C77.6388 33.8292 77.6799 33.8471 77.7235 33.8548C77.767 33.8625 77.8118 33.8599 77.8542 33.8471C78.3336 33.7293 78.4035 33.1943 78.4098 32.9364L77.3112 32.8664Z" fill="#231F20"/>
<path d="M85.4075 30.8769C85.3855 30.8813 85.3628 30.8813 85.3408 30.8769C85.3211 30.8683 85.3033 30.8558 85.2884 30.8402C85.2735 30.8246 85.2619 30.8062 85.2542 30.786C85.2466 30.7659 85.243 30.7444 85.2436 30.7228C85.2443 30.7012 85.2493 30.68 85.2583 30.6604C85.6841 29.8056 85.9315 28.8727 85.9854 27.9187C86.0075 27.4555 85.9241 26.9934 85.7414 26.5674C85.5588 26.1415 85.2817 25.7628 84.9313 25.4604C84.528 25.142 83.8835 24.9477 83.4168 25.247C83.3914 25.2639 83.3617 25.2733 83.3312 25.2741C83.3007 25.2748 83.2707 25.2669 83.2445 25.2513C83.2183 25.2356 83.197 25.2129 83.1831 25.1857C83.1692 25.1584 83.1633 25.1278 83.166 25.0974C83.1579 24.9898 83.1278 24.8851 83.0776 24.7898C83.0273 24.6944 82.9579 24.6105 82.8739 24.5433C81.5086 23.139 79.3401 23.0085 77.4922 23.1072C77.6768 23.2711 77.8429 23.4547 77.9875 23.6549C78.0023 23.6805 78.0101 23.7096 78.0101 23.7393C78.0101 23.7689 78.0023 23.798 77.9875 23.8236C77.9751 23.8499 77.9559 23.8723 77.9319 23.8885C77.9078 23.9048 77.8799 23.9143 77.851 23.916C76.842 23.9756 75.8326 23.8058 74.8983 23.4192C75.0066 24.202 75.2314 24.9641 75.565 25.6801C75.5788 25.7086 75.584 25.7405 75.58 25.7719C75.5759 25.8034 75.5628 25.8329 75.5422 25.8569C75.5216 25.881 75.4945 25.8984 75.4641 25.9072C75.4338 25.9159 75.4015 25.9156 75.3713 25.9062C74.5736 25.6699 73.8852 25.1576 73.4282 24.4605C73.3357 25.1809 73.4188 25.913 73.6704 26.5941C73.9221 27.2752 74.3347 27.8849 74.8729 28.3708C74.8882 28.3857 74.9004 28.4035 74.9088 28.4232C74.9171 28.4429 74.9214 28.4641 74.9214 28.4855C74.9214 28.5069 74.9171 28.5281 74.9088 28.5478C74.9004 28.5675 74.8882 28.5853 74.8729 28.6001C74.8578 28.6156 74.8398 28.6279 74.8199 28.6364C74.8 28.6448 74.7786 28.6491 74.757 28.6491C74.7354 28.6491 74.714 28.6448 74.6941 28.6364C74.6742 28.6279 74.6562 28.6156 74.6411 28.6001C74.0017 28.0255 73.5284 27.2888 73.2709 26.4674C73.0133 25.6459 72.981 24.7701 73.1774 23.9319C73.1853 23.8988 73.2033 23.869 73.2289 23.8467C73.2545 23.8245 73.2865 23.8108 73.3203 23.8077C73.3541 23.8055 73.3879 23.8134 73.4173 23.8304C73.4467 23.8474 73.4704 23.8727 73.4854 23.9033C73.8185 24.5979 74.3916 25.1478 75.0983 25.4508C74.8048 24.7153 74.6198 23.9408 74.549 23.1518C74.5465 23.123 74.5515 23.0942 74.5636 23.068C74.5756 23.0418 74.5943 23.0192 74.6177 23.0025C74.6411 22.9858 74.6685 22.9755 74.6971 22.9726C74.7257 22.9697 74.7545 22.9744 74.7808 22.9862C75.6375 23.3865 76.5725 23.5899 77.5176 23.5816C77.3498 23.3958 77.16 23.2311 76.9525 23.0913C76.924 23.0721 76.9022 23.0445 76.8901 23.0123C76.878 22.9801 76.8762 22.945 76.8849 22.9117C76.8937 22.8784 76.9125 22.8487 76.9388 22.8267C76.9652 22.8047 76.9977 22.7914 77.0319 22.7887C79.0353 22.6455 81.534 22.6837 83.1025 24.2981C83.2627 24.4478 83.3838 24.6348 83.4549 24.8426C83.7398 24.7556 84.0418 24.7415 84.3335 24.8016C84.6252 24.8617 84.8973 24.994 85.1249 25.1865C85.5151 25.5198 85.8243 25.938 86.0289 26.4093C86.2336 26.8805 86.3284 27.3924 86.306 27.9059C86.2526 28.9031 85.9954 29.8786 85.5504 30.7718C85.539 30.8011 85.5195 30.8266 85.4942 30.8452C85.4689 30.8638 85.4388 30.8748 85.4075 30.8769Z" fill="#231F20"/>
<path d="M78.105 34.9585C78.105 34.9585 79.7338 35.1177 80.5307 34.7451C80.5307 34.7451 79.7242 36.5474 77.9145 36.85L78.105 34.9585Z" fill="#231F20"/>
<path d="M77.9272 37.0064C77.9073 37.0071 77.8876 37.0037 77.869 36.9966C77.8505 36.9895 77.8336 36.9788 77.8192 36.965C77.8008 36.9491 77.7865 36.9288 77.7776 36.9061C77.7688 36.8833 77.7656 36.8587 77.7684 36.8345L77.9621 34.943C77.9641 34.9225 77.9701 34.9025 77.9798 34.8843C77.9895 34.8662 78.0027 34.8501 78.0187 34.8371C78.0346 34.824 78.053 34.8143 78.0727 34.8084C78.0924 34.8026 78.1131 34.8007 78.1336 34.8029C78.1336 34.8029 79.7211 34.9525 80.4799 34.6023C80.5086 34.5881 80.541 34.5836 80.5724 34.5893C80.6039 34.5951 80.6327 34.6108 80.6545 34.6341C80.6775 34.6562 80.6932 34.6849 80.6994 34.7162C80.7057 34.7475 80.7022 34.78 80.6895 34.8093C80.6545 34.8857 79.8258 36.6944 77.9526 37.0064H77.9272ZM78.2606 35.1309L78.105 36.653C78.986 36.3975 79.7373 35.8159 80.2068 35.0258C79.5658 35.1485 78.9111 35.1839 78.2606 35.1309Z" fill="#231F20"/>
<path d="M88.446 38.4365C88.446 38.4365 92.075 40.1752 93.961 45.0503C95.8469 49.9255 97.5233 61.2585 97.5233 61.2585L91.8527 61.7521C91.8527 61.7521 91.113 49.9255 87.0902 44.2893L88.446 38.4365Z" fill="#04D68F"/>
<path d="M72.209 60.2744C72.1852 60.2741 72.1618 60.2685 72.1404 60.258C72.119 60.2476 72.1001 60.2325 72.0852 60.2139C72.071 60.1978 72.0602 60.179 72.0534 60.1586C72.0467 60.1382 72.0441 60.1166 72.0459 60.0952C72.0477 60.0738 72.0538 60.0529 72.0638 60.0339C72.0738 60.0149 72.0876 59.9982 72.1043 59.9846L74.9046 57.6633C74.9211 57.6496 74.94 57.6394 74.9604 57.6331C74.9808 57.6268 75.0023 57.6247 75.0235 57.6267C75.0448 57.6288 75.0654 57.6351 75.0842 57.6452C75.1031 57.6553 75.1197 57.669 75.1332 57.6856C75.1609 57.7194 75.1741 57.7628 75.1699 57.8064C75.1658 57.8499 75.1446 57.8901 75.111 57.918L72.3138 60.2362C72.2846 60.2612 72.2474 60.2748 72.209 60.2744Z" fill="#231F20"/>
<path d="M87.9666 60.2742C87.9346 60.2745 87.9035 60.2644 87.8777 60.2456C86.7632 59.5132 84.1629 57.7714 84.0422 57.4147C84.0291 57.3729 84.0326 57.3276 84.0522 57.2883C84.0717 57.2491 84.1057 57.2191 84.147 57.2046C84.187 57.1912 84.2307 57.1941 84.2686 57.2125C84.3065 57.231 84.3358 57.2635 84.3502 57.3033C84.4899 57.5389 86.341 58.8445 88.0555 59.9717C88.0736 59.9836 88.0892 59.999 88.1014 60.017C88.1136 60.035 88.1222 60.0552 88.1266 60.0765C88.131 60.0977 88.1312 60.1197 88.1272 60.1411C88.1232 60.1624 88.115 60.1828 88.1031 60.201C88.0882 60.2237 88.068 60.2422 88.0441 60.255C88.0203 60.2678 87.9936 60.2744 87.9666 60.2742Z" fill="#231F20"/>
<path d="M82.6008 48.9951C82.5742 48.9953 82.548 48.9887 82.5246 48.976C82.486 48.9557 82.4569 48.9208 82.4438 48.879C82.4307 48.8373 82.4347 48.792 82.4548 48.7531L84.9598 44.0085L83.0707 42.5469C83.0518 42.5321 83.0363 42.5133 83.0253 42.4918C83.0143 42.4704 83.0082 42.4468 83.0072 42.4227C83.0063 42.3988 83.0107 42.375 83.02 42.353C83.0293 42.3309 83.0434 42.3113 83.0612 42.2953C83.1247 42.238 84.5217 40.9834 84.8932 40.6745C84.763 40.3911 83.8994 39.4294 83.112 38.6397C83.0871 38.6079 83.0748 38.568 83.0772 38.5276C83.0796 38.4873 83.0967 38.4492 83.1252 38.4206C83.1538 38.392 83.1917 38.3748 83.232 38.3724C83.2723 38.3699 83.312 38.3823 83.3438 38.4073C84.0613 39.1269 85.2488 40.3847 85.2488 40.7318C85.2467 40.7622 85.2383 40.7918 85.2241 40.8187C85.2099 40.8456 85.1901 40.8691 85.1662 40.8879C85.0043 41.0089 84.0391 41.8718 83.439 42.4068L85.2805 43.8333C85.3114 43.8568 85.3328 43.8906 85.341 43.9286C85.3492 43.9665 85.3435 44.0062 85.325 44.0403L82.7564 48.906C82.7424 48.9348 82.7201 48.9588 82.6924 48.9747C82.6646 48.9906 82.6327 48.9977 82.6008 48.9951Z" fill="#231F20"/>
<path d="M76.4921 47.1034C76.4623 47.1036 76.4329 47.0957 76.4072 47.0806C76.3815 47.0655 76.3604 47.0436 76.346 47.0174L74.1775 42.8364C74.1577 42.8003 74.1526 42.7579 74.1632 42.7182C74.1739 42.6784 74.1995 42.6443 74.2347 42.623L76.0793 41.4417L74.5744 40.4354C74.5541 40.4222 74.5371 40.4046 74.5245 40.3838C74.512 40.3631 74.5042 40.3399 74.5017 40.3157C74.4993 40.2916 74.5023 40.2672 74.5105 40.2444C74.5186 40.2216 74.5318 40.2009 74.549 40.1839L76.6032 38.1172C76.635 38.0923 76.6747 38.0799 76.715 38.0823C76.7552 38.0848 76.7932 38.1019 76.8217 38.1305C76.8502 38.1591 76.8673 38.1972 76.8698 38.2376C76.8722 38.278 76.8598 38.3178 76.835 38.3497L74.93 40.2603L76.4699 41.3016C76.4923 41.3166 76.5106 41.337 76.5234 41.3609C76.5361 41.3848 76.5428 41.4114 76.5429 41.4385C76.5419 41.4657 76.5345 41.4924 76.5213 41.5162C76.508 41.54 76.4893 41.5603 76.4667 41.5754L74.5363 42.8109L76.6381 46.8582C76.6574 46.8972 76.6609 46.9422 76.6479 46.9837C76.6349 47.0253 76.6064 47.0601 76.5683 47.0811C76.5445 47.0931 76.5186 47.1007 76.4921 47.1034Z" fill="#231F20"/>
<path d="M80.2608 72.1894C80.2228 72.1899 80.1858 72.1767 80.1567 72.1521C80.1276 72.1276 80.1082 72.0934 80.1021 72.0557C80.0513 71.7373 78.8321 64.0344 78.9019 62.5728C78.9045 62.5306 78.9236 62.4911 78.9552 62.463C78.9867 62.4349 79.0281 62.4206 79.0702 62.4231C79.1123 62.4257 79.1517 62.4449 79.1797 62.4765C79.2077 62.5082 79.222 62.5497 79.2194 62.5919C79.1337 64.0185 80.4037 71.9251 80.4164 72.0047C80.4196 72.0254 80.4186 72.0466 80.4136 72.0669C80.4086 72.0872 80.3997 72.1064 80.3873 72.1232C80.3749 72.1401 80.3593 72.1544 80.3414 72.1652C80.3236 72.176 80.3037 72.1831 80.2831 72.1862L80.2608 72.1894Z" fill="white"/>
<path d="M91.9035 61.2767C91.8656 61.2766 91.829 61.2631 91.8 61.2387C91.771 61.2142 91.7515 61.1804 91.7448 61.143L88.0618 42.8491C88.0576 42.828 88.0577 42.8062 88.0621 42.7851C88.0664 42.764 88.0749 42.744 88.087 42.7262C88.0991 42.7085 88.1146 42.6933 88.1326 42.6816C88.1507 42.6699 88.1708 42.6619 88.1919 42.658C88.2128 42.6534 88.2344 42.6531 88.2554 42.657C88.2765 42.661 88.2965 42.6691 88.3142 42.681C88.332 42.6929 88.3473 42.7083 88.359 42.7262C88.3707 42.7442 88.3787 42.7643 88.3824 42.7854L92.075 61.0793C92.0796 61.1002 92.0799 61.1219 92.076 61.143C92.072 61.164 92.0639 61.1841 92.052 61.202C92.0402 61.2198 92.0249 61.2351 92.007 61.2468C91.9891 61.2586 91.969 61.2666 91.948 61.2704L91.9035 61.2767Z" fill="#231F20"/>
<path d="M41.5385 78.4824L40.9384 92.6781C40.9384 92.6781 46.7042 96.1172 46.4439 96.477C46.1835 96.8368 36.0902 95.0536 36.0902 95.0536L36.7697 78.6544" fill="white"/>
<path d="M46.0693 96.6582C44.8532 96.6582 41.5004 96.1774 36.0617 95.2157C36.0221 95.2095 35.9863 95.1888 35.9611 95.1576C35.9359 95.1265 35.9231 95.087 35.9251 95.047L36.6046 78.6477C36.6071 78.6044 36.6264 78.5637 36.6585 78.5345C36.6905 78.5053 36.7328 78.49 36.776 78.4917C36.7976 78.4925 36.8188 78.4976 36.8383 78.5068C36.8579 78.5159 36.8754 78.5288 36.8899 78.5449C36.9044 78.5609 36.9155 78.5796 36.9227 78.6C36.9299 78.6204 36.9329 78.6421 36.9316 78.6637L36.2585 94.9037C39.751 95.5182 45.1834 96.3876 46.209 96.3525C45.7137 95.8367 43.2118 94.2127 40.8559 92.8084C40.8307 92.7927 40.8101 92.7706 40.7961 92.7443C40.7822 92.718 40.7754 92.6885 40.7765 92.6587L41.3766 78.4631C41.377 78.4414 41.3817 78.4201 41.3904 78.4004C41.3992 78.3806 41.4117 78.3628 41.4274 78.348C41.4431 78.3332 41.4615 78.3216 41.4817 78.314C41.5019 78.3065 41.5234 78.303 41.5449 78.3038C41.5666 78.3047 41.5879 78.3098 41.6076 78.3188C41.6273 78.3279 41.6451 78.3408 41.6598 78.3568C41.6746 78.3728 41.686 78.3915 41.6935 78.4119C41.7011 78.4323 41.7045 78.454 41.7036 78.4758L41.1067 92.5759C42.7927 93.5822 46.5042 95.8526 46.609 96.3971C46.6171 96.4265 46.6181 96.4574 46.612 96.4873C46.606 96.5171 46.593 96.5452 46.5741 96.5691C46.5339 96.6285 46.3656 96.6582 46.0693 96.6582Z" fill="#231F20"/>
<path d="M42.9228 93.1523L41.0559 94.8432L35.6965 94.0949V96.2284C35.6965 96.2284 47.5298 97.7951 48.079 96.8112C48.6283 95.8272 42.9228 93.1523 42.9228 93.1523Z" fill="#231F20"/>
<path d="M37.6777 81.4912L37.0808 95.6901C37.0808 95.6901 42.8435 99.1291 42.5831 99.4858C42.3228 99.8424 32.2294 98.0655 32.2294 98.0655L32.9089 81.6663" fill="white"/>
<path d="M42.2085 99.6703C40.9924 99.6703 37.6396 99.1862 32.2008 98.2278C32.1616 98.2209 32.1262 98.2 32.1011 98.169C32.076 98.138 32.063 98.0989 32.0643 98.059L32.7438 81.6598C32.747 81.6164 32.7665 81.5759 32.7983 81.5464C32.8301 81.5168 32.8719 81.5005 32.9152 81.5006C32.9369 81.5014 32.9582 81.5065 32.9779 81.5156C32.9977 81.5247 33.0154 81.5376 33.0301 81.5535C33.0449 81.5695 33.0563 81.5882 33.0639 81.6087C33.0714 81.6291 33.0748 81.6508 33.074 81.6725L32.3977 97.9125C35.8902 98.5271 41.3195 99.3964 42.3482 99.3582C41.8529 98.8424 39.3541 97.2215 36.9951 95.8141C36.9699 95.7984 36.9493 95.7762 36.9353 95.75C36.9214 95.7237 36.9146 95.6942 36.9157 95.6644L37.5158 81.4687C37.5257 81.4341 37.5465 81.4037 37.5751 81.382C37.6038 81.3604 37.6387 81.3486 37.6746 81.3486C37.7104 81.3486 37.7453 81.3604 37.774 81.382C37.8026 81.4037 37.8234 81.4341 37.8333 81.4687L37.2364 95.5689C38.9223 96.5751 42.6339 98.8455 42.7418 99.3901C42.7484 99.4201 42.7487 99.4511 42.7426 99.4813C42.7366 99.5114 42.7245 99.54 42.7069 99.5652C42.672 99.6416 42.5037 99.6703 42.2085 99.6703Z" fill="#231F20"/>
<path d="M39.0144 96.1387L37.1856 97.8709L31.8103 97.2341L31.8484 99.3644C31.8484 99.3644 43.7134 100.664 44.2309 99.6669C44.7484 98.6702 39.0144 96.1387 39.0144 96.1387Z" fill="#231F20"/>
<path d="M44.323 55.5768C44.7866 58.742 42.418 90.0534 42.418 90.0534C38.9973 90.4007 35.5478 90.3429 32.1405 89.8814C29.4227 84.2229 26.5462 66.5213 27.3463 62.3976C28.1464 58.2739 30.0863 53.9814 30.0863 53.9814C30.0863 53.9814 44.3389 55.6914 44.323 55.5768Z" fill="#231F20"/>
<path d="M44.3516 57.1886C44.3516 57.1886 45.92 40.3849 45.1517 39.1239C42.5704 34.8984 29.1655 35.0321 28.0257 39.038C27.1272 42.1904 28.7083 55.1856 28.7083 55.1856L44.3516 57.1886Z" fill="#04D68F"/>
<path d="M36.0172 53.9817C36.0172 53.9817 45.5422 56.0451 49.0347 55.4146L49.892 50.9566C49.892 50.9566 38.8176 49.4122 37.9603 48.839C37.1031 48.2658 37.0459 42.4258 37.0459 42.4258C37.0459 42.4258 34.363 42.999 33.6804 44.4319C32.9978 45.8648 32.3628 52.4468 36.0172 53.9817Z" fill="#04D68F"/>
<path d="M34.7599 37.4807C34.525 37.6176 40.3257 47.352 40.3257 47.352L38.4493 37.28C38.4493 37.28 36.9856 36.2069 34.7599 37.4807Z" fill="white"/>
<path d="M46.4344 55.9502C46.2788 55.9502 30.8769 54.8007 30.6102 45.2286C30.6093 45.207 30.6128 45.1855 30.6204 45.1653C30.6279 45.145 30.6394 45.1265 30.6542 45.1108C30.669 45.0951 30.6867 45.0825 30.7065 45.0737C30.7262 45.065 30.7474 45.0603 30.7689 45.0599C30.7906 45.0586 30.8122 45.0617 30.8326 45.0691C30.853 45.0765 30.8716 45.0881 30.8874 45.103C30.9032 45.1179 30.9157 45.1359 30.9243 45.1559C30.9329 45.1758 30.9373 45.1973 30.9372 45.2191C31.188 54.495 46.3042 55.6127 46.4566 55.6222C46.4911 55.6321 46.5215 55.653 46.5431 55.6817C46.5647 55.7104 46.5764 55.7455 46.5764 55.7814C46.5764 55.8174 46.5647 55.8524 46.5431 55.8812C46.5215 55.9099 46.4911 55.9308 46.4566 55.9406L46.4344 55.9502Z" fill="#231F20"/>
<path d="M34.7599 37.4808C34.5821 35.3345 34.4424 33.4462 34.2773 31.3C34.2233 30.5071 34.1376 29.7078 34.1154 28.915C34.0836 27.7654 34.5821 28.0329 35.7029 28.0233C35.7833 27.2846 35.8955 26.5522 36.0394 25.8262L36.5887 27.6444C38.3 27.1604 41.856 27.6444 41.856 27.6444C41.856 27.6444 42.2148 31.1026 41.7608 32.7393C41.1067 35.1021 38.046 34.583 38.046 34.583L38.4429 37.2801C38.4429 37.2801 38.5572 38.1654 37.4904 38.4679C35.9537 38.9041 34.7599 37.4808 34.7599 37.4808Z" fill="white"/>
<path d="M36.8935 38.7163C36.2572 38.6987 35.6435 38.4753 35.1441 38.0795C35.1441 38.0795 34.6266 37.6846 34.598 37.519C34.4265 35.462 34.2805 33.5195 34.1154 31.3351C34.0963 31.0835 34.0773 30.8288 34.0551 30.574C34.0106 30.0391 33.9662 29.4882 33.9503 28.9437C33.9503 28.4883 34.0043 28.224 34.1725 28.0584C34.3916 27.8419 34.7186 27.8546 35.1727 27.8737C35.2933 27.8737 35.4203 27.8737 35.5632 27.8737C35.6426 27.1827 35.7505 26.4886 35.8807 25.8103C35.886 25.773 35.9041 25.7387 35.9319 25.7133C35.9596 25.6879 35.9954 25.673 36.0329 25.6711C36.0704 25.6692 36.1074 25.6805 36.1376 25.703C36.1678 25.7255 36.1892 25.7578 36.1982 25.7944L36.6998 27.4598C38.4683 27.0394 41.7354 27.4598 41.8751 27.4789C41.9118 27.4837 41.9459 27.5007 41.9718 27.5273C41.9977 27.5539 42.014 27.5884 42.018 27.6254C42.018 27.7687 42.3767 31.1281 41.9164 32.7871C41.3385 34.8792 38.9763 34.841 38.2397 34.7741L38.6048 37.2579C38.6048 37.2579 38.7255 38.2928 37.538 38.6272C37.3283 38.6863 37.1114 38.7163 36.8935 38.7163ZM34.925 37.4235C35.1219 37.6368 36.1728 38.6749 37.465 38.3087C38.3731 38.0508 38.3 37.328 38.2969 37.2993L37.8905 34.6149C37.8868 34.5895 37.8891 34.5635 37.8974 34.5391C37.9057 34.5148 37.9196 34.4927 37.9381 34.4748C37.9564 34.4562 37.979 34.4424 38.004 34.4346C38.0289 34.4268 38.0553 34.4253 38.081 34.4302C38.1984 34.4493 41.002 34.8951 41.6084 32.7043C41.9989 31.2905 41.7703 28.4374 41.71 27.7973C41.0591 27.7209 38.1159 27.4056 36.63 27.8228C36.6098 27.8291 36.5885 27.8313 36.5674 27.8293C36.5463 27.8273 36.5259 27.821 36.5072 27.8109C36.4886 27.8009 36.4721 27.7871 36.4589 27.7706C36.4456 27.754 36.4358 27.735 36.43 27.7145L36.0744 26.5395C35.9886 27.0458 35.9156 27.5553 35.8616 28.0616C35.857 28.1016 35.838 28.1385 35.8082 28.1655C35.7784 28.1924 35.7398 28.2076 35.6997 28.2081C35.4997 28.2081 35.3155 28.2081 35.1504 28.2081C34.779 28.2081 34.5154 28.1826 34.3916 28.2973C34.2775 28.4885 34.2337 28.7138 34.2678 28.9341C34.2837 29.4691 34.3281 30.0168 34.3726 30.5454C34.3916 30.8033 34.4138 31.0581 34.4329 31.3128C34.6075 33.4622 34.7504 35.3887 34.925 37.4235Z" fill="#231F20"/>
<path d="M38.0524 34.5834C38.0524 34.5834 36.7824 34.4242 36.1632 33.7969C36.1632 33.7969 36.9983 35.889 38.2841 36.2042L38.0524 34.5834Z" fill="#231F20"/>
<path d="M38.2841 36.4206C38.2674 36.4237 38.2501 36.4237 38.2333 36.4206C36.8522 36.0863 36.0108 33.9751 35.96 33.8732C35.9432 33.8267 35.9424 33.776 35.9578 33.729C35.9732 33.6821 36.004 33.6418 36.0451 33.6145C36.0862 33.5873 36.1353 33.5747 36.1843 33.5789C36.2334 33.5831 36.2797 33.6037 36.3156 33.6375C36.884 34.2075 38.0682 34.3604 38.0809 34.3635C38.1281 34.3694 38.172 34.3906 38.2058 34.424C38.2397 34.4574 38.2616 34.5011 38.2683 34.5482L38.5 36.169C38.5046 36.2 38.5025 36.2316 38.4937 36.2617C38.4849 36.2918 38.4698 36.3196 38.4492 36.3432C38.4287 36.3668 38.4033 36.3857 38.3748 36.3985C38.3463 36.4113 38.3154 36.4178 38.2841 36.4174V36.4206ZM36.7157 34.424C37.0147 35.0128 37.4639 35.5116 38.0174 35.8697L37.8587 34.7743C37.4652 34.7033 37.0815 34.5858 36.7157 34.424Z" fill="#231F20"/>
<path d="M34.7662 30.4433C34.7117 30.1715 34.5832 29.9202 34.3948 29.7173C34.2065 29.5144 33.9658 29.3678 33.6994 29.2937C33.5806 29.2547 33.4548 29.2416 33.3305 29.2553C33.2062 29.269 33.0862 29.3093 32.9787 29.3734C32.8531 29.4815 32.7578 29.6206 32.7021 29.7769C32.6464 29.9333 32.6323 30.1015 32.6612 30.265C32.6977 30.7889 32.9329 31.2789 33.3185 31.6343C33.7042 31.9896 34.2109 32.1833 34.7345 32.1756" fill="white"/>
<path d="M34.6964 32.3408C34.1345 32.3424 33.5928 32.1304 33.1804 31.7475C32.7681 31.3647 32.5156 30.8394 32.4739 30.2774C32.4441 30.0839 32.4653 29.8859 32.5355 29.7033C32.6057 29.5206 32.7224 29.3595 32.8739 29.2361C33.0022 29.1595 33.1451 29.1109 33.2933 29.0933C33.4416 29.0757 33.5918 29.0897 33.7344 29.1342C34.0296 29.2165 34.2964 29.379 34.5053 29.6038C34.7143 29.8286 34.8573 30.1068 34.9186 30.4079C34.9237 30.4489 34.913 30.4902 34.8888 30.5236C34.8646 30.5569 34.8286 30.5798 34.7882 30.5875C34.7477 30.5952 34.7059 30.5871 34.6712 30.565C34.6364 30.5429 34.6114 30.5084 34.6011 30.4684C34.5491 30.2281 34.433 30.0063 34.2653 29.8269C34.0976 29.6475 33.8845 29.517 33.6486 29.4494C33.5523 29.4163 33.4501 29.4042 33.3487 29.4141C33.2474 29.424 33.1494 29.4556 33.0613 29.5068C32.9617 29.6011 32.8861 29.7179 32.8408 29.8476C32.7955 29.9772 32.7818 30.1159 32.8009 30.2519C32.8357 30.7328 33.0522 31.1822 33.4063 31.5083C33.7604 31.8344 34.2252 32.0126 34.7059 32.0064C34.7305 31.9994 34.7563 31.9982 34.7815 32.0029C34.8066 32.0076 34.8303 32.018 34.8507 32.0335C34.8711 32.0489 34.8876 32.0689 34.899 32.0918C34.9104 32.1148 34.9164 32.14 34.9164 32.1657C34.9164 32.1913 34.9104 32.2166 34.899 32.2395C34.8876 32.2624 34.8711 32.2824 34.8507 32.2979C34.8303 32.3133 34.8066 32.3238 34.7815 32.3284C34.7563 32.3331 34.7305 32.3319 34.7059 32.3249L34.6964 32.3408Z" fill="#231F20"/>
<path d="M41.3936 28.4305C41.4043 28.2144 41.3193 28.0346 41.2037 28.0289C41.0881 28.0231 40.9857 28.1935 40.975 28.4096C40.9643 28.6256 41.0493 28.8055 41.1649 28.8112C41.2804 28.817 41.3828 28.6465 41.3936 28.4305Z" fill="#231F20"/>
<path d="M39.4621 28.699C39.4728 28.483 39.3878 28.3032 39.2722 28.2974C39.1566 28.2916 39.0543 28.4621 39.0435 28.6782C39.0328 28.8942 39.1178 29.074 39.2334 29.0798C39.349 29.0856 39.4514 28.9151 39.4621 28.699Z" fill="#231F20"/>
<path d="M41.2179 32.5677C40.942 32.745 40.6397 32.8772 40.3225 32.9594C39.9002 33.0708 39.3891 33.0676 39.097 32.7428C38.9777 32.5966 38.8891 32.4276 38.8366 32.2461" fill="white"/>
<path d="M39.8431 33.1879C39.6847 33.1964 39.5264 33.171 39.3786 33.1133C39.2308 33.0557 39.0969 32.9671 38.9858 32.8536C38.8539 32.6906 38.7547 32.5035 38.6937 32.3027C38.6786 32.2605 38.6808 32.2139 38.6998 32.1733C38.7189 32.1327 38.7532 32.1014 38.7953 32.0862C38.8374 32.071 38.8838 32.0732 38.9243 32.0923C38.9648 32.1114 38.9961 32.1458 39.0112 32.1881C39.0602 32.3492 39.1376 32.5002 39.2398 32.6339C39.5573 32.9523 40.1288 32.844 40.3003 32.7995C40.5971 32.7207 40.8799 32.5961 41.1385 32.4301C41.1747 32.4064 41.2188 32.3982 41.2611 32.4071C41.3033 32.4161 41.3403 32.4415 41.3639 32.4778C41.3875 32.5142 41.3957 32.5584 41.3868 32.6008C41.3779 32.6432 41.3525 32.6803 41.3163 32.7039C41.0301 32.8906 40.716 33.0303 40.386 33.1179C40.2087 33.1644 40.0263 33.1879 39.8431 33.1879Z" fill="#231F20"/>
<path d="M40.7861 29.1504C40.7861 29.1504 42.5513 31.1661 42.1164 31.5991C41.6814 32.0322 40.6622 31.8157 40.6622 31.8157" fill="white"/>
<path d="M41.221 32.0357C41.0228 32.0349 40.8251 32.0157 40.6305 31.9784C40.595 31.9636 40.5657 31.9368 40.5478 31.9027C40.5299 31.8685 40.5244 31.8292 40.5323 31.7915C40.5402 31.7537 40.561 31.7199 40.5911 31.6959C40.6212 31.6719 40.6587 31.6592 40.6971 31.6599C40.9575 31.7141 41.6973 31.7905 42.0021 31.488C42.1703 31.316 41.5322 30.2557 40.6622 29.259C40.6346 29.2256 40.6208 29.1828 40.6237 29.1396C40.6267 29.0963 40.6461 29.0558 40.6781 29.0265C40.6932 29.011 40.7112 28.9987 40.7311 28.9903C40.751 28.9819 40.7724 28.9775 40.794 28.9775C40.8156 28.9775 40.8369 28.9819 40.8568 28.9903C40.8767 28.9987 40.8948 29.011 40.9099 29.0265C41.4718 29.6634 42.7228 31.211 42.2338 31.7013C41.9508 31.9377 41.5887 32.0572 41.221 32.0357Z" fill="#231F20"/>
<path d="M44.2944 50.3678H44.2531C38.9382 48.9795 36.1632 46.1964 34.7694 44.1043C33.8786 42.8261 33.2752 41.3692 33.0009 39.8341C32.9955 39.7915 33.0072 39.7485 33.0334 39.7144C33.0596 39.6804 33.0981 39.6582 33.1406 39.6526C33.184 39.6472 33.2277 39.6593 33.2622 39.6861C33.2967 39.713 33.3192 39.7525 33.3248 39.7959C33.3248 39.8724 34.3789 47.4383 44.3357 50.0494C44.3729 50.0602 44.4051 50.0839 44.4263 50.1164C44.4475 50.1489 44.4565 50.1879 44.4515 50.2264C44.4465 50.2649 44.4279 50.3004 44.3991 50.3263C44.3703 50.3523 44.3331 50.367 44.2944 50.3678Z" fill="#231F20"/>
<path d="M30.8642 34.4751C30.8297 34.4758 30.7961 34.4646 30.7689 34.4433C30.748 34.4284 30.7308 34.4089 30.7186 34.3862C30.7065 34.3636 30.6998 34.3384 30.6991 34.3127L30.6642 29.428C30.6642 27.96 30.6419 26.2946 31.2992 24.8362C31.7024 23.9223 32.5057 22.8237 33.5471 22.4798C33.8142 22.3894 34.0971 22.3554 34.378 22.3801C34.6589 22.4047 34.9316 22.4875 35.179 22.6231C35.5494 22.3307 35.9351 22.0586 36.3347 21.8079C36.8347 21.5568 37.3701 21.3839 37.9222 21.2952C38.9414 21.1233 39.8272 21.3175 40.9353 21.9321C41.5922 22.3321 42.1639 22.8585 42.6172 23.481C43.0706 24.1034 43.3967 24.8097 43.5769 25.559C43.9286 27.0435 43.9286 28.5899 43.5769 30.0744C43.5764 30.0987 43.5706 30.1227 43.5598 30.1445C43.549 30.1663 43.5336 30.1855 43.5146 30.2007C43.4956 30.2159 43.4735 30.2266 43.4499 30.2322C43.4262 30.2379 43.4016 30.2382 43.3779 30.2332C43.3541 30.2282 43.3317 30.218 43.3123 30.2033C43.293 30.1886 43.277 30.1698 43.2657 30.1483C43.2544 30.1267 43.248 30.1029 43.2469 30.0786C43.2458 30.0543 43.25 30.03 43.2594 30.0075C43.5983 28.5721 43.5983 27.0772 43.2594 25.6418C43.0905 24.935 42.7839 24.2687 42.3572 23.6812C41.9306 23.0938 41.3923 22.5967 40.7733 22.2187C39.7383 21.6296 38.9255 21.4576 37.9762 21.6137C37.4602 21.7 36.9603 21.8643 36.4935 22.1009C36.395 22.1518 35.4139 22.8492 35.3092 22.932L35.2869 22.9511C35.2614 22.9659 35.2324 22.9737 35.2028 22.9737C35.1733 22.9737 35.1443 22.9659 35.1187 22.9511C34.9028 22.8192 34.6609 22.7361 34.4098 22.7075C34.1587 22.6789 33.9044 22.7055 33.6645 22.7855C32.712 23.1039 31.9849 24.1133 31.6103 24.9636C30.9944 26.3583 31.0039 27.9855 31.0166 29.4216L31.0483 34.0834C31.3784 33.9944 31.7194 33.9526 32.0612 33.9592C32.0502 33.6278 32.1411 33.301 32.3215 33.0231C32.34 32.9983 32.3648 32.9791 32.3933 32.9673C32.4218 32.9556 32.4529 32.9517 32.4834 32.9562C32.5136 32.9613 32.5417 32.9748 32.5647 32.995C32.5877 33.0152 32.6046 33.0415 32.6136 33.0708C32.6955 33.3447 32.7382 33.6288 32.7406 33.9147L33.4931 33.8669C33.5148 33.8656 33.5365 33.8686 33.557 33.8758C33.5775 33.8829 33.5965 33.8941 33.6127 33.9086C33.6289 33.923 33.6421 33.9406 33.6516 33.9602C33.661 33.9799 33.6665 34.0012 33.6677 34.0229C33.669 34.0443 33.6661 34.0656 33.6591 34.0858C33.6521 34.106 33.6413 34.1247 33.6271 34.1406C33.6129 34.1566 33.5958 34.1696 33.5766 34.1789C33.5574 34.1882 33.5366 34.1937 33.5153 34.1949L32.5819 34.2522C32.559 34.2541 32.5359 34.2508 32.5145 34.2425C32.493 34.2343 32.4737 34.2212 32.458 34.2044C32.4412 34.1886 32.428 34.1693 32.4192 34.1478C32.4105 34.1264 32.4064 34.1034 32.4072 34.0802C32.4122 33.9397 32.4048 33.7991 32.385 33.6599C32.3501 33.8081 32.3437 33.9615 32.366 34.1121C32.369 34.1363 32.3666 34.1609 32.359 34.184C32.3513 34.2072 32.3385 34.2283 32.3215 34.2458C32.3051 34.2646 32.2844 34.279 32.2611 34.2879C32.2379 34.2968 32.2128 34.2998 32.1881 34.2968C31.7583 34.2659 31.3265 34.3211 30.9182 34.4592C30.9012 34.4676 30.883 34.473 30.8642 34.4751Z" fill="#231F20"/>
<path d="M44.4659 48.7375C44.4224 48.7359 44.3812 48.7174 44.351 48.6859C44.3208 48.6544 44.3039 48.6125 44.304 48.5688C44.304 48.5146 44.3833 42.8975 43.7102 40.4583C43.7011 40.417 43.7081 40.3737 43.7298 40.3373C43.7515 40.301 43.7862 40.2744 43.8269 40.263C43.8676 40.2515 43.911 40.2562 43.9484 40.2759C43.9858 40.2957 44.0141 40.3291 44.0277 40.3692C44.7104 42.8561 44.6373 48.3299 44.631 48.5751C44.631 48.5967 44.6267 48.6181 44.6184 48.638C44.61 48.6579 44.5978 48.676 44.5824 48.6911C44.5671 48.7062 44.5488 48.7181 44.5288 48.7261C44.5088 48.7341 44.4874 48.738 44.4659 48.7375Z" fill="#231F20"/>
<path d="M42.2974 98.1131C42.2551 98.1129 42.2144 98.097 42.1831 98.0685C41.8243 97.7055 39.7256 96.6547 38.9446 96.2821C38.9072 96.263 38.8787 96.23 38.8651 96.1902C38.8515 96.1504 38.8538 96.1069 38.8715 96.0688C38.89 96.0315 38.9223 96.003 38.9614 95.9893C39.0006 95.9756 39.0435 95.9779 39.0811 95.9955C39.1986 96.0529 41.9386 97.3712 42.4085 97.8424C42.4378 97.8727 42.4541 97.9133 42.4541 97.9555C42.4541 97.9977 42.4378 98.0382 42.4085 98.0685C42.378 98.0963 42.3385 98.1121 42.2974 98.1131Z" fill="white"/>
<path d="M29.3942 61.701C29.3733 61.705 29.3519 61.7048 29.3311 61.7005C29.3103 61.6962 29.2906 61.6878 29.2731 61.6758C29.2555 61.6638 29.2405 61.6485 29.2289 61.6307C29.2172 61.6129 29.2092 61.593 29.2052 61.5721C29.2013 61.5512 29.2015 61.5297 29.2058 61.5089C29.2101 61.488 29.2185 61.4682 29.2304 61.4506C29.2423 61.433 29.2576 61.418 29.2754 61.4063C29.2931 61.3946 29.313 61.3866 29.3338 61.3826C31.2928 60.5611 31.9754 58.0773 31.9818 58.0518C31.9872 58.0309 31.9967 58.0113 32.0097 57.994C32.0226 57.9768 32.0389 57.9623 32.0575 57.9514C32.076 57.9404 32.0966 57.9333 32.1179 57.9303C32.1392 57.9273 32.1609 57.9286 32.1818 57.934C32.2026 57.9394 32.2222 57.9489 32.2394 57.962C32.2566 57.975 32.2711 57.9913 32.282 58.0099C32.2929 58.0285 32.3 58.0491 32.303 58.0705C32.306 58.0919 32.3047 58.1137 32.2993 58.1346C32.2707 58.2429 31.5722 60.7967 29.4672 61.6756C29.4447 61.6886 29.4199 61.6972 29.3942 61.701Z" fill="white"/>
</svg>
